<?xml version="1.0" encoding="UTF-8"?>
<svg xmlns="http://www.w3.org/2000/svg" xmlns:xlink="http://www.w3.org/1999/xlink" viewBox="0 0 1001 231.24">
  <defs>
    <linearGradient id="uuid-82f71ca4-c793-4aa6-8e18-430f607c7f38" data-name="New Gradient Swatch" x1="801.2" y1="115.62" x2="993.93" y2="115.62" gradientTransform="translate(0)" gradientUnits="userSpaceOnUse">
      <stop offset="0" stop-color="#d18131"/>
      <stop offset="1" stop-color="#f2cc61"/>
    </linearGradient>
    <linearGradient id="uuid-2a564ed9-1b42-43a9-a78f-108ce62e4ca4" data-name="New Gradient Swatch" x1="0" y1="115.62" x2="803.86" y2="115.62" gradientTransform="matrix(1, 0, 0, 1, 0, 0)" xlink:href="#uuid-82f71ca4-c793-4aa6-8e18-430f607c7f38"/>
    <linearGradient id="uuid-bc6b75f9-565d-4c40-90ba-9786976c5b94" x1="1" y1="115.62" x2="802.86" y2="115.62" gradientTransform="translate(0)" gradientUnits="userSpaceOnUse">
      <stop offset="0" stop-color="#d1d3d4"/>
      <stop offset=".62" stop-color="#ededee" stop-opacity=".51"/>
      <stop offset="1" stop-color="#fff" stop-opacity=".2"/>
    </linearGradient>
  </defs>
  <g isolation="isolate">
    <g id="uuid-80f17191-f0e0-4050-ab75-72ccac86c98e" data-name="Layer 1">
      <g>
        <path d="m925.86,189.91c-6.73,6.09-19.66,11.07-28.73,11.07h-139.55c-9.07,0-14.54-7.16-12.16-15.92l37.88-138.88c2.39-8.75,11.76-15.92,20.84-15.92h139.55c9.07,0,20,6.55,24.28,14.55l30.78,57.57c4.28,8,2.27,19.53-4.45,25.61l-68.43,61.91Z" fill="url(#uuid-82f71ca4-c793-4aa6-8e18-430f607c7f38)"/>
        <g>
          <path d="m763.86,186.47c-6.38,24.07-31.97,43.77-56.87,43.77H36.14c-24.9,0-40.06-19.7-33.68-43.77L40,44.77C46.37,20.7,71.97,1,96.87,1h670.85c24.9,0,40.06,19.7,33.68,43.77l-9.45,35.67c-6.38,24.07-16.81,63.46-23.19,87.53l-4.9,18.5Z" fill="#fff" stroke="url(#uuid-2a564ed9-1b42-43a9-a78f-108ce62e4ca4)" stroke-miterlimit="10" stroke-width="2"/>
          <path d="m767.72,1H96.87c-24.9,0-50.49,19.7-56.87,43.77L2.46,186.47c-6.38,24.07,8.78,43.77,33.68,43.77h670.85c24.9,0,50.49-19.7,56.87-43.77l4.9-18.5c6.38-24.07,16.81-63.46,23.19-87.53l9.45-35.67c6.38-24.07-8.78-43.77-33.68-43.77Zm27.64,47.35l-10.28,37.7c-6.36,23.32-16.77,61.49-23.13,84.81l-3.28,12.02c-6.36,23.32-31.34,42.4-55.52,42.4H40.89c-24.18,0-38.75-19.08-32.39-42.4L45.19,48.35c6.36-23.32,31.35-42.4,55.52-42.4h662.26c24.18,0,38.75,19.08,32.39,42.4Z" fill="url(#uuid-bc6b75f9-565d-4c40-90ba-9786976c5b94)" mix-blend-mode="soft-light"/>
        </g>
      </g>
      <g>
        <path d="m860.05,124.19v3.09h-21.27v-3.09h14.94c-.11-3.17-1.05-5.55-2.82-7.13-1.77-1.58-3.97-2.37-6.59-2.37-1.35,0-2.72.18-4.12.53v-2.91c1.63-.49,3.23-.72,4.79-.71,3.23,0,5.94,1.05,8.13,3.15,2.2,2.1,3.53,5.24,3.99,9.44h2.95Z" fill="#fff"/>
        <path d="m873.72,110.86c2.94,0,5.7,1.16,8.28,3.49,2.58,2.33,4.06,5.37,4.45,9.13.11,1.34.16,2.61.16,3.79h-27.09v-3.09h23.66c-.35-3.33-1.5-5.87-3.44-7.62-1.94-1.75-3.98-2.62-6.13-2.62s-4.1.54-5.88,1.63l-2.07-2.48c2.43-1.49,5.11-2.24,8.05-2.24Z" fill="#fff"/>
        <path d="m909.07,127.27h-17.09v-3.09h13.72v-18.61h3.38v21.7Zm-10.77-5.53h-3.38v-16.17h3.38v16.17Z" fill="#fff"/>
        <path d="m917.93,127.27h-3.38v-21.7h3.38v21.7Z" fill="#fff"/>
      </g>
      <g>
        <path d="m452.58,92.27h-2.76v-17.71h2.76v17.71Z" fill="#666"/>
        <path d="m464.85,89.75v2.52h-3.17c-1.1,2.64-2.59,4.86-4.47,6.64l-2.41-1.64c2.55-2.77,4.09-5.67,4.64-8.7s.1-5.95-1.35-8.78h3.23c1.42,3.39,1.76,6.71,1.02,9.96h2.5Z" fill="#666"/>
        <path d="m493.58,89.75v2.52h-29.19v-2.52h4.71c.2-2.63,1.17-4.93,2.91-6.88,1.74-1.95,3.98-3.06,6.73-3.32v-3.77h2.76v3.77c2.79.15,5.07,1.21,6.83,3.18,1.76,1.97,2.75,4.3,2.96,7.02h2.3Zm-14.84,0v-7.68c-1.95.35-3.6,1.27-4.93,2.76-1.33,1.49-1.9,3.13-1.69,4.91h6.62Zm2.76,0h6.71c.17-1.81-.41-3.48-1.76-5.02-1.35-1.54-3-2.45-4.95-2.73v7.75Z" fill="#666"/>
        <path d="m508.6,79.44c2.07,0,3.89.39,5.47,1.16,1.58.76,2.78,1.78,3.6,3.06,1.66,2.57,2.31,5.45,1.95,8.62h-26.53v-2.52h4.75v-15.2h2.76v8.28c1.9-2.27,4.56-3.4,8-3.4Zm5.88,4.89c-1.66-1.58-3.61-2.37-5.86-2.37s-4.17.79-5.77,2.37-2.29,3.39-2.07,5.42h15.88c.2-2.03-.53-3.84-2.18-5.42Zm-7.14-8.85c.31-.28.68-.42,1.11-.42s.79.14,1.09.42c.29.28.44.62.44,1.01s-.15.72-.44.99c-.29.27-.66.4-1.09.4s-.8-.13-1.11-.4c-.31-.27-.46-.6-.46-.99s.15-.73.46-1.01Z" fill="#666"/>
        <path d="m536.23,74.56c1.8,0,3.31.53,4.54,1.6,1.22,1.07,1.82,2.3,1.81,3.71,0,1.41-.36,2.56-1.08,3.46s-1.83,1.87-3.36,2.91l-5.48,3.79v.04h9.83v2.21h-10.7c-1.73,0-2.59-.61-2.59-1.83.01-.46.17-.83.46-1.11.29-.29.72-.62,1.28-1.02l6.79-4.8c1.39-.99,2.09-2.13,2.09-3.43,0-.96-.36-1.76-1.07-2.4-.74-.61-1.69-.92-2.85-.92-1.16-.01-2.09.32-2.79.99-.7.68-1.04,1.51-1.04,2.52s.38,1.8,1.15,2.4c.68.61,1.52.96,2.5,1.05l-2.26,1.6c-2.64-.86-3.96-2.6-3.98-5.22.01-1.63.69-2.96,2.03-4.01,1.34-1.04,2.91-1.56,4.71-1.54Z" fill="#666"/>
        <path d="m547.47,82.31c.43,0,.79.14,1.1.43.3.29.46.64.46,1.05s-.16.77-.48,1.05c-.32.29-.68.43-1.1.43s-.77-.15-1.08-.45c-.3-.3-.46-.66-.46-1.07s.15-.75.46-1.02c.3-.29.67-.43,1.1-.43Zm-1.55,8.63c0-.4.15-.75.46-1.04.3-.29.67-.43,1.1-.43.43.01.79.16,1.1.45.3.29.46.64.46,1.05s-.16.76-.48,1.04-.68.41-1.1.41-.77-.14-1.08-.43c-.3-.29-.46-.64-.46-1.05Z" fill="#666"/>
        <path d="m552.32,80.98c0-1.98.67-3.55,2.02-4.71,1.26-1.15,2.82-1.72,4.68-1.72s3.44.59,4.76,1.76,1.98,2.73,2,4.67v5.18c0,1.89-.67,3.46-2,4.71-1.29,1.12-2.88,1.68-4.76,1.68s-3.47-.59-4.76-1.76c-1.29-1.17-1.93-2.71-1.93-4.63v-5.18Zm10.7.14c.01-1.3-.33-2.29-1.02-2.99-.7-.7-1.68-1.05-2.96-1.05s-2.26.35-2.94,1.05c-.68.7-1.02,1.7-1.02,2.99v5.15c0,1.3.34,2.29,1.02,2.99.68.71,1.66,1.07,2.94,1.07s2.26-.35,2.94-1.05c.68-.7,1.03-1.7,1.04-3.01v-5.15Z" fill="#666"/>
        <path d="m567.69,80.98c0-1.98.67-3.55,2.02-4.71,1.26-1.15,2.82-1.72,4.68-1.72s3.44.59,4.76,1.76,1.98,2.73,2,4.67v5.18c0,1.89-.67,3.46-2,4.71-1.29,1.12-2.88,1.68-4.76,1.68s-3.47-.59-4.76-1.76c-1.29-1.17-1.93-2.71-1.93-4.63v-5.18Zm10.7.14c.01-1.3-.33-2.29-1.02-2.99-.7-.7-1.68-1.05-2.96-1.05s-2.26.35-2.94,1.05c-.68.7-1.02,1.7-1.02,2.99v5.15c0,1.3.34,2.29,1.02,2.99.68.71,1.66,1.07,2.94,1.07s2.26-.35,2.94-1.05c.68-.7,1.03-1.7,1.04-3.01v-5.15Z" fill="#666"/>
        <path d="m601.8,87.31h-6.16v-2.07h6.16v2.07Z" fill="#666"/>
        <path d="m620.29,89.75h2.8v2.52h-5.56v-17.71h2.76v15.2Z" fill="#666"/>
        <path d="m634.25,78.87c2.4,0,4.66.95,6.76,2.85,2.11,1.9,3.32,4.38,3.64,7.45.09,1.1.13,2.13.13,3.1h-22.11v-2.52h19.31c-.29-2.72-1.23-4.79-2.81-6.22-1.58-1.43-3.25-2.14-5-2.14s-3.35.44-4.8,1.33l-1.69-2.02c1.98-1.22,4.17-1.83,6.58-1.83Z" fill="#666"/>
        <path d="m651.96,89.75h2.8v2.52h-5.56v-17.71h2.76v15.2Z" fill="#666"/>
        <path d="m663.11,89.75h2.5v2.52h-10.94v-2.52h5.34v-9.96h3.1v9.96Zm-2.72,4.93c.34-.28.75-.42,1.24-.42s.9.14,1.23.42c.33.28.5.62.5,1.01s-.17.72-.5.99c-.33.27-.74.4-1.23.4s-.9-.13-1.24-.4c-.34-.27-.51-.6-.51-.99s.17-.73.51-1.01Z" fill="#666"/>
        <path d="m676.72,80.57c1.37-.78,3.15-1.17,5.32-1.17s4.04.44,5.62,1.33,2.73,2.01,3.45,3.37c1.45,2.71,2,5.44,1.67,8.17h-27.62v-2.52h4.75v-9.8h2.76v4.2c1.33-1.6,2.68-2.79,4.06-3.57Zm10.93,3.72c-1.64-1.58-3.58-2.37-5.82-2.37s-4.16.8-5.77,2.39c-1.61,1.6-2.32,3.41-2.12,5.44h15.86c.2-2.06-.52-3.88-2.16-5.46Z" fill="#666"/>
        <path d="m712.39,74.87c1.98,0,2.97.6,2.97,1.79,0,.48-.17,1.06-.5,1.72-.36.58-.75,1.34-1.15,2.28l-5.73,11.61h-3.06l7.59-15.2h-9.87v-2.21h9.74Z" fill="#666"/>
        <path d="m720.59,82.31c.43,0,.79.14,1.1.43.3.29.46.64.46,1.05s-.16.77-.48,1.05c-.32.29-.68.43-1.1.43s-.77-.15-1.08-.45c-.3-.3-.46-.66-.46-1.07s.15-.75.46-1.02c.3-.29.67-.43,1.1-.43Zm-1.55,8.63c0-.4.15-.75.46-1.04.3-.29.67-.43,1.1-.43.43.01.79.16,1.1.45.3.29.46.64.46,1.05s-.16.76-.48,1.04-.68.41-1.1.41-.77-.14-1.08-.43c-.3-.29-.46-.64-.46-1.05Z" fill="#666"/>
        <path d="m725.44,80.98c0-1.98.67-3.55,2.02-4.71,1.26-1.15,2.82-1.72,4.68-1.72s3.44.59,4.76,1.76,1.98,2.73,2,4.67v5.18c0,1.89-.67,3.46-2,4.71-1.29,1.12-2.88,1.68-4.76,1.68s-3.47-.59-4.76-1.76c-1.29-1.17-1.93-2.71-1.93-4.63v-5.18Zm10.7.14c.01-1.3-.33-2.29-1.02-2.99-.7-.7-1.68-1.05-2.96-1.05s-2.26.35-2.94,1.05c-.68.7-1.02,1.7-1.02,2.99v5.15c0,1.3.34,2.29,1.02,2.99.68.71,1.66,1.07,2.94,1.07s2.26-.35,2.94-1.05c.68-.7,1.03-1.7,1.04-3.01v-5.15Z" fill="#666"/>
        <path d="m740.8,80.98c0-1.98.67-3.55,2.02-4.71,1.26-1.15,2.82-1.72,4.68-1.72s3.44.59,4.76,1.76,1.98,2.73,2,4.67v5.18c0,1.89-.67,3.46-2,4.71-1.29,1.12-2.88,1.68-4.76,1.68s-3.47-.59-4.76-1.76c-1.29-1.17-1.93-2.71-1.93-4.63v-5.18Zm10.7.14c.01-1.3-.33-2.29-1.02-2.99-.7-.7-1.68-1.05-2.96-1.05s-2.26.35-2.94,1.05c-.68.7-1.02,1.7-1.02,2.99v5.15c0,1.3.34,2.29,1.02,2.99.68.71,1.66,1.07,2.94,1.07s2.26-.35,2.94-1.05c.68-.7,1.03-1.7,1.04-3.01v-5.15Z" fill="#666"/>
        <path d="m589.16,161.24c0,2.16-.84,4.01-2.53,5.56s-3.73,2.31-6.14,2.31-4.45-.75-6.14-2.26c-1.69-1.5-2.53-3.35-2.53-5.54,0-1.45.4-2.79,1.21-4.04s1.89-2.25,3.27-3.01l1.48,2.36c-1.07.72-1.87,1.41-2.4,2.08-.53.67-.79,1.62-.79,2.84s.59,2.37,1.77,3.44c1.18,1.07,2.55,1.6,4.12,1.6s2.95-.53,4.14-1.58,1.79-2.29,1.79-3.69v-16.95h2.76v16.88Z" fill="#666"/>
        <path d="m596.48,159.75h2.8v2.52h-5.56v-17.71h2.76v15.2Z" fill="#666"/>
        <path d="m610.43,148.87c2.4,0,4.66.95,6.76,2.85,2.11,1.9,3.32,4.38,3.64,7.45.09,1.1.13,2.13.13,3.1h-22.11v-2.52h19.31c-.29-2.72-1.23-4.79-2.81-6.22-1.58-1.43-3.25-2.14-5-2.14s-3.35.44-4.8,1.33l-1.69-2.02c1.98-1.22,4.17-1.83,6.58-1.83Zm-.51,17.37c.31-.28.68-.42,1.12-.42s.8.14,1.09.42c.29.28.43.62.43,1.01s-.15.72-.45.99c-.3.27-.66.4-1.08.4s-.8-.13-1.11-.4c-.31-.27-.47-.6-.47-.99s.16-.73.47-1.01Z" fill="#666"/>
        <path d="m631.15,156.51c0,4.88-1.86,9.02-5.58,12.4l-2.41-1.64c3.25-3.57,4.88-7.25,4.88-11.04,0-2.19-.53-4.34-1.58-6.45h3.31c.92,2.21,1.38,4.45,1.38,6.72Z" fill="#666"/>
      </g>
      <g>
        <path d="m71.15,92.27h-2.76v-17.71h2.76v17.71Z" fill="#666"/>
        <path d="m78.16,87.03c0-1.06.47-1.99,1.4-2.81s2.15-1.22,3.65-1.22,2.9.53,4.2,1.58l-1.82,2.16c-.62-.81-1.49-1.22-2.6-1.22-1.33,0-2.02.67-2.06,2.01.03,1.32,1.11,2.06,3.23,2.23h3.26v2.52h-11.96v-2.52h3.6c-.59-.76-.89-1.67-.89-2.73Z" fill="#666"/>
        <path d="m94.72,89.75h2.8v2.52h-5.56v-17.71h2.76v15.2Z" fill="#666"/>
        <path d="m121.93,89.75h2.34v2.52h-1.91c-.56,0-1.27-.34-2.12-1.04-1.25.7-2.65,1.05-4.21,1.05s-2.97-.48-4.24-1.43c-1.09.94-2.44,1.41-4.07,1.41s-3-.34-4.11-1.04c-.7.69-1.48,1.04-2.32,1.04h-4.21v-2.52h4.75v-9.96h2.76v7.52c0,.74.28,1.37.85,1.89.57.52,1.25.78,2.05.78s1.49-.26,2.07-.78c.58-.52.87-1.15.87-1.89v-7.52h2.76v7.52c0,.69.3,1.31.91,1.86s1.31.82,2.09.82,1.48-.26,2.08-.78c.6-.52.9-1.15.9-1.89v-7.52h2.76v9.96Z" fill="#666"/>
        <path d="m130.79,81.56c1.38-1.28,3-1.92,4.87-1.92s3.5.63,4.88,1.89c1.38,1.26,2.07,2.75,2.07,4.46s-.68,3.19-2.04,4.42c-1.36,1.24-2.96,1.86-4.8,1.86h-11.83v-2.52h6.16c-.94-1.2-1.41-2.55-1.4-4.04,0-1.49.7-2.88,2.07-4.16Zm7.78,1.75c-.86-.77-1.87-1.15-3.01-1.15s-2.11.39-2.89,1.16c-.78.77-1.18,1.64-1.18,2.6s.39,1.82,1.18,2.6c.78.77,1.76,1.16,2.94,1.16s2.18-.38,3.01-1.14,1.25-1.63,1.25-2.61-.43-1.85-1.29-2.62Z" fill="#666"/>
        <path d="m153.27,78.61c0-.99.52-1.91,1.55-2.78,1.03-.87,2.36-1.29,3.98-1.28,1.6,0,2.91.39,3.91,1.16,1.05.74,1.57,1.78,1.57,3.13s-.56,2.54-1.68,3.58c2.05.99,3.08,2.53,3.09,4.61,0,1.55-.58,2.83-1.76,3.83-1.23,1.12-2.91,1.68-5.05,1.68s-3.82-.54-5.04-1.61c-1.23-1.07-1.85-2.38-1.85-3.93,0-1.9,1.03-3.43,3.08-4.58-.63-.58-1.08-1.12-1.37-1.62-.29-.48-.43-1.21-.43-2.2Zm8.53,5.98c-.75-.61-1.74-.91-2.96-.91s-2.21.3-2.96.91c-.75.61-1.13,1.41-1.13,2.42s.38,1.81,1.13,2.42c.75.61,1.74.91,2.96.91s2.2-.3,2.94-.91c.74-.61,1.12-1.41,1.13-2.42.01-1.01-.36-1.81-1.11-2.42Zm-1.04-7.14c-.51-.45-1.17-.68-1.98-.68s-1.47.23-1.98.68c-.51.45-.76,1.01-.76,1.67s.25,1.22.76,1.67c.51.45,1.17.68,1.98.68s1.47-.23,1.98-.68c.51-.45.76-1.01.76-1.67s-.25-1.22-.76-1.67Z" fill="#666"/>
        <path d="m170.31,82.31c.43,0,.79.14,1.1.43.3.29.46.64.46,1.05s-.16.77-.48,1.05c-.32.29-.68.43-1.1.43s-.77-.15-1.08-.45c-.3-.3-.46-.66-.46-1.07s.15-.75.46-1.02c.3-.29.67-.43,1.1-.43Zm-1.55,8.63c0-.4.15-.75.46-1.04.3-.29.67-.43,1.1-.43.43.01.79.16,1.1.45.3.29.46.64.46,1.05s-.16.76-.48,1.04-.68.41-1.1.41-.77-.14-1.08-.43c-.3-.29-.46-.64-.46-1.05Z" fill="#666"/>
        <path d="m175.16,80.98c0-1.98.67-3.55,2.02-4.71,1.26-1.15,2.82-1.72,4.68-1.72s3.44.59,4.76,1.76,1.98,2.73,2,4.67v5.18c0,1.89-.67,3.46-2,4.71-1.29,1.12-2.88,1.68-4.76,1.68s-3.47-.59-4.76-1.76c-1.29-1.17-1.93-2.71-1.93-4.63v-5.18Zm10.7.14c.01-1.3-.33-2.29-1.02-2.99-.7-.7-1.68-1.05-2.96-1.05s-2.26.35-2.94,1.05c-.68.7-1.02,1.7-1.02,2.99v5.15c0,1.3.34,2.29,1.02,2.99.68.71,1.66,1.07,2.94,1.07s2.26-.35,2.94-1.05c.68-.7,1.03-1.7,1.04-3.01v-5.15Z" fill="#666"/>
        <path d="m190.53,80.98c0-1.98.67-3.55,2.02-4.71,1.26-1.15,2.82-1.72,4.68-1.72s3.44.59,4.76,1.76,1.98,2.73,2,4.67v5.18c0,1.89-.67,3.46-2,4.71-1.29,1.12-2.88,1.68-4.76,1.68s-3.47-.59-4.76-1.76c-1.29-1.17-1.93-2.71-1.93-4.63v-5.18Zm10.7.14c.01-1.3-.33-2.29-1.02-2.99-.7-.7-1.68-1.05-2.96-1.05s-2.26.35-2.94,1.05c-.68.7-1.02,1.7-1.02,2.99v5.15c0,1.3.34,2.29,1.02,2.99.68.71,1.66,1.07,2.94,1.07s2.26-.35,2.94-1.05c.68-.7,1.03-1.7,1.04-3.01v-5.15Z" fill="#666"/>
        <path d="m224.64,87.31h-6.16v-2.07h6.16v2.07Z" fill="#666"/>
        <path d="m243.13,92.27h-2.76v-17.71h2.76v17.71Z" fill="#666"/>
        <path d="m255.39,89.75v2.52h-3.17c-1.1,2.64-2.59,4.86-4.47,6.64l-2.41-1.64c2.55-2.77,4.09-5.67,4.64-8.7.55-3.03.1-5.95-1.35-8.78h3.23c1.42,3.39,1.76,6.71,1.02,9.96h2.5Z" fill="#666"/>
        <path d="m284.13,89.75v2.52h-29.19v-2.52h4.71c.2-2.63,1.17-4.93,2.91-6.88,1.74-1.95,3.98-3.06,6.73-3.32v-3.77h2.76v3.77c2.79.15,5.07,1.21,6.83,3.18,1.76,1.97,2.75,4.3,2.96,7.02h2.3Zm-14.84,0v-7.68c-1.95.35-3.59,1.27-4.93,2.76-1.33,1.49-1.9,3.13-1.69,4.91h6.62Zm2.76,0h6.71c.17-1.81-.41-3.48-1.76-5.02-1.34-1.54-2.99-2.45-4.95-2.73v7.75Z" fill="#666"/>
        <path d="m299.15,79.44c2.07,0,3.89.39,5.47,1.16,1.58.76,2.78,1.78,3.6,3.06,1.66,2.57,2.31,5.45,1.95,8.62h-26.53v-2.52h4.75v-15.2h2.76v8.28c1.9-2.27,4.56-3.4,8-3.4Zm5.88,4.89c-1.66-1.58-3.61-2.37-5.86-2.37s-4.17.79-5.77,2.37-2.29,3.39-2.07,5.42h15.88c.2-2.03-.53-3.84-2.18-5.42Zm-7.14-8.85c.31-.28.68-.42,1.11-.42s.79.14,1.09.42c.29.28.44.62.44,1.01s-.15.72-.44.99c-.29.27-.66.4-1.09.4s-.8-.13-1.11-.4c-.31-.27-.46-.6-.46-.99s.15-.73.46-1.01Z" fill="#666"/>
        <path d="m326.78,74.56c1.8,0,3.31.53,4.54,1.6,1.22,1.07,1.82,2.3,1.81,3.71,0,1.41-.36,2.56-1.08,3.46s-1.83,1.87-3.36,2.91l-5.48,3.79v.04h9.83v2.21h-10.7c-1.73,0-2.59-.61-2.59-1.83.01-.46.17-.83.46-1.11.29-.29.72-.62,1.28-1.02l6.79-4.8c1.39-.99,2.09-2.13,2.09-3.43,0-.96-.36-1.76-1.07-2.4-.74-.61-1.69-.92-2.85-.92-1.16-.01-2.09.32-2.79.99-.7.68-1.04,1.51-1.04,2.52s.38,1.8,1.15,2.4c.68.61,1.52.96,2.5,1.05l-2.26,1.6c-2.64-.86-3.96-2.6-3.98-5.22.01-1.63.69-2.96,2.03-4.01,1.34-1.04,2.91-1.56,4.71-1.54Z" fill="#666"/>
        <path d="m338.02,82.31c.43,0,.79.14,1.1.43.3.29.46.64.46,1.05s-.16.77-.48,1.05c-.32.29-.68.43-1.1.43s-.77-.15-1.08-.45c-.3-.3-.46-.66-.46-1.07s.15-.75.46-1.02c.3-.29.67-.43,1.1-.43Zm-1.55,8.63c0-.4.15-.75.46-1.04.3-.29.67-.43,1.1-.43.43.01.79.16,1.1.45.3.29.46.64.46,1.05s-.16.76-.48,1.04-.68.41-1.1.41-.77-.14-1.08-.43c-.3-.29-.46-.64-.46-1.05Z" fill="#666"/>
        <path d="m342.87,80.98c0-1.98.67-3.55,2.02-4.71,1.26-1.15,2.82-1.72,4.68-1.72s3.44.59,4.76,1.76,1.98,2.73,2,4.67v5.18c0,1.89-.67,3.46-2,4.71-1.29,1.12-2.88,1.68-4.76,1.68s-3.47-.59-4.76-1.76c-1.29-1.17-1.93-2.71-1.93-4.63v-5.18Zm10.7.14c.01-1.3-.33-2.29-1.02-2.99-.7-.7-1.68-1.05-2.96-1.05s-2.26.35-2.94,1.05c-.68.7-1.02,1.7-1.02,2.99v5.15c0,1.3.34,2.29,1.02,2.99.68.71,1.66,1.07,2.94,1.07s2.26-.35,2.94-1.05c.68-.7,1.03-1.7,1.04-3.01v-5.15Z" fill="#666"/>
        <path d="m358.24,80.98c0-1.98.67-3.55,2.02-4.71,1.26-1.15,2.82-1.72,4.68-1.72s3.44.59,4.76,1.76,1.98,2.73,2,4.67v5.18c0,1.89-.67,3.46-2,4.71-1.29,1.12-2.88,1.68-4.76,1.68s-3.47-.59-4.76-1.76c-1.29-1.17-1.93-2.71-1.93-4.63v-5.18Zm10.7.14c.01-1.3-.33-2.29-1.02-2.99-.7-.7-1.68-1.05-2.96-1.05s-2.26.35-2.94,1.05c-.68.7-1.02,1.7-1.02,2.99v5.15c0,1.3.34,2.29,1.02,2.99.68.71,1.66,1.07,2.94,1.07s2.26-.35,2.94-1.05c.68-.7,1.03-1.7,1.04-3.01v-5.15Z" fill="#666"/>
        <path d="m193.59,157.03c0-1.06.47-1.99,1.4-2.81.93-.82,2.15-1.22,3.65-1.22s2.9.53,4.2,1.58l-1.82,2.16c-.62-.81-1.49-1.22-2.6-1.22-1.33,0-2.02.67-2.06,2.01.03,1.32,1.11,2.06,3.23,2.23h3.26v2.52h-11.96v-2.52h3.6c-.59-.76-.89-1.67-.89-2.73Z" fill="#666"/>
        <path d="m210.15,159.75h2.8v2.52h-5.56v-17.71h2.76v15.2Z" fill="#666"/>
        <path d="m237.36,159.75h2.34v2.52h-1.91c-.56,0-1.27-.34-2.12-1.04-1.25.7-2.65,1.05-4.21,1.05s-2.97-.48-4.24-1.43c-1.09.94-2.44,1.41-4.07,1.41s-3-.34-4.11-1.04c-.7.69-1.48,1.04-2.32,1.04h-4.21v-2.52h4.75v-9.96h2.76v7.52c0,.74.28,1.37.85,1.89.57.52,1.25.78,2.05.78s1.49-.26,2.07-.78c.58-.52.87-1.15.87-1.89v-7.52h2.76v7.52c0,.69.31,1.31.92,1.86.61.55,1.31.82,2.09.82s1.48-.26,2.08-.78c.6-.52.9-1.15.9-1.89v-7.52h2.76v9.96Z" fill="#666"/>
        <path d="m247.84,162.27h-8.44v-2.52h5.69v-9.96h2.76v12.48Zm-2.34-17.59c.3-.28.67-.42,1.11-.42s.8.14,1.1.42c.3.28.44.62.44,1.01s-.15.72-.44.99c-.3.27-.66.4-1.1.4s-.8-.13-1.11-.4c-.3-.27-.46-.6-.46-.99s.15-.73.46-1.01Z" fill="#666"/>
      </g>
      <line x1="419.12" y1="60.19" x2="380.62" y2="189.69" fill="gray" stroke="gray" stroke-miterlimit="10"/>
    </g>
  </g>
</svg>