<?xml version="1.0" encoding="UTF-8"?>
<svg xmlns="http://www.w3.org/2000/svg" xmlns:xlink="http://www.w3.org/1999/xlink" viewBox="0 0 1001 231.23">
  <defs>
    <linearGradient id="uuid-1d7c8c37-19e8-40dc-b89e-53636fe0a89b" data-name="New Gradient Swatch copy 3" x1="801.2" y1="115.61" x2="993.93" y2="115.61" gradientUnits="userSpaceOnUse">
      <stop offset="0" stop-color="#5669d1"/>
      <stop offset="1" stop-color="#7fcaeb"/>
    </linearGradient>
    <linearGradient id="uuid-a889e81f-2d89-4c07-ad3a-cd41a25ccc21" data-name="New Gradient Swatch copy 3" x1="0" y1="115.61" x2="803.86" y2="115.61" xlink:href="#uuid-1d7c8c37-19e8-40dc-b89e-53636fe0a89b"/>
    <linearGradient id="uuid-3a3c9597-516a-4319-9cea-47234be64320" x1="1" y1="115.61" x2="802.86" y2="115.61" gradientUnits="userSpaceOnUse">
      <stop offset="0" stop-color="#d1d3d4"/>
      <stop offset=".62" stop-color="#ededee" stop-opacity=".51"/>
      <stop offset="1" stop-color="#fff" stop-opacity=".2"/>
    </linearGradient>
  </defs>
  <g isolation="isolate">
    <g id="uuid-f3af208e-7028-4b50-b40a-dce14e9197e2" data-name="Layer 1">
      <g>
        <path d="m925.86,189.9c-6.73,6.09-19.66,11.07-28.73,11.07h-139.55c-9.07,0-14.54-7.16-12.16-15.91l37.88-138.88c2.39-8.75,11.76-15.91,20.84-15.91h139.55c9.07,0,20,6.55,24.28,14.55l30.78,57.57c4.28,8,2.27,19.53-4.45,25.62l-68.43,61.91Z" fill="url(#uuid-1d7c8c37-19e8-40dc-b89e-53636fe0a89b)"/>
        <g>
          <path d="m763.86,186.46c-6.38,24.07-31.97,43.77-56.87,43.77H36.14c-24.9,0-40.06-19.69-33.68-43.77L40,44.76C46.37,20.7,71.97,1,96.87,1h670.85c24.9,0,40.06,19.7,33.68,43.76l-9.45,35.68c-6.38,24.07-16.81,63.46-23.19,87.53l-4.9,18.49Z" fill="#fff" stroke="url(#uuid-a889e81f-2d89-4c07-ad3a-cd41a25ccc21)" stroke-miterlimit="10" stroke-width="2"/>
          <path d="m767.72,1H96.87c-24.9,0-50.49,19.7-56.87,43.76L2.46,186.46c-6.38,24.07,8.78,43.77,33.68,43.77h670.85c24.9,0,50.49-19.69,56.87-43.77l4.9-18.49c6.38-24.07,16.81-63.46,23.19-87.53l9.45-35.68c6.38-24.07-8.78-43.76-33.68-43.76Zm27.64,47.35l-10.28,37.7c-6.36,23.32-16.77,61.49-23.13,84.81l-3.28,12.02c-6.36,23.33-31.34,42.41-55.52,42.41H40.89c-24.18,0-38.75-19.08-32.39-42.41L45.19,48.35c6.36-23.33,31.35-42.41,55.52-42.41h662.26c24.18,0,38.75,19.08,32.39,42.41Z" fill="url(#uuid-3a3c9597-516a-4319-9cea-47234be64320)" mix-blend-mode="soft-light"/>
        </g>
      </g>
      <g>
        <path d="m835.25,103.35c-2.47.31-2.74.5-4.41,3.52-2.05,3.66-4.89,8.76-9.86,18.38h-1.91l-3.24-15.72h-.08l-8.64,15.72h-1.89l-2.68-18.57c-.35-2.7-.72-3.09-3.24-3.33l.32-1.22h10.53l-.32,1.22-.88.14c-1.36.24-1.67.45-1.44,2.42l1.49,12.44h.08l8.53-16.01h1.78l3.3,16.08h.08c2.39-4.62,4.55-9.07,5.88-11.75,1.28-2.7,1.01-3.09-1.38-3.28l-.64-.05.35-1.22h8.69l-.4,1.22Z" fill="#fff"/>
        <path d="m844.66,120.88c-3.48,3.21-6.46,4.38-9.33,4.38-2.23,0-4.86-1.1-4.86-5.29,0-3.21,1.59-6.7,4.57-8.76,1.62-1.1,4.25-2.18,6.43-2.18,2.82,0,4.17,1.36,4.17,3.01,0,3.64-6.33,5.31-10.18,6.25-.05.45-.05.69-.05.93,0,1.72.77,3.21,2.84,3.21,1.49,0,3.83-1.03,5.63-2.61l.77,1.05Zm-5.98-9.93c-1.01.55-2.6,2.54-3.06,6.03,4.25-1.2,5.69-2.61,5.69-4.5,0-1.39-1.01-1.89-1.49-1.89-.35,0-.85.14-1.14.36Z" fill="#fff"/>
        <path d="m865.98,121.29c-2.68,2.97-5.58,3.97-6.83,3.97-.93,0-1.73-.48-1.17-3.21l.56-2.54h-.08c-1.46,1.75-3.14,3.21-4.68,4.28-1.33.91-2.55,1.46-3.8,1.46-1.75,0-3.11-1.53-3.11-4.45,0-3.3,1.73-6.94,4.55-9.02,1.86-1.44,5.34-2.75,7.04-2.75.74,0,1.3,0,2.29.26l1.04-4.88c.35-1.56.13-1.79-1.89-1.79h-.56l.24-1.12c3.91-.33,6.46-1.24,7.28-1.24.48,0,.5.26.27,1.24-1.73,6.84-3.06,12.87-4.36,18.93-.24,1.12-.29,1.46.08,1.46.35,0,1.38-.53,2.47-1.53l.67.93Zm-6.91-4.74l1.09-4.76c-.85-.77-2.1-1.12-2.9-1.12-.67,0-1.06.12-1.54.38-2.42,1.46-3.72,6.39-3.72,9,0,1.39.5,2.06,1.14,2.06,1.59,0,4.71-3.56,5.93-5.55Z" fill="#fff"/>
        <path d="m887.25,121.48c-3.03,2.82-5.32,3.78-6.78,3.78-1.12,0-1.97-.72-1.12-3.9.61-2.37,1.2-4.69,1.81-7.03.48-1.82.19-2.15-.24-2.15-1.3,0-4.92,3.68-6.27,5.86-.53,1.94-1.12,4.14-1.62,6.46-1.46.14-3.32.5-4.44.81l-.32-.36c1.01-3.85,1.97-7.49,2.9-11.39.27-1.05.24-1.32-.03-1.32-.35,0-1.78.72-2.53,1.41l-.58-1.08c2.79-2.37,5.26-3.54,6.75-3.54,1.12,0,1.65,1.03.77,4.62l-.4,1.58h.08c1.83-2.2,3.96-3.97,5.66-5.05,1.17-.74,2.31-1.15,3.38-1.15,1.28,0,2.58.57,1.36,5.38-.5,2.06-1.06,4.12-1.59,6.22-.19.84-.16,1.22.16,1.22.35,0,1.54-.69,2.39-1.44l.67,1.05Z" fill="#fff"/>
        <path d="m903.65,120.88c-3.48,3.21-6.46,4.38-9.33,4.38-2.23,0-4.86-1.1-4.86-5.29,0-3.21,1.59-6.7,4.57-8.76,1.62-1.1,4.25-2.18,6.43-2.18,2.82,0,4.17,1.36,4.17,3.01,0,3.64-6.33,5.31-10.18,6.25-.05.45-.05.69-.05.93,0,1.72.77,3.21,2.84,3.21,1.49,0,3.83-1.03,5.63-2.61l.77,1.05Zm-5.98-9.93c-1.01.55-2.6,2.54-3.06,6.03,4.25-1.2,5.69-2.61,5.69-4.5,0-1.39-1.01-1.89-1.49-1.89-.35,0-.85.14-1.14.36Z" fill="#fff"/>
        <path d="m904.85,122.34c-.05-.79.67-1.63,1.3-1.99.72-.33,1.01-.33,1.41.07,1.46,1.53,3.24,2.66,4.65,2.66.98,0,1.73-.5,1.73-1.27,0-.65-.5-1.29-2.53-2.58-1.78-1.1-4.09-2.32-4.09-4.59,0-1.29.61-2.54,2.47-3.83,1.44-1,3.27-1.77,4.89-1.77,2.13,0,3.67,1.08,3.72,2.37,0,.69-.56,1.46-1.41,1.94-.5.29-.85.26-1.12-.1-.82-1.05-2.05-2.08-3.62-2.08-.98,0-1.49.5-1.49,1.24.03.93,1.38,1.84,2.82,2.68,2.29,1.29,3.88,2.54,3.88,4.47,0,3.16-4.62,5.69-7.87,5.69-2.31,0-4.73-1.24-4.76-2.92Z" fill="#fff"/>
        <path d="m939.41,121.29c-2.68,2.97-5.58,3.97-6.83,3.97-.93,0-1.73-.48-1.17-3.21l.56-2.54h-.08c-1.46,1.75-3.14,3.21-4.68,4.28-1.33.91-2.55,1.46-3.8,1.46-1.75,0-3.11-1.53-3.11-4.45,0-3.3,1.73-6.94,4.55-9.02,1.86-1.44,5.34-2.75,7.04-2.75.74,0,1.3,0,2.29.26l1.04-4.88c.35-1.56.13-1.79-1.89-1.79h-.56l.24-1.12c3.91-.33,6.46-1.24,7.28-1.24.48,0,.5.26.27,1.24-1.73,6.84-3.06,12.87-4.36,18.93-.24,1.12-.29,1.46.08,1.46.35,0,1.38-.53,2.47-1.53l.67.93Zm-6.91-4.74l1.09-4.76c-.85-.77-2.1-1.12-2.9-1.12-.67,0-1.06.12-1.54.38-2.42,1.46-3.72,6.39-3.72,9,0,1.39.5,2.06,1.14,2.06,1.59,0,4.71-3.56,5.93-5.55Z" fill="#fff"/>
        <path d="m960.31,121.05c-2.63,2.87-5.58,4.21-6.94,4.21-1.01,0-1.89-.48-1.2-3.68l.43-1.89h-.08c-1.36,1.67-2.79,2.94-3.85,3.78-1.17.86-2.87,1.79-4.31,1.79-1.59,0-2.79-1.6-2.79-4.31,0-3.35,1.75-6.79,4.33-8.85,1.83-1.39,5.08-3.06,8.48-3.06.77,0,1.59.07,2.55.24.9.17,1.59.24,2.29.24l.24.14c-.82,2.99-1.75,6.77-2.52,10.77-.19,1.08-.16,1.44.08,1.44.4,0,1.78-.91,2.63-1.72l.66.91Zm-7.2-4.14c.5-1.7,1.28-4.81,1.36-5.65-.5-.29-1.54-.48-2.31-.48-.72,0-1.17.1-1.7.43-2.5,1.56-3.77,5.93-3.77,8.83,0,1.44.32,2.08.9,2.08,1.36,0,4.84-3.92,5.53-5.22Z" fill="#fff"/>
        <path d="m971.1,121.58c1.99-2.75,4.2-5.89,4.17-8.33,0-.91-.43-1.39-.58-1.89-.11-.38-.03-.84.19-1.22.48-.69,1.28-1.1,2.15-1.1s1.97.72,2.05,2.32c.03,1.03-.4,2.27-1.51,3.9-1.83,2.66-4.09,5.57-6.3,8.37-2.34,2.97-4.62,5.86-7.5,8.83l-5.18,1.08-.29-.96c3.93-2.3,6.46-4.04,8.67-6.6.08-2.82-.69-8.76-1.49-11.99-.27-1.12-.61-1.48-.8-1.48-.27,0-1.04.5-2.21,1.87l-.85-.98c1.7-2.44,4.01-4.35,5.71-4.35,1.44,0,2.29,1.22,2.79,4.69.48,3.04.67,5.02.9,7.85h.08Z" fill="#fff"/>
      </g>
      <g>
        <path d="m491.46,74.47c-3.69,5.55-7.94,11.39-12.13,17.38l-3.67.33-.2-.41c4.62-4.73,9.2-9.96,12.41-14.61h-6.96c-1.91,0-2.39.21-3.43,1.91l-1.04-.45c.74-1.74,1.24-3.3,1.65-4.49h13.17l.2.33Z" fill="#666"/>
        <path d="m492.75,92.19c-1.26,0-2.11-.88-2.11-2.01,0-1.37,1-2.36,2.45-2.36,1.3,0,2.15.86,2.15,2.07,0,1.43-1.19,2.3-2.45,2.3h-.04Zm1.3-8.05c-1.24,0-2.13-.88-2.13-2.01,0-1.37,1.06-2.36,2.52-2.36,1.26,0,2.15.86,2.15,2.07,0,1.43-1.24,2.3-2.52,2.3h-.02Z" fill="#666"/>
        <path d="m508.63,73.79c4.51,0,5.75,3.98,5.29,7.91-.41,4.79-3.28,10.49-8.87,10.49-4.67,0-6.01-3.95-5.53-8.24.35-4.3,3.32-10.16,9.07-10.16h.04Zm-.35,1.11c-2.62,0-4.08,6.41-4.49,9.96-.39,3.14-.2,6.17,1.45,6.17,2.43,0,3.97-6.72,4.38-10.21.41-2.97.24-5.92-1.32-5.92h-.02Z" fill="#666"/>
        <path d="m524.65,73.79c4.51,0,5.75,3.98,5.29,7.91-.41,4.79-3.28,10.49-8.87,10.49-4.67,0-6.01-3.95-5.53-8.24.35-4.3,3.32-10.16,9.07-10.16h.04Zm-.35,1.11c-2.62,0-4.08,6.41-4.49,9.96-.39,3.14-.2,6.17,1.45,6.17,2.43,0,3.97-6.72,4.38-10.21.41-2.97.24-5.92-1.32-5.92h-.02Z" fill="#666"/>
        <path d="m558.91,91.86h-8.81l.3-1c2.08-.2,2.19-.61,1.93-2.05-.15-.88-.3-1.88-.54-3.11h-6.29c-.63,1.04-1.21,2.23-1.76,3.22-.69,1.29-.74,1.64,1.87,1.93l-.28,1h-7.38l.33-1c1.95-.31,2.34-.45,4.23-3.36l9.22-14.22,1.76-.41.56,2.99c.72,4.02,1.61,7.97,2.28,11.74.46,2.7.65,3.01,2.86,3.26l-.28,1Zm-8.46-14.08h-.07c-1.24,1.99-2.69,4.22-3.99,6.46h5.16l-1.11-6.46Z" fill="#666"/>
        <path d="m589.92,74.3c-2.5.2-2.62.29-2.93,2.19-.69,4.39-1.15,7.64-1.63,11.21-.35,2.73-.22,2.97,2.32,3.16l-.26,1h-9.2l.28-1c2.04-.2,2.26-.39,2.73-3.12.65-3.93,1.28-7.36,1.87-10.98h-.13l-9.66,14.92h-.98c-.93-4.98-1.89-9.38-2.97-14.82h-.11l-2.21,6.84c-.95,2.99-1.28,4.26-1.43,5.23-.22,1.31.33,1.8,2.28,1.93l-.26,1h-7.49l.28-1c1.65-.12,2.41-.61,3.02-1.93.39-.82.93-2.07,1.84-4.69l2.41-6.89c.82-2.32.67-2.85-2.21-3.05l.39-1h6.44c1,4.22,2,7.95,2.99,12.34l8.55-12.34h6.34l-.28,1Z" fill="#666"/>
        <path d="m607.76,86.33h-8.18l.5-1.99h8.2l-.52,1.99Z" fill="#666"/>
        <path d="m623.47,75.47c1.32-1.07,2.8-1.68,4.8-1.68,3.17,0,5.49,1.76,5.49,4.67,0,3.38-3.28,5.35-7.92,8.65l-2.34,1.68h5.1c1.97,0,2.23-.12,3.43-1.72l1.02.35c-.69,1.48-1.26,3.01-1.8,4.43h-13.06l.17-.74c1.69-1.19,4.04-2.93,5.99-4.61,2.34-2.01,5.23-4.73,5.23-7.23,0-1.82-1.04-2.93-3.08-2.93-1.69,0-3.21,1.11-4.38,2.4l-.78-.74,2.15-2.54Z" fill="#666"/>
        <path d="m637.51,92.19c-1.26,0-2.1-.88-2.1-2.01,0-1.37,1-2.36,2.45-2.36,1.3,0,2.15.86,2.15,2.07,0,1.43-1.19,2.3-2.45,2.3h-.04Zm1.3-8.05c-1.24,0-2.13-.88-2.13-2.01,0-1.37,1.06-2.36,2.52-2.36,1.26,0,2.15.86,2.15,2.07,0,1.43-1.24,2.3-2.52,2.3h-.02Z" fill="#666"/>
        <path d="m653.4,73.79c4.51,0,5.75,3.98,5.29,7.91-.41,4.79-3.28,10.49-8.87,10.49-4.67,0-6.01-3.95-5.53-8.24.35-4.3,3.32-10.16,9.07-10.16h.04Zm-.35,1.11c-2.62,0-4.08,6.41-4.49,9.96-.39,3.14-.2,6.17,1.45,6.17,2.43,0,3.97-6.72,4.38-10.21.41-2.97.24-5.92-1.32-5.92h-.02Z" fill="#666"/>
        <path d="m669.41,73.79c4.51,0,5.75,3.98,5.29,7.91-.41,4.79-3.28,10.49-8.87,10.49-4.67,0-6.01-3.95-5.53-8.24.35-4.3,3.32-10.16,9.07-10.16h.04Zm-.35,1.11c-2.62,0-4.08,6.41-4.49,9.96-.39,3.14-.2,6.17,1.45,6.17,2.43,0,3.97-6.72,4.38-10.21.41-2.97.24-5.92-1.32-5.92h-.02Z" fill="#666"/>
        <path d="m695.5,73.3c3.91,0,7.57,1.04,7.57,4.92s-3.41,5.98-7.92,6.29c-.35,0-.61.04-.91-.02l-2.41-.51-.89,4.08c-.54,2.42-.22,2.56,2.65,2.79l-.24,1h-9.87l.26-1c2.37-.18,2.58-.39,3.12-2.79l2.3-10.8c.54-2.48.33-2.79-2.04-2.97l.24-1h8.14Zm-3.38,9.59c.41.14,1.04.29,1.87.29,2.91,0,4.71-2.62,4.71-5.29,0-2.34-1.37-3.42-3.25-3.42-.63,0-1.04.12-1.3.25-.3.18-.48.61-.65,1.54l-1.37,6.62Z" fill="#666"/>
        <path d="m731.93,74.3c-2.5.2-2.62.29-2.93,2.19-.69,4.39-1.15,7.64-1.63,11.21-.35,2.73-.22,2.97,2.32,3.16l-.26,1h-9.2l.28-1c2.04-.2,2.26-.39,2.73-3.12.65-3.93,1.28-7.36,1.87-10.98h-.13l-9.66,14.92h-.98c-.93-4.98-1.89-9.38-2.97-14.82h-.11l-2.21,6.84c-.95,2.99-1.28,4.26-1.43,5.23-.22,1.31.33,1.8,2.28,1.93l-.26,1h-7.49l.28-1c1.65-.12,2.41-.61,3.02-1.93.39-.82.93-2.07,1.84-4.69l2.41-6.89c.82-2.32.67-2.85-2.21-3.05l.39-1h6.44c1,4.22,2,7.95,2.99,12.34l8.55-12.34h6.34l-.28,1Z" fill="#666"/>
        <path d="m479.11,157.01c-.46,1-1.56,3.77-2.08,4.84h-15.36l.24-1c2.67-.18,2.89-.45,3.38-2.73l2.37-11.23c.48-2.13.28-2.42-2.26-2.6l.24-1h9.7l-.24,1c-2.56.18-2.78.47-3.23,2.6l-2.34,11.04c-.22,1.07-.22,1.62.07,2.07.35.43,1.24.61,2.54.61,1.52,0,2.58-.2,3.38-.88.69-.61,1.56-1.62,2.39-3.09l1.22.37Z" fill="#666"/>
        <path d="m487.95,159c-2.3,2.29-4.71,3.18-5.64,3.18-1,0-1.71-.59-1.02-3.18l1.61-6.17c.2-.76.26-1.05.04-1.05-.28,0-1.15.43-1.97.98l-.46-.76c2.39-1.97,4.71-3.05,5.86-3.05.93,0,1.08,1.15.65,2.77l-1.78,6.58c-.22.8-.15,1.13.07,1.13.33,0,1.13-.43,2.08-1.17l.56.74Zm.35-14.04c0,1.13-1.06,2.21-2.43,2.21-1.17,0-1.8-.64-1.8-1.78,0-.86.8-2.17,2.43-2.17,1.21,0,1.8.8,1.8,1.74Z" fill="#666"/>
        <path d="m491.46,142.79c3.12-.31,5.19-1.02,5.81-1.02.41,0,.43.37.28.94-.89,3.26-1.67,6.56-2.6,10h.07c2.47-2.56,4.88-3.77,6.49-3.77s2.63,1.39,2.63,3.57c0,3.03-1.8,6.23-4.84,8.09-1.78,1.07-3.95,1.58-5.38,1.58-1.63,0-2.71-.64-3.28-1.39-.63-.8-.63-2.01-.28-3.67.82-3.83,1.69-7.48,2.71-11.86.33-1.31.22-1.54-.96-1.56l-.78-.04.13-.88Zm5.55,17.52c1.13-.76,2.93-4,2.97-7.3,0-1.31-.48-1.8-.91-1.8-.83,0-2.69,1.23-4.41,3.42-.13.31-.35,1.13-.54,2.17-.65,3.32.72,3.98,1.58,3.98.46,0,.87-.18,1.3-.47Z" fill="#666"/>
        <path d="m511.67,153.5c1.45-2.36,3.15-4.55,4.58-4.55.63,0,1.19.27,1.58.7.41.49.3,1.17-.13,1.8-.43.57-.76.9-1.11,1.19-.33.23-.56.23-.78.08-.48-.37-.96-.57-1.37-.57-.33,0-.67.1-1.32.92-.87,1.02-1.65,2.38-1.8,3.01-.39,1.52-.95,3.98-1.21,5.49-1.19.12-2.71.41-3.67.66l-.24-.29c.78-2.89,1.47-5.82,2.08-8.85.22-.96.22-1.39-.04-1.39-.24,0-1.41.57-1.95,1.02l-.5-.82c1.93-1.68,4.1-2.95,5.34-2.95.91,0,1.24.9.69,3.3l-.28,1.25h.13Z" fill="#666"/>
        <path d="m533.26,158.75c-2.15,2.34-4.56,3.44-5.66,3.44-.82,0-1.54-.39-.98-3.01l.35-1.54h-.07c-1.11,1.37-2.28,2.4-3.15,3.09-.96.7-2.34,1.46-3.52,1.46-1.3,0-2.28-1.31-2.28-3.52,0-2.73,1.43-5.55,3.54-7.23,1.5-1.13,4.14-2.5,6.92-2.5.63,0,1.3.06,2.08.2.74.14,1.3.2,1.87.2l.2.12c-.67,2.44-1.43,5.53-2.06,8.79-.15.88-.13,1.17.06,1.17.33,0,1.45-.74,2.15-1.41l.54.74Zm-5.88-3.38c.41-1.39,1.04-3.93,1.11-4.61-.41-.23-1.26-.39-1.89-.39-.59,0-.95.08-1.39.35-2.04,1.27-3.08,4.84-3.08,7.21,0,1.17.26,1.7.74,1.7,1.11,0,3.95-3.2,4.51-4.26Z" fill="#666"/>
        <path d="m540.36,153.5c1.45-2.36,3.15-4.55,4.58-4.55.63,0,1.19.27,1.58.7.41.49.3,1.17-.13,1.8-.43.57-.76.9-1.11,1.19-.33.23-.56.23-.78.08-.48-.37-.96-.57-1.37-.57-.33,0-.67.1-1.32.92-.87,1.02-1.65,2.38-1.8,3.01-.39,1.52-.95,3.98-1.21,5.49-1.19.12-2.71.41-3.67.66l-.24-.29c.78-2.89,1.48-5.82,2.08-8.85.22-.96.22-1.39-.04-1.39-.24,0-1.41.57-1.95,1.02l-.5-.82c1.93-1.68,4.1-2.95,5.34-2.95.91,0,1.24.9.69,3.3l-.28,1.25h.13Z" fill="#666"/>
        <path d="m555.4,159.18c1.63-2.25,3.43-4.8,3.41-6.8,0-.74-.35-1.13-.48-1.54-.09-.31-.02-.68.15-1,.39-.57,1.04-.9,1.76-.9s1.61.59,1.67,1.89c.02.84-.33,1.86-1.24,3.18-1.5,2.17-3.34,4.55-5.14,6.84-1.91,2.42-3.78,4.79-6.12,7.21l-4.23.88-.24-.78c3.21-1.88,5.27-3.3,7.07-5.39.07-2.3-.56-7.15-1.21-9.79-.22-.92-.5-1.21-.65-1.21-.22,0-.85.41-1.8,1.52l-.69-.8c1.39-1.99,3.28-3.55,4.67-3.55,1.17,0,1.87,1,2.28,3.83.39,2.48.54,4.1.74,6.41h.07Z" fill="#666"/>
        <path d="m599.56,144.3c-2.5.2-2.63.29-2.93,2.19-.69,4.39-1.15,7.64-1.63,11.21-.35,2.73-.22,2.97,2.32,3.16l-.26,1h-9.2l.28-1c2.04-.2,2.26-.39,2.73-3.12.65-3.93,1.28-7.36,1.87-10.98h-.13l-9.66,14.92h-.98c-.93-4.98-1.89-9.38-2.97-14.82h-.11l-2.21,6.84c-.95,2.99-1.28,4.26-1.43,5.23-.22,1.31.33,1.8,2.28,1.93l-.26,1h-7.49l.28-1c1.65-.12,2.41-.61,3.02-1.93.39-.82.93-2.07,1.84-4.69l2.41-6.89c.82-2.32.67-2.85-2.21-3.05l.39-1h6.44c1,4.22,2,7.95,2.99,12.34l8.55-12.34h6.34l-.28,1Z" fill="#666"/>
        <path d="m614.77,158.75c-2.15,2.34-4.56,3.44-5.66,3.44-.82,0-1.54-.39-.98-3.01l.35-1.54h-.07c-1.11,1.37-2.28,2.4-3.15,3.09-.96.7-2.34,1.46-3.52,1.46-1.3,0-2.28-1.31-2.28-3.52,0-2.73,1.43-5.55,3.54-7.23,1.5-1.13,4.14-2.5,6.92-2.5.63,0,1.3.06,2.08.2.74.14,1.3.2,1.87.2l.2.12c-.67,2.44-1.43,5.53-2.06,8.79-.15.88-.13,1.17.06,1.17.33,0,1.45-.74,2.15-1.41l.54.74Zm-5.88-3.38c.41-1.39,1.04-3.93,1.11-4.61-.41-.23-1.26-.39-1.89-.39-.59,0-.95.08-1.39.35-2.04,1.27-3.08,4.84-3.08,7.21,0,1.17.26,1.7.74,1.7,1.11,0,3.95-3.2,4.51-4.26Z" fill="#666"/>
        <path d="m623.62,159c-2.3,2.29-4.71,3.18-5.64,3.18-1,0-1.71-.59-1.02-3.18l1.61-6.17c.19-.76.26-1.05.04-1.05-.28,0-1.15.43-1.97.98l-.46-.76c2.39-1.97,4.71-3.05,5.86-3.05.93,0,1.08,1.15.65,2.77l-1.78,6.58c-.22.8-.15,1.13.07,1.13.33,0,1.13-.43,2.08-1.17l.56.74Zm.35-14.04c0,1.13-1.06,2.21-2.43,2.21-1.17,0-1.8-.64-1.8-1.78,0-.86.8-2.17,2.43-2.17,1.21,0,1.8.8,1.8,1.74Z" fill="#666"/>
        <path d="m641.09,159.1c-2.47,2.3-4.34,3.09-5.53,3.09-.91,0-1.61-.59-.91-3.18.5-1.93.98-3.83,1.48-5.74.39-1.48.15-1.76-.2-1.76-1.06,0-4.01,3.01-5.12,4.79-.43,1.58-.91,3.38-1.32,5.27-1.19.12-2.71.41-3.62.66l-.26-.29c.82-3.14,1.61-6.11,2.37-9.3.22-.86.19-1.07-.02-1.07-.28,0-1.45.59-2.06,1.15l-.48-.88c2.28-1.93,4.3-2.89,5.51-2.89.91,0,1.35.84.63,3.77l-.33,1.29h.07c1.5-1.8,3.23-3.24,4.62-4.12.95-.61,1.89-.94,2.75-.94,1.04,0,2.11.47,1.11,4.39-.41,1.68-.87,3.36-1.3,5.08-.15.68-.13,1,.13,1,.28,0,1.26-.57,1.95-1.17l.54.86Z" fill="#666"/>
        <path d="m652.18,150.68l-3.08.14-1.61,7.03c-.28,1.31-.2,1.72.15,1.72.46,0,1.87-.78,2.69-1.46l.5.74c-1.26,1.5-4.19,3.34-5.97,3.34-1.19,0-1.89-1.02-1.17-4.02l1.74-7.34h-2.3l-.2-.29.89-1.11h1.95l.69-2.62,3.71-2.09.43.27-1.13,4.43h3.56l-.87,1.27Z" fill="#666"/>
        <path d="m664.19,158.61c-2.84,2.62-5.27,3.57-7.62,3.57-1.82,0-3.97-.9-3.97-4.32,0-2.62,1.3-5.47,3.73-7.15,1.32-.9,3.47-1.78,5.25-1.78,2.3,0,3.41,1.11,3.41,2.46,0,2.97-5.16,4.34-8.31,5.1-.04.37-.04.57-.04.76,0,1.41.63,2.62,2.32,2.62,1.21,0,3.12-.84,4.6-2.13l.63.86Zm-4.88-8.11c-.82.45-2.13,2.07-2.5,4.92,3.47-.98,4.64-2.13,4.64-3.67,0-1.13-.82-1.54-1.21-1.54-.28,0-.69.12-.93.29Z" fill="#666"/>
        <path d="m682.13,159.1c-2.47,2.3-4.34,3.09-5.53,3.09-.91,0-1.61-.59-.91-3.18.5-1.93.98-3.83,1.48-5.74.39-1.48.15-1.76-.2-1.76-1.06,0-4.01,3.01-5.12,4.79-.43,1.58-.91,3.38-1.32,5.27-1.19.12-2.71.41-3.62.66l-.26-.29c.82-3.14,1.61-6.11,2.37-9.3.22-.86.19-1.07-.02-1.07-.28,0-1.45.59-2.06,1.15l-.48-.88c2.28-1.93,4.3-2.89,5.51-2.89.91,0,1.35.84.63,3.77l-.33,1.29h.07c1.5-1.8,3.23-3.24,4.62-4.12.95-.61,1.89-.94,2.75-.94,1.04,0,2.11.47,1.11,4.39-.41,1.68-.87,3.36-1.3,5.08-.15.68-.13,1,.13,1,.28,0,1.26-.57,1.95-1.17l.54.86Z" fill="#666"/>
        <path d="m699.17,158.75c-2.15,2.34-4.56,3.44-5.66,3.44-.82,0-1.54-.39-.98-3.01l.35-1.54h-.07c-1.11,1.37-2.28,2.4-3.15,3.09-.96.7-2.34,1.46-3.52,1.46-1.3,0-2.28-1.31-2.28-3.52,0-2.73,1.43-5.55,3.54-7.23,1.5-1.13,4.14-2.5,6.92-2.5.63,0,1.3.06,2.08.2.74.14,1.3.2,1.87.2l.2.12c-.67,2.44-1.43,5.53-2.06,8.79-.15.88-.13,1.17.06,1.17.33,0,1.45-.74,2.15-1.41l.54.74Zm-5.88-3.38c.41-1.39,1.04-3.93,1.11-4.61-.41-.23-1.26-.39-1.89-.39-.59,0-.95.08-1.39.35-2.04,1.27-3.08,4.84-3.08,7.21,0,1.17.26,1.7.74,1.7,1.11,0,3.95-3.2,4.51-4.26Z" fill="#666"/>
        <path d="m716.09,159.1c-2.47,2.3-4.34,3.09-5.53,3.09-.91,0-1.61-.59-.91-3.18.5-1.93.98-3.83,1.48-5.74.39-1.48.15-1.76-.2-1.76-1.06,0-4.01,3.01-5.12,4.79-.43,1.58-.91,3.38-1.32,5.27-1.19.12-2.71.41-3.62.66l-.26-.29c.82-3.14,1.61-6.11,2.37-9.3.22-.86.19-1.07-.02-1.07-.28,0-1.45.59-2.06,1.15l-.48-.88c2.28-1.93,4.3-2.89,5.51-2.89.91,0,1.35.84.63,3.77l-.33,1.29h.07c1.5-1.8,3.23-3.24,4.62-4.12.95-.61,1.89-.94,2.75-.94,1.04,0,2.11.47,1.11,4.39-.41,1.68-.87,3.36-1.3,5.08-.15.68-.13,1,.13,1,.28,0,1.26-.57,1.95-1.17l.54.86Z" fill="#666"/>
        <path d="m728.83,158.91c-2.21,2.19-4.75,3.28-6.79,3.28-2.63,0-4.06-1.58-4.06-4.38,0-2.38,1.17-5,3.47-6.8,1.43-1.07,3.64-2.07,5.58-2.07,1.52,0,2.91.62,2.91,1.68.02.57-.39,1.27-1.45,1.82-.28.18-.61.14-.83-.14-.91-1.27-1.8-1.86-2.65-1.86-.61,0-1.17.39-1.65,1.31-.69,1.23-1.19,3.07-1.19,5.18s.78,2.99,2.1,2.99c1.39,0,3.19-1.23,3.93-1.86l.63.84Z" fill="#666"/>
        <path d="m742.33,158.61c-2.84,2.62-5.27,3.57-7.62,3.57-1.82,0-3.97-.9-3.97-4.32,0-2.62,1.3-5.47,3.73-7.15,1.32-.9,3.47-1.78,5.25-1.78,2.3,0,3.41,1.11,3.41,2.46,0,2.97-5.16,4.34-8.31,5.1-.04.37-.04.57-.04.76,0,1.41.63,2.62,2.32,2.62,1.21,0,3.12-.84,4.6-2.13l.63.86Zm-4.88-8.11c-.82.45-2.13,2.07-2.5,4.92,3.47-.98,4.64-2.13,4.64-3.67,0-1.13-.82-1.54-1.21-1.54-.28,0-.69.12-.93.29Z" fill="#666"/>
      </g>
      <g>
        <path d="m98.08,75.47c1.32-1.07,2.8-1.68,4.79-1.68,3.17,0,5.49,1.76,5.49,4.67,0,3.38-3.28,5.35-7.92,8.65l-2.34,1.68h5.1c1.97,0,2.23-.12,3.43-1.72l1.02.35c-.69,1.48-1.26,3.01-1.8,4.43h-13.06l.17-.74c1.69-1.19,4.04-2.93,5.99-4.61,2.34-2.01,5.23-4.73,5.23-7.23,0-1.82-1.04-2.93-3.08-2.93-1.69,0-3.21,1.11-4.38,2.4l-.78-.74,2.15-2.54Z" fill="#666"/>
        <path d="m112.12,92.19c-1.26,0-2.1-.88-2.1-2.01,0-1.37,1-2.36,2.45-2.36,1.3,0,2.15.86,2.15,2.07,0,1.43-1.19,2.3-2.45,2.3h-.04Zm1.3-8.05c-1.24,0-2.13-.88-2.13-2.01,0-1.37,1.06-2.36,2.52-2.36,1.26,0,2.15.86,2.15,2.07,0,1.43-1.24,2.3-2.52,2.3h-.02Z" fill="#666"/>
        <path d="m128.01,73.79c4.51,0,5.75,3.98,5.29,7.91-.41,4.79-3.28,10.49-8.87,10.49-4.67,0-6.01-3.95-5.53-8.24.35-4.3,3.32-10.16,9.07-10.16h.04Zm-.35,1.11c-2.62,0-4.08,6.41-4.49,9.96-.39,3.14-.2,6.17,1.45,6.17,2.43,0,3.97-6.72,4.38-10.21.41-2.97.24-5.92-1.32-5.92h-.02Z" fill="#666"/>
        <path d="m144.02,73.79c4.51,0,5.75,3.98,5.29,7.91-.41,4.79-3.28,10.49-8.87,10.49-4.67,0-6.01-3.95-5.53-8.24.35-4.3,3.32-10.16,9.07-10.16h.04Zm-.35,1.11c-2.62,0-4.08,6.41-4.49,9.96-.39,3.14-.2,6.17,1.45,6.17,2.43,0,3.97-6.72,4.38-10.21.41-2.97.24-5.92-1.32-5.92h-.02Z" fill="#666"/>
        <path d="m170.11,73.3c3.91,0,7.57,1.04,7.57,4.92s-3.41,5.98-7.92,6.29c-.35,0-.61.04-.91-.02l-2.41-.51-.89,4.08c-.54,2.42-.22,2.56,2.65,2.79l-.24,1h-9.87l.26-1c2.37-.18,2.58-.39,3.12-2.79l2.3-10.8c.54-2.48.33-2.79-2.04-2.97l.24-1h8.14Zm-3.38,9.59c.41.14,1.04.29,1.87.29,2.91,0,4.71-2.62,4.71-5.29,0-2.34-1.37-3.42-3.25-3.42-.63,0-1.04.12-1.3.25-.3.18-.48.61-.65,1.54l-1.37,6.62Z" fill="#666"/>
        <path d="m206.54,74.3c-2.5.2-2.63.29-2.93,2.19-.69,4.39-1.15,7.64-1.63,11.21-.35,2.73-.22,2.97,2.32,3.16l-.26,1h-9.2l.28-1c2.04-.2,2.26-.39,2.73-3.12.65-3.93,1.28-7.36,1.87-10.98h-.13l-9.66,14.92h-.98c-.93-4.98-1.89-9.38-2.97-14.82h-.11l-2.21,6.84c-.95,2.99-1.28,4.26-1.43,5.23-.22,1.31.33,1.8,2.28,1.93l-.26,1h-7.49l.28-1c1.65-.12,2.41-.61,3.02-1.93.39-.82.93-2.07,1.84-4.69l2.41-6.89c.82-2.32.67-2.85-2.21-3.05l.39-1h6.44c1,4.22,2,7.95,2.99,12.34l8.55-12.34h6.34l-.28,1Z" fill="#666"/>
        <path d="m224.38,86.33h-8.18l.5-1.99h8.2l-.52,1.99Z" fill="#666"/>
        <path d="m245.02,73.79c2.84,0,5.53,1.45,5.53,4.24,0,1.05-.69,1.91-1.63,2.6-.5.31-.93.62-2.56,1.45,2.06,1.27,3.58,2.58,3.58,4.69,0,3.18-3.86,5.43-7.77,5.43-3.51,0-6.49-1.52-6.49-4.59,0-1.17.69-2.15,1.8-2.85.89-.57,2.32-1.35,3.32-1.82-1.45-1-2.58-2.11-2.62-3.96,0-2.99,3.17-5.18,6.79-5.18h.04Zm-2.19,17.21c1.71,0,3.02-1.31,3.02-3.12s-1.43-2.89-3.88-4.3c-1.41.88-2.39,2.36-2.39,4.06,0,1.8,1.11,3.36,3.23,3.36h.02Zm1.65-16.04c-1.41,0-2.56,1.13-2.56,2.56,0,2.11,1.87,3.11,3.25,3.85,1.08-.68,1.91-1.91,1.91-3.57,0-1.45-.93-2.83-2.56-2.83h-.04Z" fill="#666"/>
        <path d="m254.14,92.19c-1.26,0-2.1-.88-2.1-2.01,0-1.37,1-2.36,2.45-2.36,1.3,0,2.15.86,2.15,2.07,0,1.43-1.19,2.3-2.45,2.3h-.04Zm1.3-8.05c-1.24,0-2.13-.88-2.13-2.01,0-1.37,1.06-2.36,2.52-2.36,1.26,0,2.15.86,2.15,2.07,0,1.43-1.24,2.3-2.52,2.3h-.02Z" fill="#666"/>
        <path d="m270.02,73.79c4.51,0,5.75,3.98,5.29,7.91-.41,4.79-3.28,10.49-8.87,10.49-4.67,0-6.01-3.95-5.53-8.24.35-4.3,3.32-10.16,9.07-10.16h.04Zm-.35,1.11c-2.62,0-4.08,6.41-4.49,9.96-.39,3.14-.2,6.17,1.45,6.17,2.43,0,3.97-6.72,4.38-10.21.41-2.97.24-5.92-1.32-5.92h-.02Z" fill="#666"/>
        <path d="m286.04,73.79c4.51,0,5.75,3.98,5.29,7.91-.41,4.79-3.28,10.49-8.87,10.49-4.67,0-6.01-3.95-5.53-8.24.35-4.3,3.32-10.16,9.07-10.16h.04Zm-.35,1.11c-2.62,0-4.08,6.41-4.49,9.96-.39,3.14-.2,6.17,1.45,6.17,2.43,0,3.97-6.72,4.38-10.21.41-2.97.24-5.92-1.32-5.92h-.02Z" fill="#666"/>
        <path d="m312.12,73.3c3.91,0,7.57,1.04,7.57,4.92s-3.41,5.98-7.92,6.29c-.35,0-.61.04-.91-.02l-2.41-.51-.89,4.08c-.54,2.42-.22,2.56,2.65,2.79l-.24,1h-9.87l.26-1c2.37-.18,2.58-.39,3.12-2.79l2.3-10.8c.54-2.48.33-2.79-2.04-2.97l.24-1h8.14Zm-3.38,9.59c.41.14,1.04.29,1.87.29,2.91,0,4.71-2.62,4.71-5.29,0-2.34-1.37-3.42-3.25-3.42-.63,0-1.04.12-1.3.25-.3.18-.48.61-.65,1.54l-1.37,6.62Z" fill="#666"/>
        <path d="m348.56,74.3c-2.5.2-2.63.29-2.93,2.19-.69,4.39-1.15,7.64-1.63,11.21-.35,2.73-.22,2.97,2.32,3.16l-.26,1h-9.2l.28-1c2.04-.2,2.26-.39,2.73-3.12.65-3.93,1.28-7.36,1.87-10.98h-.13l-9.66,14.92h-.98c-.93-4.98-1.89-9.38-2.97-14.82h-.11l-2.21,6.84c-.95,2.99-1.28,4.26-1.43,5.23-.22,1.31.33,1.8,2.28,1.93l-.26,1h-7.49l.28-1c1.65-.12,2.41-.61,3.02-1.93.39-.82.93-2.07,1.84-4.69l2.41-6.89c.82-2.32.67-2.85-2.21-3.05l.39-1h6.44c1,4.22,2,7.95,2.99,12.34l8.55-12.34h6.34l-.28,1Z" fill="#666"/>
        <path d="m201.48,144.3c-2.02.25-2.23.41-3.6,2.87-1.67,2.99-3.99,7.15-8.05,15h-1.56l-2.65-12.83h-.06l-7.05,12.83h-1.54l-2.19-15.16c-.28-2.21-.59-2.52-2.65-2.71l.26-1h8.59l-.26,1-.72.12c-1.11.2-1.37.37-1.17,1.97l1.21,10.16h.07l6.96-13.07h1.45l2.69,13.12h.06c1.95-3.77,3.71-7.4,4.8-9.59,1.04-2.21.82-2.52-1.13-2.68l-.52-.04.28-1h7.09l-.33,1Z" fill="#666"/>
        <path d="m197.71,157.44c0-3.73,2.43-6.41,4.84-7.48,1.32-.62,2.78-1.02,4.17-1.02,3.19,0,4.84,1.84,4.84,4.55,0,2.46-1.04,5.06-3.38,6.82-1.43,1.11-3.58,1.88-5.58,1.88-3.88,0-4.88-2.52-4.88-4.75Zm6.99,3.34c1.26-.47,2.71-3.46,2.67-7.38,0-2.27-.85-3.2-1.89-3.2-.26,0-.56.02-.82.14-.82.35-2.78,2.73-2.78,7.34,0,2.25,1.02,3.2,2.02,3.2.35,0,.54-.02.8-.1Z" fill="#666"/>
        <path d="m237.23,159.12c-2.13,2.11-4.43,3.07-5.45,3.07s-1.61-.62-1-2.87l1.63-6.19c.28-1.09.2-1.66-.15-1.66-1.02,0-3.86,2.87-5.03,4.73-.43,1.72-.87,3.55-1.26,5.37-1.34.12-2.78.41-3.8.66l-.22-.29c.76-2.83,1.5-5.55,2.15-8.07.39-1.68.35-2.4-.09-2.4-1.04,0-4.06,3.11-5.03,4.71-.5,1.5-1,3.55-1.41,5.39-1.24.12-2.69.41-3.71.66l-.22-.31c.96-3.11,1.67-6.04,2.5-9.39.15-.59.15-.88-.09-.88-.35,0-1.45.68-2.02,1.17l-.41-.86c2.08-1.86,4.25-3.01,5.53-3.01,1.11,0,1.19,1.11.58,3.32l-.48,1.8h.06c2.32-2.7,4.23-3.98,5.06-4.43.87-.49,1.63-.68,2.28-.68.96,0,2.13.43,1.21,4.24l-.19.7h.06c2.24-2.62,4.08-3.87,5.06-4.36.85-.43,1.48-.59,2.1-.59.89,0,2.13.43,1.15,4.32l-1.39,5.35c-.17.64-.04.86.15.86.28,0,1.3-.66,1.93-1.17l.48.82Z" fill="#666"/>
        <path d="m254.4,158.75c-2.15,2.34-4.56,3.44-5.66,3.44-.82,0-1.54-.39-.98-3.01l.35-1.54h-.07c-1.11,1.37-2.28,2.4-3.15,3.09-.96.7-2.34,1.46-3.52,1.46-1.3,0-2.28-1.31-2.28-3.52,0-2.73,1.43-5.55,3.54-7.23,1.5-1.13,4.14-2.5,6.92-2.5.63,0,1.3.06,2.08.2.74.14,1.3.2,1.87.2l.2.12c-.67,2.44-1.43,5.53-2.06,8.79-.15.88-.13,1.17.06,1.17.33,0,1.45-.74,2.15-1.41l.54.74Zm-5.88-3.38c.41-1.39,1.04-3.93,1.11-4.61-.41-.23-1.26-.39-1.89-.39-.59,0-.95.08-1.39.35-2.04,1.27-3.08,4.84-3.08,7.21,0,1.17.26,1.7.74,1.7,1.11,0,3.95-3.2,4.51-4.26Z" fill="#666"/>
        <path d="m271.32,159.1c-2.47,2.3-4.34,3.09-5.53,3.09-.91,0-1.61-.59-.91-3.18.5-1.93.98-3.83,1.48-5.74.39-1.48.15-1.76-.2-1.76-1.06,0-4.01,3.01-5.12,4.79-.43,1.58-.91,3.38-1.32,5.27-1.19.12-2.71.41-3.62.66l-.26-.29c.82-3.14,1.61-6.11,2.36-9.3.22-.86.2-1.07-.02-1.07-.28,0-1.45.59-2.06,1.15l-.48-.88c2.28-1.93,4.3-2.89,5.51-2.89.91,0,1.35.84.63,3.77l-.33,1.29h.07c1.5-1.8,3.23-3.24,4.62-4.12.95-.61,1.89-.94,2.75-.94,1.04,0,2.11.47,1.11,4.39-.41,1.68-.87,3.36-1.3,5.08-.15.68-.13,1,.13,1,.28,0,1.26-.57,1.95-1.17l.54.86Z" fill="#666"/>
      </g>
      <line x1="420.12" y1="59.78" x2="381.62" y2="189.28" fill="gray" stroke="gray" stroke-miterlimit="10"/>
    </g>
  </g>
</svg>