<?xml version="1.0" encoding="UTF-8"?>
<svg xmlns="http://www.w3.org/2000/svg" xmlns:xlink="http://www.w3.org/1999/xlink" viewBox="0 0 1001 231.23">
  <defs>
    <linearGradient id="uuid-ff5bb40d-e45e-4ba2-b3a7-0436a991b09d" data-name="New Gradient Swatch copy 4" x1="801.2" y1="115.61" x2="993.93" y2="115.61" gradientUnits="userSpaceOnUse">
      <stop offset="0" stop-color="#db4a80"/>
      <stop offset="1" stop-color="#ed654f"/>
    </linearGradient>
    <linearGradient id="uuid-e5b8a0bd-2878-45d8-b8a6-4caa5f2c5a16" data-name="New Gradient Swatch copy 4" x1="0" y1="115.61" x2="803.86" y2="115.61" xlink:href="#uuid-ff5bb40d-e45e-4ba2-b3a7-0436a991b09d"/>
    <linearGradient id="uuid-555ab982-ad97-4425-ba97-fab833aab924" x1="1" y1="115.61" x2="802.86" y2="115.61" gradientUnits="userSpaceOnUse">
      <stop offset="0" stop-color="#d1d3d4"/>
      <stop offset=".62" stop-color="#ededee" stop-opacity=".51"/>
      <stop offset="1" stop-color="#fff" stop-opacity=".2"/>
    </linearGradient>
  </defs>
  <g isolation="isolate">
    <g id="uuid-f7e52978-43d6-4e92-844c-88fd9836a92a" data-name="Layer 1">
      <g>
        <path d="m925.86,189.9c-6.73,6.09-19.66,11.07-28.73,11.07h-139.55c-9.07,0-14.54-7.16-12.16-15.91l37.88-138.87c2.39-8.75,11.76-15.91,20.84-15.91h139.55c9.07,0,19.99,6.55,24.28,14.55l30.78,57.57c4.28,8,2.27,19.53-4.45,25.62l-68.43,61.91Z" fill="url(#uuid-ff5bb40d-e45e-4ba2-b3a7-0436a991b09d)"/>
        <g>
          <path d="m763.86,186.46c-6.38,24.07-31.97,43.76-56.87,43.76H36.14c-24.9,0-40.06-19.69-33.68-43.76L40,44.77C46.37,20.69,71.97,1,96.87,1h670.85c24.9,0,40.06,19.69,33.68,43.77l-9.45,35.67c-6.38,24.07-16.81,63.46-23.19,87.53l-4.9,18.5Z" fill="#fff" stroke="url(#uuid-e5b8a0bd-2878-45d8-b8a6-4caa5f2c5a16)" stroke-miterlimit="10" stroke-width="2"/>
          <path d="m767.72,1H96.87c-24.9,0-50.49,19.69-56.87,43.77L2.46,186.46c-6.38,24.07,8.78,43.76,33.68,43.76h670.85c24.9,0,50.49-19.69,56.87-43.76l4.9-18.5c6.38-24.07,16.81-63.46,23.19-87.53l9.45-35.67c6.38-24.07-8.78-43.77-33.68-43.77Zm27.64,47.35l-10.28,37.7c-6.36,23.32-16.77,61.49-23.13,84.81l-3.28,12.02c-6.36,23.32-31.34,42.41-55.52,42.41H40.89c-24.18,0-38.75-19.08-32.39-42.41L45.19,48.35c6.36-23.33,31.35-42.4,55.52-42.4h662.26c24.18,0,38.75,19.08,32.39,42.4Z" fill="url(#uuid-555ab982-ad97-4425-ba97-fab833aab924)" mix-blend-mode="soft-light"/>
        </g>
      </g>
      <g>
        <path d="m855.47,120.77c0,.85.28,1.61.84,2.28.56.67,1.32,1.08,2.27,1.24v3.09c-.94,0-1.71-.13-2.29-.4-.58-.27-1.33-.77-2.24-1.49-1.46,1.54-3.33,2.31-5.62,2.32-1.78,0-3.58-.67-5.41-2-1.35,1.32-3.12,1.99-5.31,2-1.21,0-2.39-.24-3.55-.71-.28,2.49-1.43,4.59-3.46,6.31-2.01,1.72-4.5,2.58-7.48,2.58s-5.42-.95-7.29-2.85c-1.88-1.9-2.82-4.15-2.82-6.76,0-3.76,1.78-6.6,5.35-8.52l1.81,2.78c-2.5,1.44-3.76,3.43-3.78,5.98,0,1.64.66,3.1,1.97,4.37,1.33,1.27,3.01,1.91,5.03,1.91s3.75-.67,5.19-2c1.44-1.33,2.16-2.84,2.16-4.54v-14.23h3.38v9.28c0,.92.34,1.7,1.01,2.34.68.64,1.51.96,2.51.96s1.85-.32,2.56-.96c.71-.64,1.07-1.42,1.07-2.34v-9.28h3.38v9.28c0,.85.37,1.62,1.12,2.29.75.67,1.6,1.01,2.55,1.01s1.8-.32,2.55-.96c.75-.64,1.12-1.42,1.12-2.34v-9.28h3.38v8.63Z" fill="#fff"/>
        <path d="m871.92,124.3v3.09h-13.82v-3.09h6.96v-12.2h3.38v12.2h3.48Zm-8.9,6.04c.38-.34.83-.51,1.36-.51s.97.17,1.33.51c.36.34.54.75.54,1.23s-.18.88-.54,1.21c-.36.33-.81.49-1.33.49s-.98-.16-1.36-.49c-.38-.33-.57-.73-.57-1.21s.19-.89.57-1.23Zm4.88,0c.37-.34.82-.51,1.36-.51s.98.17,1.34.51c.36.34.54.75.54,1.23s-.18.88-.54,1.21c-.36.33-.81.49-1.34.49s-.98-.16-1.36-.49c-.37-.33-.56-.73-.56-1.21s.19-.89.56-1.23Z" fill="#fff"/>
        <path d="m877.19,122.62c0-2.12.83-3.99,2.5-5.61,1.67-1.62,3.66-2.43,5.97-2.43s4.31.77,6.01,2.31c1.69,1.54,2.54,3.37,2.54,5.49,0,.56-.13,1.2-.4,1.91h3.17v3.09h-4.87c-1.79,1.74-3.93,2.61-6.43,2.61s-4.67-.87-6.52-2.61h-7.84v-3.09h6.19c-.21-.62-.31-1.18-.31-1.68Zm12.05-3.53c-1.06-.95-2.29-1.42-3.69-1.42s-2.58.48-3.54,1.45c-.96.97-1.44,2.04-1.44,3.22s.47,2.24,1.41,3.17c.94.93,2.14,1.4,3.6,1.4s2.7-.46,3.72-1.38c1.02-.92,1.53-1.98,1.53-3.19s-.53-2.29-1.59-3.24Z" fill="#fff"/>
        <path d="m910.22,110.97c3.28,0,6.13,1.1,8.57,3.29,2.85,2.66,4.42,6,4.71,10.04h2.79v3.09h-29.77v-3.09h23.61c-.36-3.33-1.51-5.87-3.46-7.62-1.95-1.75-3.99-2.62-6.13-2.62s-4.1.54-5.87,1.63l-2.07-2.48c2.43-1.49,4.97-2.24,7.63-2.24Zm-.91-5.13c.38-.34.83-.51,1.36-.51s.97.17,1.33.51c.36.34.54.75.54,1.23s-.18.88-.54,1.21c-.36.33-.81.49-1.33.49s-.98-.16-1.36-.49c-.38-.33-.57-.73-.57-1.21s.19-.89.57-1.23Z" fill="#fff"/>
        <path d="m934.88,127.38h-9.2v-3.09h5.82v-18.66h3.38v21.75Z" fill="#fff"/>
        <path d="m943.73,127.38h-3.38v-21.7h3.38v21.7Z" fill="#fff"/>
      </g>
      <g>
        <path d="m452.59,83.38h-2.76v-17.71h2.76v17.71Z" fill="#666"/>
        <path d="m464.85,80.86v2.52h-3.17c-1.1,2.64-2.59,4.86-4.47,6.64l-2.41-1.64c2.55-2.77,4.09-5.67,4.64-8.7s.1-5.95-1.35-8.78h3.23c1.42,3.39,1.76,6.71,1.02,9.96h2.5Z" fill="#666"/>
        <path d="m493.58,80.86v2.52h-29.19v-2.52h4.71c.2-2.63,1.17-4.93,2.91-6.88,1.74-1.95,3.98-3.06,6.73-3.32v-3.77h2.76v3.77c2.79.15,5.07,1.21,6.83,3.18,1.76,1.96,2.75,4.3,2.96,7.02h2.3Zm-14.84,0v-7.68c-1.95.35-3.6,1.27-4.93,2.76-1.33,1.49-1.9,3.13-1.69,4.91h6.62Zm2.76,0h6.71c.17-1.81-.41-3.48-1.76-5.02-1.35-1.54-3-2.45-4.95-2.73v7.75Z" fill="#666"/>
        <path d="m508.61,70.55c2.07,0,3.89.38,5.47,1.16,1.58.76,2.78,1.78,3.6,3.06,1.66,2.57,2.31,5.45,1.95,8.62h-26.53v-2.52h4.75v-15.2h2.76v8.28c1.9-2.27,4.56-3.4,8-3.4Zm5.88,4.89c-1.66-1.58-3.61-2.37-5.86-2.37s-4.17.79-5.77,2.37-2.29,3.39-2.07,5.42h15.88c.2-2.03-.53-3.84-2.18-5.42Zm-7.14-8.85c.31-.28.68-.42,1.11-.42s.79.14,1.09.42c.29.28.44.62.44,1.01s-.15.72-.44.99c-.29.27-.66.4-1.09.4s-.8-.13-1.11-.4c-.31-.27-.46-.6-.46-.99s.15-.73.46-1.01Z" fill="#666"/>
        <path d="m536.23,65.67c1.8,0,3.31.53,4.54,1.6,1.22,1.07,1.82,2.3,1.81,3.71,0,1.41-.36,2.56-1.08,3.46s-1.83,1.87-3.36,2.91l-5.48,3.79v.04h9.83v2.21h-10.7c-1.73,0-2.59-.61-2.59-1.83.01-.46.17-.83.46-1.11.29-.29.72-.62,1.28-1.02l6.79-4.8c1.39-.99,2.09-2.13,2.09-3.43,0-.96-.36-1.76-1.07-2.4-.74-.61-1.69-.92-2.85-.92-1.16-.01-2.09.32-2.79.99-.7.68-1.04,1.52-1.04,2.52s.38,1.8,1.15,2.4c.68.61,1.52.96,2.5,1.05l-2.26,1.6c-2.64-.86-3.96-2.6-3.98-5.22.01-1.63.69-2.96,2.03-4.01,1.34-1.04,2.91-1.56,4.71-1.54Z" fill="#666"/>
        <path d="m547.48,73.42c.43,0,.79.14,1.1.43.3.29.46.64.46,1.05s-.16.77-.48,1.05c-.32.29-.68.43-1.1.43s-.77-.15-1.08-.45c-.3-.3-.46-.66-.46-1.07s.15-.75.46-1.02c.3-.29.67-.43,1.1-.43Zm-1.55,8.63c0-.4.15-.75.46-1.04.3-.29.67-.43,1.1-.43.43.01.79.16,1.1.45.3.29.46.64.46,1.05s-.16.76-.48,1.04-.68.41-1.1.41-.77-.14-1.08-.43c-.3-.29-.46-.64-.46-1.05Z" fill="#666"/>
        <path d="m552.33,72.09c0-1.98.67-3.55,2.02-4.71,1.26-1.15,2.82-1.72,4.68-1.72s3.44.59,4.76,1.76,1.98,2.73,2,4.67v5.18c0,1.89-.67,3.46-2,4.71-1.29,1.12-2.88,1.68-4.76,1.68s-3.47-.59-4.76-1.76c-1.29-1.17-1.93-2.71-1.93-4.63v-5.18Zm10.7.14c.01-1.3-.33-2.29-1.02-2.99-.7-.7-1.68-1.05-2.96-1.05s-2.26.35-2.94,1.05c-.68.7-1.02,1.7-1.02,2.99v5.15c0,1.3.34,2.29,1.02,2.99.68.71,1.66,1.07,2.94,1.07s2.26-.35,2.94-1.05c.68-.7,1.03-1.7,1.04-3.01v-5.15Z" fill="#666"/>
        <path d="m567.69,72.09c0-1.98.67-3.55,2.02-4.71,1.26-1.15,2.82-1.72,4.68-1.72s3.44.59,4.76,1.76,1.98,2.73,2,4.67v5.18c0,1.89-.67,3.46-2,4.71-1.29,1.12-2.88,1.68-4.76,1.68s-3.47-.59-4.76-1.76c-1.29-1.17-1.93-2.71-1.93-4.63v-5.18Zm10.7.14c.01-1.3-.33-2.29-1.02-2.99-.7-.7-1.68-1.05-2.96-1.05s-2.26.35-2.94,1.05c-.68.7-1.02,1.7-1.02,2.99v5.15c0,1.3.34,2.29,1.02,2.99.68.71,1.66,1.07,2.94,1.07s2.26-.35,2.94-1.05c.68-.7,1.03-1.7,1.04-3.01v-5.15Z" fill="#666"/>
        <path d="m601.81,78.42h-6.16v-2.07h6.16v2.07Z" fill="#666"/>
        <path d="m620.29,80.86h2.8v2.52h-5.56v-17.71h2.76v15.2Z" fill="#666"/>
        <path d="m634.25,69.98c2.4,0,4.66.95,6.76,2.85,2.11,1.9,3.32,4.38,3.64,7.45.09,1.1.13,2.13.13,3.1h-22.11v-2.52h19.31c-.29-2.72-1.23-4.79-2.81-6.22-1.58-1.43-3.25-2.14-5-2.14s-3.35.44-4.8,1.33l-1.69-2.02c1.98-1.22,4.17-1.83,6.58-1.83Z" fill="#666"/>
        <path d="m651.96,80.86h2.8v2.52h-5.56v-17.71h2.76v15.2Z" fill="#666"/>
        <path d="m663.11,80.86h2.5v2.52h-10.94v-2.52h5.34v-9.96h3.1v9.96Zm-2.72,4.93c.34-.28.75-.42,1.24-.42s.9.14,1.23.42c.33.28.5.62.5,1.01s-.17.72-.5.99c-.33.27-.74.4-1.23.4s-.9-.13-1.24-.4c-.34-.27-.51-.6-.51-.99s.17-.73.51-1.01Z" fill="#666"/>
        <path d="m676.72,71.68c1.37-.78,3.15-1.17,5.32-1.17s4.04.44,5.62,1.33c1.58.88,2.73,2.01,3.45,3.37,1.45,2.71,2,5.44,1.67,8.17h-27.62v-2.52h4.75v-9.8h2.76v4.2c1.33-1.6,2.68-2.79,4.06-3.57Zm10.93,3.72c-1.64-1.58-3.58-2.37-5.82-2.37s-4.16.8-5.77,2.39c-1.61,1.6-2.32,3.41-2.12,5.44h15.86c.2-2.06-.52-3.88-2.16-5.46Z" fill="#666"/>
        <path d="m712.4,65.98c1.98,0,2.97.6,2.97,1.79,0,.48-.17,1.06-.5,1.72-.36.59-.75,1.34-1.15,2.28l-5.73,11.61h-3.06l7.59-15.2h-9.87v-2.21h9.74Z" fill="#666"/>
        <path d="m720.59,73.42c.43,0,.79.14,1.1.43.3.29.46.64.46,1.05s-.16.77-.48,1.05c-.32.29-.68.43-1.1.43s-.77-.15-1.08-.45c-.3-.3-.46-.66-.46-1.07s.15-.75.46-1.02c.3-.29.67-.43,1.1-.43Zm-1.55,8.63c0-.4.15-.75.46-1.04.3-.29.67-.43,1.1-.43.43.01.79.16,1.1.45.3.29.46.64.46,1.05s-.16.76-.48,1.04-.68.41-1.1.41-.77-.14-1.08-.43c-.3-.29-.46-.64-.46-1.05Z" fill="#666"/>
        <path d="m725.44,72.09c0-1.98.67-3.55,2.02-4.71,1.26-1.15,2.82-1.72,4.68-1.72s3.44.59,4.76,1.76,1.98,2.73,2,4.67v5.18c0,1.89-.67,3.46-2,4.71-1.29,1.12-2.88,1.68-4.76,1.68s-3.47-.59-4.76-1.76c-1.29-1.17-1.93-2.71-1.93-4.63v-5.18Zm10.7.14c.01-1.3-.33-2.29-1.02-2.99-.7-.7-1.68-1.05-2.96-1.05s-2.26.35-2.94,1.05c-.68.7-1.02,1.7-1.02,2.99v5.15c0,1.3.34,2.29,1.02,2.99.68.71,1.66,1.07,2.94,1.07s2.26-.35,2.94-1.05c.68-.7,1.03-1.7,1.04-3.01v-5.15Z" fill="#666"/>
        <path d="m740.8,72.09c0-1.98.67-3.55,2.02-4.71,1.26-1.15,2.82-1.72,4.68-1.72s3.44.59,4.76,1.76,1.98,2.73,2,4.67v5.18c0,1.89-.67,3.46-2,4.71-1.29,1.12-2.88,1.68-4.76,1.68s-3.47-.59-4.76-1.76c-1.29-1.17-1.93-2.71-1.93-4.63v-5.18Zm10.7.14c.01-1.3-.33-2.29-1.02-2.99-.7-.7-1.68-1.05-2.96-1.05s-2.26.35-2.94,1.05c-.68.7-1.02,1.7-1.02,2.99v5.15c0,1.3.34,2.29,1.02,2.99.68.71,1.66,1.07,2.94,1.07s2.26-.35,2.94-1.05c.68-.7,1.03-1.7,1.04-3.01v-5.15Z" fill="#666"/>
        <path d="m589.16,152.35c0,2.16-.84,4.01-2.53,5.56s-3.73,2.31-6.14,2.31-4.45-.75-6.14-2.26c-1.69-1.5-2.53-3.35-2.53-5.54,0-1.45.4-2.79,1.21-4.04s1.89-2.25,3.27-3.01l1.48,2.36c-1.07.72-1.87,1.41-2.4,2.08-.53.67-.79,1.62-.79,2.84s.59,2.37,1.77,3.44c1.18,1.07,2.55,1.6,4.12,1.6s2.95-.53,4.14-1.58,1.79-2.29,1.79-3.69v-16.95h2.76v16.88Z" fill="#666"/>
        <path d="m596.48,150.86h2.8v2.52h-5.56v-17.71h2.76v15.2Z" fill="#666"/>
        <path d="m610.43,139.98c2.4,0,4.66.95,6.76,2.85,2.11,1.9,3.32,4.38,3.64,7.45.09,1.1.13,2.13.13,3.1h-22.11v-2.52h19.31c-.29-2.72-1.23-4.79-2.81-6.22-1.58-1.43-3.25-2.14-5-2.14s-3.35.44-4.8,1.33l-1.69-2.02c1.98-1.22,4.17-1.83,6.58-1.83Zm-.51,17.37c.31-.28.68-.42,1.12-.42s.8.14,1.09.42c.29.28.43.62.43,1.01s-.15.72-.45.99c-.3.27-.66.4-1.08.4s-.8-.13-1.11-.4c-.31-.27-.47-.6-.47-.99s.16-.73.47-1.01Z" fill="#666"/>
        <path d="m631.16,147.62c0,4.88-1.86,9.02-5.58,12.4l-2.41-1.64c3.25-3.57,4.88-7.25,4.88-11.04,0-2.19-.53-4.34-1.58-6.45h3.31c.92,2.21,1.38,4.45,1.38,6.72Z" fill="#666"/>
      </g>
      <g>
        <path d="m71.15,83.38h-2.76v-17.71h2.76v17.71Z" fill="#666"/>
        <path d="m78.16,78.14c0-1.06.47-1.99,1.4-2.81.93-.81,2.15-1.22,3.65-1.22s2.9.53,4.2,1.58l-1.82,2.16c-.62-.81-1.49-1.22-2.6-1.22-1.33,0-2.02.67-2.06,2.01.03,1.32,1.11,2.06,3.23,2.23h3.26v2.52h-11.96v-2.52h3.6c-.59-.76-.89-1.67-.89-2.73Z" fill="#666"/>
        <path d="m94.72,80.86h2.8v2.52h-5.56v-17.71h2.76v15.2Z" fill="#666"/>
        <path d="m121.93,80.86h2.34v2.52h-1.91c-.56,0-1.27-.34-2.12-1.04-1.25.7-2.65,1.05-4.21,1.05s-2.97-.47-4.24-1.43c-1.09.94-2.44,1.41-4.07,1.41s-3-.34-4.11-1.04c-.7.69-1.48,1.04-2.32,1.04h-4.21v-2.52h4.75v-9.96h2.76v7.52c0,.74.28,1.37.85,1.89.57.52,1.25.78,2.05.78s1.49-.26,2.07-.78c.58-.52.87-1.15.87-1.89v-7.52h2.76v7.52c0,.69.3,1.31.91,1.86s1.31.82,2.09.82,1.48-.26,2.08-.78c.6-.52.9-1.15.9-1.89v-7.52h2.76v9.96Z" fill="#666"/>
        <path d="m130.79,72.67c1.38-1.28,3-1.92,4.87-1.92s3.5.63,4.88,1.89c1.38,1.26,2.07,2.75,2.07,4.46s-.68,3.19-2.04,4.42c-1.36,1.24-2.96,1.86-4.8,1.86h-11.83v-2.52h6.16c-.94-1.2-1.41-2.55-1.4-4.04,0-1.49.7-2.88,2.07-4.16Zm7.78,1.75c-.86-.77-1.87-1.15-3.01-1.15s-2.11.39-2.89,1.16c-.78.78-1.18,1.64-1.18,2.6s.39,1.82,1.18,2.6c.78.78,1.76,1.16,2.94,1.16s2.18-.38,3.01-1.14,1.25-1.63,1.25-2.61-.43-1.85-1.29-2.62Z" fill="#666"/>
        <path d="m153.27,69.72c0-.99.52-1.91,1.55-2.78,1.03-.87,2.36-1.29,3.98-1.28,1.6,0,2.91.39,3.91,1.16,1.05.74,1.57,1.78,1.57,3.13s-.56,2.54-1.68,3.58c2.05.99,3.08,2.53,3.09,4.61,0,1.55-.58,2.83-1.76,3.83-1.23,1.12-2.91,1.68-5.05,1.68s-3.82-.54-5.04-1.61c-1.23-1.07-1.85-2.38-1.85-3.93,0-1.9,1.03-3.43,3.08-4.58-.63-.58-1.08-1.12-1.37-1.62-.29-.48-.43-1.21-.43-2.2Zm8.53,5.98c-.75-.61-1.74-.91-2.96-.91s-2.21.3-2.96.91c-.75.61-1.13,1.41-1.13,2.42s.38,1.81,1.13,2.42c.75.61,1.74.91,2.96.91s2.2-.3,2.94-.91c.74-.61,1.12-1.41,1.13-2.42.01-1.01-.36-1.81-1.11-2.42Zm-1.04-7.14c-.51-.45-1.17-.68-1.98-.68s-1.47.23-1.98.68c-.51.45-.76,1.01-.76,1.67s.25,1.22.76,1.67c.51.45,1.17.68,1.98.68s1.47-.23,1.98-.68c.51-.45.76-1.01.76-1.67s-.25-1.22-.76-1.67Z" fill="#666"/>
        <path d="m170.32,73.42c.43,0,.79.14,1.1.43.3.29.46.64.46,1.05s-.16.77-.48,1.05c-.32.29-.68.43-1.1.43s-.77-.15-1.08-.45c-.3-.3-.46-.66-.46-1.07s.15-.75.46-1.02c.3-.29.67-.43,1.1-.43Zm-1.55,8.63c0-.4.15-.75.46-1.04.3-.29.67-.43,1.1-.43.43.01.79.16,1.1.45.3.29.46.64.46,1.05s-.16.76-.48,1.04-.68.41-1.1.41-.77-.14-1.08-.43c-.3-.29-.46-.64-.46-1.05Z" fill="#666"/>
        <path d="m175.16,72.09c0-1.98.67-3.55,2.02-4.71,1.26-1.15,2.82-1.72,4.68-1.72s3.44.59,4.76,1.76,1.98,2.73,2,4.67v5.18c0,1.89-.67,3.46-2,4.71-1.29,1.12-2.88,1.68-4.76,1.68s-3.47-.59-4.76-1.76c-1.29-1.17-1.93-2.71-1.93-4.63v-5.18Zm10.7.14c.01-1.3-.33-2.29-1.02-2.99-.7-.7-1.68-1.05-2.96-1.05s-2.26.35-2.94,1.05c-.68.7-1.02,1.7-1.02,2.99v5.15c0,1.3.34,2.29,1.02,2.99.68.71,1.66,1.07,2.94,1.07s2.26-.35,2.94-1.05c.68-.7,1.03-1.7,1.04-3.01v-5.15Z" fill="#666"/>
        <path d="m190.53,72.09c0-1.98.67-3.55,2.02-4.71,1.26-1.15,2.82-1.72,4.68-1.72s3.44.59,4.76,1.76,1.98,2.73,2,4.67v5.18c0,1.89-.67,3.46-2,4.71-1.29,1.12-2.88,1.68-4.76,1.68s-3.47-.59-4.76-1.76c-1.29-1.17-1.93-2.71-1.93-4.63v-5.18Zm10.7.14c.01-1.3-.33-2.29-1.02-2.99-.7-.7-1.68-1.05-2.96-1.05s-2.26.35-2.94,1.05c-.68.7-1.02,1.7-1.02,2.99v5.15c0,1.3.34,2.29,1.02,2.99.68.71,1.66,1.07,2.94,1.07s2.26-.35,2.94-1.05c.68-.7,1.03-1.7,1.04-3.01v-5.15Z" fill="#666"/>
        <path d="m224.64,78.42h-6.16v-2.07h6.16v2.07Z" fill="#666"/>
        <path d="m243.13,83.38h-2.76v-17.71h2.76v17.71Z" fill="#666"/>
        <path d="m255.39,80.86v2.52h-3.17c-1.1,2.64-2.59,4.86-4.47,6.64l-2.41-1.64c2.55-2.77,4.09-5.67,4.64-8.7.55-3.03.1-5.95-1.35-8.78h3.23c1.42,3.39,1.76,6.71,1.02,9.96h2.5Z" fill="#666"/>
        <path d="m284.13,80.86v2.52h-29.19v-2.52h4.71c.2-2.63,1.17-4.93,2.91-6.88,1.74-1.95,3.98-3.06,6.73-3.32v-3.77h2.76v3.77c2.79.15,5.07,1.21,6.83,3.18,1.76,1.96,2.75,4.3,2.96,7.02h2.3Zm-14.84,0v-7.68c-1.95.35-3.59,1.27-4.93,2.76-1.33,1.49-1.9,3.13-1.69,4.91h6.62Zm2.76,0h6.71c.17-1.81-.41-3.48-1.76-5.02-1.34-1.54-2.99-2.45-4.95-2.73v7.75Z" fill="#666"/>
        <path d="m299.15,70.55c2.07,0,3.89.38,5.47,1.16,1.58.76,2.78,1.78,3.6,3.06,1.66,2.57,2.31,5.45,1.95,8.62h-26.53v-2.52h4.75v-15.2h2.76v8.28c1.9-2.27,4.56-3.4,8-3.4Zm5.88,4.89c-1.66-1.58-3.61-2.37-5.86-2.37s-4.17.79-5.77,2.37-2.29,3.39-2.07,5.42h15.88c.2-2.03-.53-3.84-2.18-5.42Zm-7.14-8.85c.31-.28.68-.42,1.11-.42s.79.14,1.09.42c.29.28.44.62.44,1.01s-.15.72-.44.99c-.29.27-.66.4-1.09.4s-.8-.13-1.11-.4c-.31-.27-.46-.6-.46-.99s.15-.73.46-1.01Z" fill="#666"/>
        <path d="m326.78,65.67c1.8,0,3.31.53,4.54,1.6,1.22,1.07,1.82,2.3,1.81,3.71,0,1.41-.36,2.56-1.08,3.46s-1.83,1.87-3.36,2.91l-5.48,3.79v.04h9.83v2.21h-10.7c-1.73,0-2.59-.61-2.59-1.83.01-.46.17-.83.46-1.11.29-.29.72-.62,1.28-1.02l6.79-4.8c1.39-.99,2.09-2.13,2.09-3.43,0-.96-.36-1.76-1.07-2.4-.74-.61-1.69-.92-2.85-.92-1.16-.01-2.09.32-2.79.99-.7.68-1.04,1.52-1.04,2.52s.38,1.8,1.15,2.4c.68.61,1.52.96,2.5,1.05l-2.26,1.6c-2.64-.86-3.96-2.6-3.98-5.22.01-1.63.69-2.96,2.03-4.01,1.34-1.04,2.91-1.56,4.71-1.54Z" fill="#666"/>
        <path d="m338.02,73.42c.43,0,.79.14,1.1.43.3.29.46.64.46,1.05s-.16.77-.48,1.05c-.32.29-.68.43-1.1.43s-.77-.15-1.08-.45c-.3-.3-.46-.66-.46-1.07s.15-.75.46-1.02c.3-.29.67-.43,1.1-.43Zm-1.55,8.63c0-.4.15-.75.46-1.04.3-.29.67-.43,1.1-.43.43.01.79.16,1.1.45.3.29.46.64.46,1.05s-.16.76-.48,1.04-.68.41-1.1.41-.77-.14-1.08-.43c-.3-.29-.46-.64-.46-1.05Z" fill="#666"/>
        <path d="m342.87,72.09c0-1.98.67-3.55,2.02-4.71,1.26-1.15,2.82-1.72,4.68-1.72s3.44.59,4.76,1.76,1.98,2.73,2,4.67v5.18c0,1.89-.67,3.46-2,4.71-1.29,1.12-2.88,1.68-4.76,1.68s-3.47-.59-4.76-1.76c-1.29-1.17-1.93-2.71-1.93-4.63v-5.18Zm10.7.14c.01-1.3-.33-2.29-1.02-2.99-.7-.7-1.68-1.05-2.96-1.05s-2.26.35-2.94,1.05c-.68.7-1.02,1.7-1.02,2.99v5.15c0,1.3.34,2.29,1.02,2.99.68.71,1.66,1.07,2.94,1.07s2.26-.35,2.94-1.05c.68-.7,1.03-1.7,1.04-3.01v-5.15Z" fill="#666"/>
        <path d="m358.24,72.09c0-1.98.67-3.55,2.02-4.71,1.26-1.15,2.82-1.72,4.68-1.72s3.44.59,4.76,1.76,1.98,2.73,2,4.67v5.18c0,1.89-.67,3.46-2,4.71-1.29,1.12-2.88,1.68-4.76,1.68s-3.47-.59-4.76-1.76c-1.29-1.17-1.93-2.71-1.93-4.63v-5.18Zm10.7.14c.01-1.3-.33-2.29-1.02-2.99-.7-.7-1.68-1.05-2.96-1.05s-2.26.35-2.94,1.05c-.68.7-1.02,1.7-1.02,2.99v5.15c0,1.3.34,2.29,1.02,2.99.68.71,1.66,1.07,2.94,1.07s2.26-.35,2.94-1.05c.68-.7,1.03-1.7,1.04-3.01v-5.15Z" fill="#666"/>
        <path d="m207.16,152.35c0,2.16-.84,4.01-2.53,5.56s-3.73,2.31-6.14,2.31-4.45-.75-6.14-2.26c-1.69-1.5-2.53-3.35-2.53-5.54,0-1.45.4-2.79,1.21-4.04s1.89-2.25,3.27-3.01l1.48,2.36c-1.07.72-1.87,1.41-2.4,2.08-.53.67-.79,1.62-.79,2.84s.59,2.37,1.77,3.44c1.18,1.07,2.55,1.6,4.12,1.6s2.95-.53,4.14-1.58,1.79-2.29,1.79-3.69v-16.95h2.76v16.88Z" fill="#666"/>
        <path d="m214.48,150.86h2.8v2.52h-5.56v-17.71h2.76v15.2Z" fill="#666"/>
        <path d="m228.43,139.98c2.4,0,4.66.95,6.76,2.85,2.11,1.9,3.32,4.38,3.64,7.45.09,1.1.13,2.13.13,3.1h-22.11v-2.52h19.31c-.29-2.72-1.23-4.79-2.81-6.22-1.58-1.43-3.25-2.14-5-2.14s-3.35.44-4.8,1.33l-1.69-2.02c1.98-1.22,4.17-1.83,6.58-1.83Zm-.51,17.37c.31-.28.68-.42,1.12-.42s.8.14,1.09.42c.29.28.43.62.43,1.01s-.15.72-.45.99c-.3.27-.66.4-1.08.4s-.8-.13-1.11-.4c-.31-.27-.47-.6-.47-.99s.16-.73.47-1.01Z" fill="#666"/>
        <path d="m249.16,147.62c0,4.88-1.86,9.02-5.58,12.4l-2.41-1.64c3.25-3.57,4.88-7.25,4.88-11.04,0-2.19-.53-4.34-1.58-6.45h3.31c.92,2.21,1.38,4.45,1.38,6.72Z" fill="#666"/>
      </g>
      <line x1="419.12" y1="51.3" x2="380.62" y2="180.8" fill="gray" stroke="gray" stroke-miterlimit="10"/>
    </g>
  </g>
</svg>