<?xml version="1.0" encoding="UTF-8"?>
<svg xmlns="http://www.w3.org/2000/svg" xmlns:xlink="http://www.w3.org/1999/xlink" viewBox="0 0 1001 231.23">
  <defs>
    <linearGradient id="uuid-9169c55c-3f5a-4f38-9cfc-eb026080e931" data-name="New Gradient Swatch copy 6" x1="801.2" y1="115.61" x2="993.93" y2="115.61" gradientUnits="userSpaceOnUse">
      <stop offset="0" stop-color="#009ed4"/>
      <stop offset="1" stop-color="#2ec1ea"/>
    </linearGradient>
    <linearGradient id="uuid-e0eddbec-bbff-4b07-a1f2-6357efe3ec9f" data-name="New Gradient Swatch copy 6" x1="0" y1="115.61" x2="803.86" y2="115.61" xlink:href="#uuid-9169c55c-3f5a-4f38-9cfc-eb026080e931"/>
    <linearGradient id="uuid-ed77aeef-904b-427a-977d-c80751104022" x1="1" y1="115.61" x2="802.86" y2="115.61" gradientUnits="userSpaceOnUse">
      <stop offset="0" stop-color="#d1d3d4"/>
      <stop offset=".62" stop-color="#ededee" stop-opacity=".51"/>
      <stop offset="1" stop-color="#fff" stop-opacity=".2"/>
    </linearGradient>
  </defs>
  <g isolation="isolate">
    <g id="uuid-bd9be04e-a14d-4187-8d90-cb76e9e3a497" data-name="Layer 1">
      <g>
        <path d="m925.86,189.9c-6.73,6.09-19.66,11.07-28.73,11.07h-139.55c-9.07,0-14.54-7.16-12.16-15.91l37.88-138.87c2.39-8.75,11.76-15.91,20.84-15.91h139.55c9.07,0,19.99,6.55,24.28,14.55l30.78,57.57c4.28,8,2.27,19.53-4.45,25.62l-68.43,61.91Z" fill="url(#uuid-9169c55c-3f5a-4f38-9cfc-eb026080e931)"/>
        <g>
          <path d="m763.86,186.46c-6.38,24.07-31.97,43.76-56.87,43.76H36.14c-24.9,0-40.06-19.69-33.68-43.76L40,44.77C46.37,20.69,71.97,1,96.87,1h670.85c24.9,0,40.06,19.69,33.68,43.77l-9.45,35.67c-6.38,24.07-16.81,63.46-23.19,87.53l-4.9,18.5Z" fill="#fff" stroke="url(#uuid-e0eddbec-bbff-4b07-a1f2-6357efe3ec9f)" stroke-miterlimit="10" stroke-width="2"/>
          <path d="m767.72,1H96.87c-24.9,0-50.49,19.69-56.87,43.77L2.46,186.46c-6.38,24.07,8.78,43.76,33.68,43.76h670.85c24.9,0,50.49-19.69,56.87-43.76l4.9-18.5c6.38-24.07,16.81-63.46,23.19-87.53l9.45-35.67c6.38-24.07-8.78-43.77-33.68-43.77Zm27.64,47.35l-10.28,37.7c-6.36,23.32-16.77,61.49-23.13,84.81l-3.28,12.02c-6.36,23.32-31.34,42.41-55.52,42.41H40.89c-24.18,0-38.75-19.08-32.39-42.41L45.19,48.35c6.36-23.33,31.35-42.4,55.52-42.4h662.26c24.18,0,38.75,19.08,32.39,42.4Z" fill="url(#uuid-ed77aeef-904b-427a-977d-c80751104022)" mix-blend-mode="soft-light"/>
        </g>
      </g>
      <g>
        <path d="m810.96,118.97c.4,2.37,2.21,6.53,6.41,6.53,2.84,0,4.2-1.87,4.2-3.85,0-1.63-1.06-3.09-3.06-4.43l-1.22-.77c-2.55-1.72-4.81-3.71-4.81-6.6,0-4.24,3.75-6.7,8.61-6.7,1.62,0,3.06.21,4.52.69.69.21,1.2.46,1.59.55-.21,1.44-.16,3.25-.21,5.46l-1.36.1c-.37-2.15-1.38-5.41-4.84-5.41-2.55,0-3.75,1.96-3.75,3.64,0,1.77,1.12,2.85,3.22,4.14l1.17.74c2.74,1.7,5.05,3.59,5.05,6.82,0,4.4-4.25,7.11-9.54,7.11-3.35,0-6.06-1.22-7.28-2.18.03-.79.08-2.78-.05-5.65l1.36-.19Z" fill="#fff"/>
        <path d="m848.2,122.63c-2.63,2.87-5.58,4.21-6.94,4.21-1.01,0-1.89-.48-1.2-3.68l.43-1.89h-.08c-1.36,1.67-2.79,2.94-3.85,3.78-1.17.86-2.87,1.79-4.31,1.79-1.59,0-2.79-1.6-2.79-4.31,0-3.35,1.75-6.79,4.33-8.85,1.83-1.39,5.08-3.06,8.48-3.06.77,0,1.59.07,2.55.24.9.17,1.59.24,2.29.24l.24.14c-.82,2.99-1.75,6.77-2.52,10.77-.19,1.08-.16,1.44.08,1.44.4,0,1.78-.91,2.63-1.72l.66.91Zm-7.2-4.14c.5-1.7,1.28-4.81,1.36-5.65-.5-.29-1.54-.48-2.31-.48-.72,0-1.17.1-1.7.43-2.5,1.56-3.77,5.93-3.77,8.83,0,1.44.32,2.08.9,2.08,1.36,0,4.84-3.92,5.53-5.22Z" fill="#fff"/>
        <path d="m861.28,112.75l-3.77.17-1.97,8.61c-.35,1.6-.24,2.11.19,2.11.56,0,2.29-.96,3.3-1.79l.61.91c-1.54,1.84-5.13,4.09-7.31,4.09-1.46,0-2.31-1.24-1.44-4.93l2.13-9h-2.82l-.24-.36,1.09-1.36h2.39l.85-3.21,4.54-2.56.53.33-1.38,5.43h4.36l-1.06,1.55Z" fill="#fff"/>
        <path d="m881.59,122.95c-3.06,2.9-5.5,3.9-6.86,3.9s-1.7-1.32-1.09-3.68c.19-.67.4-1.56.53-2.2h-.03c-2.79,3.25-5.02,4.64-6.03,5.19-.85.5-1.91.69-2.71.69-1.25,0-2.76-.69-1.59-5.14.53-2.06,1.09-4.12,1.59-6.17.29-1.17.24-1.46.08-1.7-.35,0-1.44.84-2.42,1.48l-.5-1.08c2.58-2.2,5.29-3.61,6.78-3.61,1.22,0,1.59.86.9,3.59-.61,2.39-1.2,4.76-1.86,7.18-.4,1.6-.27,2.25.32,2.25,1.86,0,5.21-4.24,5.95-5.43.58-2.22,1.12-4.43,1.67-6.65l4.36-.93h.5c-.96,3.4-1.94,7.06-2.79,11.17-.27,1.29-.27,1.65,0,1.65.32,0,1.59-.69,2.53-1.58l.67,1.08Z" fill="#fff"/>
        <path d="m890.9,116.2c1.78-2.89,3.85-5.57,5.61-5.57.77,0,1.46.33,1.94.86.5.6.37,1.44-.16,2.2-.53.69-.93,1.1-1.36,1.46-.4.29-.69.29-.96.1-.58-.46-1.17-.69-1.67-.69-.4,0-.82.12-1.62,1.12-1.06,1.24-2.02,2.92-2.21,3.68-.48,1.87-1.17,4.88-1.49,6.72-1.46.14-3.32.5-4.49.81l-.29-.36c.96-3.54,1.81-7.13,2.55-10.84.27-1.17.27-1.7-.05-1.7-.29,0-1.73.69-2.39,1.24l-.61-1c2.37-2.06,5.02-3.61,6.54-3.61,1.12,0,1.52,1.1.85,4.04l-.35,1.53h.16Z" fill="#fff"/>
        <path d="m917.74,122.87c-2.68,2.97-5.58,3.97-6.83,3.97-.93,0-1.73-.48-1.17-3.21l.56-2.54h-.08c-1.46,1.75-3.14,3.21-4.68,4.28-1.33.91-2.55,1.46-3.8,1.46-1.75,0-3.11-1.53-3.11-4.45,0-3.3,1.73-6.94,4.55-9.02,1.86-1.44,5.34-2.75,7.04-2.75.74,0,1.3,0,2.29.26l1.04-4.88c.35-1.56.13-1.79-1.89-1.79h-.56l.24-1.12c3.91-.33,6.46-1.24,7.28-1.24.48,0,.5.26.27,1.24-1.73,6.84-3.06,12.87-4.36,18.93-.24,1.12-.29,1.46.08,1.46.35,0,1.38-.53,2.47-1.53l.67.93Zm-6.91-4.74l1.09-4.76c-.85-.77-2.1-1.12-2.9-1.12-.67,0-1.06.12-1.54.38-2.42,1.46-3.72,6.39-3.72,9,0,1.39.5,2.06,1.14,2.06,1.59,0,4.71-3.56,5.93-5.55Z" fill="#fff"/>
        <path d="m938.64,122.63c-2.63,2.87-5.58,4.21-6.94,4.21-1.01,0-1.89-.48-1.2-3.68l.43-1.89h-.08c-1.36,1.67-2.79,2.94-3.85,3.78-1.17.86-2.87,1.79-4.31,1.79-1.59,0-2.79-1.6-2.79-4.31,0-3.35,1.75-6.79,4.33-8.85,1.83-1.39,5.08-3.06,8.48-3.06.77,0,1.59.07,2.55.24.9.17,1.59.24,2.29.24l.24.14c-.82,2.99-1.75,6.77-2.52,10.77-.19,1.08-.16,1.44.08,1.44.4,0,1.78-.91,2.63-1.72l.66.91Zm-7.2-4.14c.5-1.7,1.28-4.81,1.36-5.65-.5-.29-1.54-.48-2.31-.48-.72,0-1.17.1-1.7.43-2.5,1.56-3.77,5.93-3.77,8.83,0,1.44.32,2.08.9,2.08,1.36,0,4.84-3.92,5.53-5.22Z" fill="#fff"/>
        <path d="m949.43,123.16c1.99-2.75,4.2-5.89,4.17-8.33,0-.91-.43-1.39-.58-1.89-.11-.38-.03-.84.19-1.22.48-.69,1.28-1.1,2.15-1.1s1.97.72,2.05,2.32c.03,1.03-.4,2.27-1.51,3.9-1.83,2.66-4.09,5.57-6.3,8.37-2.34,2.97-4.62,5.86-7.5,8.83l-5.18,1.08-.29-.96c3.93-2.3,6.46-4.04,8.67-6.6.08-2.82-.69-8.76-1.49-11.99-.27-1.12-.61-1.48-.8-1.48-.27,0-1.04.5-2.21,1.87l-.85-.98c1.7-2.44,4.01-4.35,5.71-4.35,1.44,0,2.29,1.22,2.79,4.69.48,3.04.67,5.02.9,7.85h.08Z" fill="#fff"/>
      </g>
      <g>
        <path d="m491.46,66.06c-3.69,5.55-7.94,11.39-12.13,17.38l-3.67.33-.2-.41c4.62-4.73,9.2-9.96,12.41-14.61h-6.96c-1.91,0-2.39.21-3.43,1.91l-1.04-.45c.74-1.74,1.24-3.3,1.65-4.49h13.17l.2.33Z" fill="#666"/>
        <path d="m492.75,83.77c-1.26,0-2.11-.88-2.11-2.01,0-1.37,1-2.36,2.45-2.36,1.3,0,2.15.86,2.15,2.07,0,1.43-1.19,2.3-2.45,2.3h-.04Zm1.3-8.05c-1.24,0-2.13-.88-2.13-2.01,0-1.37,1.06-2.36,2.52-2.36,1.26,0,2.15.86,2.15,2.07,0,1.43-1.24,2.3-2.52,2.3h-.02Z" fill="#666"/>
        <path d="m508.63,65.37c4.51,0,5.75,3.98,5.29,7.91-.41,4.79-3.28,10.49-8.87,10.49-4.67,0-6.01-3.95-5.53-8.24.35-4.3,3.32-10.16,9.07-10.16h.04Zm-.35,1.11c-2.62,0-4.08,6.41-4.49,9.96-.39,3.14-.2,6.17,1.45,6.17,2.43,0,3.97-6.72,4.38-10.21.41-2.97.24-5.92-1.32-5.92h-.02Z" fill="#666"/>
        <path d="m524.65,65.37c4.51,0,5.75,3.98,5.29,7.91-.41,4.79-3.28,10.49-8.87,10.49-4.67,0-6.01-3.95-5.53-8.24.35-4.3,3.32-10.16,9.07-10.16h.04Zm-.35,1.11c-2.62,0-4.08,6.41-4.49,9.96-.39,3.14-.2,6.17,1.45,6.17,2.43,0,3.97-6.72,4.38-10.21.41-2.97.24-5.92-1.32-5.92h-.02Z" fill="#666"/>
        <path d="m558.91,83.44h-8.81l.3-1c2.08-.2,2.19-.61,1.93-2.05-.15-.88-.3-1.88-.54-3.11h-6.29c-.63,1.04-1.21,2.23-1.76,3.22-.69,1.29-.74,1.64,1.87,1.93l-.28,1h-7.38l.33-1c1.95-.31,2.34-.45,4.23-3.36l9.22-14.22,1.76-.41.56,2.99c.72,4.02,1.61,7.97,2.28,11.74.46,2.7.65,3.01,2.86,3.26l-.28,1Zm-8.46-14.08h-.07c-1.24,1.99-2.69,4.22-3.99,6.46h5.16l-1.11-6.46Z" fill="#666"/>
        <path d="m589.92,65.88c-2.5.2-2.62.29-2.93,2.19-.69,4.39-1.15,7.64-1.63,11.21-.35,2.73-.22,2.97,2.32,3.16l-.26,1h-9.2l.28-1c2.04-.2,2.26-.39,2.73-3.12.65-3.93,1.28-7.36,1.87-10.98h-.13l-9.66,14.92h-.98c-.93-4.98-1.89-9.38-2.97-14.82h-.11l-2.21,6.84c-.95,2.99-1.28,4.26-1.43,5.23-.22,1.31.33,1.8,2.28,1.93l-.26,1h-7.49l.28-1c1.65-.12,2.41-.61,3.02-1.93.39-.82.93-2.07,1.84-4.69l2.41-6.89c.82-2.32.67-2.85-2.21-3.05l.39-1h6.44c1,4.22,2,7.95,2.99,12.34l8.55-12.34h6.34l-.28,1Z" fill="#666"/>
        <path d="m607.76,77.91h-8.18l.5-1.99h8.2l-.52,1.99Z" fill="#666"/>
        <path d="m623.47,67.05c1.32-1.07,2.8-1.68,4.8-1.68,3.17,0,5.49,1.76,5.49,4.67,0,3.38-3.28,5.35-7.92,8.65l-2.34,1.68h5.1c1.97,0,2.23-.12,3.43-1.72l1.02.35c-.69,1.48-1.26,3.01-1.8,4.43h-13.06l.17-.74c1.69-1.19,4.04-2.93,5.99-4.61,2.34-2.01,5.23-4.73,5.23-7.23,0-1.82-1.04-2.93-3.08-2.93-1.69,0-3.21,1.11-4.38,2.4l-.78-.74,2.15-2.54Z" fill="#666"/>
        <path d="m637.51,83.77c-1.26,0-2.1-.88-2.1-2.01,0-1.37,1-2.36,2.45-2.36,1.3,0,2.15.86,2.15,2.07,0,1.43-1.19,2.3-2.45,2.3h-.04Zm1.3-8.05c-1.24,0-2.13-.88-2.13-2.01,0-1.37,1.06-2.36,2.52-2.36,1.26,0,2.15.86,2.15,2.07,0,1.43-1.24,2.3-2.52,2.3h-.02Z" fill="#666"/>
        <path d="m653.4,65.37c4.51,0,5.75,3.98,5.29,7.91-.41,4.79-3.28,10.49-8.87,10.49-4.67,0-6.01-3.95-5.53-8.24.35-4.3,3.32-10.16,9.07-10.16h.04Zm-.35,1.11c-2.62,0-4.08,6.41-4.49,9.96-.39,3.14-.2,6.17,1.45,6.17,2.43,0,3.97-6.72,4.38-10.21.41-2.97.24-5.92-1.32-5.92h-.02Z" fill="#666"/>
        <path d="m669.41,65.37c4.51,0,5.75,3.98,5.29,7.91-.41,4.79-3.28,10.49-8.87,10.49-4.67,0-6.01-3.95-5.53-8.24.35-4.3,3.32-10.16,9.07-10.16h.04Zm-.35,1.11c-2.62,0-4.08,6.41-4.49,9.96-.39,3.14-.2,6.17,1.45,6.17,2.43,0,3.97-6.72,4.38-10.21.41-2.97.24-5.92-1.32-5.92h-.02Z" fill="#666"/>
        <path d="m695.5,64.88c3.91,0,7.57,1.04,7.57,4.92s-3.41,5.98-7.92,6.29c-.35,0-.61.04-.91-.02l-2.41-.51-.89,4.08c-.54,2.42-.22,2.56,2.65,2.79l-.24,1h-9.87l.26-1c2.37-.18,2.58-.39,3.12-2.79l2.3-10.8c.54-2.48.33-2.79-2.04-2.97l.24-1h8.14Zm-3.38,9.59c.41.14,1.04.29,1.87.29,2.91,0,4.71-2.62,4.71-5.29,0-2.34-1.37-3.42-3.25-3.42-.63,0-1.04.12-1.3.25-.3.18-.48.61-.65,1.54l-1.37,6.62Z" fill="#666"/>
        <path d="m731.93,65.88c-2.5.2-2.62.29-2.93,2.19-.69,4.39-1.15,7.64-1.63,11.21-.35,2.73-.22,2.97,2.32,3.16l-.26,1h-9.2l.28-1c2.04-.2,2.26-.39,2.73-3.12.65-3.93,1.28-7.36,1.87-10.98h-.13l-9.66,14.92h-.98c-.93-4.98-1.89-9.38-2.97-14.82h-.11l-2.21,6.84c-.95,2.99-1.28,4.26-1.43,5.23-.22,1.31.33,1.8,2.28,1.93l-.26,1h-7.49l.28-1c1.65-.12,2.41-.61,3.02-1.93.39-.82.93-2.07,1.84-4.69l2.41-6.89c.82-2.32.67-2.85-2.21-3.05l.39-1h6.44c1,4.22,2,7.95,2.99,12.34l8.55-12.34h6.34l-.28,1Z" fill="#666"/>
        <path d="m583.48,135.88c-2.02.25-2.23.41-3.6,2.87-1.67,2.99-3.99,7.15-8.05,15h-1.56l-2.65-12.83h-.06l-7.05,12.83h-1.54l-2.19-15.16c-.28-2.21-.59-2.52-2.65-2.71l.26-1h8.59l-.26,1-.72.12c-1.11.2-1.37.37-1.17,1.97l1.21,10.16h.07l6.96-13.07h1.45l2.69,13.12h.06c1.95-3.77,3.71-7.4,4.8-9.59,1.04-2.21.82-2.52-1.13-2.68l-.52-.04.28-1h7.09l-.33,1Z" fill="#666"/>
        <path d="m579.71,149.03c0-3.73,2.43-6.41,4.84-7.48,1.32-.62,2.78-1.02,4.17-1.02,3.19,0,4.84,1.84,4.84,4.55,0,2.46-1.04,5.06-3.38,6.82-1.43,1.11-3.58,1.88-5.58,1.88-3.88,0-4.88-2.52-4.88-4.75Zm6.99,3.34c1.26-.47,2.71-3.46,2.67-7.38,0-2.27-.85-3.2-1.89-3.2-.26,0-.56.02-.82.14-.82.35-2.78,2.73-2.78,7.34,0,2.25,1.02,3.2,2.02,3.2.35,0,.54-.02.8-.1Z" fill="#666"/>
        <path d="m619.23,150.7c-2.13,2.11-4.43,3.07-5.45,3.07s-1.61-.62-1-2.87l1.63-6.19c.28-1.09.2-1.66-.15-1.66-1.02,0-3.86,2.87-5.03,4.73-.43,1.72-.87,3.55-1.26,5.37-1.34.12-2.78.41-3.8.66l-.22-.29c.76-2.83,1.5-5.55,2.15-8.07.39-1.68.35-2.4-.09-2.4-1.04,0-4.06,3.11-5.03,4.71-.5,1.5-1,3.55-1.41,5.39-1.24.12-2.69.41-3.71.66l-.22-.31c.96-3.11,1.67-6.04,2.5-9.39.15-.59.15-.88-.09-.88-.35,0-1.45.68-2.02,1.17l-.41-.86c2.08-1.86,4.25-3.01,5.53-3.01,1.11,0,1.19,1.11.58,3.32l-.48,1.8h.06c2.32-2.7,4.23-3.98,5.06-4.43.87-.49,1.63-.68,2.28-.68.96,0,2.13.43,1.21,4.24l-.19.7h.06c2.24-2.62,4.08-3.87,5.06-4.36.85-.43,1.48-.59,2.1-.59.89,0,2.13.43,1.15,4.32l-1.39,5.35c-.17.64-.04.86.15.86.28,0,1.3-.66,1.93-1.17l.48.82Z" fill="#666"/>
        <path d="m636.4,150.33c-2.15,2.34-4.56,3.44-5.66,3.44-.82,0-1.54-.39-.98-3.01l.35-1.54h-.07c-1.11,1.37-2.28,2.4-3.15,3.09-.96.7-2.34,1.46-3.52,1.46-1.3,0-2.28-1.31-2.28-3.52,0-2.73,1.43-5.55,3.54-7.23,1.5-1.13,4.14-2.5,6.92-2.5.63,0,1.3.06,2.08.2.74.14,1.3.2,1.87.2l.2.12c-.67,2.44-1.43,5.53-2.06,8.79-.15.88-.13,1.17.06,1.17.33,0,1.45-.74,2.15-1.41l.54.74Zm-5.88-3.38c.41-1.39,1.04-3.93,1.11-4.61-.41-.23-1.26-.39-1.89-.39-.59,0-.95.08-1.39.35-2.04,1.27-3.08,4.84-3.08,7.21,0,1.17.26,1.7.74,1.7,1.11,0,3.95-3.2,4.51-4.26Z" fill="#666"/>
        <path d="m653.32,150.69c-2.47,2.3-4.34,3.09-5.53,3.09-.91,0-1.61-.59-.91-3.18.5-1.93.98-3.83,1.48-5.74.39-1.48.15-1.76-.2-1.76-1.06,0-4.01,3.01-5.12,4.79-.43,1.58-.91,3.38-1.32,5.27-1.19.12-2.71.41-3.62.66l-.26-.29c.82-3.14,1.61-6.11,2.36-9.3.22-.86.2-1.07-.02-1.07-.28,0-1.45.59-2.06,1.15l-.48-.88c2.28-1.93,4.3-2.89,5.51-2.89.91,0,1.35.84.63,3.77l-.33,1.29h.07c1.5-1.8,3.23-3.24,4.62-4.12.95-.61,1.89-.94,2.75-.94,1.04,0,2.11.47,1.11,4.39-.41,1.68-.87,3.36-1.3,5.08-.15.68-.13,1,.13,1,.28,0,1.26-.57,1.95-1.17l.54.86Z" fill="#666"/>
      </g>
      <g>
        <path d="m98.08,67.05c1.32-1.07,2.8-1.68,4.79-1.68,3.17,0,5.49,1.76,5.49,4.67,0,3.38-3.28,5.35-7.92,8.65l-2.34,1.68h5.1c1.97,0,2.23-.12,3.43-1.72l1.02.35c-.69,1.48-1.26,3.01-1.8,4.43h-13.06l.17-.74c1.69-1.19,4.04-2.93,5.99-4.61,2.34-2.01,5.23-4.73,5.23-7.23,0-1.82-1.04-2.93-3.08-2.93-1.69,0-3.21,1.11-4.38,2.4l-.78-.74,2.15-2.54Z" fill="#666"/>
        <path d="m112.12,83.77c-1.26,0-2.1-.88-2.1-2.01,0-1.37,1-2.36,2.45-2.36,1.3,0,2.15.86,2.15,2.07,0,1.43-1.19,2.3-2.45,2.3h-.04Zm1.3-8.05c-1.24,0-2.13-.88-2.13-2.01,0-1.37,1.06-2.36,2.52-2.36,1.26,0,2.15.86,2.15,2.07,0,1.43-1.24,2.3-2.52,2.3h-.02Z" fill="#666"/>
        <path d="m128.01,65.37c4.51,0,5.75,3.98,5.29,7.91-.41,4.79-3.28,10.49-8.87,10.49-4.67,0-6.01-3.95-5.53-8.24.35-4.3,3.32-10.16,9.07-10.16h.04Zm-.35,1.11c-2.62,0-4.08,6.41-4.49,9.96-.39,3.14-.2,6.17,1.45,6.17,2.43,0,3.97-6.72,4.38-10.21.41-2.97.24-5.92-1.32-5.92h-.02Z" fill="#666"/>
        <path d="m144.02,65.37c4.51,0,5.75,3.98,5.29,7.91-.41,4.79-3.28,10.49-8.87,10.49-4.67,0-6.01-3.95-5.53-8.24.35-4.3,3.32-10.16,9.07-10.16h.04Zm-.35,1.11c-2.62,0-4.08,6.41-4.49,9.96-.39,3.14-.2,6.17,1.45,6.17,2.43,0,3.97-6.72,4.38-10.21.41-2.97.24-5.92-1.32-5.92h-.02Z" fill="#666"/>
        <path d="m170.11,64.88c3.91,0,7.57,1.04,7.57,4.92s-3.41,5.98-7.92,6.29c-.35,0-.61.04-.91-.02l-2.41-.51-.89,4.08c-.54,2.42-.22,2.56,2.65,2.79l-.24,1h-9.87l.26-1c2.37-.18,2.58-.39,3.12-2.79l2.3-10.8c.54-2.48.33-2.79-2.04-2.97l.24-1h8.14Zm-3.38,9.59c.41.14,1.04.29,1.87.29,2.91,0,4.71-2.62,4.71-5.29,0-2.34-1.37-3.42-3.25-3.42-.63,0-1.04.12-1.3.25-.3.18-.48.61-.65,1.54l-1.37,6.62Z" fill="#666"/>
        <path d="m206.54,65.88c-2.5.2-2.63.29-2.93,2.19-.69,4.39-1.15,7.64-1.63,11.21-.35,2.73-.22,2.97,2.32,3.16l-.26,1h-9.2l.28-1c2.04-.2,2.26-.39,2.73-3.12.65-3.93,1.28-7.36,1.87-10.98h-.13l-9.66,14.92h-.98c-.93-4.98-1.89-9.38-2.97-14.82h-.11l-2.21,6.84c-.95,2.99-1.28,4.26-1.43,5.23-.22,1.31.33,1.8,2.28,1.93l-.26,1h-7.49l.28-1c1.65-.12,2.41-.61,3.02-1.93.39-.82.93-2.07,1.84-4.69l2.41-6.89c.82-2.32.67-2.85-2.21-3.05l.39-1h6.44c1,4.22,2,7.95,2.99,12.34l8.55-12.34h6.34l-.28,1Z" fill="#666"/>
        <path d="m224.38,77.91h-8.18l.5-1.99h8.2l-.52,1.99Z" fill="#666"/>
        <path d="m245.02,65.37c2.84,0,5.53,1.45,5.53,4.24,0,1.05-.69,1.91-1.63,2.6-.5.31-.93.62-2.56,1.45,2.06,1.27,3.58,2.58,3.58,4.69,0,3.18-3.86,5.43-7.77,5.43-3.51,0-6.49-1.52-6.49-4.59,0-1.17.69-2.15,1.8-2.85.89-.57,2.32-1.35,3.32-1.82-1.45-1-2.58-2.11-2.62-3.96,0-2.99,3.17-5.18,6.79-5.18h.04Zm-2.19,17.21c1.71,0,3.02-1.31,3.02-3.12s-1.43-2.89-3.88-4.3c-1.41.88-2.39,2.36-2.39,4.06,0,1.8,1.11,3.36,3.23,3.36h.02Zm1.65-16.04c-1.41,0-2.56,1.13-2.56,2.56,0,2.11,1.87,3.11,3.25,3.85,1.08-.68,1.91-1.91,1.91-3.57,0-1.45-.93-2.83-2.56-2.83h-.04Z" fill="#666"/>
        <path d="m254.14,83.77c-1.26,0-2.1-.88-2.1-2.01,0-1.37,1-2.36,2.45-2.36,1.3,0,2.15.86,2.15,2.07,0,1.43-1.19,2.3-2.45,2.3h-.04Zm1.3-8.05c-1.24,0-2.13-.88-2.13-2.01,0-1.37,1.06-2.36,2.52-2.36,1.26,0,2.15.86,2.15,2.07,0,1.43-1.24,2.3-2.52,2.3h-.02Z" fill="#666"/>
        <path d="m270.02,65.37c4.51,0,5.75,3.98,5.29,7.91-.41,4.79-3.28,10.49-8.87,10.49-4.67,0-6.01-3.95-5.53-8.24.35-4.3,3.32-10.16,9.07-10.16h.04Zm-.35,1.11c-2.62,0-4.08,6.41-4.49,9.96-.39,3.14-.2,6.17,1.45,6.17,2.43,0,3.97-6.72,4.38-10.21.41-2.97.24-5.92-1.32-5.92h-.02Z" fill="#666"/>
        <path d="m286.04,65.37c4.51,0,5.75,3.98,5.29,7.91-.41,4.79-3.28,10.49-8.87,10.49-4.67,0-6.01-3.95-5.53-8.24.35-4.3,3.32-10.16,9.07-10.16h.04Zm-.35,1.11c-2.62,0-4.08,6.41-4.49,9.96-.39,3.14-.2,6.17,1.45,6.17,2.43,0,3.97-6.72,4.38-10.21.41-2.97.24-5.92-1.32-5.92h-.02Z" fill="#666"/>
        <path d="m312.12,64.88c3.91,0,7.57,1.04,7.57,4.92s-3.41,5.98-7.92,6.29c-.35,0-.61.04-.91-.02l-2.41-.51-.89,4.08c-.54,2.42-.22,2.56,2.65,2.79l-.24,1h-9.87l.26-1c2.37-.18,2.58-.39,3.12-2.79l2.3-10.8c.54-2.48.33-2.79-2.04-2.97l.24-1h8.14Zm-3.38,9.59c.41.14,1.04.29,1.87.29,2.91,0,4.71-2.62,4.71-5.29,0-2.34-1.37-3.42-3.25-3.42-.63,0-1.04.12-1.3.25-.3.18-.48.61-.65,1.54l-1.37,6.62Z" fill="#666"/>
        <path d="m348.56,65.88c-2.5.2-2.63.29-2.93,2.19-.69,4.39-1.15,7.64-1.63,11.21-.35,2.73-.22,2.97,2.32,3.16l-.26,1h-9.2l.28-1c2.04-.2,2.26-.39,2.73-3.12.65-3.93,1.28-7.36,1.87-10.98h-.13l-9.66,14.92h-.98c-.93-4.98-1.89-9.38-2.97-14.82h-.11l-2.21,6.84c-.95,2.99-1.28,4.26-1.43,5.23-.22,1.31.33,1.8,2.28,1.93l-.26,1h-7.49l.28-1c1.65-.12,2.41-.61,3.02-1.93.39-.82.93-2.07,1.84-4.69l2.41-6.89c.82-2.32.67-2.85-2.21-3.05l.39-1h6.44c1,4.22,2,7.95,2.99,12.34l8.55-12.34h6.34l-.28,1Z" fill="#666"/>
        <path d="m196.77,148.2c-.67,1.6-1.93,3.81-2.69,4.9-1.11.27-3.3.78-5.86.78-5.82,0-10.13-2.93-10.13-8.3,0-7.05,6.53-11.15,14.19-11.15,3.06,0,4.93.61,5.75.82-.04,1.48-.15,3.11-.28,4.86l-1.15.16c-.65-3.65-2.5-4.59-4.99-4.59-4.73,0-8.72,4.36-8.72,9.65,0,4.51,2.3,7.29,5.66,7.29,2.52,0,4.56-1.5,7.12-4.8l1.11.39Z" fill="#666"/>
        <path d="m205.75,150.76c-2.08,2.01-4.51,3.01-5.62,3.01-.89,0-1.54-.59-.82-3.81.98-4.26,1.93-8.54,2.89-12.77.35-1.56.24-1.76-1.02-1.88l-1.02-.08.24-.86c3.12-.2,5.29-1.02,5.86-1.02.46,0,.52.25.33,1.07-1.17,5.18-2.36,10.35-3.54,15.57-.2.82-.15,1.15.06,1.15.24,0,1.3-.53,2.15-1.21l.5.82Z" fill="#666"/>
        <path d="m207.71,149.03c0-3.73,2.43-6.41,4.84-7.48,1.32-.62,2.78-1.02,4.17-1.02,3.19,0,4.84,1.84,4.84,4.55,0,2.46-1.04,5.06-3.38,6.82-1.43,1.11-3.58,1.88-5.58,1.88-3.88,0-4.88-2.52-4.88-4.75Zm6.99,3.34c1.26-.47,2.71-3.46,2.67-7.38,0-2.27-.85-3.2-1.89-3.2-.26,0-.56.02-.82.14-.82.35-2.78,2.73-2.78,7.34,0,2.25,1.02,3.2,2.02,3.2.35,0,.54-.02.8-.1Z" fill="#666"/>
        <path d="m222.62,151.39c-.04-.64.54-1.33,1.06-1.62.59-.27.82-.27,1.15.06,1.19,1.25,2.65,2.17,3.8,2.17.8,0,1.41-.41,1.41-1.04,0-.53-.41-1.05-2.06-2.11-1.45-.9-3.34-1.89-3.34-3.75,0-1.05.5-2.07,2.02-3.12,1.17-.82,2.67-1.45,3.99-1.45,1.74,0,2.99.88,3.04,1.93,0,.57-.46,1.19-1.15,1.58-.41.23-.69.21-.91-.08-.67-.86-1.67-1.7-2.95-1.7-.8,0-1.21.41-1.21,1.02.02.76,1.13,1.5,2.3,2.19,1.87,1.05,3.17,2.07,3.17,3.65,0,2.58-3.78,4.65-6.42,4.65-1.89,0-3.86-1.02-3.88-2.38Z" fill="#666"/>
        <path d="m246.86,150.2c-2.84,2.62-5.27,3.57-7.62,3.57-1.82,0-3.97-.9-3.97-4.32,0-2.62,1.3-5.47,3.73-7.15,1.32-.9,3.47-1.78,5.25-1.78,2.3,0,3.41,1.11,3.41,2.46,0,2.97-5.16,4.34-8.31,5.1-.04.37-.04.57-.04.76,0,1.41.63,2.62,2.32,2.62,1.21,0,3.12-.84,4.6-2.13l.63.86Zm-4.88-8.11c-.82.45-2.13,2.07-2.5,4.92,3.47-.98,4.64-2.13,4.64-3.67,0-1.13-.82-1.54-1.21-1.54-.28,0-.69.12-.93.29Z" fill="#666"/>
        <path d="m264.26,150.53c-2.19,2.42-4.56,3.24-5.58,3.24-.76,0-1.41-.39-.95-2.62l.46-2.07h-.06c-1.19,1.43-2.56,2.62-3.82,3.5-1.08.74-2.08,1.19-3.1,1.19-1.43,0-2.54-1.25-2.54-3.63,0-2.7,1.41-5.66,3.71-7.36,1.52-1.17,4.36-2.25,5.75-2.25.61,0,1.06,0,1.87.21l.85-3.98c.28-1.27.11-1.46-1.54-1.46h-.46l.2-.92c3.19-.27,5.27-1.02,5.95-1.02.39,0,.41.21.22,1.02-1.41,5.59-2.5,10.51-3.56,15.45-.2.92-.24,1.19.07,1.19.28,0,1.13-.43,2.02-1.25l.54.76Zm-5.64-3.87l.89-3.89c-.69-.62-1.71-.92-2.37-.92-.54,0-.87.1-1.26.31-1.97,1.19-3.04,5.21-3.04,7.34,0,1.13.41,1.68.93,1.68,1.3,0,3.84-2.91,4.84-4.53Z" fill="#666"/>
      </g>
      <line x1="420.12" y1="51.36" x2="381.62" y2="180.86" fill="gray" stroke="gray" stroke-miterlimit="10"/>
    </g>
  </g>
</svg>