<?xml version="1.0" encoding="UTF-8"?>
<svg id="uuid-290429f5-361f-4357-9ac3-9d13ff50dd41" data-name="Layer 1" xmlns="http://www.w3.org/2000/svg" viewBox="0 0 848.21 192.63">
  <rect x="1" y="1" width="846.21" height="190.63" rx="10" ry="10" fill="#495194" stroke="#fff" stroke-miterlimit="10" stroke-width="2"/>
  <g>
    <g>
      <path d="m80.96,136.91c7.63,0,12.19,2.98,12.19,9.56,0,4.16-1.74,7.86-5.75,10.17-3.05,1.77-6.79,2.37-11.29,2.37h-8.38l.3-1.19c2.65-.21,2.98-.72,3.42-3.12l2.54-13.43c.49-2.58.28-2.98-2.42-3.19l.3-1.19h9.07Zm-4.84,17.15c-.37,1.98-.25,2.58.44,3.02.54.35,1.19.39,1.81.39,5.84,0,9.73-5.14,9.73-11.28,0-3.86-1.93-7.86-6.98-7.86-.95,0-1.58.12-1.88.42-.21.21-.42.65-.63,1.72l-2.49,13.59Z" fill="#fdbc69"/>
      <path d="m109.12,155.5c-2.98,3.16-5.63,3.91-7.42,3.91-1.65,0-3.93-.93-3.93-5.05,0-3.07,1.4-6.63,4.14-8.66,1.44-1.14,3.33-1.93,4.89-1.93,1.95,0,3.16,1.28,3.16,2.77,0,3.4-5.82,5.14-9.1,6-.04.4-.04.7-.04,1,0,1.81.6,3.7,2.67,3.7,1.46,0,3.35-.95,5.05-2.56l.58.82Zm-4.96-9.98c-.93.56-2.61,2.17-3.19,5.93,4.75-1.28,6.19-2.82,6.21-4.4,0-1.23-.77-1.86-1.65-1.86-.49,0-1,.14-1.37.33Z" fill="#fff"/>
      <path d="m129.89,155.83c-1.93,2.35-4.28,3.58-5.26,3.58-.74,0-1.23-.54-.72-3.05l.65-2.93h-.07c-1.56,2.07-3.42,3.58-4.63,4.54-1.23.91-2.35,1.44-3.3,1.44-1.21,0-2.33-1.35-2.33-4.17,0-3.14,1.44-6.77,4-8.86,1.63-1.4,4.56-2.61,6.12-2.61.51,0,1.23.02,2.12.37l1.07-5.47c.3-1.58.16-1.77-1.35-1.77h-1.02l.12-.88c2.98-.33,4.91-1.21,5.49-1.21.32,0,.39.28.23.98-1.6,6.89-2.95,13.29-4.16,19.82-.19.79-.14,1.12.12,1.12.37,0,1.46-.74,2.44-1.68l.49.77Zm-4.93-4.89l1.07-4.75c-.56-.49-1.84-.93-2.82-.93s-1.68.23-2.28.67c-2.21,1.56-3.56,5.86-3.56,8.68,0,1.74.51,2.47,1.05,2.47,1.77,0,5.49-4.21,6.54-6.14Z" fill="#fff"/>
      <path d="m141.4,155.92c-1.4,1.6-4.07,3.49-5.23,3.49-.77,0-1.26-.56-.54-3.49l2.03-8.4c.19-.7.19-1.05-.02-1.05-.3,0-1.28.58-2.3,1.4l-.44-.79c2.03-1.93,4.45-3.3,5.42-3.3.79,0,.81,1.12.42,2.77l-2.28,9.07c-.21.86-.14,1.12.07,1.12.44,0,1.56-.84,2.4-1.56l.49.74Zm.74-17.03c0,1.07-.86,2.09-1.98,2.09-.88,0-1.49-.65-1.51-1.63,0-.91.7-2.14,2-2.14.93,0,1.44.79,1.49,1.68Z" fill="#fff"/>
      <path d="m157.62,155.6c-2.14,2.44-4.91,3.82-6.98,3.82-2.38,0-3.93-1.79-3.93-5.1,0-2.81,1.35-6.07,3.58-8.05,1.44-1.21,3.82-2.49,5.61-2.49,1.49,0,2.7.84,2.75,1.74.02.58-.35,1.23-1.19,1.7-.3.16-.58.09-.82-.21-.79-1.07-1.6-1.63-2.67-1.63-1.16,0-2.07,1.02-2.67,2.21-.82,1.49-1.42,3.65-1.42,5.96,0,2.51.98,3.75,2.47,3.75,1.72,0,3.86-1.56,4.75-2.49l.54.79Z" fill="#fff"/>
      <path d="m177.62,155.74c-2,2.4-4.37,3.68-5.26,3.68-.7,0-1.21-.42-.68-3.14l.61-3.05h-.07c-1.3,1.88-2.93,3.49-4.33,4.61-1.12.91-2.3,1.58-3.33,1.58s-2.1-1.19-2.1-3.91c0-3.4,1.63-7.05,4.14-9.1,1.68-1.42,4.26-2.63,6.54-2.63.74,0,1.44.09,2.19.23.56.09,1.05.23,1.42.19l.14.14c-.53,2.19-1.51,6.65-2.3,10.96-.19,1.12-.09,1.42.07,1.42.3,0,1.49-.84,2.51-1.84l.44.86Zm-4.84-5.17c.39-1.28.91-3.82,1.07-4.82-.47-.23-1.42-.47-2.26-.47-.88,0-1.81.23-2.37.68-2.23,1.68-3.61,5.56-3.61,8.91,0,1.54.42,2.23.93,2.23,1.35,0,5.21-4.4,6.24-6.54Z" fill="#fff"/>
      <path d="m191.35,145.59l-3.49.16-1.91,9.05c-.37,1.7-.16,2.12.21,2.12.58,0,2.23-1.09,3.05-1.98l.54.79c-1.19,1.37-3.86,3.68-5.73,3.68-.88,0-1.58-1-.84-4.61l1.95-9.05h-2.56l-.12-.25.88-1.12h2.07l.79-3.26,2.86-2.17.35.23-1.23,5.19h4.05l-.88,1.21Z" fill="#fff"/>
      <path d="m206.42,155.5c-2.98,3.16-5.63,3.91-7.42,3.91-1.65,0-3.93-.93-3.93-5.05,0-3.07,1.4-6.63,4.14-8.66,1.44-1.14,3.33-1.93,4.89-1.93,1.95,0,3.16,1.28,3.16,2.77,0,3.4-5.82,5.14-9.1,6-.04.4-.04.7-.04,1,0,1.81.6,3.7,2.67,3.7,1.46,0,3.35-.95,5.05-2.56l.58.82Zm-4.96-9.98c-.93.56-2.61,2.17-3.19,5.93,4.75-1.28,6.19-2.82,6.21-4.4,0-1.23-.77-1.86-1.65-1.86-.49,0-1,.14-1.37.33Z" fill="#fff"/>
      <path d="m235.7,136.91c7.63,0,12.19,2.98,12.19,9.56,0,4.16-1.74,7.86-5.75,10.17-3.05,1.77-6.79,2.37-11.29,2.37h-8.38l.3-1.19c2.65-.21,2.98-.72,3.42-3.12l2.54-13.43c.49-2.58.28-2.98-2.42-3.19l.3-1.19h9.07Zm-4.84,17.15c-.37,1.98-.25,2.58.44,3.02.54.35,1.19.39,1.81.39,5.84,0,9.73-5.14,9.73-11.28,0-3.86-1.93-7.86-6.98-7.86-.95,0-1.58.12-1.88.42-.21.21-.42.65-.63,1.72l-2.49,13.59Z" fill="#fdbc69"/>
      <path d="m259.46,155.92c-1.4,1.6-4.07,3.49-5.24,3.49-.77,0-1.26-.56-.53-3.49l2.02-8.4c.19-.7.19-1.05-.02-1.05-.3,0-1.28.58-2.3,1.4l-.44-.79c2.02-1.93,4.44-3.3,5.42-3.3.79,0,.82,1.12.42,2.77l-2.28,9.07c-.21.86-.14,1.12.07,1.12.44,0,1.56-.84,2.4-1.56l.49.74Zm.74-17.03c0,1.07-.86,2.09-1.98,2.09-.88,0-1.49-.65-1.51-1.63,0-.91.7-2.14,2-2.14.93,0,1.44.79,1.49,1.68Z" fill="#fff"/>
      <path d="m279.7,144.57c-1.05,1.14-1.93,1.56-2.47,1.7-.28.07-.51.07-.88.12.14.44.28.98.28,1.86,0,2.3-1.33,4.07-2.63,5.05-.93.77-2.54,1.63-4.56,2-.42.3-.65.63-.65,1,0,.49.79,1.07,2.4,1.88,3.47,1.72,4.86,3.07,4.86,4.61,0,2.84-4.82,5-8.35,5-3.35,0-6.33-1.7-6.26-3.89.07-1.46,2.1-2.98,5.73-4.82-.77-.51-1.28-1.19-1.26-1.65,0-.58.56-1.23,2.21-2.19-2.07-.44-3.12-1.86-3.12-4.12s1.12-4.31,2.89-5.68c1.44-1.12,3.28-1.68,4.54-1.68,1.19,0,2.3.3,3.07.93,2.07,0,3.31-.37,3.93-.82l.28.68Zm-6.4,19.27c0-.88-.89-1.72-2.42-2.61-1.14-.68-2.19-1.26-2.77-1.49-2.07.93-3.54,2.3-3.54,3.58,0,1.72,2.26,2.98,4.56,2.98,2.68,0,4.17-1.21,4.17-2.47Zm.53-15.64c0-1.79-.74-3.21-2.23-3.21-.98,0-1.86.72-2.44,1.58-.7,1.07-1.25,2.63-1.25,4.37,0,1.91.88,3,2.12,3,1.81,0,3.82-2.14,3.82-5.75Z" fill="#fff"/>
      <path d="m289.19,155.92c-1.4,1.6-4.07,3.49-5.24,3.49-.77,0-1.26-.56-.53-3.49l2.02-8.4c.19-.7.19-1.05-.02-1.05-.3,0-1.28.58-2.3,1.4l-.44-.79c2.02-1.93,4.44-3.3,5.42-3.3.79,0,.82,1.12.42,2.77l-2.28,9.07c-.21.86-.14,1.12.07,1.12.44,0,1.56-.84,2.4-1.56l.49.74Zm.74-17.03c0,1.07-.86,2.09-1.98,2.09-.88,0-1.49-.65-1.51-1.63,0-.91.7-2.14,2-2.14.93,0,1.44.79,1.49,1.68Z" fill="#fff"/>
      <path d="m303.61,145.59l-3.49.16-1.91,9.05c-.37,1.7-.16,2.12.21,2.12.58,0,2.23-1.09,3.05-1.98l.54.79c-1.19,1.37-3.86,3.68-5.73,3.68-.88,0-1.58-1-.84-4.61l1.95-9.05h-2.56l-.12-.25.88-1.12h2.07l.79-3.26,2.86-2.17.35.23-1.23,5.19h4.05l-.88,1.21Z" fill="#fff"/>
      <path d="m322.31,155.74c-2,2.4-4.37,3.68-5.26,3.68-.7,0-1.21-.42-.67-3.14l.6-3.05h-.07c-1.3,1.88-2.93,3.49-4.33,4.61-1.12.91-2.3,1.58-3.33,1.58s-2.09-1.19-2.09-3.91c0-3.4,1.63-7.05,4.14-9.1,1.68-1.42,4.26-2.63,6.54-2.63.74,0,1.44.09,2.19.23.56.09,1.05.23,1.42.19l.14.14c-.54,2.19-1.51,6.65-2.3,10.96-.19,1.12-.09,1.42.07,1.42.3,0,1.49-.84,2.51-1.84l.44.86Zm-4.84-5.17c.4-1.28.91-3.82,1.07-4.82-.47-.23-1.42-.47-2.26-.47-.89,0-1.82.23-2.38.68-2.23,1.68-3.61,5.56-3.61,8.91,0,1.54.42,2.23.93,2.23,1.35,0,5.21-4.4,6.24-6.54Z" fill="#fff"/>
      <path d="m333.59,155.74c-1.86,2.19-4.4,3.68-5.49,3.68-.72,0-1.28-.74-.58-4.17,1.19-5.51,2.35-11.01,3.54-16.5.3-1.56.14-1.77-1.4-1.79l-.98-.05.14-.88c2.82-.25,4.86-1.21,5.31-1.21.35,0,.42.3.25,1.05-1.37,6.58-2.74,13.12-4.14,19.73-.21.95-.12,1.19.09,1.19.37,0,1.77-.88,2.74-1.84l.51.79Z" fill="#fff"/>
      <path d="m370.25,159.3h-.44c-4.77,0-5.75-1.16-6.84-3.26-.7-1.4-1.49-3.35-2.07-4.98-.37-1.12-.77-1.63-1.81-1.63h-.86l-.95,5.12c-.49,2.75-.16,3.07,2.35,3.28l-.28,1.19h-10.17l.28-1.19c2.47-.21,2.91-.54,3.42-3.26l2.58-13.36c.53-2.77.3-2.93-2.42-3.12l.33-1.19h8.8c2.07,0,4.07.21,5.47,1.05,1.35.86,2.3,2.26,2.3,4.35,0,3.35-2.54,5.38-5.4,6.26.28.58,1.12,2.86,1.93,4.49.95,1.86,1.6,3.05,2.14,3.82.67.88,1.21,1.09,1.95,1.33l-.3,1.09Zm-10.94-11.22c1.28,0,2.37-.21,3.4-.81,1.61-1.02,2.47-2.86,2.47-4.79,0-2.89-1.54-4.14-3.21-4.14-.7,0-1.14.12-1.44.42-.23.21-.39.6-.54,1.33l-1.53,8h.86Z" fill="#fdbc69"/>
      <path d="m386.58,155.5c-2.98,3.16-5.63,3.91-7.42,3.91-1.65,0-3.93-.93-3.93-5.05,0-3.07,1.4-6.63,4.14-8.66,1.44-1.14,3.33-1.93,4.89-1.93,1.95,0,3.16,1.28,3.16,2.77,0,3.4-5.82,5.14-9.1,6-.04.4-.04.7-.04,1,0,1.81.6,3.7,2.67,3.7,1.46,0,3.35-.95,5.05-2.56l.58.82Zm-4.96-9.98c-.93.56-2.61,2.17-3.19,5.93,4.75-1.28,6.19-2.82,6.21-4.4,0-1.23-.77-1.86-1.65-1.86-.49,0-1,.14-1.37.33Z" fill="#fff"/>
      <path d="m390.67,156.85c-.02-.6.44-1.19,1.05-1.54.49-.23.72-.16.93.12.93,1.35,2.3,2.23,3.49,2.23,1.3,0,2.17-.95,2.17-1.93,0-.79-.42-1.49-2.12-2.75-1.56-1.09-3.14-2.35-3.14-4.21,0-1.02.39-2.16,1.84-3.35,1.14-.95,2.81-1.65,3.95-1.65,1.61,0,2.79,1.05,2.82,1.98,0,.63-.37,1.19-.96,1.54-.37.21-.6.14-.81-.16-.7-.93-1.56-1.68-2.77-1.68-.96,0-1.77.72-1.77,1.81,0,1.19,1.05,2.02,2.35,2.93,2.05,1.46,2.98,2.49,2.98,4.05,0,2.67-3.54,5.17-6.35,5.17-1.72,0-3.63-1.28-3.65-2.56Z" fill="#fff"/>
      <path d="m406.56,153.99c0-4.4,2.44-7.73,5.28-9.14,1.3-.65,2.68-1.07,3.84-1.07,2.96,0,4.75,1.95,4.75,5.42,0,2.86-1.19,6.05-3.63,8.05-1.49,1.23-3.47,2.17-5.49,2.17-3.47,0-4.75-2.63-4.75-5.42Zm7.12,3.84c1.79-.74,3.58-4.28,3.58-8.61-.02-2.82-1.21-4.1-2.74-4.1-.47,0-.91.09-1.28.25-1.26.58-3.49,3.33-3.49,8.56,0,2.56,1.12,4.1,2.84,4.1.42,0,.74-.07,1.09-.21Z" fill="#fff"/>
      <path d="m441.71,155.88c-1.84,2.12-4.14,3.54-5.23,3.54-.77,0-1.23-.7-.56-3.68.26-1.12.39-1.79.6-2.86h-.07c-1.86,2.49-3.91,4.42-5.63,5.61-.91.63-1.88.93-2.7.93-1,0-2.07-.68-1.19-4.47.56-2.47,1.14-4.93,1.72-7.38.23-.93.16-1.19-.05-1.26-.25,0-1.23.68-2.4,1.63l-.4-.88c2.09-2.05,4.26-3.28,5.24-3.28.86,0,1.02.67.49,2.98-.6,2.63-1.23,5.28-1.84,7.96-.37,1.7-.09,2.23.42,2.23,1.86,0,5.58-4.45,6.91-6.84.37-1.56.77-3.33,1.21-5.47l2.65-.86h.4c-.91,3.54-1.82,7.35-2.63,11.61-.21,1.09-.14,1.4.09,1.4.3,0,1.56-.81,2.51-1.77l.44.86Z" fill="#fff"/>
      <path d="m451.78,149.31c1.7-3.12,3.68-5.54,5.14-5.54.61,0,1.23.37,1.54.84.3.44.25,1.09-.05,1.58-.25.44-.6.81-.95,1.09-.3.21-.56.21-.77.02-.42-.4-.86-.63-1.26-.63-.37,0-.91.33-1.63,1.35-.74,1.02-1.86,2.65-2.47,4.14-.49,2.19-.93,4.45-1.33,6.61-.82.14-1.91.37-2.72.63l-.23-.26c.86-3.54,1.77-7.7,2.44-11.26.21-1.14.16-1.49-.07-1.49-.3,0-1.42.68-2.4,1.61l-.51-.82c1.79-1.93,4-3.42,4.98-3.42.91,0,1.05,1.42.51,3.88l-.35,1.65h.12Z" fill="#fff"/>
      <path d="m472.34,155.6c-2.14,2.44-4.91,3.82-6.98,3.82-2.37,0-3.93-1.79-3.93-5.1,0-2.81,1.35-6.07,3.58-8.05,1.44-1.21,3.82-2.49,5.61-2.49,1.49,0,2.7.84,2.74,1.74.02.58-.35,1.23-1.19,1.7-.3.16-.58.09-.81-.21-.79-1.07-1.61-1.63-2.68-1.63-1.16,0-2.07,1.02-2.68,2.21-.81,1.49-1.42,3.65-1.42,5.96,0,2.51.98,3.75,2.47,3.75,1.72,0,3.86-1.56,4.75-2.49l.53.79Z" fill="#fff"/>
      <path d="m488.72,155.5c-2.98,3.16-5.63,3.91-7.42,3.91-1.65,0-3.93-.93-3.93-5.05,0-3.07,1.4-6.63,4.14-8.66,1.44-1.14,3.33-1.93,4.89-1.93,1.95,0,3.16,1.28,3.16,2.77,0,3.4-5.82,5.14-9.1,6-.05.4-.05.7-.05,1,0,1.81.61,3.7,2.68,3.7,1.47,0,3.35-.95,5.05-2.56l.58.82Zm-4.96-9.98c-.93.56-2.61,2.17-3.19,5.93,4.75-1.28,6.19-2.82,6.21-4.4,0-1.23-.77-1.86-1.65-1.86-.49,0-1,.14-1.37.33Z" fill="#fff"/>
      <path d="m492.81,156.85c-.02-.6.44-1.19,1.05-1.54.49-.23.72-.16.93.12.93,1.35,2.3,2.23,3.49,2.23,1.3,0,2.17-.95,2.17-1.93,0-.79-.42-1.49-2.12-2.75-1.56-1.09-3.14-2.35-3.14-4.21,0-1.02.39-2.16,1.84-3.35,1.14-.95,2.81-1.65,3.95-1.65,1.61,0,2.79,1.05,2.82,1.98,0,.63-.37,1.19-.96,1.54-.37.21-.6.14-.81-.16-.7-.93-1.56-1.68-2.77-1.68-.96,0-1.77.72-1.77,1.81,0,1.19,1.05,2.02,2.35,2.93,2.05,1.46,2.98,2.49,2.98,4.05,0,2.67-3.54,5.17-6.35,5.17-1.72,0-3.63-1.28-3.65-2.56Z" fill="#fff"/>
      <path d="m521.54,151.76c.35,2.3,1.93,6.35,5.61,6.35,2.49,0,3.68-1.81,3.68-3.75,0-1.58-.93-3-2.68-4.3l-1.07-.74c-2.23-1.68-4.21-3.61-4.21-6.42,0-4.12,3.28-6.52,7.54-6.52,1.42,0,2.68.21,3.96.67.6.21,1.05.44,1.4.54-.19,1.4-.14,3.16-.19,5.31l-1.19.09c-.33-2.09-1.21-5.26-4.23-5.26-2.23,0-3.28,1.91-3.28,3.54,0,1.72.98,2.77,2.82,4.02l1.02.72c2.4,1.65,4.42,3.49,4.42,6.63,0,4.28-3.72,6.91-8.35,6.91-2.93,0-5.31-1.19-6.37-2.12.02-.77.07-2.7-.05-5.49l1.19-.19Z" fill="#fdbc69"/>
      <path d="m551.74,155.5c-2.98,3.16-5.63,3.91-7.42,3.91-1.65,0-3.93-.93-3.93-5.05,0-3.07,1.4-6.63,4.14-8.66,1.44-1.14,3.33-1.93,4.89-1.93,1.95,0,3.16,1.28,3.16,2.77,0,3.4-5.82,5.14-9.1,6-.05.4-.05.7-.05,1,0,1.81.61,3.7,2.68,3.7,1.47,0,3.35-.95,5.05-2.56l.58.82Zm-4.96-9.98c-.93.56-2.61,2.17-3.19,5.93,4.75-1.28,6.19-2.82,6.21-4.4,0-1.23-.77-1.86-1.65-1.86-.49,0-1,.14-1.37.33Z" fill="#fff"/>
      <path d="m562.55,149.31c1.7-3.12,3.68-5.54,5.14-5.54.61,0,1.23.37,1.54.84.3.44.25,1.09-.05,1.58-.25.44-.6.81-.95,1.09-.3.21-.56.21-.77.02-.42-.4-.86-.63-1.26-.63-.37,0-.91.33-1.63,1.35-.74,1.02-1.86,2.65-2.47,4.14-.49,2.19-.93,4.45-1.33,6.61-.82.14-1.91.37-2.72.63l-.23-.26c.86-3.54,1.77-7.7,2.44-11.26.21-1.14.16-1.49-.07-1.49-.3,0-1.42.68-2.4,1.61l-.51-.82c1.79-1.93,4-3.42,4.98-3.42.91,0,1.05,1.42.51,3.88l-.35,1.65h.12Z" fill="#fff"/>
      <path d="m579.88,155.92c1.46-1.79,5.12-6.4,5.12-8.7,0-.54-.07-1.09-.33-1.49-.14-.23-.14-.54,0-.84.21-.63.84-1.12,1.58-1.12.86,0,1.49.84,1.54,1.98,0,1.07-.58,2.37-2.14,4.51-2.07,2.75-5.19,6.75-7.22,9.15h-1.05c-.14-3.12-.58-8.56-.79-10.56-.16-1.86-.37-2.47-.6-2.47-.3,0-.98.56-2,1.79l-.58-.81c1.26-1.79,3.12-3.58,4.31-3.58.96,0,1.4,1.3,1.61,3.86.16,3.07.37,5.79.49,8.28h.07Z" fill="#fff"/>
      <path d="m599.21,155.92c-1.4,1.6-4.07,3.49-5.23,3.49-.77,0-1.26-.56-.54-3.49l2.03-8.4c.19-.7.19-1.05-.02-1.05-.3,0-1.28.58-2.3,1.4l-.44-.79c2.03-1.93,4.45-3.3,5.42-3.3.79,0,.81,1.12.42,2.77l-2.28,9.07c-.21.86-.14,1.12.07,1.12.44,0,1.56-.84,2.4-1.56l.49.74Zm.74-17.03c0,1.07-.86,2.09-1.98,2.09-.88,0-1.49-.65-1.51-1.63,0-.91.7-2.14,2-2.14.93,0,1.44.79,1.49,1.68Z" fill="#fff"/>
      <path d="m615.43,155.6c-2.14,2.44-4.91,3.82-6.98,3.82-2.38,0-3.93-1.79-3.93-5.1,0-2.81,1.35-6.07,3.58-8.05,1.44-1.21,3.82-2.49,5.61-2.49,1.49,0,2.7.84,2.75,1.74.02.58-.35,1.23-1.19,1.7-.3.16-.58.09-.82-.21-.79-1.07-1.6-1.63-2.67-1.63-1.16,0-2.07,1.02-2.67,2.21-.82,1.49-1.42,3.65-1.42,5.96,0,2.51.98,3.75,2.47,3.75,1.72,0,3.86-1.56,4.75-2.49l.54.79Z" fill="#fff"/>
      <path d="m631.8,155.5c-2.98,3.16-5.63,3.91-7.42,3.91-1.65,0-3.93-.93-3.93-5.05,0-3.07,1.4-6.63,4.14-8.66,1.44-1.14,3.33-1.93,4.89-1.93,1.95,0,3.16,1.28,3.16,2.77,0,3.4-5.82,5.14-9.1,6-.04.4-.04.7-.04,1,0,1.81.6,3.7,2.67,3.7,1.46,0,3.35-.95,5.05-2.56l.58.82Zm-4.96-9.98c-.93.56-2.61,2.17-3.19,5.93,4.75-1.28,6.19-2.82,6.21-4.4,0-1.23-.77-1.86-1.65-1.86-.49,0-1,.14-1.37.33Z" fill="#fff"/>
    </g>
    <g>
      <g>
        <path d="m263.7,39.71c-.11-.34-.23-.69-.11-.92.23-2.52.57-4.93,1.49-7.34.23-.57.57-1.03.92-1.49.11-.23.34-.46.57-.57.8-.69,1.38-.57,1.83.34.8,1.26,1.03,2.87,1.38,4.36.8,3.21,1.15,6.65,1.49,9.86.46,3.44.8,6.88,1.03,10.44.23,1.72.23,3.44.46,5.28.23,2.41.46,4.93.69,7.22.11,1.49.23,2.98.34,4.7.23,2.52.57,4.93,1.26,7.22.57,1.61,1.26,3.1,2.64,4.47,1.26,1.15,2.87,1.83,4.59,1.95,1.83.11,3.67-.11,5.39-.92,1.61-.69,2.98-1.61,4.36-2.75.57-.46,1.03-.92,1.72-1.38,1.38-1.03,2.18-1.03,3.78-.11,1.03.69,1.83,1.15,2.87,1.83.23.11.46.23.69.34,1.61.69,1.72.34,2.64-.69,3.78-4.24,7.8-8.26,12.39-11.58,1.95-1.38,3.9-2.75,6.19-3.56,2.75-1.15,5.5-1.03,8.26,0,1.03.34,1.83.92,2.64,1.49,1.95,1.49,2.52,3.56,2.06,5.85-.57,2.98-1.95,5.28-4.24,7.34q-.11.11-.34.34c1.26.23,2.41.34,3.44.57,3.1.46,5.96-.57,8.83-1.26.69-.23,1.26-.46,1.95-.69q.69-.23.57-1.03c0-.57-.11-1.03-.11-1.61.11-1.15.23-2.52.23-3.67,0-1.95,0-4.01-.11-5.96-.11-1.83-.23-3.56-.46-5.39-.23-2.64-.57-5.28-.92-7.91-.34-2.64-.69-5.16-1.03-7.8-.46-2.87-1.03-5.62-1.49-8.6-.23-1.03-.57-1.83-1.03-2.75-.23-.34-.34-.57-.57-.92-.57-.92-.69-1.72-.23-2.75.69-1.61,1.15-3.1,1.72-4.82.11-.23.23-.46.34-.69.23.46.46.8.57,1.15.69,1.61,1.83,2.87,3.1,3.9.11.11.23.23.46.34.46.34.69.8.46,1.26-.34,1.15-.57,2.41-1.03,3.44-.46,1.03-.46,2.18-.23,3.33.57,3.56,1.03,7.22,1.49,10.89.34,2.98.69,5.85,1.03,8.83.11,1.26.23,2.75.23,4.01.11,1.38.11,2.87.11,4.24,0,2.06-.11,4.13-.46,6.08-.23,1.03.11,1.95,1.15,2.52.92.46,1.61.92,2.52,1.15,1.03.46,2.18.8,3.21,1.15q.11,0,.23.11c1.49.69,1.61.92,1.61,2.52-.11,1.38-.23,2.98-.34,4.36,0,.34-.11.57-.23,1.03-.34-.23-.69-.34-.92-.46-.92-.46-1.72-1.03-2.75-1.38-2.29-1.03-4.59-.92-6.88.23-1.72.92-3.56,1.83-5.28,2.75-1.61.92-3.33,1.26-5.28,1.26-2.06-.11-4.01-.11-6.08-.23-1.49-.11-2.98-.23-4.59-.46-1.26-.23-2.52.23-3.78.34-1.95.23-3.78.57-5.73.8-2.18.23-4.47.46-6.65.46-2.29,0-4.47-.11-6.77-.92-.23.34-.46.69-.69,1.03-.69,1.26-1.26,2.64-1.83,3.9-.11.23-.23.46-.34.69-.57-.34-.57-.69-.46-1.03.11-1.61.57-3.1,1.03-4.7,0-.11.11-.23.11-.34-.46-.23-.92-.46-1.15-.69-.8-.69-1.49-1.38-2.29-2.06-.11-.11-.23-.23-.34-.34-.57-.46-.92-.46-1.26.11-.34.46-.57.92-.92,1.15-1.15,1.61-2.52,2.98-4.24,4.01-1.61,1.03-3.44,1.49-5.28,1.61-1.61.11-3.21,0-4.93-.69-2.06-.92-3.56-2.29-4.82-4.24-.8-1.26-1.03-2.75-1.26-4.13-.46-3.1-.8-6.31-1.03-9.4-.34-2.98-.57-6.08-.92-8.94-.34-2.98-.57-5.73-.92-8.6-.57-4.82-1.03-9.63-1.95-14.33-.23-1.03-.57-2.18-.92-3.1-.11-.46-.46-.92-.8-1.26-.34-.34-.69-.34-.92.11-.23.46-.34.92-.57,1.15.11.23.11.69-.57.92Zm42.09,43.23c0,.11.11.23.11.23,1.15,0,2.52-.11,3.67-.11,2.52,0,4.93-.34,7.45-.8,3.78-.69,7.45-1.49,11.01-3.1.92-.34,1.61-.92,2.52-1.49.8-.57.92-1.26.46-2.06-.11-.34-.34-.57-.57-.8-.92-.92-1.83-1.49-2.98-1.95-2.06-.92-4.24-1.15-6.54-.46-1.61.57-2.98,1.15-4.59,1.95-2.98,1.61-5.5,3.56-7.91,5.73-.92,1.03-1.83,1.95-2.64,2.87Z" fill="#fff"/>
        <path d="m154.41,69.87c-.23.46-.34.8-.57,1.03-.46,1.03-1.03,2.06-1.83,2.98-.92,1.03-2.06,1.61-3.44,1.38h-.34c-1.72-.11-2.98-1.03-3.56-2.64-.34-.92-.46-1.83-.57-2.75-.23-2.75.11-5.16,1.03-7.8.46-1.15,1.03-2.41,1.95-3.33.92-.92,1.95-1.38,3.33-1.15,2.75.34,4.47,2.06,5.85,4.13,1.03,1.49,1.72,3.1,2.18,4.93.57,2.18,1.03,4.36.92,6.65-.34,3.44-1.26,6.77-3.78,9.29-1.49,1.49-3.33,2.64-5.39,3.21-1.72.57-3.56.92-5.39.92h-3.9c-2.18-.11-4.36-.46-6.19-1.61-.69-.46-1.26-1.03-1.83-1.38-.23-.11-.34-.34-.57-.57-.11.34-.23.69-.46.92-.8,1.49-1.61,1.95-3.21,1.83-2.75-.34-5.16-1.38-7.45-2.87-.23-.11-.46-.34-.69-.46-.92-.57-1.03-.57-2.06.34-.69.57-1.03,1.15-1.72,1.72-2.06,1.83-4.47,2.98-7.22,3.21-1.03.11-1.95.23-2.87,0-1.61-.23-2.98-1.15-3.78-2.52-.46-.8-.92-1.49-1.26-2.29-.34-.46-.57-1.03-1.03-1.38-.69-.69-1.15-.57-1.72.23-.34.57-.57,1.15-.92,1.72-1.26,2.98-3.78,4.7-6.88,5.39-1.83.46-3.78.57-5.62.34-1.49-.23-2.75-1.03-3.78-2.06-1.49-1.38-2.52-3.21-3.1-5.16-.46-1.15-.8-2.41-1.26-3.67-.23.23-.46.46-.69.69-.69.92-1.49,1.26-2.52,1.61-2.29.8-4.7,1.03-7,1.03-.46,0-.92-.11-1.26-.23-.57-.11-.8-.46-.69-.92.11-2.18.57-4.24,1.38-6.19.57-1.38,1.72-2.41,2.98-3.1,1.61-1.03,3.33-1.95,5.05-2.98.46-.23.92-.46,1.15-.8.23-.23.46-.57.57-.92.23-.57.23-1.15.46-1.72.46-1.38,1.03-2.75,1.49-4.13.11-.23.23-.46.46-.57.11.8.23,1.49.23,2.29.34,3.44.46,6.88,1.03,10.32.46,2.29,1.03,4.59,2.29,6.42,1.38,1.95,3.33,2.98,5.73,2.98s4.82-.34,6.88-1.38c1.95-1.03,3.21-2.41,4.01-4.36.23-.46.34-.92.57-1.15.23-.34.57-.57.92-.8.57-.34,1.03.11,1.03.8,0,.34-.23.57-.23.92-.34,1.15-.23,2.29.8,3.1.69.57,1.38,1.03,2.29,1.03,3.56.57,7.22.57,10.78-.57,1.61-.57,3.1-1.03,4.36-2.41.8-.92,1.38-1.83,2.06-2.75.69-1.03,1.26-1.95,2.06-2.87.57-.8,1.26-1.26,2.18-1.49,1.15-.34,2.29,0,3.33.8,1.61,1.03,2.75,2.64,3.9,4.01.57.69,1.03,1.26,1.61,1.95.92,1.03,1.95,1.49,3.1,1.83.92.23,1.72.34,2.64.46,1.49.11,2.98.11,4.47.11,1.26,0,2.64,0,3.9-.11,2.18-.34,4.36-.92,6.31-2.06.69-.46,1.26-1.03,1.83-1.49.57-.69.92-1.38.57-2.29-.34-1.03-.8-2.29-1.49-3.1-.57-.23-.8-.57-1.38-.57Zm-23.85,9.75c-.23-.46-.34-.8-.46-1.03-.69-1.15-1.49-2.29-2.64-3.33-1.38-1.38-2.29-1.03-3.67-.23-.23.11-.46.34-.69.57-.92,1.03-.8,1.26.34,2.06,1.72,1.03,3.67,1.72,5.62,2.06.57,0,.92-.11,1.49-.11Zm-54.59-9.4c-1.15,1.03-2.41,1.83-3.56,2.87-.57.46-1.03.92-1.38,1.38-.46.57-.34.92.34,1.03.57.23,1.03.34,1.72.34,1.03.11,2.18,0,3.21-.34-.11-.92-.11-1.72-.23-2.64.11-.92,0-1.83-.11-2.64Zm73.05-2.52c.8,0,1.38-.23,2.06-.8.46-.34.46-.57.11-.92-.8-.8-1.72-1.03-2.75-1.03-.69.11-1.03.57-1.03,1.26,0,.57.34,1.03,1.03,1.03,0,.46.34.46.57.46Z" fill="#fff"/>
        <path d="m443.28,76.98c-.11.69-.34,1.38-.46,2.06-.34,2.18-1.03,4.24-2.64,5.96-1.49,1.72-3.44,2.87-5.73,3.33-1.83.46-3.67.57-5.62.46-1.95-.11-3.56-1.49-3.78-3.56-.34-2.29,0-4.59.8-6.77,0,0,0-.11.11-.11,0,0,.11,0,.23-.11.11.23.23.34.23.46,0,1.26.92,1.95,1.95,2.29,1.15.46,2.52.46,3.78.34,2.06-.23,4.01-.8,5.85-1.61,1.03-.57,2.18-1.15,2.98-2.18.8-.92,1.03-1.83,1.03-2.98,0-1.03,0-1.95-.23-2.87-.46-2.52-1.03-4.93-1.49-7.34-.57-2.29-.69-4.7-.23-7,.11-.57.23-1.15.46-1.83.11.11.11.34.23.46.69,2.64,1.15,5.28,1.83,7.91,1.03,3.78,2.06,7.45,3.67,11.01.8,1.61,1.49,3.21,2.64,4.7.69.92,1.26,1.61,2.18,2.18.8.57,1.61.46,2.52.46,1.26-.11,4.13-1.15,5.28-1.95-.11-.57-.23-1.03-.23-1.49-.46-2.87,0-5.62.92-8.37.46-1.26,1.03-2.52,1.38-3.78.46-1.03.46-1.95.34-2.98-.11-1.26-.11-2.52.23-3.78.34-1.03.8-1.26,1.83-1.26,2.87.11,5.28,1.03,7.57,2.52,1.49.92,2.98,1.95,4.13,3.1,1.49,1.49,2.98,3.1,4.24,4.93,1.38,2.06,2.64,4.36,3.21,6.88.69,2.64.69,5.16-.46,7.68-.46.92-1.03,1.49-1.72,2.06-.8.57-1.61.69-2.52.69-2.18-.11-4.13-.92-6.19-1.61-1.15-.46-2.41-1.03-3.44-1.38-.46-.23-.92-.34-1.26-.46-.69-.11-1.15,0-1.61.46-2.06,1.61-4.36,2.98-6.77,4.13-1.26.57-2.64,1.03-4.01,1.26-2.75.57-4.93-.34-6.65-2.52-1.15-1.49-2.18-3.21-2.87-5.05-.57-1.26-1.03-2.75-1.38-4.01,0-.11-.11-.23-.23-.34.11,0,0,0-.11,0Zm26.03-3.78c-.11-1.38-.34-2.52-.8-3.56-1.03-2.29-2.87-2.64-4.59-.92-1.61,1.49-2.41,3.44-2.98,5.5-.11.46,0,1.03.34,1.15.34.34.8.8,1.26.92,1.61.69,3.21.57,4.93-.11.8-.34,1.38-.8,1.61-1.61.11-.34.11-.92.23-1.38Zm.23,4.93c.57.34,1.03.57,1.49.8,2.87,1.03,5.62,1.72,8.72,2.18h.57c.23-.92,0-1.61-.34-2.41-.57-1.15-1.26-2.29-2.18-3.1-1.26-1.26-2.64-2.52-4.01-3.78-.23-.11-.46-.34-.69-.46-.11,2.87-1.83,4.82-3.56,6.77Z" fill="#fff"/>
        <path d="m153.15,86.61c0,.23,0,.34-.11.57-.8,2.98-1.03,5.96-.46,8.94.34,1.49.92,2.87,1.95,3.9,1.03,1.15,2.52,1.61,4.13,1.72,3.21.23,6.08-.8,8.72-2.64,2.75-1.95,4.59-4.59,5.85-7.45.8-1.72.23-3.67-1.26-4.93.11-.69.34-1.26.46-2.06.23-1.03.46-2.06.8-2.98.23-1.03.46-1.03,1.15-1.03.34-.11.8-.11,1.03-.11,1.72-.11,3.33-.23,4.93-.69,1.03-.34,2.18-.8,3.1-1.49.8-.69,1.15-1.49,1.03-2.41-.11-1.49-.23-2.98-.46-4.59-.92-6.08-2.29-12.16-3.56-18.23-.69-2.75-1.15-5.5-1.83-8.26-.11-.57-.46-1.03-.69-1.49-.23-.57-.69-1.03-.92-1.49-.46-.92-.69-1.61-.34-2.64.57-1.61,1.03-3.1,1.72-4.82.11-.23.23-.46.34-.8.11.23.23.34.23.57.8,1.83,1.95,3.44,3.56,4.7.8.57.92,1.03.69,1.83-.34,1.15-.69,2.52-1.03,3.67-.23.8-.23,1.49-.11,2.29.8,3.44,1.38,6.88,2.18,10.44.69,3.33,1.26,6.88,1.61,10.21.23,1.49.34,2.98.46,4.47.11,1.03,0,1.95-.11,2.98-.11,1.95-.46,3.9-1.15,5.85-1.49,3.67-4.36,5.73-8.26,6.19-.46,0-.92.11-1.26.11-.11.69-.23,1.26-.34,1.95-.69,2.87-1.83,5.5-3.1,8.03-1.15,2.06-2.41,4.13-4.01,5.96-1.49,1.72-3.21,3.21-5.28,4.36-2.87,1.49-5.62,1.49-8.37-.23-1.38-.92-2.18-2.18-2.75-3.56-.92-2.06-1.15-4.13-1.15-6.31,0-2.98.34-5.96,1.15-8.83.11-.46.23-.8.46-1.15.11-.23.23-.34.34-.46.57-.11.69-.11.69-.11Z" fill="#fff"/>
        <path d="m247.3,69.53c-.69-.23-.8-.92-.8-1.26-.23-1.83-.23-3.56.57-5.28.23-.57.57-1.03,1.03-1.38.8-.8,1.61-.92,2.64-.8,1.26.23,2.18,1.03,3.1,1.95,1.83,1.72,3.21,3.9,4.47,6.08,1.49,2.75,2.52,5.62,2.98,8.72.46,2.98.34,5.96-.8,8.83-.57,1.38-1.38,2.41-2.98,2.98-2.87,1.03-5.73,1.95-8.83,2.41-1.83.34-3.56.46-5.39.11-1.15-.23-1.95-.92-2.41-2.06-.23-.57-.34-1.15-.34-1.72,0-1.26,0-2.75.11-4.01,0-.57.11-1.03.57-1.38.23.11.34.11.46.23,1.03,1.15,2.52,1.49,4.01,1.38,1.49,0,2.98-.23,4.47-.46,1.95-.34,3.9-.92,5.85-1.26.8-.23,1.49-.57,2.18-.92.8-.46.92-.8.57-1.49-1.03-2.75-2.29-5.28-4.13-7.57-.92-1.15-1.95-2.29-3.1-2.98-.46-.23-.92-.46-1.26-.69-.92-.34-1.61-.23-2.41.46-.23-.11-.46,0-.57.11Z" fill="#fff"/>
        <path d="m228.61,70.79c.57.11.8.57,1.03.92,1.26,1.95,2.41,4.01,3.44,6.08.57,1.03,1.03,2.18,1.15,3.33.23,1.61.34,3.33,0,4.93-.92,5.16-2.75,9.98-5.39,14.56-1.15,1.95-2.52,3.78-4.36,5.28-1.15,1.03-2.52,1.61-4.13,1.49-2.06-.11-4.13-.23-6.08-.57-2.64-.34-5.28-.92-7.91-1.26-.69-.11-1.15-.34-1.83-.57.57-.34,1.03-.23,1.49-.23,2.87.34,5.62,0,8.37-.92,3.9-1.03,7.22-3.1,10.32-5.85,2.64-2.29,4.82-4.93,6.08-8.26.23-.57.46-1.15.57-1.72.23-.92.11-1.61-.34-2.52-1.03-1.83-1.83-3.78-2.87-5.62q-1.15-2.18-.8-4.7c.23-1.15.46-2.29.69-3.44.23,0,.46-.46.57-.92Z" fill="#fff"/>
        <path d="m391.22,90.74c-.46-.23-.23-.57-.11-.8.69-1.03,1.26-1.95,1.95-2.98.8-.92,1.61-1.72,2.52-2.64-.23-.11-.34-.11-.57-.23-1.15-.34-2.41-.8-3.33-1.61-.57-.57-.92-1.03-.92-1.83-.11-1.26.34-2.52.92-3.67.8-1.61,1.83-3.1,2.98-4.47,1.03-1.03,2.18-2.06,3.56-2.87.92-.46,1.72-.8,2.64-.8s1.26.23,1.61,1.03c.34,1.15.46,2.29,0,3.44-.23.57-.57,1.03-.92,1.49-.11.23-.46.34-.69.57-.46-.34-.8-.57-1.03-.92-1.15-1.03-2.52-1.03-3.78-.46-.34.23-.8.46-1.03.69-1.03.8-1.03,1.83-.11,2.87.69.57,1.38,1.03,2.29,1.03,1.15.23,2.41.34,3.56.23,1.83-.11,3.56-.46,5.28-1.03,1.26-.46,2.41-1.03,3.56-1.61.23-.11.57-.23.8-.46.23.34.11.69,0,1.03-.69,1.26-1.26,2.64-1.83,3.9-.23.57-.69.8-1.03,1.03-5.05,1.95-9.98,4.59-14.56,7.57-.69.69-1.15,1.15-1.72,1.49Z" fill="#fff"/>
        <path d="m198.45,33.75c.11,1.15.23,2.41.34,3.56.34,3.1.69,6.19,1.03,9.29.11,1.49.34,2.98.46,4.59.23,2.64.46,5.16.69,7.8.11,1.38.11,2.98.23,4.36.11,2.06.34,4.24.46,6.31.34,3.56.69,7.11.46,10.67-.11,1.83-.34,3.67-.57,5.62,0,.23-.11.46-.34.57-.11-.92-.23-1.61-.34-2.52-.34-3.21-.8-6.42-1.03-9.63-.46-3.9-.8-7.68-1.15-11.58-.46-4.36-.92-8.6-1.26-12.84-.23-2.52-.57-5.05-.92-7.57-.11-1.03-.11-2.06.23-2.98.57-1.61,1.03-3.21,1.49-4.93,0-.34.11-.57.23-.69q0-.11,0,0Z" fill="#fff"/>
        <path d="m367.83,34.78c.11,1.26.23,2.52.46,3.78.34,2.98.69,6.08,1.03,9.06.23,2.29.46,4.7.57,6.88.11,1.72.34,3.56.46,5.28.11,1.26.11,2.75.23,4.01.11,1.95.34,3.78.46,5.73.11,1.03.11,2.06.23,3.1.23,2.98.46,5.73.34,8.72-.11,1.83-.34,3.56-.57,5.39,0,.23-.11.46-.23.69h-.23c-.11-.92-.23-1.72-.34-2.75-.46-3.33-.8-6.65-1.15-9.98-.23-2.06-.46-4.13-.57-6.08-.23-2.64-.57-5.16-.8-7.8-.23-2.06-.34-4.13-.57-6.19-.34-2.87-.69-5.5-1.03-8.37-.11-1.03-.23-2.18-.34-3.21-.11-1.03,0-1.95.23-2.98.46-1.61,1.03-3.21,1.38-4.93.11,0,.23-.11.46-.34-.23,0-.11,0,0,0Z" fill="#fff"/>
        <path d="m489.73,35.92c.11,1.26.23,2.64.46,3.9.34,2.98.69,5.96,1.03,8.83.11,1.49.34,2.98.46,4.47.23,2.64.46,5.28.69,7.91.11,1.38.11,2.98.23,4.36.11,2.06.34,4.13.46,6.19.34,3.56.69,7.11.46,10.78-.11,1.83-.46,3.67-.57,5.62,0,.23-.11.34-.34.57-.11-.46-.23-.8-.23-1.15-.46-3.67-.92-7.22-1.15-10.89-.34-2.87-.57-5.73-.92-8.6-.34-3.44-.69-7-1.03-10.55-.46-4.24-1.03-8.6-1.38-12.73-.11-1.03-.11-2.06.23-3.1.57-1.61,1.03-3.33,1.49-4.93.11-.23.23-.46.23-.69q-.23,0-.11,0Z" fill="#fff"/>
        <path d="m418.51,86.84c-.11-.57-.23-1.15-.23-1.72-.34-2.64-.69-5.16-.92-7.8-.34-2.98-.69-5.96-1.03-8.83-.23-2.18-.34-4.24-.57-6.42-.34-3.67-.8-7.22-1.03-10.89-.23-2.29-.57-4.59-.8-6.77,0-.34,0-.69-.11-1.03-.34-1.38-.11-2.87.34-4.24.57-1.61,1.03-3.21,1.49-4.93h.23c0,.23.11.34.11.57.23,2.64.57,5.16.8,7.8.34,3.21.69,6.54,1.03,9.75.23,2.64.34,5.05.57,7.68.23,2.41.34,4.93.57,7.22.23,2.52.46,4.93.57,7.45.11,3.1.23,6.42-.23,9.52-.11.57-.11,1.15-.23,1.72,0,.34-.11.57-.23.92h-.34Z" fill="#fff"/>
        <path d="m150.97,37.76c1.72,1.03,3.44,1.83,4.93,2.98.46.34.57.69.46,1.15-.57,1.72-1.26,3.33-2.29,4.93-1.83-1.03-3.67-2.06-5.5-3.1-1.03,1.49-1.83,3.1-2.75,4.59-1.72-1.15-3.44-2.29-5.16-3.33.69-1.83,1.49-3.56,2.41-5.39,1.95.8,3.67,1.83,5.5,2.98.92-1.49,1.61-3.1,2.41-4.82Z" fill="#fff"/>
        <path d="m80.33,52.32c-1.83-1.03-3.67-2.06-5.5-3.1-1.03,1.49-1.83,2.98-2.75,4.59-1.72-1.03-3.33-2.18-5.16-3.33.69-1.83,1.49-3.56,2.41-5.39,1.95.69,3.67,1.83,5.39,2.98.92-1.49,1.61-3.21,2.41-4.93.46.23.92.46,1.26.69,1.26.8,2.52,1.61,3.78,2.41.57.34.69.8.46,1.26-.23,1.26-1.49,3.67-2.29,4.82Z" fill="#fff"/>
        <path d="m104.18,106.91c-1.83-1.03-3.67-2.06-5.62-3.1-.92,1.49-1.83,2.98-2.75,4.59-1.72-1.03-3.44-2.18-5.16-3.33.8-1.83,1.49-3.67,2.52-5.39,1.95.8,3.67,1.83,5.5,2.98.8-1.61,1.61-3.21,2.41-4.93,1.83,1.03,3.56,1.83,5.05,3.1.34.23.46.57.34.92-.46,1.83-1.38,3.44-2.29,5.16Z" fill="#fff"/>
      </g>
      <g>
        <path d="m615.99,79.39c-2.41-.92-4.82-1.72-7.22-2.64-.57-.23-1.15-.34-1.83-.46-.46-.11-.92-.11-1.15.34,0,.11-.23.11-.46.23h-2.18c-1.95,0-3.9.11-5.96.11-.57,0-1.03.11-1.61.11s-.69-.11-.57-.57c.69-2.06,1.49-4.13,3.1-5.62,1.03-1.03,2.29-1.61,3.78-1.83,1.72-.23,3.44.23,5.05.57,2.18.57,4.24,1.38,6.42,2.18,1.95.69,3.9,1.49,5.85,2.18,3.21,1.15,6.54,2.06,9.98,2.75,1.72.34,3.44.57,5.28.69,1.03,0,2.18,0,3.21.11h.8c-.69,1.95-1.61,3.78-2.41,5.62-.8-.11-1.49-.23-2.29-.34-.8-.11-1.61-.23-2.41-.23-1.03-.11-1.95-.11-2.98-.11-2.87,0-5.73.34-8.6,1.03-3.78.92-7.45,2.29-11.01,3.9-3.33,1.49-6.65,2.98-9.98,4.24-2.18.8-4.36,1.38-6.54,1.72-.23,0-.46,0-.57.23-.11.11-.23.11-.34.11-2.87.11-5.16-.92-7.22-2.75-2.06-1.83-3.44-4.13-4.59-6.54-.8-1.72-1.61-3.44-2.41-5.16-.11-.34-.34-.57-.46-.92-.46.23-.46.57-.69.92-.34.8-.34,1.72-.46,2.52-.23,1.38-.57,2.64-1.26,3.78-1.15,2.18-2.87,3.67-5.16,4.59-1.03.46-2.06.8-3.21.92-1.26.11-2.52.34-3.78.46-1.95.11-3.44-1.15-3.9-2.75-.34-.92-.46-1.83-.46-2.75-.11-1.61.23-3.1.46-4.7q0-.11.11-.23l.11-.11c.34-.11.34.23.34.34.11,1.49,1.15,2.06,2.29,2.41,1.03.23,1.95.23,2.98.11,1.95-.23,3.67-.8,5.39-1.61,1.38-.69,2.64-1.38,3.78-2.52.8-.92,1.26-1.95,1.38-3.21,0-1.72-.34-3.44-.8-5.05-.57-2.06-1.15-4.01-1.72-6.08-.34-1.15-.46-2.29-.69-3.44-.11-.69,0-1.49,0-2.29,0-.69.11-1.26.11-1.95,0-.34.11-.69.11-1.03.34.11.34.34.34.46.69,1.95,1.26,3.78,1.95,5.73,1.15,3.67,2.52,7.22,4.01,10.67,1.03,2.29,2.06,4.59,3.56,6.65,1.38,1.95,2.87,3.67,4.82,4.93,1.38.92,2.87,1.38,4.47,1.38.11,0,.34-.11.46-.11s.34-.11.46-.11c3.44-.46,6.88-1.15,10.21-2.18,2.98-.92,5.85-1.95,8.83-3.1,1.61-.69,3.21-1.26,4.93-1.83,0,.34.11.23.34.23Z" fill="#fff"/>
        <path d="m521.15,79.39c-.23.11-.34.23-.46.34-.8,1.15-1.95,1.72-3.33,2.18-2.18.69-4.47.92-6.88.8-.34,0-.8-.11-1.15-.23-.57-.11-.8-.34-.69-1.03.11-1.38.23-2.75.69-4.01.34-.92.69-1.83,1.03-2.75.23-.69.8-1.26,1.38-1.72,1.61-1.38,3.56-2.41,5.39-3.44.8-.34,1.49-.8,2.29-1.15.46-.23.8-.57.8-1.26,0-.46.23-.92.34-1.26.57-1.61,1.15-3.1,1.72-4.7.11-.23.11-.34.23-.57h.11c0,.46.11.92.11,1.38.11,1.83.23,3.56.46,5.39.23,2.64.46,5.28,1.15,7.91.34,1.38.8,2.75,1.49,4.01.8,1.49,1.83,2.64,3.44,3.33.69.34,1.49.46,2.29.57,2.41.34,4.7,0,6.88-1.15.92-.46,1.83-1.15,2.52-1.83.92-.92,1.72-1.83,2.64-2.75q.46-.46,1.15-.46c.69-1.49,1.49-2.98,2.52-4.36.57-.69,1.15-1.26,1.72-1.72,1.15-.92,2.41-1.03,3.78-.34.46.23.8.69,1.15,1.15.57.8.92,1.72,1.15,2.75.23,1.38.34,2.75.23,4.13-.11,1.83-.34,3.78-1.15,5.5-.23.46-.57.92-.92,1.38-.34.46-.8.57-1.26.57-1.26-.11-2.41-.34-3.56-.8-1.61-.57-3.1-1.15-4.7-1.72-.11,0-.23-.11-.34-.11-1.15-.46-1.26-.34-1.95.69-.8,1.26-1.61,2.64-2.64,3.78-1.72,1.61-3.67,2.64-5.96,2.75-1.15.11-2.18,0-3.33-.11-1.83-.23-3.33-1.26-4.47-2.64-1.26-1.38-2.06-3.1-2.64-4.82-.34-1.03-.69-2.06-1.03-3.1,0-.11-.11-.34-.23-.57Zm-.92-8.49c-.34.34-.69.69-1.15,1.03-.92.69-1.83,1.38-2.75,2.18-.46.34-.92.8-1.26,1.38-.34.34-.23.69.23.92.23.11.57.23.8.34,1.38.34,2.75.23,4.13,0,.11,0,.23-.11.46-.11-.11-2.18-.23-3.9-.46-5.73Zm32.11,9.4c0-.34.11-.57.11-.8-.11-1.38-.8-2.64-1.72-3.67-.34-.34-.8-.57-1.38-.57-1.26.11-2.18.69-2.87,1.61-.23.23-.23.57-.46.8,2.06,1.26,4.13,1.95,6.31,2.64Z" fill="#fff"/>
        <path d="m524.48,51.75c-1.95-1.15-3.78-2.18-5.73-3.21-1.03,1.49-1.83,3.21-2.87,4.7-1.72-1.15-3.56-2.29-5.28-3.44.11-.8,1.95-4.82,2.52-5.62,1.95.69,3.67,1.83,5.5,2.98.8-1.72,1.61-3.33,2.41-5.05.46.23,1.03.46,1.49.8,1.26.69,2.52,1.49,3.67,2.41.46.34.57.69.34,1.15-.23,1.95-1.03,3.67-2.06,5.28Z" fill="#fff"/>
        <path d="m534.68,56.68c0-.23,0-.34.11-.46.23-.92.57-1.72.8-2.64.11-.46.46-.8.92-.92,2.52-.92,4.93-1.83,7.34-2.75,5.28-1.95,10.67-3.78,15.94-5.62.46-.11.8-.34,1.26-.46.23-.11.46-.11.69-.11,0,.34,0,.57-.11.69q0,.11-.11.11c-1.15,2.29-.92,2.06-2.87,2.75-3.33,1.26-6.65,2.52-9.98,3.78-2.98,1.15-5.85,2.18-8.83,3.33-1.61.69-3.21,1.38-4.82,2.06-.11.11-.23.11-.34.23Z" fill="#fff"/>
        <path d="m598.9,107.14c.34-1.03.69-2.06,1.03-3.1.11-.34.34-.57.69-.69,2.18-.8,4.36-1.72,6.54-2.41,4.13-1.49,8.14-2.87,12.27-4.36,1.95-.69,3.78-1.38,5.73-2.06.23-.11.57-.11.92-.23v.46c0,.11-.11.34-.11.46-1.15,2.18-.92,1.95-2.87,2.75-3.56,1.38-7.11,2.64-10.67,4.01-3.9,1.49-7.8,3.1-11.81,4.59-.57.23-1.03.46-1.61.69,0,0-.11,0-.11-.11Z" fill="#fff"/>
        <path d="m619.09,61.96c-1.95-1.49-3.9-2.87-6.08-3.78.8-1.95,1.61-3.9,2.52-5.85,2.29.92,4.47,1.95,6.31,3.67-.92,1.95-1.83,3.9-2.75,5.96Z" fill="#fff"/>
      </g>
    </g>
  </g>
  <g>
    <path d="m794.06,104.89c-3.49,3.67-6,6.9-7.62,9.17-3.15,4.39-3.91,6.38-7,9.35-1.22,1.18-3.71,3.53-7.52,5.28-5.5,2.53-10.53,2.31-14.26,2.09-6.82-.38-12.3-2.51-15.99-4.39,1.2-.44,2.83-1.12,4.65-2.17.94-.56,3.23-1.95,6.02-4.73,1.34-1.32,2.33-2.49,3.57-4.13h7.12c-1.02,1.52-1.08,1.73-1.75,2.65-3.81,5.06-8.73,7.02-8.55,7.32.12.22,2.79-.88,5.5-2.61.8-.5,3.05-1.99,5.84-4.83.84-.86,1.6-1.71,2.27-2.53h4.63v-6.4c1.02-1.62,1.89-2.95,3.57-4.65,1.83-1.85,2.81-2.31,3.73-2.49,2.49-.48,4.63,1.16,5.26,1.67-.74.68-1.85,1.73-3.11,3.11-1.6,1.75-2.87,3.41-5.5,7.18-4.15,5.94-3.53,5.44-4.53,6.58-3.81,4.27-7.88,5.76-7.7,6.08.16.28,3.53-.88,6.76-3.17.44-.3,1.77-1.28,3.53-3.03,1.3-1.3,2.63-2.85,5.2-6.64,3.91-5.72,4.01-6.82,6.28-8.49,1.14-.84,2.91-2.09,5.32-1.97,2.07.1,3.59,1.18,4.27,1.73Z" fill="#c8b299"/>
    <polygon points="778.13 52.59 791.65 57.35 789.63 64.02 778.13 101.93 778.13 52.59" fill="#4bc1eb"/>
    <polygon points="797.14 66.2 778.13 101.93 789.63 64.02 797.14 66.2" fill="#7bd1ee"/>
    <g>
      <polygon points="733.77 40.69 733.77 47.66 770.99 47.66 770.99 115.37 715.12 115.37 715.12 122.51 778.13 122.51 778.13 40.69 733.77 40.69" fill="#2baae2"/>
      <rect x="734.7" y="61.33" width="26.04" height="4.54" fill="#2baae2"/>
      <rect x="725.79" y="79.36" width="34.95" height="4.7" fill="#2baae2"/>
      <rect x="725.79" y="97.45" width="35.73" height="4.48" fill="#2baae2"/>
      <rect x="715.12" y="33.97" width="13.86" height="13.86" fill="#2baae2"/>
      <rect x="718.48" y="51.27" width="7.31" height="7.31" fill="#2baae2"/>
      <rect x="708.07" y="51.19" width="4.87" height="4.87" fill="#2baae2"/>
      <rect x="705.96" y="61.33" width="4.54" height="4.54" fill="#2baae2"/>
      <rect x="700.38" y="44.76" width="5.59" height="5.59" fill="#2baae2"/>
      <rect x="695.8" y="54.93" width="4.58" height="4.58" fill="#2baae2"/>
      <rect x="688.7" y="54.09" width="1.64" height="1.64" fill="#2baae2"/>
      <rect x="680.96" y="59.51" width="4.09" height="4.09" fill="#2baae2"/>
    </g>
    <path d="m721.12,163.97c.46-3.14,1.92-9.9,7.56-14.54.67-.55,2.59-2.05,7.47-3.84,8.05-2.96,13.04-2.62,20.83-3.75,7.27-1.06,12.4-1.8,18.48-4.77,8.03-3.92,15.44-10.61,18.66-14.88,1.18-1.56,2.14-3.25,4.46-5.3,2.59-2.29,4.77-3.18,4.56-4.28-.23-1.16-2.9-1.47-3.07-1.49-2.61-.28-4.7,1.14-5.86,1.95-2.02,1.42-2.21,2.33-4.93,5.11-1.57,1.61-2.83,2.66-4.09,3.72-1.81,1.52-5.42,4.29-9.86,6.42-8.6,4.11-16.62,4-20.27,3.91-8.35-.21-12.4-2.46-13.58-3.16-2.09-1.24-4.8-2.91-5.3-5.86-.57-3.4,2.14-6.46,2.51-6.88.57-.65.75-.67,3.12-2.42,5.67-4.18,6.23-5.2,6.51-5.81,1.02-2.27.58-4.5.42-5.3-.51-2.6-2.09-4.88-2.46-4.74-.13.05-.04.37-.14.93-.21,1.14-1.02,1.89-1.49,2.32-2.34,2.17-16.55,10.83-16.55,10.83-2.3,1.4-6.07,3.74-9.81,7.86-2.69,2.96-6.26,6.97-7.58,13.21-1.35,6.4.42,11.73,1.39,14.65,1.28,3.85,3.16,7,4.88,9.9,1.56,2.62,3.02,4.72,4.14,6.22Z" fill="#c8b299"/>
  </g>
</svg>