<?xml version="1.0" encoding="UTF-8"?>
<svg id="uuid-7c9a4541-b9f4-4633-b446-fbc1d40317b5" data-name="Layer 1" xmlns="http://www.w3.org/2000/svg" viewBox="0 0 848.49 192.63">
  <rect x="1" y="1" width="846.49" height="190.63" rx="10" ry="10" fill="#2178bb" stroke="#fff" stroke-miterlimit="10" stroke-width="2"/>
  <g>
    <g>
      <path d="m85.34,135.34c4.33,0,8.39,1.27,8.39,6.06s-3.77,7.35-8.77,7.74c-.38,0-.67.05-1.01-.02l-2.67-.62-.99,5.02c-.6,2.98-.24,3.15,2.93,3.44l-.26,1.23h-10.93l.29-1.23c2.62-.22,2.86-.48,3.46-3.44l2.55-13.29c.6-3.05.36-3.44-2.26-3.65l.26-1.23h9.01Zm-3.75,11.8c.46.17,1.15.36,2.07.36,3.22,0,5.22-3.22,5.22-6.51,0-2.88-1.51-4.21-3.61-4.21-.7,0-1.15.14-1.44.31-.34.22-.53.74-.72,1.9l-1.51,8.15Z" fill="#fdbc69"/>
      <path d="m107.01,154.78c-1.92,2.26-4.54,3.8-5.67,3.8-.74,0-1.32-.77-.6-4.3,1.23-5.7,2.43-11.37,3.65-17.04.31-1.61.14-1.83-1.44-1.85l-1.01-.05.14-.91c2.91-.26,5.02-1.25,5.48-1.25.36,0,.43.31.26,1.08-1.42,6.8-2.84,13.55-4.28,20.38-.22.99-.12,1.23.1,1.23.38,0,1.83-.91,2.84-1.9l.53.82Z" fill="#fff"/>
      <path d="m130.01,154.78c-2.07,2.48-4.52,3.8-5.43,3.8-.72,0-1.25-.43-.7-3.24l.62-3.15h-.07c-1.35,1.95-3.03,3.6-4.47,4.76-1.15.94-2.38,1.63-3.44,1.63s-2.16-1.23-2.16-4.04c0-3.51,1.68-7.28,4.28-9.4,1.73-1.47,4.4-2.72,6.75-2.72.77,0,1.49.1,2.26.24.58.1,1.08.24,1.47.19l.14.14c-.55,2.26-1.56,6.87-2.38,11.32-.19,1.15-.1,1.47.07,1.47.31,0,1.54-.86,2.6-1.9l.46.89Zm-5-5.34c.41-1.32.94-3.94,1.11-4.97-.48-.24-1.47-.48-2.33-.48-.91,0-1.87.24-2.45.7-2.31,1.73-3.72,5.74-3.72,9.2,0,1.59.43,2.31.96,2.31,1.39,0,5.38-4.54,6.44-6.75Z" fill="#fff"/>
      <path d="m152.87,143.25c-1.08,1.18-1.99,1.61-2.55,1.75-.29.07-.53.07-.91.12.14.46.29,1.01.29,1.92,0,2.38-1.37,4.21-2.72,5.21-.96.79-2.62,1.68-4.71,2.07-.43.31-.67.65-.67,1.03,0,.5.82,1.11,2.48,1.95,3.58,1.78,5.02,3.17,5.02,4.76,0,2.93-4.97,5.17-8.63,5.17-3.46,0-6.54-1.75-6.46-4.01.07-1.51,2.16-3.08,5.91-4.97-.79-.53-1.32-1.23-1.3-1.71,0-.6.58-1.27,2.28-2.26-2.14-.46-3.22-1.92-3.22-4.25s1.15-4.45,2.98-5.86c1.49-1.15,3.39-1.73,4.69-1.73,1.22,0,2.38.31,3.17.96,2.14,0,3.41-.38,4.06-.84l.29.7Zm-6.61,19.9c0-.91-.91-1.78-2.5-2.69-1.18-.7-2.26-1.3-2.86-1.54-2.14.96-3.65,2.38-3.65,3.7,0,1.78,2.33,3.08,4.71,3.08,2.76,0,4.3-1.25,4.3-2.55Zm.55-16.15c0-1.85-.77-3.32-2.31-3.32-1.01,0-1.92.75-2.52,1.63-.72,1.11-1.3,2.72-1.3,4.52,0,1.97.91,3.1,2.19,3.1,1.87,0,3.94-2.21,3.94-5.94Z" fill="#fff"/>
      <path d="m165.23,154.98c-1.44,1.66-4.21,3.6-5.41,3.6-.79,0-1.3-.58-.55-3.6l2.09-8.68c.19-.72.19-1.08-.02-1.08-.31,0-1.32.6-2.38,1.44l-.46-.82c2.09-1.99,4.59-3.41,5.6-3.41.82,0,.84,1.15.43,2.86l-2.36,9.37c-.22.89-.14,1.15.07,1.15.46,0,1.61-.86,2.48-1.61l.5.77Zm.77-17.59c0,1.11-.89,2.16-2.04,2.16-.91,0-1.54-.67-1.56-1.68,0-.94.72-2.21,2.07-2.21.96,0,1.49.82,1.54,1.73Z" fill="#fff"/>
      <path d="m188.73,154.78c-2.07,2.48-4.52,3.8-5.43,3.8-.72,0-1.25-.43-.7-3.24l.62-3.15h-.07c-1.35,1.95-3.03,3.6-4.47,4.76-1.15.94-2.38,1.63-3.44,1.63s-2.16-1.23-2.16-4.04c0-3.51,1.68-7.28,4.28-9.4,1.73-1.47,4.4-2.72,6.75-2.72.77,0,1.49.1,2.26.24.58.1,1.08.24,1.47.19l.14.14c-.55,2.26-1.56,6.87-2.38,11.32-.19,1.15-.1,1.47.07,1.47.31,0,1.54-.86,2.6-1.9l.46.89Zm-5-5.34c.41-1.32.94-3.94,1.11-4.97-.48-.24-1.47-.48-2.33-.48-.91,0-1.87.24-2.45.7-2.31,1.73-3.72,5.74-3.72,9.2,0,1.59.43,2.31.96,2.31,1.39,0,5.38-4.54,6.44-6.75Z" fill="#fff"/>
      <path d="m201.47,148.15c1.75-3.22,3.8-5.72,5.31-5.72.62,0,1.27.38,1.59.86.31.46.26,1.13-.05,1.63-.27.46-.63.84-.99,1.13-.31.22-.58.22-.79.02-.43-.41-.89-.65-1.3-.65-.38,0-.94.34-1.68,1.39-.77,1.06-1.92,2.74-2.55,4.28-.5,2.26-.96,4.59-1.37,6.82-.84.14-1.97.38-2.81.65l-.24-.26c.89-3.65,1.83-7.95,2.52-11.63.22-1.18.17-1.54-.07-1.54-.31,0-1.47.7-2.48,1.66l-.53-.84c1.85-1.99,4.13-3.53,5.14-3.53.94,0,1.08,1.47.53,4.01l-.36,1.71h.12Z" fill="#fff"/>
      <path d="m222.12,154.98c-1.44,1.66-4.21,3.6-5.41,3.6-.79,0-1.3-.58-.55-3.6l2.09-8.68c.19-.72.19-1.08-.02-1.08-.31,0-1.32.6-2.38,1.44l-.46-.82c2.09-1.99,4.59-3.41,5.6-3.41.82,0,.84,1.15.43,2.86l-2.36,9.37c-.22.89-.14,1.15.07,1.15.46,0,1.61-.86,2.48-1.61l.5.77Zm.77-17.59c0,1.11-.89,2.16-2.04,2.16-.91,0-1.54-.67-1.56-1.68,0-.94.72-2.21,2.07-2.21.96,0,1.49.82,1.54,1.73Z" fill="#fff"/>
      <path d="m229.31,155.94c-.02-.62.46-1.23,1.08-1.59.5-.24.74-.17.96.12.96,1.39,2.38,2.31,3.6,2.31,1.35,0,2.24-.99,2.24-1.99,0-.82-.43-1.54-2.19-2.84-1.61-1.13-3.24-2.43-3.24-4.35,0-1.06.41-2.23,1.9-3.46,1.18-.99,2.91-1.71,4.09-1.71,1.66,0,2.88,1.08,2.91,2.04,0,.65-.38,1.23-.98,1.59-.38.22-.62.14-.84-.17-.72-.96-1.61-1.73-2.86-1.73-.99,0-1.83.74-1.83,1.87,0,1.23,1.08,2.09,2.43,3.03,2.12,1.51,3.08,2.57,3.08,4.18,0,2.76-3.65,5.33-6.56,5.33-1.78,0-3.75-1.32-3.77-2.64Z" fill="#fff"/>
      <path d="m273.21,155.1c-1.99,2.23-4.25,3.48-5.17,3.48s-1.3-1.01-.67-3.6l1.85-7.91c.43-1.71.22-2.26-.31-2.26-1.61,0-5.77,4.76-6.99,7.07-.46,1.75-.98,3.99-1.37,6.08-1.03.12-2.07.36-2.86.62l-.22-.24c.84-3.48,1.75-6.99,2.45-10.29.48-2.38.46-3.24-.24-3.24-1.68,0-5.91,4.93-6.97,7.07-.48,1.61-1.01,3.92-1.47,6.08-.99.12-1.99.36-2.84.62l-.24-.24c1.08-3.99,2.02-7.93,2.93-11.9.24-1.15.17-1.37-.07-1.37-.38,0-1.63.99-2.4,1.73l-.46-.91c2.07-2.21,4.18-3.46,5.21-3.46.96,0,1.08,1.32.34,4.25l-.6,2.5h.07c2.45-3.34,4.88-5.21,6.32-6.03.82-.48,1.54-.72,2.24-.72,1.01,0,1.99.79.98,5.38l-.29,1.3h.07c2.45-3.36,4.97-5.21,6.39-6.03.91-.48,1.51-.65,2.21-.65.77,0,1.99.41.84,5.21l-1.68,6.99c-.22.94-.1,1.18.12,1.18.31,0,1.35-.65,2.33-1.61l.48.89Z" fill="#fff"/>
      <path d="m308.71,135.34c7.88,0,12.59,3.08,12.59,9.88,0,4.3-1.8,8.12-5.94,10.5-3.15,1.83-7.02,2.45-11.66,2.45h-8.65l.31-1.23c2.74-.22,3.08-.74,3.53-3.22l2.62-13.87c.5-2.67.29-3.08-2.5-3.29l.31-1.23h9.37Zm-5,17.71c-.38,2.04-.26,2.67.46,3.12.55.36,1.23.41,1.87.41,6.03,0,10.05-5.31,10.05-11.66,0-3.99-1.99-8.12-7.21-8.12-.99,0-1.63.12-1.95.43-.22.22-.43.67-.65,1.78l-2.57,14.03Z" fill="#fdbc69"/>
      <path d="m340.34,154.54c-3.08,3.27-5.81,4.04-7.67,4.04-1.71,0-4.06-.96-4.06-5.21,0-3.17,1.44-6.85,4.28-8.94,1.49-1.18,3.44-1.99,5.05-1.99,2.02,0,3.27,1.32,3.27,2.86,0,3.51-6.01,5.31-9.4,6.2-.05.41-.05.72-.05,1.03,0,1.87.62,3.82,2.76,3.82,1.51,0,3.46-.99,5.21-2.64l.6.84Zm-5.12-10.31c-.96.58-2.69,2.24-3.29,6.13,4.9-1.32,6.39-2.91,6.42-4.54,0-1.27-.79-1.92-1.71-1.92-.5,0-1.03.14-1.42.34Z" fill="#fff"/>
      <path d="m358.1,144.31l-3.61.17-1.97,9.35c-.38,1.75-.17,2.19.22,2.19.6,0,2.31-1.13,3.15-2.04l.55.82c-1.23,1.42-3.99,3.8-5.91,3.8-.91,0-1.63-1.03-.87-4.76l2.02-9.35h-2.64l-.12-.26.91-1.15h2.14l.82-3.36,2.96-2.23.36.24-1.27,5.36h4.18l-.91,1.25Z" fill="#fff"/>
      <path d="m376.22,154.54c-3.08,3.27-5.82,4.04-7.67,4.04-1.71,0-4.06-.96-4.06-5.21,0-3.17,1.44-6.85,4.28-8.94,1.49-1.18,3.44-1.99,5.05-1.99,2.02,0,3.27,1.32,3.27,2.86,0,3.51-6.01,5.31-9.4,6.2-.05.41-.05.72-.05,1.03,0,1.87.62,3.82,2.76,3.82,1.51,0,3.46-.99,5.21-2.64l.6.84Zm-5.12-10.31c-.96.58-2.69,2.24-3.29,6.13,4.9-1.32,6.39-2.91,6.42-4.54,0-1.27-.79-1.92-1.71-1.92-.5,0-1.03.14-1.42.34Z" fill="#fff"/>
      <path d="m395.43,154.64c-2.21,2.52-5.07,3.94-7.21,3.94-2.45,0-4.06-1.85-4.06-5.26,0-2.91,1.39-6.27,3.7-8.32,1.49-1.25,3.94-2.57,5.79-2.57,1.54,0,2.79.86,2.84,1.8.02.6-.36,1.27-1.23,1.75-.31.17-.6.1-.84-.22-.82-1.11-1.66-1.68-2.76-1.68-1.2,0-2.14,1.06-2.76,2.28-.84,1.54-1.47,3.77-1.47,6.15,0,2.6,1.01,3.87,2.55,3.87,1.78,0,3.99-1.61,4.9-2.57l.55.82Z" fill="#fff"/>
      <path d="m413.38,144.31l-3.6.17-1.97,9.35c-.38,1.75-.17,2.19.22,2.19.6,0,2.31-1.13,3.15-2.04l.55.82c-1.23,1.42-3.99,3.8-5.91,3.8-.91,0-1.63-1.03-.87-4.76l2.02-9.35h-2.64l-.12-.26.91-1.15h2.14l.82-3.36,2.96-2.23.36.24-1.27,5.36h4.18l-.91,1.25Z" fill="#fff"/>
      <path d="m427.01,154.98c-1.44,1.66-4.21,3.6-5.41,3.6-.79,0-1.3-.58-.55-3.6l2.09-8.68c.19-.72.19-1.08-.02-1.08-.31,0-1.32.6-2.38,1.44l-.46-.82c2.09-1.99,4.59-3.41,5.6-3.41.82,0,.84,1.15.43,2.86l-2.36,9.37c-.22.89-.14,1.15.07,1.15.46,0,1.61-.86,2.48-1.61l.5.77Zm.77-17.59c0,1.11-.89,2.16-2.04,2.16-.91,0-1.54-.67-1.56-1.68,0-.94.72-2.21,2.07-2.21.96,0,1.49.82,1.54,1.73Z" fill="#fff"/>
      <path d="m435.11,152.98c0-4.54,2.52-7.98,5.46-9.44,1.35-.67,2.76-1.11,3.96-1.11,3.05,0,4.9,2.02,4.9,5.6,0,2.96-1.23,6.25-3.75,8.32-1.54,1.27-3.58,2.23-5.67,2.23-3.58,0-4.9-2.72-4.9-5.6Zm7.35,3.97c1.85-.77,3.7-4.42,3.7-8.89-.02-2.91-1.25-4.23-2.84-4.23-.48,0-.94.1-1.32.26-1.3.6-3.61,3.44-3.61,8.84,0,2.64,1.15,4.23,2.93,4.23.43,0,.77-.07,1.13-.22Z" fill="#fff"/>
      <path d="m473.59,155.1c-2.26,2.38-4.25,3.48-5.26,3.48-.87,0-1.3-.94-.62-3.73.62-2.5,1.22-5.02,1.83-7.5.48-2.07.26-2.52-.29-2.52-1.51,0-5.53,4.23-7.21,7.11-.46,1.75-.94,3.77-1.39,5.94-.99.19-2.07.46-2.81.7l-.24-.26c1.06-4.06,1.99-7.98,2.86-11.8.22-1.13.14-1.37-.05-1.37-.36,0-1.49.74-2.33,1.59l-.48-.91c2.04-2.14,4.16-3.39,5.21-3.39.84,0,1.06,1.15.43,3.94l-.72,2.91h.07c2.19-2.98,4.73-5.05,6.27-5.98,1.01-.6,1.83-.86,2.55-.86.91,0,1.97.5.89,5.14-.53,2.33-1.08,4.69-1.66,7.02-.19.91-.17,1.23.12,1.23.31,0,1.3-.62,2.31-1.61l.53.89Z" fill="#fff"/>
      <path d="m497.79,150.67c.36,2.38,1.99,6.56,5.79,6.56,2.57,0,3.8-1.87,3.8-3.87,0-1.63-.96-3.1-2.76-4.45l-1.11-.77c-2.31-1.73-4.35-3.72-4.35-6.63,0-4.25,3.39-6.73,7.79-6.73,1.47,0,2.76.22,4.09.7.62.22,1.08.46,1.44.55-.19,1.44-.14,3.27-.19,5.48l-1.23.1c-.34-2.16-1.25-5.43-4.37-5.43-2.31,0-3.39,1.97-3.39,3.65,0,1.78,1.01,2.86,2.91,4.16l1.06.74c2.47,1.71,4.57,3.6,4.57,6.85,0,4.42-3.85,7.14-8.63,7.14-3.03,0-5.48-1.23-6.58-2.19.02-.79.07-2.79-.05-5.67l1.22-.19Z" fill="#fdbc69"/>
      <path d="m531.54,154.54c-3.08,3.27-5.82,4.04-7.67,4.04-1.71,0-4.06-.96-4.06-5.21,0-3.17,1.44-6.85,4.28-8.94,1.49-1.18,3.44-1.99,5.05-1.99,2.02,0,3.27,1.32,3.27,2.86,0,3.51-6.01,5.31-9.4,6.2-.05.41-.05.72-.05,1.03,0,1.87.62,3.82,2.76,3.82,1.51,0,3.46-.99,5.21-2.64l.6.84Zm-5.12-10.31c-.96.58-2.69,2.24-3.29,6.13,4.9-1.32,6.39-2.91,6.42-4.54,0-1.27-.79-1.92-1.71-1.92-.5,0-1.03.14-1.42.34Z" fill="#fff"/>
      <path d="m545.26,148.15c1.75-3.22,3.8-5.72,5.31-5.72.62,0,1.27.38,1.59.86.31.46.26,1.13-.05,1.63-.27.46-.63.84-.99,1.13-.31.22-.58.22-.79.02-.43-.41-.89-.65-1.3-.65-.38,0-.94.34-1.68,1.39-.77,1.06-1.92,2.74-2.55,4.28-.5,2.26-.96,4.59-1.37,6.82-.84.14-1.97.38-2.81.65l-.24-.26c.89-3.65,1.83-7.95,2.52-11.63.22-1.18.17-1.54-.07-1.54-.31,0-1.47.7-2.48,1.66l-.53-.84c1.85-1.99,4.13-3.53,5.14-3.53.94,0,1.08,1.47.53,4.01l-.36,1.71h.12Z" fill="#fff"/>
      <path d="m565.71,154.98c1.51-1.85,5.29-6.61,5.29-8.99,0-.55-.07-1.13-.34-1.54-.14-.24-.14-.55,0-.86.22-.65.87-1.15,1.63-1.15.89,0,1.54.86,1.59,2.04,0,1.11-.6,2.45-2.21,4.66-2.14,2.84-5.36,6.97-7.45,9.44h-1.08c-.14-3.22-.6-8.84-.82-10.91-.17-1.92-.38-2.55-.63-2.55-.31,0-1.01.58-2.07,1.85l-.6-.84c1.3-1.85,3.22-3.7,4.45-3.7.98,0,1.44,1.35,1.66,3.99.17,3.17.38,5.98.5,8.56h.07Z" fill="#fff"/>
      <path d="m588.23,154.98c-1.44,1.66-4.21,3.6-5.41,3.6-.79,0-1.3-.58-.55-3.6l2.09-8.68c.19-.72.19-1.08-.02-1.08-.31,0-1.32.6-2.38,1.44l-.46-.82c2.09-1.99,4.59-3.41,5.6-3.41.82,0,.84,1.15.43,2.86l-2.36,9.37c-.22.89-.14,1.15.07,1.15.46,0,1.61-.86,2.48-1.61l.5.77Zm.77-17.59c0,1.11-.89,2.16-2.04,2.16-.91,0-1.54-.67-1.56-1.68,0-.94.72-2.21,2.07-2.21.96,0,1.49.82,1.54,1.73Z" fill="#fff"/>
      <path d="m607.53,154.64c-2.21,2.52-5.07,3.94-7.21,3.94-2.45,0-4.06-1.85-4.06-5.26,0-2.91,1.39-6.27,3.7-8.32,1.49-1.25,3.94-2.57,5.79-2.57,1.54,0,2.79.86,2.84,1.8.02.6-.36,1.27-1.23,1.75-.31.17-.6.1-.84-.22-.82-1.11-1.66-1.68-2.76-1.68-1.2,0-2.14,1.06-2.76,2.28-.84,1.54-1.47,3.77-1.47,6.15,0,2.6,1.01,3.87,2.55,3.87,1.78,0,3.99-1.61,4.9-2.57l.55.82Z" fill="#fff"/>
      <path d="m627,154.54c-3.08,3.27-5.82,4.04-7.67,4.04-1.71,0-4.06-.96-4.06-5.21,0-3.17,1.44-6.85,4.28-8.94,1.49-1.18,3.44-1.99,5.05-1.99,2.02,0,3.27,1.32,3.27,2.86,0,3.51-6.01,5.31-9.4,6.2-.05.41-.05.72-.05,1.03,0,1.87.62,3.82,2.76,3.82,1.51,0,3.46-.99,5.21-2.64l.6.84Zm-5.12-10.31c-.96.58-2.69,2.24-3.29,6.13,4.9-1.32,6.39-2.91,6.42-4.54,0-1.27-.79-1.92-1.71-1.92-.5,0-1.03.14-1.42.34Z" fill="#fff"/>
    </g>
    <g>
      <path d="m450.14,81.26c.1-2.13.3-4.07,1.43-5.79,1.04-1.58,2.47-2.62,4.29-3.05,2.95-.71,5.87-.45,8.71.56,1.28.46,2.26,1.38,2.99,2.53.68,1.08.57,2.21.06,3.31-.59,1.28-1.46,2.36-2.43,3.38-.37.39-.76.76-1.13,1.14-.12.12-.21.25-.32.39.19.4.55.52.87.66,1.01.44,2.07.68,3.16.79,1.98.2,3.92.01,5.82-.61,2.19-.72,4.15-1.82,5.83-3.4.76-.72,1.52-1.45,2.29-2.16.42-.39.82-.87,1.54-.56.25-.5.49-.98.74-1.45.83-1.61,1.83-3.1,3.12-4.37.6-.6,1.29-1.09,2.15-1.21,1.34-.2,2.49.17,3.34,1.28.69.9,1.09,1.93,1.32,3.03.25,1.18.33,2.38.31,3.57-.02,1.21-.26,2.42-.42,3.62-.15,1.14-.54,2.2-1.08,3.21-.16.3-.34.59-.56.86-.36.46-.81.71-1.44.68-1.1-.06-2.16-.3-3.2-.65-1.8-.61-3.59-1.28-5.38-1.92-.12-.04-.24-.1-.36-.13-.91-.29-1.07-.45-1.9.6-.46.59-.88,1.22-1.36,1.78-1.61,1.88-3.55,3.29-5.94,4-2.92.86-5.78.75-8.55-.62-1.52-.75-2.86-1.71-4-2.97-.26-.29-.56-.44-.96-.35-1.02.23-2.07.37-3.07.67-1.72.53-3.43,1.09-5.09,1.77-2.36.97-4.64,2.13-6.64,3.73-1.52,1.21-3,2.48-4.45,3.79-2.36,2.13-4.36,4.59-6.51,6.92-1.79,1.94-3.67,3.79-6.03,5.05-1.33.71-2.72,1.14-4.23,1.11-.62-.01-1.25-.02-1.85-.12-1.57-.27-2.57-1.28-3.23-2.67-.43-.9-.63-1.86-.67-2.86-.02-.45-.07-.89-.08-1.34-.06-1.9.24-3.75.67-5.59.69-2.93,1.71-5.74,3.03-8.44.06-.13.1-.27.21-.55-.53.29-.95.52-1.36.75-1.85,1-3.83,1.61-5.92,1.77-1.43.11-2.87.16-4.3.12-1.51-.04-2.87-.6-4.09-1.5-1.67-1.24-2.77-2.91-3.56-4.79-.64-1.52-1.13-3.09-1.68-4.64-.08-.22-.17-.43-.27-.7-.17.13-.32.19-.39.3-.92,1.41-2.36,2-3.89,2.41-2.17.59-4.37.81-6.61.7-.4-.02-.81-.09-1.2-.18-.63-.14-.82-.42-.78-1.05.09-1.41.28-2.81.71-4.16.31-.98.68-1.93,1.08-2.88.29-.68.79-1.21,1.36-1.69,1.73-1.43,3.66-2.53,5.64-3.56.74-.39,1.48-.77,2.21-1.17.52-.29.92-.64.9-1.35-.01-.41.2-.83.34-1.23.59-1.68,1.18-3.35,1.78-5.02.05-.15.15-.29.33-.42.06.5.13.99.17,1.49.22,2.6.43,5.19.65,7.79.17,2,.46,3.99.93,5.95.34,1.44.82,2.84,1.53,4.14.83,1.5,1.94,2.71,3.52,3.44.93.43,1.91.64,2.92.68,2.5.12,4.96-.08,7.37-.8,1.78-.53,3.47-1.24,4.89-2.47.32-.28.61-.61.86-.95.48-.66.61-1.39.37-2.19-.37-1.22-.86-2.38-1.65-3.38-.23-.29-.49-.53-.94-.66-.12.21-.25.42-.35.64-.5,1.09-1.01,2.17-1.72,3.15-1.31,1.8-3.03,2.43-5.22,2.01-1.55-.3-2.52-1.18-3.07-2.61-.48-1.25-.63-2.57-.69-3.9-.08-1.96.11-3.89.66-5.78.54-1.83,1.28-3.53,2.49-5.02,1.01-1.24,2.32-1.56,3.81-1.31,1.75.29,3.18,1.2,4.41,2.45,2.33,2.38,3.47,5.36,4.22,8.52.4,1.69.63,3.41.53,5.16-.2,3.69-1.26,7.06-3.72,9.91-.22.25-.38.57-.52.88-1.1,2.33-2.06,4.71-2.65,7.22-.46,1.99-.48,3.98.06,5.97.51,1.88,1.99,3.12,3.99,3.24,2.08.12,3.93-.45,5.64-1.58,1.74-1.14,3.15-2.63,4.55-4.15,1.52-1.65,3.03-3.32,4.54-4.99,1.98-2.18,4.16-4.14,6.53-5.88,3.13-2.28,6.53-4.01,10.36-4.77.06-.01.13-.02.19-.04.49-.15.61-.45.29-.86-.22-.28-.48-.57-.78-.75-.73-.44-1.49-.83-2.26-1.2-.66-.32-1.29-.18-1.84.31-.29.26-.58.5-.88.75-.11.09-.24.16-.48.31Zm-50.74-4.59c-.14-1.88-.27-3.74-.41-5.64-.4.36-.75.71-1.12,1.01-.94.74-1.91,1.45-2.83,2.21-.49.4-.93.88-1.34,1.36-.34.41-.26.68.2.93.24.13.51.24.78.29,1.5.33,3.01.26,4.51-.05.06-.01.11-.06.23-.12Zm91.59,5.03c.03-.37.09-.65.06-.91-.17-1.53-.89-2.8-1.99-3.85-.38-.36-.86-.5-1.42-.41-1.09.19-1.96.73-2.63,1.59-.21.27-.34.62-.53.97,2.07,1.14,4.21,1.86,6.49,2.61Zm-74.65-10.25c.82-.02,1.53-.33,2.16-.85.32-.26.37-.68-.02-.98-.72-.56-1.51-.96-2.47-.93-1.06.03-1.57.57-1.52,1.63.01.28.11.49.34.65.45.33.95.49,1.5.47Z" fill="#fff"/>
      <path d="m215.48,67.91c.25.38.52.72.71,1.09.8,1.56,1.33,3.2,1.25,4.98-.12,2.56-.51,5.07-1.69,7.38-.55,1.08-1.26,2.03-2.26,2.75-1.55,1.11-3.2,1.22-4.94.59-1.07-.38-2.13-.77-3.2-1.15-.28-.1-.58-.15-.86-.25-.51-.17-.86.02-1.16.43-.31.43-.63.87-.98,1.27-1.11,1.27-2.55,1.99-4.13,2.48-1.58.48-3.2.74-4.86.81-2.44.11-4.86-.05-7.26-.54-.38-.08-.74-.21-1.11-.33-.5-.17-.94-.13-1.39.19-1.58,1.12-3.36,1.68-5.27,1.82-.87.07-1.76.15-2.62.04-1.73-.22-3.07-1.17-4.03-2.6-.53-.8-.93-1.68-1.44-2.51-.32-.53-.7-1.02-1.09-1.5-.14-.17-.37-.28-.59-.37-.42-.16-.76-.05-.98.36-.38.69-.75,1.4-1.07,2.12-1.08,2.5-2.92,4.16-5.45,5.13-1.74.67-3.54.96-5.39,1.01-.51.01-1.02.08-1.54.08-1.96-.02-3.82-.44-5.51-1.46-1.47-.89-2.7-2.03-3.69-3.43-.98-1.39-1.7-2.91-2.26-4.52-.97-2.78-1.59-5.64-1.93-8.56-.25-2.16-.45-4.33-.65-6.5-.18-1.94-.31-3.87-.5-5.81-.05-.53-.19-1.05-.3-1.57-.04-.18-.11-.39-.23-.53-.12-.15-.31-.31-.49-.33-.27-.04-.43.21-.46.45-.08.51-.12,1.02-.16,1.53-.36,4.61-1.02,9.18-2.36,13.62-1.21,4-2.9,7.78-5.46,11.13-2.59,3.38-5.76,6.07-9.55,8.05-2.12,1.11-4.39,1.81-6.65,2.54-2.22.72-4.43,1.46-6.65,2.17-1.9.61-3.8,1.2-5.7,1.78-.38.12-.78.25-1.23-.13.21-.15.38-.3.57-.4,2.02-1.08,4.05-2.14,6.06-3.23,4.84-2.64,9.52-5.53,13.91-8.88,1.16-.88,2.26-1.83,3.35-2.79.53-.46.96-1.04,1.43-1.56.23-.25.31-.52.27-.88-.15-1.47-.42-2.92-.84-4.34-.71-2.41-1.6-4.75-2.75-6.98-1.18-2.31-2.51-4.53-4.1-6.59-.45-.59-.88-1.21-1.59-1.62-.25.35-.49.69-.78,1.1-.21-.19-.39-.34-.54-.5-.7-.77-1.52-1.38-2.41-1.9-.83-.49-1.61-1.05-2.25-1.8-.78-.9-1.06-2.01-1.17-3.14-.2-1.9-.28-3.8-.14-5.71.04-.53.15-1.06.28-1.57.16-.61.54-.8,1.18-.66,1.1.24,1.99.88,2.82,1.59,1.77,1.51,3.2,3.33,4.53,5.23,2.49,3.56,4.46,7.41,6.08,11.43,1.24,3.09,2.14,6.28,2.66,9.56.13.82.16,1.66.19,2.49.03.93,0,1.87,0,2.9.14-.15.23-.22.3-.32,1.51-2.16,3.09-4.27,4.34-6.6,1.42-2.65,2.54-5.42,3.3-8.34.78-2.99,1.31-6.02,1.58-9.09.16-1.81.28-3.62.39-5.43.07-1.2.08-2.39.14-3.59.01-.27.07-.56.18-.81.91-1.94,1.84-3.86,2.77-5.79.02-.05.09-.07.22-.18.1.91.21,1.74.29,2.58.13,1.38.25,2.77.34,4.15.08,1.22.11,2.44.18,3.65.1,1.62.22,3.24.33,4.86.08,1.17.15,2.35.27,3.51.38,3.87.82,7.74,1.82,11.51.65,2.43,1.5,4.78,2.87,6.91.8,1.26,1.77,2.37,2.93,3.31,1.26,1.03,2.74,1.59,4.35,1.77,2.51.29,5,.15,7.44-.56,1.98-.58,3.81-1.48,5.09-3.17.52-.69.87-1.52,1.28-2.28.26-.49.47-1.02.79-1.46.2-.27.54-.51.87-.61.66-.2,1.04.22.88.89-.05.21-.16.4-.2.61-.12.6-.31,1.18-.21,1.83.17,1.21.88,1.97,1.92,2.46,1.12.52,2.33.69,3.56.74,1.5.06,2.99.13,4.49.12,1.24,0,2.46-.2,3.66-.57,1.83-.57,3.07-1.74,3.75-3.5.33-.84.62-1.69.91-2.54.22-.63.5-1.23.95-1.74.17-.19.36-.38.57-.5.6-.34,1.15-.05,1.17.64.01.33-.04.69-.15,1.01-.33,1.04-.7,2.07-1.05,3.1-.15.45-.28.9-.4,1.35-.06.22-.09.46-.09.69,0,.33.14.58.5.64.61.1,1.22.27,1.83.3,3.57.15,6.97-.55,10.2-2.08.08-.04.15-.08.23-.12,1.16-.53,1.88-1.38,2.23-2.64.43-1.57.99-3.1,1.76-4.54.29-.54.62-1.03,1.09-1.42.19-.16.39-.37.68-.24.31.14.38.41.33.7-.1.67-.19,1.35-.36,2.01-.19.77-.43,1.52-.7,2.27-.15.42-.04.74.3.94.47.29.97.56,1.49.74,1.51.52,3.06.8,4.66.74.32-.01.64-.06.94-.16.37-.12.45-.36.28-.7-.14-.27-.31-.51-.48-.76-.44-.66-.57-1.35-.42-2.14.28-1.45.49-2.91.99-4.31.17-.48.33-.98.95-1.33Z" fill="#fff"/>
      <path d="m367.86,57.09c.62.57,1.05,1.17,1.45,1.8,1.44,2.3,2.41,4.81,3.21,7.4.61,1.98,1.12,4,1.48,6.04.26,1.45.51,2.92.43,4.4-.14,2.48-.4,4.95-1.4,7.27-.44,1.01-1.07,1.9-1.9,2.63-.57.49-1.25.72-2,.78-3.08.25-5.56-1.03-7.78-3-.32-.28-.61-.6-.93-.88-.56-.48-.71-.46-1.08.15-.38.62-.71,1.27-1.08,1.9-.3.52-.65,1.01-.95,1.53-.57.96-1.42,1.47-2.52,1.54-1.35.08-2.7.15-4.03-.12-.72-.14-1.31-.52-1.77-1.08-.31-.38-.62-.77-.94-1.14-.5-.59-1.01-.64-1.61-.13-.21.18-.4.38-.59.59-.49.56-1,1.11-1.45,1.71-1.02,1.37-2.43,1.97-4.08,2.14-.89.09-1.79.22-2.68.19-1.36-.05-2.74-.15-4.03-.65-.84-.32-1.55-.82-1.98-1.65-.23-.44-.47-.87-.74-1.28-.4-.61-.8-.9-1.58-.28-.7.56-1.4,1.13-2.15,1.62-2.16,1.42-4.56,2.06-7.13,1.9-1.87-.12-3.67-.6-5.36-1.44-1.4-.7-2.51-1.69-3.31-3.04-.19-.31-.38-.62-.56-.93-.2-.34-.51-.49-.87-.37-.48.16-1.01.31-1.38.62-.9.76-1.75,1.58-2.56,2.43-1.35,1.44-2.69,2.89-4.37,3.95-1.45.91-2.99,1.53-4.76,1.52-1.34,0-2.66-.1-3.88-.69-1.47-.72-2.65-1.78-3.58-3.13-1.34-1.93-2.08-4.11-2.79-6.32-.16-.5-.25-1.03-.59-1.51-.14.12-.28.19-.36.31-.94,1.44-2.41,2-3.96,2.41-2.13.57-4.29.78-6.49.68-.42-.02-.85-.1-1.27-.19-.6-.14-.79-.41-.75-1.01.08-1.37.26-2.73.67-4.04.32-1.04.72-2.06,1.14-3.06.27-.66.76-1.18,1.32-1.64,1.46-1.2,3.06-2.2,4.73-3.08,1.04-.55,2.08-1.1,3.12-1.66.21-.11.41-.24.58-.41.14-.15.26-.34.31-.54.14-.51.2-1.05.36-1.55.58-1.7,1.19-3.39,1.79-5.09.06-.17.16-.32.35-.44.06.48.13.96.17,1.43.15,1.85.28,3.71.43,5.56.22,2.75.49,5.49,1.13,8.18.35,1.46.83,2.88,1.56,4.2.82,1.47,1.92,2.68,3.47,3.4,1.17.54,2.41.75,3.69.69,3.08-.12,5.77-1.32,8.2-3.14,1.77-1.33,3.32-2.9,4.79-4.55.41-.46.86-.89,1.3-1.33.1-.1.23-.22.36-.25.19-.05.46-.11.59-.01.13.09.16.36.19.56.02.1-.04.21-.07.31-.42,1.47.08,2.71,1.05,3.77,1.2,1.31,2.72,2.1,4.41,2.63,1.65.52,3.3.4,4.96.14.97-.15,1.95-.34,2.87-.66,2-.7,3.56-2.01,4.82-3.7.53-.72,1.1-1.42,1.67-2.12.24-.3.57-.44.96-.42.57.02.82.37.6.9-.17.39-.43.74-.6,1.13-.34.78-.68,1.56-.97,2.37-.21.57.04,1.05.48,1.42.49.41,1.07.63,1.69.74,2.56.49,5.11.37,7.66-.05,1.44-.24,2.61-.98,3.57-2.1.72-.84,1.31-1.74,1.86-2.69.37-.63.76-1.24,1.18-1.83.22-.31.48-.61.9-.67.56-.07.87.3.67.83-.1.26-.26.49-.36.75-.2.54-.45,1.06-.26,1.67.15.48.42.82.88,1.04.61.3,1.26.42,1.92.46.66.04,1.33.02,1.99.05,1.35.08,2.33-.56,3.13-1.58.61-.79.97-1.71,1.39-2.6.23-.48.48-.96.77-1.4.16-.23.42-.43.68-.55.34-.16.59.04.59.42,0,.13-.01.26-.05.38-.47,1.77.54,3.26,1.98,4.04,1.32.71,2.75,1.06,4.22,1.24.91.11,1.83.2,2.74.28.4.03.81.01,1.22-.03.54-.06.72-.24.69-.8-.04-.81-.08-1.63-.24-2.42-.49-2.49-1.37-4.86-2.29-7.21-.76-1.94-1.61-3.83-2.75-5.58-.07-.11-.12-.24-.22-.32-.5-.42-.49-.99-.4-1.54.31-1.98.65-3.96.98-5.94,0-.06.04-.11.1-.26Zm-82.77,15.61c-.41.37-.75.71-1.13,1.02-.94.74-1.91,1.44-2.83,2.21-.5.42-.96.91-1.37,1.42-.29.36-.21.61.19.84.24.13.5.25.77.31,1.52.33,3.05.27,4.57-.04.08-.02.14-.09.22-.14-.14-1.86-.27-3.71-.41-5.62Z" fill="#fff"/>
      <path d="m614.21,81.73c-2.5-.9-4.95-1.8-7.41-2.67-.6-.21-1.23-.37-1.86-.5-.44-.09-.9-.15-1.18.37-.06.11-.28.18-.43.18-.75.03-1.5.04-2.25.05-2.03.04-4.07.08-6.1.13-.55.01-1.11.07-1.66.11-.54.03-.71-.14-.56-.62.68-2.13,1.52-4.21,3.16-5.81,1.07-1.04,2.37-1.64,3.87-1.84,1.81-.24,3.53.18,5.24.64,2.26.6,4.43,1.47,6.61,2.3,2,.77,3.98,1.58,6,2.29,3.35,1.18,6.77,2.13,10.27,2.78,1.79.33,3.58.61,5.4.67,1.11.03,2.22.06,3.34.08.23,0,.46,0,.79,0-.76,2.03-1.65,3.9-2.52,5.84-.79-.1-1.57-.21-2.35-.3-.83-.1-1.66-.2-2.49-.25-1.02-.06-2.05-.1-3.08-.09-2.98.04-5.93.4-8.83,1.06-3.96.91-7.71,2.41-11.4,4.08-3.41,1.54-6.83,3.07-10.35,4.38-2.19.81-4.44,1.42-6.75,1.79-.22.04-.46.02-.62.26-.06.09-.26.11-.4.12-2.91.15-5.34-.95-7.46-2.87-2.09-1.89-3.54-4.23-4.77-6.72-.87-1.74-1.66-3.53-2.49-5.29-.15-.32-.35-.62-.53-.95-.42.25-.53.62-.67.98-.33.85-.38,1.75-.51,2.64-.2,1.39-.57,2.72-1.26,3.95-1.22,2.2-3,3.76-5.29,4.77-1.06.47-2.17.79-3.33.94-1.31.17-2.63.36-3.94.44-2.02.12-3.52-1.19-4.06-2.83-.31-.92-.45-1.86-.49-2.83-.06-1.64.21-3.24.52-4.84.02-.08.04-.17.08-.24.02-.06.07-.11.09-.15.34-.08.39.18.41.38.14,1.48,1.14,2.12,2.43,2.44,1.01.25,2.04.19,3.07.08,1.95-.22,3.81-.82,5.58-1.63,1.43-.66,2.77-1.45,3.86-2.62.87-.93,1.34-1.98,1.37-3.29.03-1.81-.4-3.52-.87-5.24-.58-2.1-1.23-4.19-1.78-6.3-.31-1.18-.53-2.38-.69-3.59-.1-.76-.03-1.54-.01-2.31.02-.66.07-1.32.12-1.98.03-.35.09-.7.14-1.07.34.1.34.35.4.53.66,1.97,1.33,3.94,1.97,5.91,1.22,3.75,2.55,7.45,4.15,11.06,1.06,2.39,2.17,4.75,3.66,6.92,1.36,2,2.93,3.8,4.99,5.11,1.42.9,2.95,1.45,4.66,1.39.17,0,.35-.1.52-.15.16-.05.32-.11.48-.14,3.57-.47,7.09-1.17,10.54-2.19,3.08-.91,6.08-2.06,9.07-3.24,1.67-.66,3.36-1.27,5.04-1.91.18-.07.35-.14.55-.23Z" fill="#fff"/>
      <path d="m247.53,72.1c.23-.47.43-.82.58-1.19.93-2.31,1.53-4.72,2.03-7.15.4-1.95.58-3.93.75-5.91.09-1.02.12-2.05.14-3.08.03-1.91.03-3.82.05-5.72.01-.85.09-1.71.08-2.56-.02-1.95-.02-3.9-.14-5.84-.09-1.51-.35-3.01-.54-4.52-.11-.93-.31-1.87-.31-2.8,0-.73.19-1.48.36-2.2.4-1.65.93-3.25,1.68-4.77.1-.21.23-.42.39-.58.25-.26.51-.2.63.15.08.22.11.46.14.69.14.91.36,1.79.73,2.65.39.92.98,1.65,1.77,2.23.51.38.51.39.31,1-.52,1.59-1.05,3.17-1.56,4.76-.33,1-.48,2.04-.46,3.09.02.77.07,1.54.08,2.31,0,.55-.07,1.11-.08,1.66-.02,1.82,0,3.65-.06,5.47-.07,2.01-.2,4.01-.35,6.01-.32,4.18-.85,8.33-1.82,12.42-.67,2.82-1.52,5.58-2.82,8.17-.26.51-.26.97-.11,1.53.35,1.39.65,2.79.89,4.2.35,2.01.44,4.04.35,6.07-.03.8-.22,1.61-.39,2.4-.1.48-.41.8-.89,1.01-1.27.54-2.62.8-3.97,1.01-1.66.27-3.34.47-5.02.64-1.06.11-2.13.13-3.2.18-.77.04-1.54.08-2.31.08-.49,0-.98-.05-1.47-.09-.36-.03-.6-.21-.63-.6-.04-.42-.11-.85-.11-1.27-.01-1.59.19-3.16.44-4.72.06-.35.23-.59.56-.8,2.75-1.71,5.39-3.57,7.84-5.69,1.41-1.22,2.7-2.56,3.7-4.16.2-.31.2-.56.09-.89-.99-3.04-2.23-5.97-3.6-8.86-1.64-3.45-3.44-6.81-5.49-10.02-1.63-2.57-3.41-5.04-5.13-7.54-.31-.45-.34-.45-.84-.24-.08.03-.16.06-.23.11-.69.47-1.37.34-2.06-.03-1.73-.94-3.21-2.2-4.52-3.66-.14-.16-.26-.34-.41-.49-.98-1.03-1.47-2.23-1.44-3.66.04-1.41,0-2.83.06-4.24.05-1.04.19-2.09.51-3.09.09-.28.21-.56.36-.82.24-.44.5-.52.96-.3,1.25.58,2.38,1.36,3.41,2.27,2.6,2.3,4.77,4.97,6.73,7.82,1.95,2.82,3.7,5.77,5.34,8.78.88,1.62,1.76,3.23,2.57,4.89,2.08,4.3,4.07,8.64,5.62,13.16.25.73.42,1.48.63,2.22.04.13.09.26.18.53Zm-1.09,8.63c-1.52,1.42-2.97,2.78-4.5,4.21,1.01,0,1.94.03,2.88,0,.72-.03,1.44-.12,2.16-.24.44-.07.5-.19.4-.62-.22-.91-.46-1.82-.7-2.73-.05-.2-.15-.39-.24-.61Z" fill="#fff"/>
      <path d="m516.38,81.77c-.19.17-.34.27-.43.4-.82,1.24-2.07,1.82-3.43,2.22-2.3.67-4.65.93-7.05.81-.4-.02-.81-.1-1.2-.19-.6-.14-.78-.41-.75-1.01.08-1.41.28-2.81.7-4.16.31-.98.68-1.94,1.08-2.88.29-.7.81-1.25,1.4-1.74,1.71-1.41,3.63-2.5,5.58-3.52.78-.41,1.56-.81,2.33-1.24.49-.27.82-.62.82-1.26,0-.45.21-.91.36-1.35.56-1.62,1.14-3.23,1.72-4.84.07-.19.16-.36.25-.54.04.01.09.03.13.04.06.48.13.95.17,1.43.15,1.85.28,3.71.43,5.56.22,2.75.49,5.49,1.13,8.18.35,1.46.83,2.88,1.56,4.2.83,1.49,1.95,2.71,3.53,3.43.77.35,1.58.52,2.41.64,2.52.37,4.9-.02,7.14-1.23.97-.52,1.85-1.16,2.62-1.94.93-.95,1.83-1.92,2.76-2.87.51-.53.52-.52,1.24-.46.72-1.57,1.55-3.1,2.65-4.45.54-.66,1.12-1.31,1.79-1.83,1.19-.94,2.53-1.01,3.85-.3.47.25.87.7,1.19,1.14.62.84.97,1.81,1.16,2.83.26,1.39.37,2.8.27,4.21-.14,1.95-.37,3.88-1.23,5.67-.25.51-.57,1-.91,1.46-.33.44-.8.58-1.36.55-1.25-.07-2.45-.39-3.62-.79-1.62-.56-3.22-1.16-4.83-1.74-.1-.04-.2-.08-.3-.11-1.15-.44-1.31-.38-1.97.68-.83,1.35-1.62,2.72-2.76,3.86-1.72,1.72-3.75,2.71-6.2,2.87-1.16.08-2.3.02-3.44-.14-1.89-.27-3.39-1.28-4.63-2.68-1.28-1.44-2.14-3.14-2.78-4.96-.38-1.07-.72-2.15-1.08-3.23-.07-.21-.17-.42-.29-.69Zm-.93-8.81c-.4.36-.75.71-1.13,1.01-.94.74-1.91,1.45-2.83,2.21-.49.4-.93.88-1.34,1.36-.34.41-.26.68.2.93.26.14.55.24.84.3,1.42.31,2.84.24,4.26-.01.14-.02.27-.1.42-.15-.14-1.88-.27-3.73-.41-5.64Zm33.11,9.76c.04-.33.11-.58.09-.82-.14-1.46-.82-2.67-1.8-3.74-.36-.4-.8-.62-1.36-.58-1.26.09-2.22.7-2.95,1.69-.18.25-.28.55-.45.89,2.09,1.09,4.21,1.89,6.47,2.57Z" fill="#fff"/>
      <path d="m69.13,79.19c-.11.36-.18.74-.32,1.09-.84,2.16-1.48,4.39-1.73,6.69-.22,1.97-.17,3.94.57,5.83.74,1.9,2.05,3.29,3.86,4.21,1.55.79,3.23,1.07,4.95,1.17,2.91.18,5.65-.53,8.35-1.48,1.82-.64,3.58-1.44,5.12-2.63.62-.48,1.21-1.02,1.74-1.61.87-.97,1.11-2.15.98-3.42-.02-.19-.03-.38-.03-.58.01-2.53-.22-5.04-.46-7.55-.45-4.67-1.38-9.26-2.28-13.85-.99-5.06-1.92-10.13-2.87-15.19-.11-.61-.14-1.24-.29-1.84-.13-.53-.34-1.06-.59-1.54-.46-.87-1.09-1.64-1.38-2.6-.14-.47-.23-.97-.07-1.44.68-1.96,1.38-3.92,2.07-5.87.05-.13.14-.25.26-.45.18.42.33.76.48,1.1.79,1.81,2.03,3.26,3.6,4.44.12.09.23.19.36.27.4.26.49.62.36,1.06-.41,1.46-.8,2.93-1.24,4.38-.24.78-.32,1.52-.17,2.33.58,3.13,1.14,6.27,1.67,9.41.47,2.8.93,5.61,1.34,8.42.36,2.47.7,4.95.98,7.43.21,1.85.32,3.7.44,5.56.08,1.2.07,2.4.14,3.59.11,1.95.02,3.89-.16,5.82-.25,2.67-1.3,5.03-3.01,7.1-2.08,2.52-4.75,4.14-7.78,5.25-2.04.75-4.15,1.19-6.32,1.32-2.11.13-4.23.16-6.28-.56-2.36-.83-4.16-2.33-5.39-4.51-1.23-2.18-1.66-4.55-1.74-7.03-.11-3.37.55-6.6,1.83-9.7.63-1.53,1.39-2.99,2.43-4.29.13-.16.26-.33.38-.5.07.05.13.09.2.14Z" fill="#fff"/>
      <path d="m447.24,57.33c.46-.27.91-.54,1.37-.8,2.23-1.24,4.47-2.45,6.68-3.71.89-.51,1.73-1.11,2.57-1.7.23-.16.41-.4.69-.69-.36-.16-.59-.32-.84-.37-.92-.19-1.84-.39-2.77-.49-1.81-.19-3.62-.29-5.44-.28-1.47,0-2.72.46-3.75,1.52-.31.31-.66.58-.99.87-.05-.03-.09-.06-.14-.08.08-.29.14-.6.25-.88.63-1.56,1.48-2.99,2.49-4.33.54-.71,1.15-1.38,1.76-2.04,1.03-1.12,2.31-1.64,3.83-1.66,2.16-.02,4.32.01,6.47.29.55.07,1.11.14,1.64.29,1.48.42,2.37,1.69,2.04,3.3-.52,2.56-1.74,4.78-3.6,6.61-1.44,1.42-3.18,2.37-5.06,3.09-1.95.75-3.99,1.12-6.07,1.26-.25.02-.51.06-.76.06-.12,0-.23-.08-.35-.13,0-.05-.02-.1-.03-.15Z" fill="#fff"/>
      <path d="m263.26,33.47c.08.73.18,1.46.25,2.19.23,2.38.46,4.76.69,7.14.26,2.61.52,5.23.77,7.84.14,1.53.26,3.06.39,4.6.16,1.98.32,3.96.46,5.94.08,1.09.11,2.18.18,3.27.1,1.41.23,2.81.33,4.21.11,1.47.2,2.94.31,4.41.11,1.49.26,2.98.33,4.47.06,1.54.07,3.09.06,4.63-.01,2.23-.34,4.43-.64,6.63-.02.15-.06.29-.11.43-.02.08-.08.14-.19.34-.08-.47-.16-.8-.2-1.14-.24-1.93-.47-3.86-.69-5.79-.29-2.5-.58-5.01-.85-7.51-.16-1.49-.29-2.98-.43-4.47-.24-2.55-.49-5.1-.73-7.65-.19-2.02-.36-4.04-.57-6.06-.27-2.61-.56-5.22-.84-7.83-.19-1.7-.38-3.4-.57-5.1-.04-.4-.06-.81-.14-1.21-.22-1.16-.15-2.3.19-3.43.54-1.8,1.09-3.6,1.65-5.4.06-.19.17-.37.26-.55.03,0,.07.02.1.03Z" fill="#fff"/>
      <path d="m519.78,53.3c-1.98-1.13-3.9-2.21-5.87-3.33-1.07,1.56-1.88,3.28-2.93,4.86-1.83-1.18-3.61-2.34-5.41-3.5.13-.79,2.06-5.02,2.64-5.77,2.03.73,3.82,1.94,5.72,3.11.83-1.73,1.66-3.43,2.51-5.21.51.27,1.03.52,1.52.8,1.33.74,2.65,1.49,3.84,2.44.43.34.57.68.41,1.22-.55,1.88-1.32,3.65-2.45,5.38Z" fill="#fff"/>
      <path d="m173.05,66.93c-1.94-1.1-3.87-2.2-5.87-3.33-.97,1.64-1.93,3.27-2.88,4.89-1.86-1.2-3.65-2.36-5.49-3.56.79-1.94,1.63-3.87,2.65-5.75,2.11.77,3.9,1.98,5.78,3.14.84-1.75,1.67-3.46,2.52-5.23.68.37,1.36.69,1.99,1.08,1.13.7,2.22,1.44,3.34,2.16.49.31.61.7.44,1.26-.51,1.71-1.21,3.34-2.13,4.87-.09.14-.2.27-.35.46Z" fill="#fff"/>
      <path d="m384.98,49.09c.8-1.97,1.63-3.88,2.65-5.74,2.1.77,3.89,1.97,5.78,3.14.84-1.75,1.67-3.46,2.51-5.2.3.15.6.27.87.43,1.55.86,3.12,1.71,4.52,2.82.41.33.55.68.41,1.17-.54,1.81-1.26,3.55-2.29,5.14-.05.07-.11.13-.21.25-1.93-1.1-3.86-2.19-5.87-3.33-.96,1.64-1.92,3.27-2.87,4.9-1.86-1.2-3.64-2.36-5.5-3.56Z" fill="#fff"/>
      <path d="m277.34,45.09c2.1.75,3.87,1.96,5.77,3.11.87-1.71,1.7-3.41,2.51-5.21.7.38,1.39.71,2.04,1.11,1.14.71,2.26,1.47,3.39,2.2.4.26.52.6.39,1.05-.53,1.89-1.28,3.68-2.37,5.31-.02.03-.07.05-.18.14-1.89-1.07-3.82-2.16-5.82-3.3-.97,1.64-1.93,3.27-2.88,4.89-1.85-1.2-3.64-2.36-5.49-3.55.77-1.94,1.62-3.86,2.64-5.74Z" fill="#fff"/>
      <path d="m530.28,58.29c.03-.18.03-.31.07-.42.28-.9.58-1.79.86-2.69.15-.48.43-.8.92-.98,2.55-.94,5.07-1.94,7.63-2.86,5.47-1.97,10.96-3.9,16.44-5.85.44-.16.88-.34,1.32-.49.21-.07.44-.08.75-.13-.04.32-.06.54-.09.77,0,.06-.05.12-.08.17-1.17,2.31-.95,2.08-3.01,2.87-3.44,1.31-6.9,2.56-10.34,3.85-3.04,1.14-6.09,2.28-9.11,3.48-1.69.67-3.34,1.43-5.01,2.15-.09.04-.19.08-.35.14Z" fill="#fff"/>
      <path d="m170.93,96.17c-.06.4-.09.63-.14.85-.02.08-.07.16-.11.23-1.14,2.25-.95,2.01-3,2.79-3.42,1.31-6.86,2.54-10.28,3.83-3.06,1.15-6.13,2.3-9.17,3.49-1.77.69-3.51,1.47-5.29,2.22,0-.1,0-.22.03-.33.29-.92.59-1.83.88-2.75.15-.45.41-.76.89-.93,2.55-.94,5.07-1.94,7.63-2.86,5.49-1.98,11-3.92,16.5-5.88.34-.12.67-.29,1.01-.4.29-.1.6-.15,1.05-.26Z" fill="#fff"/>
      <path d="m372.63,96.7c0,.25.02.36,0,.45-.05.19-.1.37-.19.54-1.14,2.28-.95,2.06-2.96,2.83-3.66,1.39-7.35,2.71-11.01,4.11-4.06,1.55-8.09,3.15-12.14,4.74-.56.22-1.08.5-1.7.79.04-.22.05-.38.1-.53.29-.92.59-1.83.89-2.75.13-.38.38-.64.78-.79,2.24-.84,4.47-1.73,6.72-2.54,4.21-1.52,8.43-3,12.64-4.5,1.97-.71,3.94-1.44,5.91-2.15.27-.1.57-.13.95-.21Z" fill="#fff"/>
      <path d="m596.56,110.43c.36-1.07.71-2.14,1.08-3.21.12-.36.38-.59.76-.73,2.24-.84,4.47-1.73,6.72-2.54,4.21-1.52,8.43-3,12.64-4.5,1.97-.71,3.94-1.44,5.91-2.15.27-.1.57-.13.93-.21,0,.24.02.38,0,.51-.03.17-.09.33-.17.48-1.14,2.28-.95,2.06-2.97,2.83-3.66,1.39-7.35,2.71-11.01,4.1-4.06,1.55-8.09,3.15-12.13,4.74-.55.22-1.08.5-1.62.76-.04-.03-.09-.06-.13-.09Z" fill="#fff"/>
      <path d="m300.27,59.03c.31-1.31.67-2.42,1.12-3.5.12-.29.37-.45.66-.57,2.28-.86,4.55-1.76,6.84-2.59,4.14-1.5,8.3-2.95,12.45-4.44,2.01-.72,4.02-1.47,6.03-2.2.25-.09.53-.12.86-.2,0,.28.01.48,0,.68,0,.1-.07.2-.12.3-1.2,2.38-.97,2.08-3.01,2.87-3.59,1.38-7.23,2.66-10.82,4.04-4.16,1.59-8.29,3.23-12.43,4.86-.49.19-.96.45-1.58.75Z" fill="#fff"/>
      <path d="m413.87,47.18c.8-2.07,1.65-4.07,2.64-6.09,2.36.95,4.55,2.06,6.42,3.69-.26.98-2.43,5.61-2.93,6.24-1.89-1.46-3.86-2.81-6.14-3.84Z" fill="#fff"/>
      <path d="m308.49,105.33c.88-2.04,1.74-4.02,2.59-5.98,1.45.16,5.55,2.51,6.55,3.75-.93,2-1.87,4.03-2.85,6.17-1.99-1.54-3.96-2.91-6.29-3.94Z" fill="#fff"/>
      <path d="m365.1,40.1c2.36.98,4.57,2.07,6.49,3.78-.96,2.08-1.91,4.11-2.89,6.25-1.99-1.54-3.97-2.9-6.24-3.93.79-2.05,1.64-4.05,2.64-6.1Z" fill="#fff"/>
      <path d="m617.39,63.78c-2.01-1.57-3.99-2.9-6.23-3.93.79-2.06,1.64-4.05,2.63-6.08,2.36.93,4.56,2.06,6.5,3.76-.97,2.09-1.91,4.12-2.9,6.25Z" fill="#fff"/>
    </g>
  </g>
  <g>
    <path d="m696.14,93.13c2.58-6.11,5.25-13.78,7.16-22.84,1.91-9.04,2.57-17.12,2.69-23.73,17.55-.03,35.1-.06,52.65-.09-.23,10.09-1.32,22.42-4.34,36.18-3.15,14.38-7.57,26.48-11.78,36h-21.76v7.27h25.16c5.15-10.56,10.79-24.57,14.69-41.62,4.04-17.67,4.98-33.23,4.84-45.24-22.06-.03-44.12-.06-66.18-.09.29,7.24,0,16.66-2.15,27.39-2.23,11.17-5.75,20.29-8.93,27.01,2.62,0,5.24-.01,7.86-.02.03-.07.06-.15.09-.22Z" fill="#fff"/>
    <path d="m687.64,93.48c11.02.05,22.05.09,33.07.14v32.38c-4.48-4.5-8.97-9-13.45-13.5-1.66,1.69-3.86,4.27-5.8,7.81-1.24,2.25-3.46,6.38-4.05,12.26-.4,4.01-.93,7.84,1.15,11.58,1.97,3.54,5.18,5.17,6.48,5.82,7.19,3.64,21.42,2.5,38.53-5.42,0,0,27.43-12.69,45.22-39.55,1.19-1.8,6.54-10.03,9.18-21.67,1.46-6.42,1.38-10.73.13-14.77-.56-1.84-1.75-5.54-5.13-8.67-3.11-2.88-6.43-3.75-10.26-4.74-5-1.3-9.15-1.14-11.27-1.05-2.29.1-4.21.38-5.6.64,1.53-.38,3.46-.77,5.7-1.02,1.03-.11,3.35-.33,6.41-.24,3.52.11,6.65.21,10.06,1.35,1.56.52,7.75,2.7,11.57,8.81.85,1.35,2.48,4.34,3.06,10.33.53,5.49.15,13.36-4.41,24.02-4.58,10.71-10.52,17.55-15.93,23.66-13.23,14.97-26.68,23-32.3,26.1-6.45,3.56-13.22,7.23-23.12,9.3-14.26,2.99-20.21,1.76-22.14,1.08-2.22-.78-7.92-2.88-11.7-8.58-3.97-6-3.43-12.41-3.06-16.8,1.03-12.24,7.71-20.96,11.25-24.93.05-.08.1-.15.16-.23-4.58-4.71-9.16-9.42-13.74-14.13Z" fill="#fdbc69"/>
  </g>
</svg>