<?xml version="1.0" encoding="UTF-8"?>
<svg id="uuid-035d34c9-21c6-41b6-821c-32e219bee0ef" data-name="Layer 1" xmlns="http://www.w3.org/2000/svg" viewBox="0 0 221 61">
  <rect x=".5" y=".5" width="220" height="60" rx="30" ry="30" fill="none" stroke="#1172ba" stroke-miterlimit="10"/>
  <g>
    <path d="m57.81,37.18c0-2.77.89-5.24,2.68-7.39,1.78-2.16,4.04-3.23,6.76-3.23,1.25,0,2.52.3,3.81.89v8.58h1.99v3.48h-15.12c-.08-1.52-.12-2.3-.12-2.32Zm9.8-7.15c-1.76,0-3.18.55-4.28,1.64s-1.71,2.55-1.86,4.36h6.13v-6Zm-5.11-8.3c.33-.34.73-.5,1.2-.5s.88.17,1.22.5c.34.34.52.74.52,1.21s-.17.89-.52,1.23c-.35.35-.75.52-1.22.52s-.87-.17-1.2-.52c-.33-.35-.5-.76-.5-1.23s.17-.88.5-1.21Zm4.24,0c.33-.34.73-.5,1.2-.5s.88.17,1.22.5c.34.34.52.74.52,1.21s-.17.89-.52,1.23c-.35.35-.75.52-1.22.52s-.87-.17-1.2-.52c-.33-.35-.5-.76-.5-1.23s.17-.88.5-1.21Z" fill="#1172ba"/>
    <path d="m83.28,36.02v3.48h-10.62v-3.48h4.79v-9.32h3.44v9.32h2.4Zm-8.1,5.89c.33-.34.73-.5,1.2-.5s.88.17,1.22.51c.34.34.52.75.52,1.21s-.17.88-.52,1.22c-.35.35-.75.52-1.22.52s-.87-.17-1.2-.52c-.33-.35-.5-.76-.5-1.23s.17-.88.5-1.21Zm4.24,0c.33-.34.73-.5,1.2-.5s.88.17,1.22.51c.34.34.52.75.52,1.21s-.17.88-.52,1.22c-.35.35-.75.52-1.22.52s-.87-.17-1.2-.52c-.33-.35-.5-.76-.5-1.23s.17-.88.5-1.21Z" fill="#1172ba"/>
    <path d="m91.12,39.5h-8.22v-3.48h4.79v-9.32h3.44v12.79Zm-3.37,2.42c.33-.34.73-.5,1.2-.5s.88.17,1.22.51c.34.34.52.75.52,1.21s-.17.88-.52,1.22c-.35.35-.75.52-1.22.52s-.87-.17-1.2-.52c-.33-.35-.5-.76-.5-1.23s.17-.88.5-1.21Z" fill="#1172ba"/>
    <path d="m102.56,36.02v3.48h-2.85c-.96,2.51-2.34,4.66-4.12,6.45l-2.87-2.21c2.34-2.75,3.74-5.59,4.2-8.52s-.05-5.77-1.52-8.52h4c1.22,3.01,1.61,6.11,1.15,9.32h2.01Z" fill="#1172ba"/>
    <path d="m106.13,32.86c0-1.81.65-3.33,1.95-4.55,1.3-1.22,2.88-1.83,4.73-1.83s3.48.75,4.9,2.23l-2.03,2.96c-.53-.61-1.01-1.05-1.43-1.32s-1.01-.4-1.78-.4-1.41.29-1.91.88-.76,1.33-.76,2.22.35,1.61,1.05,2.16c.7.55,1.55.82,2.55.82h6.46v3.48h-17.85v-3.48h4.89c-.52-1.12-.77-2.17-.77-3.16Z" fill="#1172ba"/>
    <path d="m126.49,39.5h-7.48v-3.48h4.04v-14.28h3.44v17.75Z" fill="#1172ba"/>
    <path d="m133.15,39.5h-3.44v-17.71h3.44v17.71Z" fill="#1172ba"/>
  </g>
  <path d="m175.42,39.51c-3.35-3-6.64-5.95-10-8.96.58-.66,1.15-1.29,1.77-1.99,2.75,2.46,5.48,4.9,8.23,7.36,2.75-2.46,5.46-4.89,8.22-7.36.6.68,1.16,1.3,1.78,1.99-3.34,2.99-6.64,5.95-10,8.96Z" fill="#1172ba"/>
</svg>