<?xml version="1.0" encoding="UTF-8"?>
<svg id="uuid-d67ef078-1344-434c-b50c-b3b5aa094e58" data-name="Layer 1" xmlns="http://www.w3.org/2000/svg" viewBox="0 0 850.2 192.63">
  <rect x="1" y="1" width="848.2" height="190.63" rx="10" ry="10" fill="#04717d" stroke="#fff" stroke-miterlimit="10" stroke-width="2"/>
  <g>
    <g>
      <path d="m499.85,82.19c.07.15.14.25.15.35.13,1.29.97,1.95,2.1,2.27,1.22.35,2.47.26,3.71.03,2.93-.55,5.62-1.66,7.92-3.58,1.11-.93,2.06-2.06,2.06-3.59,0-1.29-.15-2.6-.55-3.86-.93-2.96-1.87-5.92-2.75-8.9-.29-1-.54-2.04-.58-3.07-.06-1.47.08-2.95.13-4.46.41.07.42.41.51.64.94,2.5,1.86,5,2.8,7.5,1.62,4.29,3.43,8.51,5.7,12.51,1.18,2.08,2.56,4.02,4.31,5.66,1.41,1.32,2.97,2.44,4.9,2.87.76.17,1.55.28,2.32.27,3.41-.06,6.65-1.05,9.89-2,3.85-1.13,7.51-2.78,11.19-4.35,1.17-.5,2.36-.98,3.53-1.47.23-.1.46-.21.85-.4-.84-.23-1.53-.4-2.2-.61-1.91-.6-3.81-1.23-5.72-1.83-.41-.13-.84-.21-1.27-.28-.43-.07-.79-.03-1.18.34-.28.27-.85.29-1.29.32-1.5.1-3.01.15-4.51.24-1.42.08-2.83.2-4.24.29-.17.01-.34,0-.6,0-.02-.24-.09-.47-.04-.67.47-1.78,1.11-3.49,2.23-4.97,1.62-2.13,3.83-2.93,6.43-2.71,2.21.19,4.33.79,6.43,1.48,2.62.86,5.2,1.82,7.82,2.68,3.45,1.13,6.95,2.03,10.54,2.63,2.52.42,5.05.66,7.61.67.58,0,1.15-.08,1.73-.11.22-.01.45.03.78.05-.64,1.96-1.47,3.77-2.23,5.7-.44-.03-.87-.04-1.29-.09-2.51-.3-5.03-.33-7.55-.15-2.87.21-5.7.73-8.46,1.51-2.65.75-5.21,1.8-7.7,2.98-4.07,1.92-8.13,3.85-12.23,5.71-2.12.96-4.35,1.69-6.65,1.99-1.8.24-3.63.1-5.37-.65-3.22-1.4-5.38-3.88-7.1-6.81-.94-1.6-1.76-3.27-2.63-4.91-.45-.84-.9-1.67-1.39-2.6-.71.73-.8,1.54-.89,2.33-.16,1.35-.28,2.71-.74,4-1.07,3-3.15,5.02-6.03,6.26-1.64.7-3.39,1.01-5.14,1.23-.77.1-1.58.21-2.33.09-1.87-.31-2.89-1.6-3.36-3.36-.54-2-.4-4.02-.06-6.04.06-.34.14-.67.22-1.01,0-.04.09-.06.24-.14Z" fill="#fff"/>
      <path d="m259.99,68.51c-.07.24-.13.49-.22.72-.52,1.36-1.05,2.71-1.56,4.06-.16.42-.41.74-.77,1.02-3.52,2.79-7.47,4.78-11.67,6.31-3.81,1.38-7.75,2.21-11.77,2.59-1.67.16-3.35.19-5.08.27.07.51.14,1.02.22,1.52.71,4.63.47,9.21-1.08,13.65-1.88,5.43-5.46,9.29-10.9,11.34-2.08.78-4.23,1.18-6.44,1.37-1.67.15-3.29.06-4.9-.39-1.98-.55-3.65-1.62-5.03-3.13-1.9-2.07-2.94-4.56-3.42-7.3-.71-4.03-.26-7.97.92-11.85.48-1.58,1.12-3.11,1.72-4.65.14-.35.4-.66.6-.99l.2.07c-.02.24-.03.48-.07.71-.34,1.88-.74,3.75-1.02,5.64-.36,2.45-.4,4.91.21,7.34.79,3.17,2.85,5.12,5.89,6.07,1.78.56,3.63.8,5.49.69,1.77-.11,3.5-.49,5.2-.96,2.5-.7,4.87-1.7,7.07-3.09,1.07-.67,1.98-1.51,2.78-2.48.67-.81.88-1.76.88-2.82,0-3.56-1.4-6.73-2.69-9.92-.54-1.34-1.19-2.65-1.84-3.95-.57-1.16-.77-2.34-.49-3.62.35-1.58.63-3.18.94-4.78.05-.25.15-.48.27-.87.31.34.56.57.75.83.83,1.12,1.62,2.26,2.72,3.16.85.7,1.77,1,2.87,1,1.95,0,3.87-.24,5.78-.59.14-.03.27-.09.35-.12-.24-1.21-.49-2.38-.72-3.56-.37-1.91-.18-3.82.23-5.7.57-2.61,1.6-5.03,3.34-7.1,1.43-1.7,3.1-3.04,5.39-3.42,1.28-.21,2.54-.09,3.79.21,2.27.54,4.32,1.51,5.98,3.2.55.56.96,1.21,1.17,2.06-.87-.19-1.68-.41-2.49-.54-1.66-.27-3.32-.35-5.02-.21-1.6.13-3.17.35-4.7.81-1.42.42-2.8.97-3.91,2.01-.55.51-.85,1.09-.86,1.9-.03,1.64.5,3.1,1.33,4.44,1.32,2.15,3.21,3.66,5.61,4.45,2.05.68,4.11.6,6.14-.16,2.23-.83,4.13-2.23,6.05-3.58.66-.47,1.29-.99,1.94-1.48.2-.15.42-.26.63-.39.06.06.12.12.17.17Z" fill="#fff"/>
      <path d="m357.13,85.14c-.84-.65-1.59-1.18-2.3-1.77-1.05-.88-1.94-1.92-2.63-3.11-.8-1.39-.84-2.89-.55-4.39.52-2.7,1.76-5.08,3.35-7.29.9-1.26,1.95-2.38,3.13-3.37,1.54-1.29,3.23-2.32,5.35-2.16,1.67.12,3.23.68,4.71,1.45,1.14.6,2.17,1.34,3.06,2.28.56.59.98,1.25,1.26,2.09-.85-.22-1.59-.44-2.34-.59-1.76-.36-3.53-.21-5.28.01-2.08.26-4.1.78-6.05,1.55-1.43.57-2.81,1.24-3.95,2.33-.59.56-.68,1.18-.48,1.9.3,1.09.9,2.03,1.63,2.85,1.89,2.14,4.17,3.68,6.98,4.34,1.12.26,2.23.23,3.35-.07,3.12-.83,6.12-2,9.01-3.44,1.59-.79,3.16-1.61,4.74-2.41.24-.12.51-.21.96-.39-.09.41-.08.64-.18.81-.92,1.74-1.85,3.49-2.81,5.21-.14.26-.43.46-.7.61-2.4,1.3-4.8,2.6-7.21,3.87-2.18,1.15-4.35,2.32-6.57,3.4-3.94,1.92-8,3.56-12.29,4.57-2.52.59-5.07.93-7.64,1.18-2.43.23-4.86.31-7.29.37-3.52.09-6.99-.28-10.43-.96-2.29-.45-3.81-1.84-4.9-3.81-.94-1.7-1.44-3.51-1.58-5.46-.23-3.2-.57-6.4-.84-9.6-.17-1.99-.26-3.99-.43-5.98-.25-2.94-.51-5.88-.84-8.82-.4-3.57-.84-7.13-1.34-10.69-.37-2.61-.82-5.21-1.3-7.8-.2-1.05-.59-2.06-.86-3.1-.1-.41-.19-.87-.11-1.28.37-1.91.79-3.8,1.2-5.7.02-.1.1-.19.23-.43.35,1.3.7,2.45.97,3.62,1,4.26,1.68,8.59,2.2,12.93.31,2.53.54,5.07.77,7.61.31,3.49.58,6.98.89,10.47.22,2.48.42,4.96.7,7.44.35,3.08.77,6.15,1.18,9.22.14,1.08.68,2.02,1.49,2.68.61.5,1.42.78,2.17,1.05,2.03.72,4.14,1.13,6.27,1.38,2.22.26,4.45.4,6.68.34,5.02-.14,10.02-.46,14.9-1.72,1.23-.32,2.42-.79,3.72-1.22Z" fill="#fff"/>
      <path d="m179.29,63.59c.95,1.06,1.42,2.16,1.8,3.28.78,2.28,1.26,4.64,1.47,7.05.17,1.92.2,3.83-.19,5.71-.54,2.65-1.86,4.88-3.91,6.63-1.33,1.13-2.94,1.73-4.65,2.05-.71.13-1.43.26-2.15.29-.94.04-1.83-.25-2.66-.7-1.87-1.01-3.37-2.45-4.73-4.06-.2-.24-.42-.45-.69-.74-.69.63-1.34,1.21-1.96,1.8-2.13,2.02-4.5,3.66-7.19,4.84-1.18.51-2.43.68-3.71.84-1.11.14-2.05-.11-2.96-.63-1.26-.72-2.22-1.78-3.03-2.96-1.68-2.44-2.76-5.16-3.71-7.94-.07-.19-.13-.38-.21-.56-.02-.04-.09-.05-.19-.09-.34.55-.43,1.17-.51,1.79-.16,1.3-.39,2.58-.9,3.8-1.32,3.19-3.7,5.22-6.98,6.18-2.13.62-4.33.8-6.54.71-1.66-.07-2.97-1.17-3.54-2.76-.53-1.48-.39-2.99-.28-4.48.07-.98.35-1.94.55-2.9.05-.23.18-.45.35-.85.15.34.26.48.28.62.11,1.36.98,2.04,2.17,2.41,1.36.42,2.75.39,4.13.17,2.58-.4,5.03-1.17,7.21-2.65.52-.36,1-.79,1.46-1.23.98-.93,1.27-2.16,1.2-3.42-.08-1.38-.28-2.77-.55-4.13-.52-2.67-1.13-5.33-1.7-7.99-.36-1.67-.27-3.34-.06-5.01.1-.77.19-1.54.29-2.33.45.12.38.49.44.73.56,2.25,1.05,4.52,1.64,6.76,1.15,4.35,2.48,8.65,4.37,12.75,1.01,2.2,2.18,4.3,3.96,5.99.61.57,1.28,1.07,2.1,1.14.74.06,1.5-.03,2.24-.15,2.48-.39,4.73-1.36,6.76-2.82.95-.69,1.01-1.03.07-1.69-.84-.59-1.81-1.03-2.76-1.45-.62-.28-1.18.09-1.7.43-.45.3-.89.62-1.49,1.04,0-.63-.02-1.07,0-1.51.12-2.01.66-3.87,2.02-5.44,1.13-1.3,2.51-2.12,4.2-2.45,2.2-.43,4.4-.27,6.56.22,1.72.39,3.02,1.46,4.02,2.87.63.89.68,1.92.15,2.89-.58,1.07-1.25,2.09-1.88,3.13-.15.24-.32.48-.53.78.32.29.58.62.91.82.65.38,1.32.73,2.01,1.03.68.3,1.38.22,2.12.15,1.39-.14,2.77-.33,4.1-.75.93-.3,1.84-.71,2.71-1.17.47-.25.88-.67,1.25-1.07.42-.45.53-.98.29-1.61-.65-1.71-1.35-3.4-2.31-4.97-.35-.57-.54-1.16-.44-1.81.28-1.86.57-3.72.87-5.58.05-.3.22-.58.39-1.02Z" fill="#fff"/>
      <path d="m412.46,70.09c.53-.67.74-1.41.98-2.11,1.1-3.25,1.85-6.58,2.16-10.01.25-2.72.33-5.44.34-8.17,0-3.4.02-6.8-.08-10.2-.05-1.64-.31-3.29-.57-4.91-.29-1.75-.34-3.45.29-5.14.48-1.28.9-2.57,1.38-3.85.13-.34.37-.62.56-.92.58.13.58.54.67.89.17.73.31,1.48.53,2.19.33,1.08.96,1.98,1.88,2.65.16.12.32.25.52.41-.2.6-.42,1.2-.6,1.8-.45,1.47-.91,2.93-1.34,4.41-.11.38-.14.8-.14,1.2-.02,1.25.01,2.5-.01,3.75-.05,2.67-.05,5.34-.19,8.01-.23,4.28-.57,8.55-1.33,12.78-.73,4.04-1.73,7.99-3.57,11.69-.18.36-.2.7-.08,1.08.74,2.4,1.1,4.86,1.21,7.36.05,1.15,0,2.31,0,3.46,0,.09,0,.17-.01.26-.16,1.94-.48,2.44-2.38,2.89-1.94.45-3.92.79-5.9,1.05-2.39.31-4.79.47-7.2.43-.26,0-.52,0-.78-.03-1.01-.08-1.18-.24-1.22-1.28-.07-1.72.14-3.41.39-5.11.08-.57.49-.81.9-1.1,1.9-1.33,3.83-2.63,5.69-4.02,1.61-1.2,3.1-2.53,4.35-4.11,1.2-1.51,1.22-1.51.57-3.35-1.32-3.76-2.98-7.37-4.84-10.89-1.95-3.7-4.08-7.3-6.49-10.72-.8-1.13-1.61-2.26-2.44-3.4-.32.12-.59.17-.8.3-.65.41-1.29.33-1.9-.04-.79-.48-1.61-.95-2.31-1.55-.98-.85-1.89-1.8-2.78-2.76-.77-.83-1.21-1.84-1.17-3.01.05-1.97.07-3.95.2-5.91.05-.71.29-1.42.55-2.09.29-.73.59-.8,1.3-.46,1.37.66,2.57,1.57,3.67,2.61,3.57,3.36,6.36,7.32,8.81,11.52,1.87,3.21,3.64,6.48,5.3,9.8,2.01,4.02,3.82,8.15,5.23,12.43.23.68.42,1.38.64,2.14Zm-.98,8.44c-1.56,1.47-2.94,2.78-4.45,4.21,1.9-.06,3.66.18,5.44-.44-.33-1.27-.64-2.43-.99-3.77Z" fill="#fff"/>
      <path d="m461.42,62.19c.18,1.49.34,2.92.52,4.36.38,3.13.66,6.28,1.41,9.36.33,1.35.75,2.67,1.34,3.95.56,1.21,1.32,2.25,2.31,3.13,1.17,1.04,2.56,1.59,4.12,1.61,1.1.01,2.21,0,3.29-.15,2.07-.28,3.88-1.21,5.38-2.64,1.09-1.04,2.07-2.19,3.06-3.32.39-.44.78-.77,1.29-.71.8-1.42,1.5-2.83,2.36-4.13.55-.83,1.26-1.6,2.03-2.24,1.53-1.3,3.91-.71,4.86.82.86,1.38,1.31,2.86,1.47,4.41.23,2.23.16,4.47-.5,6.64-.24.8-.61,1.56-.96,2.32-.37.78-1.03,1.09-1.87.97-.86-.12-1.73-.22-2.56-.46-1.76-.5-3.49-1.09-5.23-1.64-.19-.06-.39-.13-.58-.19-1.11-.35-1.33-.26-1.89.74-.75,1.35-1.49,2.7-2.54,3.84-1.5,1.64-3.34,2.67-5.56,2.95-.66.08-1.33.12-1.99.17-2.72.23-4.85-.91-6.6-2.87-1.48-1.65-2.34-3.65-3.09-5.71-.2-.55-.38-1.1-.58-1.64-.09-.24-.2-.46-.35-.79-.23.22-.41.36-.53.53-.59.88-1.4,1.46-2.37,1.84-2.61,1.01-5.31,1.45-8.1,1.3-.26-.01-.51-.08-.77-.15-.44-.11-.67-.36-.67-.87.01-2.41.46-4.72,1.44-6.93.58-1.31,1.62-2.19,2.76-2.95,1.64-1.09,3.35-2.08,5.03-3.11.35-.21.69-.42,1.04-.64.5-.3.69-.73.82-1.33.48-2.18,1.07-4.33,1.97-6.38,0-.02.05-.02.22-.09Zm-1.46,15.77c-.21-1.88-.41-3.66-.61-5.46-1.38,1.15-2.68,2.21-3.95,3.31-.39.34-.72.75-1.01,1.18-.34.49-.23.76.31,1.02.18.08.38.17.58.17,1.01.04,2.02.1,3.03.07.53-.01,1.06-.18,1.65-.29Zm31.89,2.72c.06-.25.12-.36.11-.47-.13-1.71-.9-3.08-2.25-4.12-.49-.38-1.06-.45-1.64-.18-.39.18-.82.33-1.15.6-.61.5-1.25,1.02-1.34,1.97,2.02.92,4.06,1.68,6.27,2.2Z" fill="#fff"/>
      <path d="m289.56,78.05c-.22,4.01-1,7.21-3,10.03-1.32,1.86-3.02,3.21-5.26,3.76-1.18.29-2.4.39-3.62.14-1.96-.41-3.16-1.64-3.53-3.6-.26-1.39-.19-2.78.05-4.15.68-3.89,2.1-7.53,3.76-11.09.52-1.1,1.05-2.2,1.6-3.29.72-1.41,1.12-1.56,2.54-.86,2.58,1.27,4.7,3.08,6.31,5.47.86,1.27,1.23,2.68,1.16,3.59Zm-7.79,6.92c.46-.08,1.21-.17,1.92-.37.46-.13.91-.38,1.31-.65.81-.55,1.02-1.32.59-2.2-.79-1.62-2.03-2.88-3.47-3.94-.6-.44-1.27-.81-1.96-1.09-.85-.35-1.2-.18-1.62.62-.68,1.33-1.06,2.75-1.33,4.21-.24,1.3.16,2.11,1.32,2.72.92.48,1.92.63,3.23.69Z" fill="#fff"/>
      <path d="m306.08,73.84c.28.35.58.69.83,1.07,1.32,2.02,2.31,4.22,3.31,6.41.91,2,1.35,4.09,1.16,6.26-.12,1.41-.37,2.82-.73,4.18-1.24,4.72-3.18,9.14-5.84,13.24-1.16,1.78-2.48,3.44-4.13,4.8-.58.48-1.22.9-1.88,1.25-.64.34-1.34.48-2.1.49-2.42.02-4.8-.35-7.16-.76-2.59-.46-5.17-1.01-7.75-1.56-.69-.15-1.36-.42-2.02-.71.71-.35,1.43-.17,2.12-.09,2.24.26,4.45.12,6.65-.29,3.21-.6,6.2-1.78,8.93-3.52,3.99-2.54,7.38-5.72,9.64-9.96.29-.54.52-1.1.73-1.67.49-1.3.52-2.59-.08-3.88-1.01-2.15-1.99-4.32-2.99-6.48-.16-.34-.32-.68-.45-1.04-.15-.41-.19-.82-.08-1.27.39-1.66.73-3.34,1.12-5.01.11-.47.31-.93.47-1.39.08-.03.17-.05.25-.08Z" fill="#fff"/>
      <path d="m431.45,87.02c-.23-1.89-.47-3.78-.69-5.68-.35-3.02-.7-6.04-1.02-9.06-.22-2.1-.4-4.21-.6-6.31-.32-3.34-.65-6.68-.98-10.02-.24-2.42-.46-4.84-.73-7.26-.26-2.36-.55-4.71-.83-7.07-.13-1.1-.14-2.2.18-3.28.51-1.72,1.02-3.45,1.54-5.17.06-.21.19-.4.42-.59.07.47.16.93.2,1.4.32,3.23.63,6.45.94,9.68.3,3.17.6,6.34.87,9.51.21,2.45.36,4.91.53,7.36.18,2.51.35,5.02.52,7.54.17,2.43.39,4.85.51,7.28.1,1.91.17,3.83.1,5.74-.07,1.73-.34,3.45-.54,5.18-.03.27-.15.52-.23.78l-.2-.04Z" fill="#fff"/>
      <path d="m287.26,59.02c-1.95-1.1-3.82-2.15-5.76-3.25-.95,1.61-1.89,3.19-2.83,4.76-1.79-1.17-3.51-2.29-5.32-3.47.68-1.91,1.58-3.73,2.51-5.61,2.05.72,3.77,1.89,5.64,3.02.95-1.63,1.65-3.36,2.51-5.05,1.83.95,3.61,1.92,5.22,3.16.43.33.56.72.41,1.22-.54,1.81-1.3,3.53-2.39,5.23Z" fill="#fff"/>
      <path d="m453.42,55.39c-1.86-.98-3.65-1.92-5.25-3.19-.36-.29-.53-.61-.39-1.13.51-1.86,1.3-3.58,2.4-5.28,1.92,1.08,3.78,2.13,5.75,3.24.94-1.58,1.88-3.16,2.83-4.75,1.8,1.17,3.54,2.3,5.39,3.49-.84,1.85-1.67,3.68-2.53,5.58-2.13-.68-3.83-1.96-5.74-3.02-.81,1.68-1.61,3.31-2.46,5.06Z" fill="#fff"/>
      <path d="m180.35,38c.5.39.98.76,1.47,1.13.43.32.56.73.33,1.22-.36.76-.74,1.5-1.14,2.31-.74-.56-1.4-1.05-2.11-1.58-.28.34-.52.62-.75.91-1.8,2.34-4.18,4-6.61,5.6-2.05,1.35-4.33,2.22-6.61,3.07-1.09.41-2.18.78-3.27,1.17-.25.09-.51.16-.77.23-.03-.07-.07-.14-.1-.2.28-.22.54-.48.84-.67,2.5-1.52,5.01-3.03,7.53-4.53,2.59-1.55,5.13-3.17,7.39-5.19.34-.31.67-.63,1.04-.98-.73-.49-1.38-.91-2.03-1.34-1.23-.83-1.42-1.93-1.12-3.12.55-2.13,1.87-3.64,3.89-4.5,1.35-.58,2.36-.03,2.62,1.43.19,1.07.04,2.14-.19,3.19-.13.62-.28,1.23-.43,1.86Zm-1.51-.56c.35-.89.37-1.61.19-2.32-.24-.9-.79-1.12-1.65-.73-.21.09-.42.21-.61.34-.55.38-.61.76-.09,1.18.64.53,1.35.96,2.16,1.53Z" fill="#fff"/>
      <path d="m481.72,52.66c-.08-1.01.05-1.92.27-2.8.07-.27.3-.56.54-.72,1.84-1.21,3.69-2.42,5.56-3.58,4.05-2.51,8.11-4.98,12.17-7.47.43-.26.78-.72,1.47-.7-.14,1.17-.19,2.33-1.3,3.05-1.61,1.04-3.23,2.06-4.84,3.1-3.97,2.57-7.94,5.14-11.91,7.72-.65.42-1.26.9-1.96,1.4Z" fill="#fff"/>
      <path d="m418.08,97.15c-.18,1.07-.31,1.97-.48,2.87-.08.44-.47.64-.83.84-2.09,1.19-4.17,2.4-6.28,3.55-4.09,2.25-8.19,4.47-12.29,6.7-.25.14-.51.25-.74.36-.1-.08-.18-.12-.18-.15.03-1.1.23-2.16,1.26-2.77,1.89-1.13,3.82-2.19,5.73-3.29,3.97-2.29,7.94-4.57,11.9-6.87.59-.34,1.16-.75,1.91-1.23Z" fill="#fff"/>
      <path d="m540.21,111.66c-.13-.14-.21-.19-.2-.22.12-1.04.26-2.11,1.26-2.71,1.67-1,3.37-1.93,5.05-2.9,4.49-2.6,8.97-5.21,13.45-7.82.32-.19.62-.41,1.04-.69-.13.93-.22,1.72-.35,2.51-.08.52-.37.87-.84,1.14-2.48,1.38-4.94,2.81-7.42,4.18-3.73,2.06-7.48,4.08-11.22,6.11-.25.14-.51.26-.77.4Z" fill="#fff"/>
      <path d="m328.64,31.26c.56.63,1.15,1.19,1.62,1.84,2.23,3.08,3.7,6.5,4.33,10.24.44,2.63.43,5.26-.45,7.82-.12.34-.3.65-.45.98-.07-.01-.15-.03-.22-.04-.03-.47-.08-.95-.08-1.42,0-2.64-.51-5.17-1.49-7.63-.8-2.01-1.98-3.74-3.6-5.16-.39-.34-.56-.71-.5-1.21.21-1.69.42-3.39.64-5.08,0-.08.09-.14.2-.33Z" fill="#fff"/>
      <path d="m172.66,106.28c.86-1.99,1.69-3.92,2.55-5.91.51.19.97.29,1.36.51,1.37.75,2.72,1.54,4.07,2.33.22.13.4.33.6.5.25.21.31.45.16.77-.86,1.83-1.69,3.68-2.59,5.63-1.98-1.41-3.85-2.8-6.15-3.82Z" fill="#fff"/>
      <path d="m555.05,54.58c2.06.78,3.95,1.78,5.65,3.1.58.45.65.52.31,1.23-.83,1.75-1.62,3.52-2.48,5.39-1.96-1.44-3.86-2.8-5.99-3.76.08-.77,1.79-4.86,2.51-5.97Z" fill="#fff"/>
      <path d="m207.31,62.59c2.29.92,4.37,2.08,6.28,3.73-.97,2.02-1.92,4-2.92,6.07-1.93-1.49-3.81-2.87-6.02-3.92.78-2,1.66-3.94,2.66-5.89Z" fill="#fff"/>
    </g>
    <g>
      <path d="m138.84,153.39c-3.14,3.21-5.82,4.38-8.4,4.38-2.01,0-4.38-1.1-4.38-5.29,0-3.21,1.44-6.7,4.12-8.76,1.46-1.1,3.83-2.18,5.79-2.18,2.54,0,3.76,1.36,3.76,3.02,0,3.64-5.7,5.32-9.17,6.25-.05.46-.05.69-.05.93,0,1.72.69,3.21,2.56,3.21,1.34,0,3.45-1.03,5.08-2.61l.69,1.05Zm-5.39-9.94c-.91.55-2.35,2.54-2.75,6.03,3.83-1.2,5.12-2.61,5.12-4.5,0-1.39-.91-1.89-1.34-1.89-.31,0-.77.14-1.03.36Z" fill="#fdbc69"/>
      <path d="m171.99,151.74c-.46,1.22-1.77,4.48-2.3,5.63h-16.04l.24-.98c2.75-.24,3.09-.53,3.59-3.23l2.75-14.36c.53-2.75.41-2.9-2.54-3.18l.24-.98h9.24l-.19.98c-2.9.24-3.04.45-3.52,3.18l-2.73,14.22c-.24,1.32-.14,2.08.34,2.59.5.41,1.65.48,3.18.48,1.99,0,3.23-.22,4.12-1.08.84-.77,1.63-1.82,2.59-3.66l1.03.41Z" fill="#fff"/>
      <path d="m199.68,153.75c-3.06,3.26-5.79,4.02-7.64,4.02-1.7,0-4.05-.96-4.05-5.2,0-3.16,1.44-6.82,4.26-8.91,1.48-1.17,3.42-1.99,5.03-1.99,2.01,0,3.26,1.32,3.26,2.85,0,3.5-5.99,5.29-9.36,6.18-.05.41-.05.72-.05,1.03,0,1.87.62,3.81,2.75,3.81,1.51,0,3.45-.98,5.2-2.63l.6.84Zm-5.1-10.27c-.96.57-2.68,2.23-3.28,6.1,4.88-1.32,6.37-2.9,6.39-4.52,0-1.27-.79-1.92-1.7-1.92-.5,0-1.03.14-1.41.34Z" fill="#fff"/>
      <path d="m232.55,154.3c-2.25,2.37-4.24,3.47-5.24,3.47-.86,0-1.29-.93-.62-3.71.62-2.49,1.22-5,1.82-7.47.48-2.06.26-2.51-.29-2.51-1.51,0-5.51,4.21-7.18,7.09-.46,1.75-.93,3.76-1.39,5.91-.98.19-2.06.46-2.8.69l-.24-.26c1.05-4.05,1.99-7.95,2.85-11.76.22-1.12.14-1.36-.05-1.36-.36,0-1.48.74-2.32,1.58l-.48-.91c2.03-2.13,4.14-3.38,5.2-3.38.84,0,1.05,1.15.43,3.93l-.72,2.9h.07c2.18-2.97,4.72-5.03,6.25-5.96,1.01-.6,1.82-.86,2.54-.86.91,0,1.96.5.89,5.12-.53,2.32-1.08,4.67-1.65,6.99-.19.91-.17,1.22.12,1.22.31,0,1.29-.62,2.3-1.6l.53.89Z" fill="#fff"/>
      <path d="m264.81,154.09c-1.99,2.42-4.4,3.69-5.41,3.69-.77,0-1.27-.55-.74-3.14l.67-3.02h-.07c-1.6,2.13-3.52,3.69-4.76,4.67-1.27.93-2.42,1.48-3.4,1.48-1.24,0-2.39-1.39-2.39-4.29,0-3.23,1.48-6.97,4.12-9.12,1.68-1.44,4.69-2.68,6.3-2.68.53,0,1.27.02,2.18.38l1.1-5.63c.31-1.63.17-1.82-1.39-1.82h-1.05l.12-.91c3.06-.34,5.05-1.25,5.65-1.25.34,0,.41.29.24,1.01-1.65,7.09-3.04,13.67-4.29,20.4-.19.81-.14,1.15.12,1.15.38,0,1.51-.77,2.51-1.72l.5.79Zm-5.08-5.03l1.1-4.88c-.57-.5-1.89-.96-2.9-.96s-1.72.24-2.35.69c-2.27,1.6-3.66,6.03-3.66,8.93,0,1.8.53,2.54,1.08,2.54,1.82,0,5.65-4.33,6.73-6.32Z" fill="#fff"/>
      <path d="m287.55,154.18c-1.44,1.65-4.19,3.59-5.39,3.59-.79,0-1.29-.57-.55-3.59l2.08-8.64c.19-.72.19-1.08-.02-1.08-.31,0-1.32.6-2.37,1.44l-.46-.81c2.08-1.99,4.57-3.4,5.58-3.4.81,0,.84,1.15.43,2.85l-2.35,9.34c-.22.89-.14,1.15.07,1.15.46,0,1.6-.86,2.47-1.6l.5.77Zm.77-17.52c0,1.1-.88,2.15-2.03,2.15-.91,0-1.53-.67-1.56-1.68,0-.93.72-2.2,2.06-2.2.96,0,1.49.81,1.53,1.72Z" fill="#fff"/>
      <path d="m319.91,154.3c-2.25,2.37-4.24,3.47-5.24,3.47-.86,0-1.29-.93-.62-3.71.62-2.49,1.22-5,1.82-7.47.48-2.06.26-2.51-.29-2.51-1.51,0-5.51,4.21-7.18,7.09-.45,1.75-.93,3.76-1.39,5.91-.98.19-2.06.46-2.8.69l-.24-.26c1.05-4.05,1.99-7.95,2.85-11.76.21-1.12.14-1.36-.05-1.36-.36,0-1.48.74-2.32,1.58l-.48-.91c2.03-2.13,4.14-3.38,5.2-3.38.84,0,1.05,1.15.43,3.93l-.72,2.9h.07c2.18-2.97,4.72-5.03,6.25-5.96,1.01-.6,1.82-.86,2.54-.86.91,0,1.96.5.89,5.12-.53,2.32-1.08,4.67-1.65,6.99-.19.91-.17,1.22.12,1.22.31,0,1.29-.62,2.3-1.6l.53.89Z" fill="#fff"/>
      <path d="m351.6,142.5c-1.08,1.17-1.99,1.6-2.54,1.75-.29.07-.53.07-.91.12.14.45.29,1.01.29,1.92,0,2.37-1.36,4.19-2.71,5.2-.96.79-2.61,1.68-4.69,2.06-.43.31-.67.65-.67,1.03,0,.5.81,1.1,2.47,1.94,3.57,1.77,5,3.16,5,4.74,0,2.92-4.96,5.15-8.59,5.15-3.45,0-6.51-1.75-6.44-4,.07-1.51,2.16-3.06,5.89-4.96-.79-.53-1.32-1.22-1.29-1.7,0-.6.57-1.27,2.27-2.25-2.13-.46-3.21-1.92-3.21-4.24s1.15-4.43,2.97-5.84c1.49-1.15,3.38-1.72,4.67-1.72,1.22,0,2.37.31,3.16.96,2.13,0,3.4-.38,4.05-.84l.29.69Zm-6.58,19.82c0-.91-.91-1.77-2.49-2.68-1.17-.69-2.25-1.29-2.85-1.53-2.13.96-3.64,2.37-3.64,3.69,0,1.77,2.32,3.06,4.69,3.06,2.75,0,4.29-1.24,4.29-2.54Zm.55-16.09c0-1.84-.77-3.3-2.3-3.3-1.01,0-1.92.74-2.51,1.63-.72,1.1-1.29,2.71-1.29,4.5,0,1.96.91,3.09,2.18,3.09,1.87,0,3.93-2.2,3.93-5.91Z" fill="#fff"/>
      <path d="m388.96,150.25c.38,2.66,1.89,6.42,5.82,6.42,2.56,0,4.24-1.75,4.24-4.4,0-1.94-1.22-3.28-3.26-4.84l-1.05-.77c-1.7-1.34-4.07-3.28-4.07-6.2,0-3.78,2.97-6.39,7.28-6.39,1.22,0,2.49.22,3.57.6.67.24,1.22.48,1.51.6-.12,1.41-.07,3.38-.07,5l-1.05.14c-.31-2.61-1.32-5.15-4.36-5.15-2.49,0-3.88,1.99-3.88,4s1.39,3.28,3.28,4.6l1.08.77c2.44,1.8,4.24,3.64,4.24,6.54,0,4.12-3.66,6.75-7.9,6.75-2.9,0-5.44-1.32-6.23-2.18-.05-.81-.05-2.73-.12-5.34l.98-.14Z" fill="#fdbc69"/>
      <path d="m430.63,153.75c-3.06,3.26-5.79,4.02-7.64,4.02-1.7,0-4.05-.96-4.05-5.2,0-3.16,1.44-6.82,4.26-8.91,1.48-1.17,3.42-1.99,5.03-1.99,2.01,0,3.26,1.32,3.26,2.85,0,3.5-5.99,5.29-9.36,6.18-.05.41-.05.72-.05,1.03,0,1.87.62,3.81,2.75,3.81,1.51,0,3.45-.98,5.2-2.63l.6.84Zm-5.1-10.27c-.96.57-2.68,2.23-3.28,6.1,4.88-1.32,6.37-2.9,6.39-4.52,0-1.27-.79-1.92-1.7-1.92-.5,0-1.03.14-1.41.34Z" fill="#fff"/>
      <path d="m452.65,147.38c1.75-3.21,3.78-5.7,5.29-5.7.62,0,1.27.38,1.58.86.31.46.26,1.13-.05,1.63-.26.46-.62.84-.98,1.13-.31.22-.57.22-.79.02-.43-.41-.89-.65-1.29-.65-.38,0-.93.34-1.68,1.39-.77,1.05-1.92,2.73-2.54,4.26-.5,2.25-.96,4.57-1.36,6.8-.84.14-1.96.38-2.8.65l-.24-.26c.89-3.64,1.82-7.92,2.51-11.59.22-1.17.17-1.53-.07-1.53-.31,0-1.46.69-2.47,1.65l-.53-.84c1.84-1.99,4.12-3.52,5.12-3.52.93,0,1.08,1.46.53,4l-.36,1.7h.12Z" fill="#fff"/>
      <path d="m481.37,154.18c1.51-1.84,5.27-6.58,5.27-8.95,0-.55-.07-1.13-.34-1.53-.14-.24-.14-.55,0-.86.22-.65.86-1.15,1.63-1.15.89,0,1.53.86,1.58,2.03,0,1.1-.6,2.44-2.2,4.64-2.13,2.83-5.34,6.94-7.42,9.41h-1.08c-.14-3.21-.6-8.81-.81-10.87-.17-1.92-.38-2.54-.62-2.54-.31,0-1.01.57-2.06,1.84l-.6-.84c1.29-1.84,3.21-3.69,4.43-3.69.98,0,1.44,1.34,1.65,3.97.17,3.16.38,5.96.5,8.52h.07Z" fill="#fff"/>
      <path d="m512.15,154.18c-1.44,1.65-4.19,3.59-5.39,3.59-.79,0-1.29-.57-.55-3.59l2.08-8.64c.19-.72.19-1.08-.02-1.08-.31,0-1.32.6-2.37,1.44l-.46-.81c2.08-1.99,4.57-3.4,5.58-3.4.81,0,.84,1.15.43,2.85l-2.35,9.34c-.22.89-.14,1.15.07,1.15.46,0,1.6-.86,2.47-1.6l.5.77Zm.77-17.52c0,1.1-.88,2.15-2.03,2.15-.91,0-1.53-.67-1.56-1.68,0-.93.72-2.2,2.06-2.2.96,0,1.49.81,1.53,1.72Z" fill="#fff"/>
      <path d="m539.72,153.85c-2.2,2.51-5.05,3.93-7.18,3.93-2.44,0-4.05-1.84-4.05-5.24,0-2.9,1.39-6.25,3.69-8.28,1.49-1.24,3.93-2.56,5.77-2.56,1.53,0,2.78.86,2.83,1.8.02.6-.36,1.27-1.22,1.75-.31.17-.6.1-.84-.22-.81-1.1-1.65-1.68-2.75-1.68-1.2,0-2.13,1.05-2.75,2.27-.84,1.53-1.46,3.76-1.46,6.13,0,2.59,1.01,3.85,2.54,3.85,1.77,0,3.97-1.6,4.88-2.56l.55.81Z" fill="#fff"/>
      <path d="m567.46,153.75c-3.06,3.26-5.79,4.02-7.64,4.02-1.7,0-4.05-.96-4.05-5.2,0-3.16,1.44-6.82,4.26-8.91,1.48-1.17,3.42-1.99,5.03-1.99,2.01,0,3.26,1.32,3.26,2.85,0,3.5-5.99,5.29-9.36,6.18-.05.41-.05.72-.05,1.03,0,1.87.62,3.81,2.75,3.81,1.51,0,3.45-.98,5.2-2.63l.6.84Zm-5.1-10.27c-.96.57-2.68,2.23-3.28,6.1,4.88-1.32,6.37-2.9,6.39-4.52,0-1.27-.79-1.92-1.7-1.92-.5,0-1.03.14-1.41.34Z" fill="#fff"/>
    </g>
  </g>
  <g>
    <path d="m682.9,70.25c6.92-.36,13.84-.72,20.69-1.08,6.92-.36,13.84-.79,20.69-1.01,4.76-.14,9.45,0,14.2.29,3.03.22,6.06.87,9.08,1.44,2.02.43,4.04.94,5.98,1.59,2.88.94,4.33,3.24,5.26,5.91,1.51,4.4,2.16,9.08,3.03,13.63.65,3.53,1.3,7.07,1.95,10.67.72,4.11,1.3,8.15,2.02,12.26.65,3.75,1.3,7.57,1.87,11.32.5,3.1.94,6.27,1.44,9.37.65,3.97,1.3,8,1.87,11.97.5,3.46,1.01,6.92,1.37,10.38.22,1.87.22,3.89-1.3,5.34-.72.65-1.73,1.15-2.74,1.37-2.09.58-4.04-.14-6.06-.65-3.53-.94-6.99-1.8-10.53-2.67-2.88-.72-5.77-1.37-8.72-2.02-3.75-.87-7.5-1.66-11.25-2.45-2.96-.65-5.91-1.37-8.94-2.02-3.89-.87-7.79-1.66-11.68-2.52-3.1-.65-6.13-1.59-9.3-2.02-2.16-.29-2.81-1.44-3.46-3.24-2.24-6.2-4.54-12.4-7.07-18.46-2.74-6.56-5.62-13.05-8.58-19.54-2.81-6.27-5.84-12.4-8.8-18.6-2.45-5.12-4.97-10.24-7.5-15.36-.43-.87-.94-1.66-1.37-2.52-1.37-2.52-.87-4.97.58-7.28,2.31-3.61,5.41-6.34,8.8-8.87,3.97-2.88,8.08-5.62,12.04-8.44,5.05-3.61,9.88-7.64,14.35-12.04,3.32-3.24,6.42-6.63,9.08-10.38.72-1.08,3.24-.87,3.82.29.58,1.08.58,2.09-.29,3.17-3.17,4.25-6.78,8.08-10.6,11.75-4.54,4.4-9.45,8.36-14.56,11.97-3.46,2.45-7.21,4.61-10.74,6.99-2.45,1.66-4.83,3.46-6.63,5.91-.36.5-.72,1.01-.94,1.59-.65,1.8-.14,2.88,1.8,3.1,2.31.36,4.69.58,7.07.72,1.51.14,2.74.07,4.04.14q0-.07,0,0Zm68.78,26.75c-.29-1.37-.5-2.52-.79-3.68-.72-3.1-1.37-6.2-2.16-9.23-.5-1.8-1.08-3.61-2.6-4.97-.43-.43-.79-.43-1.23,0-4.11,4.18-8.29,8.29-12.4,12.4-7.79,7.79-15.57,15.57-23.29,23.29-3.39,3.39-6.85,6.85-10.24,10.24-.36.36-.58.72-.36,1.3,1.08,2.81,2.09,5.62,3.1,8.44.14.29.5.65.79.72,2.6.58,5.26,1.08,7.86,1.66.79.14,1.44.07,2.09-.58,4.97-5.05,9.95-10.02,14.92-15,7.93-7.93,15.93-15.93,23.94-23.87.22-.14.29-.5.36-.72Zm-73.47-20.91c.29.65.5,1.15.79,1.59,1.01,1.87,2.09,3.75,2.96,5.7,2.16,4.9,4.4,9.81,6.42,14.71,1.95,4.76,3.61,9.59,5.41,14.42q.36.94,1.08.22c12.04-12.04,24.15-24.15,36.19-36.19.22-.22.36-.43.72-.87-1.01-.07-1.66-.07-2.38-.07-11.32-.29-22.64.58-33.96.87-4.97.14-9.88-.07-14.85-.14-.72,0-1.44-.14-2.38-.22Zm75.56,31.15c-10.67,10.74-21.41,21.41-32.08,32.16,0,0,.22.14.43.14,3.03.58,6.13,1.15,9.16,1.73,3.97.79,8,1.59,11.97,2.52,3.82.87,7.64,1.87,11.46,2.74,1.8.43,3.53.36,4.97-1.08.79-.87.94-1.95.79-3.03-.29-2.16-.65-4.33-1.01-6.42-.5-2.6-1.01-5.19-1.51-7.79-.65-3.24-1.15-6.56-1.8-9.81-.87-3.75-1.59-7.43-2.38-11.18Zm-17.74-30.93c-1.15-.5-2.02-.36-2.96.58-2.96,2.96-5.84,5.84-8.8,8.8-9.59,9.66-19.25,19.25-28.84,28.84-.79.79-.72,1.73-.07,2.38,13.63-13.55,27.18-27.11,40.66-40.59Zm4.33.72c-.87-.29-1.66-.58-2.6.29-4.25,4.4-8.65,8.72-12.98,13.05-9.23,9.3-18.53,18.53-27.76,27.83-1.15,1.15-1.15,1.08-.29,2.45,14.49-14.49,29.06-29.06,43.62-43.62Zm11.82,22.64l-38.21,38.21c1.01.5,1.95.36,2.88-.65,3.39-3.61,6.92-7.07,10.45-10.53,8.22-8.22,16.44-16.37,24.66-24.59.5-.5.65-1.01.43-1.66-.07-.36-.14-.65-.22-.79Zm-24.59,52.42c.5-.22,1.15-.29,1.59-.65,2.09-1.51,2.02-5.26-.07-6.92-1.51-1.15-3.39-.94-4.33.72-.94,1.51-.94,3.17-.07,4.69.58,1.15,1.37,2.02,2.88,2.16Zm-9.52-81.11q0,.07,0,0c-5.84.43-11.61.79-17.45,1.15-.72.07-.79.5-.79,1.01,0,.58.22,1.01.94,1.01,1.08-.07,2.16-.22,3.24-.22,5.19-.29,10.45-.58,15.65-.94.22,0,.5,0,.65-.07.29-.36.65-.72.72-1.15.07-.5-.36-.79-.94-.79-.65.07-1.37,0-2.02,0Zm15.5,74.91c-.07.5-.14.79-.14,1.15-.07,1.44-.14,2.88-.22,4.33-.07,1.01.07,1.08,1.08.87,1.15-.29,2.38-.5,3.53-.79,1.3-.29,2.6-.58,3.89-.94v-.22c-2.6-1.51-5.26-2.96-8.15-4.4Zm-20.62-.72c0,.07,0,.14-.07.22,2.74,1.44,5.48,2.88,8.36,4.4.14-2.24.22-4.33.36-6.56-3.03.72-5.84,1.3-8.65,1.95Zm11.54-74.7c-.72,0-1.23.72-1.15,1.66.07.79.65,1.51,1.23,1.51s1.23-.87,1.23-1.66c-.07-.79-.65-1.51-1.3-1.51Z" fill="#fff"/>
    <g>
      <path d="m683.91,65.86c3.32-.94,6.71-1.87,10.02-2.88,3.17-.94,6.34-1.87,9.52-2.81,3.17-.94,6.42-1.87,9.59-2.81s6.42-1.87,9.59-2.81c2.81-.87,5.62-1.73,8.44-2.6,2.96-.87,5.91-1.66,8.87-2.52,1.73-.5,3.39-.94,5.12-1.51.22-.07.43-.5.43-.79.07-1.3,0-2.6,0-3.89,0-.29,0-.58.07-1.01.36,0,.65-.07.94-.07h10.6c.72,0,1.01.14,1.01.94-.07,3.53,0,7.14,0,10.67,0,.29,0,.58-.07.94h-5.19c.43,4.18.87,8.29,1.37,12.55-.72-.29-1.37-.58-2.02-.87-2.31-1.01-4.76-1.66-7.21-2.24-6.06-1.37-12.19-1.59-18.31-1.51-3.82.07-7.71.36-11.54.72-3.1.29-6.2.79-9.3,1.08-2.6.29-5.12.36-7.71.58-3.82.29-7.64.58-11.46.87-.87.07-1.8,0-2.67,0q-.07.07-.07,0Z" fill="#d9e026"/>
      <path d="m742.1,34.64v1.15c-.14,3.03-.36,5.98-.5,9.01-.07,1.73,0,1.66-1.66,2.16-3.03.87-6.06,1.87-9.16,2.74-2.16.65-4.33,1.23-6.56,1.95-3.39,1.01-6.78,2.09-10.17,3.1-2.24.65-4.54,1.3-6.78,1.95-2.67.79-5.34,1.73-8.08,2.52-1.59.5-3.24.87-4.9,1.37-2.74.79-5.41,1.73-8.15,2.52-.79.22-1.59.43-2.45.43,1.51-.72,3.03-1.44,4.54-2.09,2.24-1.01,4.47-2.09,6.71-3.1,2.6-1.23,5.12-2.38,7.71-3.61,2.24-1.08,4.54-2.16,6.78-3.24,2.09-1.01,4.25-1.95,6.34-2.96,2.6-1.23,5.19-2.38,7.79-3.61,2.16-1.01,4.33-2.02,6.49-3.1,3.82-1.95,7.57-3.89,10.89-6.63.36-.22.72-.36,1.15-.58Z" fill="#d9e026"/>
      <path d="m721.48,26.7c.65,5.48,1.3,10.82,2.02,16.22-13.77,6.27-27.69,12.55-41.53,18.89-.07-.07-.07-.14-.14-.22,14.78-9.73,28.26-21.05,39.66-34.9Z" fill="#d9e026"/>
      <path d="m753.99,31.61h8.8v8.58h-8.8v-8.58Z" fill="#d9e026"/>
      <path d="m750.03,24.54h5.7v5.62h-5.7v-5.62Z" fill="#d9e026"/>
    </g>
  </g>
</svg>