<?xml version="1.0" encoding="UTF-8"?>
<svg id="uuid-10c82760-b411-4dab-9551-07df8d767322" data-name="Layer 1" xmlns="http://www.w3.org/2000/svg" viewBox="0 0 848.21 192.63">
  <rect x="1" y="1" width="846.21" height="190.63" rx="10" ry="10" fill="#a91f23" stroke="#fff" stroke-miterlimit="10" stroke-width="2"/>
  <g>
    <path d="m494.46,70.4c.18.09.27.17.38.2,3.04.76,6.09,1.51,9.13,2.28,4.65,1.18,9.35,2.04,14.12,2.54,3.2.34,6.41.59,9.63.63,1.12.01,2.24.09,3.44.15-.21,1-.76,1.78-1.19,2.62-.43.86-.88,1.71-1.32,2.57-.34,0-.62.01-.89,0-3.46-.22-6.92-.36-10.37.1-2.87.39-5.69,1.06-8.49,1.82-4.62,1.26-9.16,2.78-13.69,4.31-3.96,1.34-7.94,2.64-12.01,3.61-1.81.43-3.64.64-5.48.86-5.25.63-10.52.65-15.79.44-1.49-.06-2.97-.19-4.46-.28-.28-.02-.56-.01-.84,0-1.16.1-2.32.23-3.49.3-2.53.14-5.06.26-7.6.36-2.01.08-4.02.13-6.03.2-.16,0-.31.04-.52.06-.25.51-.29,1.07-.41,1.61-.82,3.6-2.1,7-4.14,10.1-2.03,3.09-4.57,5.7-7.54,7.9-1.71,1.26-3.6,1.89-5.75,1.81-2.38-.08-4.74-.32-7.09-.64-1.79-.24-3.58-.56-5.32-1.07-.46-.14-.91-.31-1.36-.49-.12-.05-.21-.18-.41-.36.48-.23.87-.19,1.26-.21.92-.03,1.85-.04,2.77-.1,3.58-.23,6.96-1.27,10.18-2.8,5.18-2.47,9.52-5.98,13-10.54.98-1.29,1.83-2.64,2.33-4.2.12-.38.27-.75.17-1.22-.74-.33-1.51-.67-2.3-1.02-.22.29-.4.55-.6.8-.62.8-1.42,1.24-2.46,1.33-2.66.23-5.51-1.99-5.77-5.03-.08-.93.05-1.85.24-2.75.49-2.37,1.28-4.65,2.42-6.79.49-.93,1.07-1.79,1.85-2.51,1.01-.93,1.95-1.09,3.21-.51,1.2.54,2.18,1.38,3.01,2.38,1.59,1.91,2.81,4.02,3.1,6.55.03.24.1.47.17.75.29.03.56.09.83.08,1.13-.04,2.25-.07,3.37-.15.43-.03.88-.11,1.28-.28.9-.37,1.7-.92,2.41-1.58.47-.43.71-.95.72-1.6.02-2.25-.08-4.5-.3-6.74-.49-5.08-1.38-10.11-2.22-15.15-.7-4.2-1.31-8.42-1.95-12.63-.12-.79-.21-1.59-.27-2.4-.07-.82-.31-1.57-.71-2.28-.27-.49-.53-1-.76-1.51-.31-.68-.43-1.4-.21-2.12.5-1.65,1.03-3.3,1.56-4.94.04-.14.14-.26.28-.51.18.36.32.59.42.84.62,1.56,1.51,2.93,2.82,3.99.62.5.75,1.05.54,1.8-.33,1.16-.54,2.35-.88,3.51-.24.8-.26,1.57-.13,2.38.42,2.54.82,5.08,1.24,7.61.72,4.32,1.41,8.65,1.86,13.01.27,2.68.52,5.36.68,8.05.1,1.68.02,3.38.02,5.07,0,.2,0,.4,0,.57.26.18.42.03.55-.11,1.07-1.09,2.15-2.17,3.2-3.28,2.13-2.25,4.24-4.52,6.61-6.52,1.11-.94,2.28-1.78,3.5-2.57,2.72-1.78,5.61-2.05,8.66-1.1,1.36.42,2.6,1.04,3.74,1.91,1.74,1.33,2.36,3.08,2.08,5.2-.24,1.83-.99,3.47-2.01,4.99-1.19,1.78-2.53,3.43-4.19,4.8-.12.1-.22.23-.33.35-.02.02,0,.07,0,.14.2.24.5.14.76.19.24.05.48.08.72.09,1.73.07,3.45.03,5.18-.08,4.61-.28,9.07-1.28,13.52-2.4,3.31-.84,6.62-1.72,9.92-2.58.86-.22,1.72-.42,2.58-.62.14-.03.27-.08.61-.18-1.32-.58-2.55-.79-3.73-1.11-1.16-.32-2.33-.63-3.5-.93-1.21-.31-2.42-.61-3.63-.89-1.18-.27-2.35-.53-3.54-.77-1.21-.24-2.43-.45-3.68-.68-.05-.5.17-.89.33-1.29.43-1.01,1.07-1.89,1.75-2.73,1.15-1.41,2.49-2.62,3.91-3.75,3.41-2.72,7.13-4.96,10.97-7,1.1-.59,2.23-1.12,3.34-1.68.14-.07.26-.17.43-.28-.29-.61-.96-.76-1.34-1.33.03-.16.04-.41.12-.62.78-2.03,1.68-4.01,2.93-5.8,1.07-1.54,1.17-1.67,3.06-.79,1.88.88,3.48,2.16,4.89,3.67.47.5.65,1.02.53,1.75-.28,1.6-.74,3.13-1.63,4.5-.3.47-.67.9-1.05,1.32-.48.52-1.08.81-1.79.92-3.04.45-5.95,1.38-8.8,2.51-2.13.84-4.27,1.69-6.26,2.83-1.08.62-2.12,1.3-3.17,1.99-.4.26-.78.57-1,1.13Zm-43.15,14.84c1.44-.03,2.59-.26,3.73-.46,3.53-.63,6.97-1.61,10.41-2.62,2.04-.6,4.06-1.31,5.95-2.32.63-.34,1.25-.73,1.81-1.18.55-.44.58-.87.27-1.5-.34-.68-.89-1.12-1.55-1.47-1.76-.91-3.65-1.18-5.6-1.25-1.25-.05-2.4.24-3.46.87-.76.45-1.51.92-2.23,1.44-2.97,2.16-5.64,4.66-8.24,7.24-.33.33-.62.71-1.1,1.25Zm-20.56,1.17s0,.01,0,.02c.56-.02,1.12-.03,1.68-.08.45-.04.61-.4.29-.76-.4-.45-.8-.9-1.27-1.26-1.22-.94-2.15-.65-2.68.79-.05.15-.09.31-.11.46-.06.45.2.79.66.83.48.03.96,0,1.44,0Z" fill="#fff"/>
    <path d="m607.87,38.88c.18.9.41,1.78.54,2.69.44,3.27.86,6.53,1.25,9.81.58,4.91,1.07,9.83,1.71,14.73.42,3.23.94,6.45,1.92,9.56.35,1.11.8,2.19,1.27,3.25.34.77.83,1.46,1.42,2.08.67.7,1.47,1.1,2.44,1.16.32.02.64.05.96.05,1.94,0,3.86-.19,5.76-.54.72-.13,1.38-.41,1.98-.86.52-.39.82-.88.8-1.54-.02-1-.06-2.01-.09-3.01-.12-3.78-.62-7.53-1.19-11.26-.58-3.81-1.21-7.62-1.8-11.43-.47-3.06-.92-6.12-1.36-9.18-.13-.87-.22-1.76-.3-2.64-.07-.82-.29-1.57-.7-2.29-.28-.49-.52-1-.77-1.5-.32-.64-.42-1.32-.24-2,.49-1.86,1.03-3.71,1.8-5.62.17.29.31.47.39.67.64,1.64,1.57,3.07,2.92,4.22.09.08.18.16.27.24.37.33.46.72.34,1.2-.32,1.29-.6,2.58-.96,3.86-.21.76-.26,1.5-.14,2.26.44,2.7.89,5.39,1.29,8.09.56,3.74,1.12,7.47,1.59,11.22.36,2.83.65,5.67.84,8.52.14,2.08.08,4.18.11,6.27,0,.32,0,.64,0,.93.28.15.42-.01.56-.15.55-.59,1.08-1.19,1.63-1.78,2.16-2.33,4.29-4.69,6.5-6.97,1.45-1.51,3.07-2.84,4.84-3.98.14-.09.27-.17.41-.26,2.55-1.7,5.31-1.95,8.21-1.17,1.57.42,3.01,1.11,4.28,2.15,1.53,1.25,2.13,2.86,1.94,4.8-.18,1.89-.93,3.57-1.96,5.13-.58.87-1.22,1.7-1.87,2.51-.94,1.17-2.15,2.06-3.43,2.82-2.71,1.62-5.62,2.78-8.62,3.73-4.84,1.54-9.79,2.62-14.81,3.37-2.11.31-4.23.51-6.35.72-.76.07-1.53-.01-2.29.05-1.76.14-3.11-.63-4.28-1.84-.79-.82-1.43-1.75-1.86-2.8-.53-1.26-.99-2.54-1.48-3.82-.16-.41-.28-.84-.45-1.24-.07-.16-.25-.28-.44-.49-.15.29-.3.48-.34.69-.17.87-.28,1.75-.47,2.61-.2.9-.4,1.81-.7,2.68-1.13,3.23-3.44,5.13-6.77,5.87-1.94.43-3.76.18-5.48-.79-1.19-.67-2.36-1.38-3.55-2.06-.63-.36-1.26-.71-1.91-1.03-.78-.39-1.51-.33-2.28.17-2.14,1.39-4.5,2.28-6.94,3.02-4.22,1.27-8.53,2-12.9,2.42-3.09.29-6.18.49-9.28.41-3.96-.1-7.86-.61-11.62-1.92-1.56-.55-3.04-1.28-4.38-2.26-2.61-1.91-3.97-4.46-3.97-7.73,0-1.78.27-3.52.75-5.23.25-.89.65-1.73,1.16-2.51.15-.23.31-.48.72-.43-.04.23-.08.46-.13.68-.11.47-.27.93-.34,1.4-.38,2.65.57,4.82,2.47,6.61,1.42,1.35,3.14,2.23,4.96,2.92,1.93.73,3.92,1.2,5.96,1.48,2.83.38,5.68.61,8.55.48,1.93-.08,3.86-.09,5.79-.25,3.45-.29,6.87-.78,10.26-1.54,2.67-.59,5.31-1.31,7.86-2.31,1.28-.5,2.51-1.09,3.64-1.86.9-.61,1.54-1.4,1.88-2.43.16-.5.35-.98.53-1.48.12-.34.25-.68.57-.89.29,0,.35.21.33.39-.05.4-.13.79-.24,1.18-.33,1.2-.66,2.4-1.03,3.59-.15.49-.05.9.31,1.2.36.31.78.58,1.22.76,1.66.65,3.4,1.09,5.16,1.12,2.01.04,4.02-.24,5.91-1.03.52-.22,1.01-.5,1.48-.8.79-.52,1.22-1.28,1.24-2.22.02-.84.02-1.69-.04-2.53-.19-2.52-.4-5.05-.62-7.57-.18-2-.4-4-.6-6-.19-1.96-.39-3.92-.57-5.88-.23-2.6-.47-5.2-.66-7.81-.14-1.92-.2-3.85-.31-5.78-.04-.66.08-1.27.32-1.88.32-.82.6-1.66.91-2.49.09-.25.23-.49.34-.74.09.01.17.02.26.03Zm23.17,41.89c1.55-.1,2.82-.34,4.08-.57,3.45-.63,6.81-1.6,10.17-2.59,1.89-.55,3.75-1.22,5.51-2.12.75-.38,1.47-.84,2.14-1.34.54-.41.57-.9.25-1.51-.35-.67-.89-1.13-1.55-1.47-1.12-.57-2.32-.86-3.56-1.09-2.42-.45-4.59-.02-6.64,1.4-3.55,2.48-6.72,5.36-9.73,8.46-.19.19-.34.42-.67.83Z" fill="#fff"/>
    <path d="m167.21,83.25c.22.12.28.18.35.18,2.3.08,4.59.08,6.85-.37,2.58-.51,4.87-1.64,6.88-3.32.86-.72,1.69-1.49,2.54-2.23.62-.54.64-.53,1.53-.66.5-.89,1-1.8,1.53-2.69.62-1.04,1.38-1.98,2.26-2.81.7-.66,1.51-1.02,2.5-1,1.1.02,1.94.46,2.56,1.34.59.83.95,1.76,1.15,2.76.2.99.27,1.99.27,3,.01,1.82-.2,3.61-.8,5.34-.22.64-.54,1.26-.88,1.85-.44.77-1.11,1.15-2.03.95-.82-.18-1.67-.31-2.47-.56-1.42-.45-2.81-.97-4.21-1.47-.42-.15-.82-.33-1.24-.47-.89-.3-1.17-.22-1.77.52-.5.63-.98,1.28-1.48,1.91-1.85,2.33-4.27,3.75-7.17,4.36-.86.18-1.75.3-2.63.35-2.69.17-5.38.33-8.07.42-3.02.1-6.03.15-9.05-.13-.52-.05-1.05-.06-1.57,0-2.77.28-5.55.24-8.32.12-1.65-.08-3.29-.27-4.93-.4-.24-.02-.48-.04-.77-.06-.16.21-.35.42-.49.65-.75,1.24-1.46,2.5-1.93,3.88-.06.19-.16.36-.26.53-.03.05-.15.09-.21.08-.11-.02-.26-.07-.29-.15-.07-.18-.1-.38-.11-.58-.07-1.4.34-2.7.78-3.99.13-.37.27-.74.42-1.13-.19-.13-.31-.23-.45-.3-.9-.41-1.63-1.03-2.29-1.73-.25-.26-.49-.53-.74-.79-.83-.87-1.05-.88-1.99-.06-.54.48-1.07.97-1.62,1.45-1.69,1.5-3.48,2.87-5.55,3.81-.98.45-2.02.78-3.09,1.19-.03.1-.11.24-.14.39-.7,3.92-2.34,7.41-4.76,10.56-1.98,2.57-4.3,4.78-6.94,6.66-1.49,1.06-3.12,1.58-4.96,1.63-2.69.08-5.29-.41-7.86-1.12-2.05-.57-4.08-1.23-6.12-1.86-.23-.07-.47-.16-.65-.3-.13-.1-.17-.31-.25-.47.42-.26.78-.13,1.12-.08,1.72.24,3.43.38,5.17.35,3.76-.07,7.33-.9,10.71-2.54,3.41-1.65,6.33-3.97,8.91-6.72,1.18-1.26,2.26-2.61,3.36-3.95.3-.36.52-.81.67-1.26.18-.53-.15-1-.71-1-.72,0-1.45.07-2.16.15-1.49.17-2.98.21-4.45-.09-.62-.13-1.27-.32-1.81-.64-1.21-.72-1.93-1.81-2-3.25-.14-2.85.31-5.61,1.48-8.23.41-.93.98-1.75,1.69-2.48.49-.5,1.06-.85,1.72-1.09,1.18-.42,2.21-.17,3.13.66.66.6,1.2,1.3,1.64,2.08.78,1.37,1.36,2.82,1.82,4.33.14.46.29.92.45,1.4.63.15,1.22-.01,1.8-.12,1.19-.23,2.33-.63,3.42-1.15,1.97-.95,3.76-2.17,5.57-3.38.53-.36,1.1-.67,1.66-.97.57-.3,1.17-.29,1.74,0,.46.24.92.5,1.36.77.79.49,1.56,1,2.35,1.48.31.19.63.37.96.5,1.03.42,1.38.34,2.12-.47,2.39-2.61,4.84-5.17,7.45-7.56,2.02-1.85,4.13-3.59,6.39-5.15,1.56-1.08,3.18-2.06,4.97-2.7,3.42-1.22,6.73-.95,9.86.93,1.47.88,2.51,2.14,2.88,3.85.21.99.21,2.01.03,3-.54,2.95-2,5.4-4.19,7.42-.2.19-.4.38-.68.64Zm-24.3.85c.5.03.73.06.96.05,1.41-.04,2.81-.08,4.22-.15,3.83-.18,7.59-.8,11.29-1.77,1.91-.5,3.78-1.1,5.58-1.91.88-.4,1.74-.84,2.48-1.47.73-.62.89-1.43.43-2.26-.17-.31-.39-.63-.66-.85-.52-.43-1.07-.85-1.66-1.19-1.06-.6-2.21-.95-3.4-1.19-1.32-.27-2.64-.26-3.93.19-1.02.36-2.05.71-3.03,1.18-4.07,1.94-7.6,4.65-10.81,7.78-.46.44-.87.93-1.48,1.6Zm43.63-6.55c1.73.98,3.47,1.57,5.2,2.17.25.09.53.09.77.12.07-.13.13-.2.14-.27.02-.12.04-.24.03-.36-.14-1.46-.82-2.65-1.85-3.66-.37-.36-.85-.45-1.34-.36-1.35.23-2.33.94-2.95,2.36Zm-71.13,9.26c-.51-1.3-1.23-2.2-2.4-2.7-.66-.28-1.33-.26-1.97.06-.76.39-.96,1.23-.46,1.93.29.41.69.64,1.19.74,1.16.23,2.3.02,3.65-.03Z" fill="#fff"/>
    <path d="m383.64,81.51c.57-.59.96-.99,1.34-1.4,1.92-2.11,3.82-4.25,5.77-6.33,2.12-2.27,4.41-4.34,7.1-5.95,1.51-.91,3.12-1.51,4.91-1.43,2.63.12,5.06.85,7.16,2.51,1.63,1.28,2.28,2.97,2.04,5-.23,1.87-1,3.54-2.02,5.11-2.1,3.25-4.93,5.69-8.31,7.54-3.56,1.94-7.36,3.22-11.3,4.12-2.51.57-5.05.98-7.61,1.26-2.36.26-4.72.45-7.1.51-1.21.03-2.41.08-3.62.09-2.9.04-5.09-1.26-6.72-3.59-1.05-1.5-1.72-3.17-2.29-4.89-.25-.76-.51-1.52-.79-2.38-.25.18-.48.27-.61.44-.68.91-1.61,1.43-2.67,1.77-2.21.7-4.47,1.01-6.78.93-.48-.02-.96-.12-1.43-.23-.45-.11-.69-.42-.65-.89.16-2.3.62-4.54,1.65-6.62.36-.74.91-1.32,1.55-1.82,1.65-1.31,3.47-2.32,5.33-3.28.64-.33,1.28-.68,1.91-1.03.45-.25.64-.63.76-1.15.48-2.07,1.2-4.06,2.11-6.22.14.4.25.6.27.8.11,1.08.19,2.16.29,3.24.18,2.04.31,4.09.54,6.12.27,2.4.7,4.77,1.69,7,.46,1.04,1.06,1.99,1.85,2.8,1.34,1.37,3.04,1.96,4.9,1.99,2.05.04,4.1-.14,6.11-.58.6-.13,1.14-.38,1.64-.72.6-.42.95-.96.9-1.73-.03-.6,0-1.21-.03-1.81-.17-4.34-.66-8.65-1.35-12.94-.8-5-1.62-9.99-2.38-15-.4-2.62-.7-5.26-1.02-7.89-.09-.73-.31-1.4-.66-2.04-.31-.56-.58-1.15-.85-1.73-.28-.61-.34-1.26-.15-1.89.52-1.73,1.09-3.45,1.65-5.17.02-.06.1-.11.15-.16.28.01.29.24.36.42.43,1.05.92,2.06,1.65,2.93.44.52.92,1.01,1.44,1.46.46.39.59.84.45,1.39-.28,1.13-.52,2.27-.85,3.39-.3,1.03-.34,2.02-.17,3.09.85,5.19,1.68,10.39,2.43,15.6.45,3.14.73,6.31,1.06,9.46.32,3.04.37,6.1.26,9.15,0,.15.03.3.08.75Zm1.09,2.92c1.37.06,2.43-.2,3.49-.38,3.69-.65,7.29-1.67,10.87-2.74,1.81-.54,3.59-1.19,5.29-2.03.75-.38,1.47-.83,2.15-1.33.59-.44.63-.96.29-1.6-.36-.66-.91-1.11-1.57-1.45-1.46-.74-3.03-.99-4.64-1.19-1.78-.22-3.36.17-4.82,1.12-.98.63-1.95,1.29-2.87,2-2.52,1.95-4.84,4.12-7.09,6.37-.33.33-.62.7-1.09,1.24Zm-23.11-5.81c-.11-1.63-.21-3.1-.31-4.58,0-.12-.03-.24-.05-.36,0-.03-.04-.07-.06-.09-.03-.02-.07-.03-.11-.04-1.04.81-2.09,1.62-3.12,2.43-.41.32-.82.65-1.19,1.02-.3.3-.63.62-.65,1.09.32.54.86.66,1.36.72,1.35.16,2.7.23,4.14-.19Z" fill="#fff"/>
    <path d="m267.35,73.74c.64-2,1.16-3.93,1.82-5.96.26.24.41.35.52.5.7.9,1.15,1.92,1.48,3.01.8,2.6,1.1,5.27.94,7.98-.12,2.01-.51,3.98-1.45,5.81-.54,1.05-1.26,1.96-2.18,2.7-.74.6-1.59.91-2.54.99-1.91.17-3.59-.4-5.05-1.58-.78-.63-1.56-1.29-2.18-2.07-.93-1.15-1.83-.86-2.68-.12-.36.31-.65.71-.94,1.09-.37.48-.7.98-1.07,1.46-1.63,2.16-3.82,3.39-6.47,3.85-2.18.37-4.33.11-6.47-.33-1.34-.28-2.67-.61-3.98-.97-.66-.18-1.2-.14-1.83.22-1.96,1.14-4.07,1.92-6.35,2.16-1.21.13-2.42.09-3.59-.24-1.86-.53-3.27-1.69-4.36-3.26-.83-1.19-1.47-2.49-1.94-3.87-.27-.8-.52-1.6-.8-2.4-.11-.33-.26-.65-.44-1.07-.25.21-.45.33-.58.51-.64.83-1.48,1.33-2.46,1.66-2.24.75-4.54,1.06-6.89.99-.4-.01-.8-.09-1.19-.17-.79-.16-.97-.36-.92-1.14.05-.76.11-1.53.29-2.27.25-1.09.58-2.17.93-3.24.39-1.17,1.11-2.11,2.1-2.87,1.61-1.23,3.35-2.22,5.14-3.14.64-.33,1.28-.68,1.91-1.03.44-.25.65-.6.77-1.13.48-2.03,1.19-4,2-5.93.03-.06.11-.1.18-.15.25.01.18.23.19.36.24,2.68.46,5.36.7,8.05.18,2.08.46,4.16,1.03,6.17.26.92.6,1.83.97,2.72.36.85.89,1.62,1.53,2.3,1.24,1.32,2.76,2.06,4.59,2.11,1.01.03,2.02,0,2.99-.33.22-.07.43-.2.7-.32,0-.21.03-.41,0-.59-.72-4.02.47-7.55,2.81-10.77,1.3-1.79,2.96-3.17,4.97-4.11.69-.32,1.41-.58,2.19-.62.82-.05,1.39.31,1.77,1,.37.68.59,1.41.65,2.18.26,3.31-.23,6.5-1.51,9.56-.34.8-.86,1.52-1.33,2.32.05.22.28.3.51.36.39.1.79.2,1.18.23,2.45.19,4.91.24,7.34-.26,1.51-.31,2.93-.85,4.28-1.59,1.82-1,3.18-2.44,4.16-4.25.29-.53.6-1.05.93-1.55.07-.11.3-.22.39-.19.16.06.28.24.4.38.04.05.04.16.03.23-.06,1.44.74,2.45,1.76,3.27,2.03,1.63,4.27,1.71,6.59.72.91-.38,1.18-.94,1.04-1.94-.06-.43-.2-.86-.34-1.28-.37-1.11-.92-2.14-1.56-3.12-.22-.33-.44-.67-.68-1.05Zm-26.26,5.8c-.04-.36-.05-.72-.11-1.08-.18-.99-.46-1.95-1.03-2.81-.33-.5-.68-.61-1.24-.45-.19.06-.38.13-.56.22-1.33.66-2.38,1.63-3.18,2.87-.41.64-.47,1.33-.29,2.08.43,1.77,2.97,3.49,5.05,1.57.27-.24.5-.52.76-.77.47-.45.65-1,.59-1.64Zm-24.32-5.93c-.07.02-.17.02-.22.06-1.02.79-2.03,1.58-3.04,2.38-.57.45-1.14.89-1.55,1.51-.29.43-.22.74.28.95.37.15.76.3,1.15.32,1,.04,2.01.02,3.01,0,.31,0,.65-.06.84-.36,0-1.96-.2-4.09-.48-4.86Z" fill="#fff"/>
    <path d="m293.29,105.63c.27-.08.41-.16.56-.17.32-.03.64-.04.96-.03,4.57.13,8.84-1.02,12.91-2.99,5.04-2.44,9.28-5.89,12.69-10.34.98-1.28,1.83-2.63,2.37-4.17.37-1.05.46-2.12.35-3.21-.1-.99-.56-1.82-1.2-2.53-.38.07-.36.36-.42.56-.2.61-.32,1.25-.54,1.85-.19.52-.42,1.05-.71,1.52-.81,1.31-2.04,1.78-3.52,1.58-3.13-.42-5.25-3.21-4.86-6.38.16-1.32.45-2.61.86-3.88.52-1.61,1.13-3.18,1.97-4.65.44-.77.94-1.49,1.6-2.11,1.1-1.04,2.03-1.2,3.4-.5.53.27,1.07.58,1.52.97,2.31,2.01,3.9,4.48,4.42,7.54.17.98.16,2,.11,3-.13,2.81-.53,5.59-1.26,8.32-1.57,5.83-4.62,10.74-9.19,14.69-.79.68-1.63,1.31-2.46,1.94-1.73,1.29-3.7,1.7-5.81,1.58-2.73-.16-5.46-.38-8.15-.88-1.46-.27-2.9-.64-4.34-.99-.41-.1-.86-.2-1.25-.71Zm25.98-26.08c-.58-.82-1.2-1.5-2.03-1.95-.76-.41-1.39-.24-1.86.48-.15.23-.28.49-.37.75-.23.61-.06,1.01.56,1.24,1.15.42,2.28.32,3.39-.17.1-.04.16-.17.31-.35Z" fill="#fff"/>
    <path d="m292,82.11c-.11.27-.19.44-.25.63-.18.62-.31,1.25-.53,1.85-.21.56-.47,1.11-.78,1.62-.74,1.17-1.87,1.62-3.21,1.52-2.79-.2-5.02-2.53-5.14-5.32-.05-1.14.18-2.24.45-3.33.53-2.2,1.31-4.3,2.42-6.28.46-.81,1-1.55,1.68-2.2.92-.88,1.95-1.05,3.11-.53,1.16.52,2.12,1.31,2.96,2.25,1.22,1.36,2.14,2.91,2.77,4.63.53,1.46.62,2.99.54,4.52-.14,2.69-.47,5.36-1.13,7.98-1.13,4.43-3.06,8.45-6.05,11.94-1.6,1.87-3.4,3.53-5.37,5.01-1.97,1.47-4.16,1.98-6.59,1.79-2.09-.17-4.17-.31-6.24-.61-1.95-.28-3.9-.61-5.78-1.21-.44-.14-.94-.21-1.28-.69.18-.08.31-.18.46-.2.32-.04.64-.05.96-.04,5.13.14,9.85-1.29,14.33-3.68,4.43-2.37,8.17-5.55,11.25-9.51,1.04-1.34,1.95-2.75,2.49-4.38.31-.93.46-1.88.37-2.85-.1-1.1-.48-2.07-1.4-2.9Zm-4.9-1.71c.65-.12,1.28-.21,1.89-.38.43-.11.54-.51.25-.84-.4-.44-.81-.9-1.28-1.26-1.21-.93-2.16-.63-2.68.81-.03.07-.05.15-.07.23-.13.52,0,.89.5,1.07.44.16.92.25,1.39.37Z" fill="#fff"/>
    <path d="m80.37,81.22c-.15,2.85-.9,5.85-2.73,8.52-1,1.45-2.28,2.59-3.9,3.31-1.59.71-3.25.9-4.95.52-1.75-.39-2.75-1.56-3.15-3.27-.36-1.56-.21-3.12.1-4.66.54-2.68,1.4-5.27,2.5-7.78.79-1.8,1.66-3.57,2.5-5.34.15-.32.36-.62.57-.92.29-.42.7-.52,1.17-.36.34.12.68.25,1,.42,2.16,1.15,4.03,2.64,5.47,4.63,1.17,1.62,1.48,2.6,1.42,4.93Zm-8.01,5.65c.59-.03.91-.03,1.23-.06.81-.09,1.57-.32,2.27-.75.95-.58,1.18-1.37.7-2.37-.1-.22-.23-.42-.36-.62-.58-.88-1.27-1.66-2.06-2.34-.76-.66-1.53-1.3-2.49-1.67-1.08-.42-1.41-.3-1.92.72-.62,1.23-.92,2.56-1.2,3.9-.04.19-.03.4-.04.6-.04.66.21,1.19.74,1.55.43.29.89.57,1.37.72.65.19,1.33.25,1.74.33Z" fill="#fff"/>
    <path d="m67.53,108.18c.46-.38.83-.31,1.17-.26,2.71.33,5.38.06,8-.64,4.28-1.15,8.02-3.26,11.22-6.32,1.87-1.79,3.56-3.71,4.83-5.98.51-.91.93-1.86,1.23-2.87.34-1.12.35-2.21-.15-3.28-.52-1.13-1.05-2.26-1.61-3.37-.56-1.11-1.15-2.21-1.75-3.3-.43-.78-.53-1.56-.34-2.43.32-1.45.56-2.92.84-4.37.08-.43.17-.86.41-1.18.31-.11.45.07.56.22.39.51.78,1.02,1.12,1.57,1.19,1.91,2.24,3.9,3.14,5.97.6,1.38.86,2.82.9,4.33.07,2.37-.43,4.63-1.05,6.88-1.06,3.77-2.55,7.35-4.59,10.71-.81,1.34-1.71,2.63-2.76,3.79-.71.78-1.48,1.47-2.37,2.04-.86.55-1.79.84-2.84.85-1.94,0-3.85-.16-5.77-.42-1.91-.26-3.82-.51-5.73-.82-1.15-.19-2.28-.47-3.42-.72-.31-.07-.6-.2-1.06-.36Z" fill="#fff"/>
    <path d="m548.02,52.41c.04-.19.05-.39.12-.56,1-2.35,2.38-4.46,4.23-6.23.88-.84,1.91-1.29,3.14-1.32,2.29-.05,4.58-.02,6.85.32.28.04.55.13.83.17,1.51.24,2.41,1.82,2.06,3.26-.89,3.59-2.88,6.31-6.15,8.07-2.15,1.16-4.46,1.78-6.89,2-.4.04-.8.09-1.2.11-.14,0-.29-.05-.49-.1.11-.37.38-.45.61-.57,1.73-.95,3.46-1.87,5.18-2.84,1.15-.65,2.28-1.35,3.4-2.05.43-.27.89-.54,1.11-1.01-.09-.39-.4-.44-.66-.49-.82-.17-1.65-.37-2.49-.45-1.76-.17-3.52-.31-5.29-.26-1.26.04-2.36.41-3.27,1.31-.28.28-.6.51-.9.77-.06-.04-.12-.08-.19-.12Z" fill="#fff"/>
    <path d="m330.81,37.2c.09.75.19,1.5.26,2.25.4,3.88.8,7.75,1.18,11.63.21,2.2.39,4.4.55,6.6.36,4.93.66,9.86,1.04,14.78.26,3.37.53,6.73.48,10.11-.03,2.13-.32,4.24-.61,6.35-.01.09-.13.18-.2.27-.08-.07-.17-.12-.17-.17-.35-2.91-.72-5.82-1.05-8.73-.39-3.51-.75-7.03-1.11-10.54-.21-2.08-.37-4.16-.57-6.24-.28-2.88-.57-5.76-.87-8.63-.26-2.44-.53-4.87-.8-7.31-.1-.88-.2-1.76-.29-2.63-.07-.69-.03-1.36.16-2.03.47-1.62.93-3.24,1.41-4.86.09-.3.24-.58.37-.86.07,0,.14.01.21.02Z" fill="#fff"/>
    <path d="m165.02,51.75c-.81-.54-1.59-1.05-2.34-1.58-.54-.38-.93-.88-1.14-1.51-.17-.5-.22-1.01-.11-1.54.57-2.67,2.11-4.56,4.6-5.66.29-.13.61-.21.93-.24.9-.09,1.58.32,1.88,1.18.15.45.22.94.25,1.41.09,1.25-.11,2.48-.4,3.7-.11.46-.22.93-.33,1.37.72.61,1.39,1.17,2.06,1.75.08.07.12.2.2.35-.3,1.15-.86,2.2-1.61,3.26-.76-.57-1.48-1.12-2.25-1.7-.18.16-.35.26-.46.41-3.64,4.62-8.39,7.69-13.78,9.85-1.94.78-3.93,1.43-5.9,2.13-.22.08-.45.11-.68.17-.09-.44.22-.55.43-.68,1.15-.74,2.3-1.49,3.47-2.19,2.82-1.71,5.68-3.36,8.48-5.1,2.09-1.29,4.09-2.72,5.89-4.39.24-.22.46-.45.68-.68.05-.05.07-.14.13-.29Zm1.77-3.54c.05-.7.11-1.21.11-1.72,0-.31-.03-.64-.13-.94-.27-.88-.92-1.19-1.76-.83-.33.14-.64.33-.92.54-.46.34-.5.68-.13,1.11.71.83,1.63,1.36,2.83,1.84Z" fill="#fff"/>
    <path d="m251.54,112.22c.82-1.67,1.57-3.21,2.31-4.73.11,0,.15-.01.19,0,1.77.79,3.42,1.77,4.95,2.96.37.29.46.65.34,1.07-.52,1.74-1.2,3.4-2.25,4.96-.25-.1-.48-.16-.68-.27-1.37-.77-2.73-1.55-4.09-2.32-.24-.13-.49-.24-.78-.38-1.07,1.4-1.71,3.03-2.77,4.45-.54-.15-.88-.58-1.31-.84-.41-.25-.8-.54-1.21-.8-.44-.28-.89-.54-1.34-.82-.4-.25-.8-.51-1.26-.8.72-1.85,1.51-3.59,2.45-5.33,1.06.18,1.89.75,2.76,1.22.88.48,1.72,1.02,2.7,1.61Z" fill="#fff"/>
    <path d="m214.54,49.75c.79-1.62,1.54-3.15,2.33-4.76.27.11.5.16.7.28,1.15.66,2.29,1.33,3.43,2.01.27.16.51.39.78.57.54.36.74.8.48,1.44-.27.67-.46,1.37-.75,2.03-.32.73-.7,1.44-1.07,2.15-.11.2-.28.37-.46.58-1.89-.9-3.6-2.02-5.43-2.99-.64.68-.97,1.51-1.44,2.25-.47.74-.84,1.54-1.38,2.24-1.72-1.11-3.36-2.17-5.05-3.26.22-1.01.7-1.88,1.12-2.78.4-.86.71-1.78,1.36-2.58,1.96.6,3.55,1.85,5.38,2.82Z" fill="#fff"/>
    <path d="m263.27,53.26c2.02.71,3.64,1.85,5.36,2.85.58-.74.86-1.59,1.26-2.36.4-.78.77-1.57,1.19-2.43,1.79.91,3.48,1.82,5,3.03.38.31.55.67.4,1.16-.49,1.66-1.13,3.26-2.12,4.7-.04.06-.12.1-.22.18-.97-.33-1.83-.93-2.74-1.43-.88-.48-1.74-.99-2.67-1.52-.21.29-.42.52-.57.79-.53.9-1.05,1.81-1.58,2.71-.2.34-.43.66-.68,1.05-.88-.6-1.71-1.15-2.53-1.71-.83-.56-1.74-.98-2.55-1.64.7-1.84,1.51-3.58,2.44-5.35Z" fill="#fff"/>
    <path d="m61.31,58.02c.7-1.86,1.5-3.59,2.44-5.34.31.09.59.12.82.24,1.14.6,2.26,1.22,3.39,1.84.38.21.75.45,1.17.71.58-.72.85-1.56,1.25-2.33.41-.77.76-1.58,1.14-2.37.18.04.31.03.41.08,1.55.77,3.03,1.64,4.44,2.65.63.45.76.97.53,1.66-.53,1.6-1.18,3.15-2.16,4.62-.29-.12-.55-.21-.78-.34-1.33-.75-2.66-1.51-3.99-2.26-.24-.13-.49-.25-.8-.4-1.03,1.44-1.73,3.03-2.74,4.48-.93-.46-1.68-1.14-2.52-1.65-.85-.52-1.7-1.05-2.61-1.61Z" fill="#fff"/>
    <path d="m234.08,51.56c1.97.63,3.58,1.85,5.39,2.85.8-1.63,1.55-3.17,2.34-4.77.25.1.48.15.68.26,1.18.69,2.36,1.38,3.53,2.08.34.21.64.48.96.73.28.22.37.51.3.86-.04.2-.1.39-.16.58-.4,1.35-.98,2.63-1.68,3.86-.12.21-.27.39-.43.64-.24-.08-.48-.12-.67-.23-1.27-.7-2.52-1.42-3.78-2.13-.35-.2-.7-.38-1.1-.61-1.05,1.46-1.75,3.09-2.77,4.52-1.73-1.12-3.38-2.18-5.07-3.28.24-.99.72-1.87,1.13-2.78.4-.87.73-1.78,1.34-2.59Z" fill="#fff"/>
    <path d="m359.5,49.75c-1.81-1.02-3.59-2.02-5.41-3.04-1.06,1.43-1.74,3.02-2.76,4.48-.95-.42-1.68-1.12-2.52-1.63-.85-.52-1.74-.98-2.51-1.56.25-1.18,1.61-4.22,2.4-5.36.2.05.44.06.64.16,1.21.64,2.4,1.29,3.6,1.95.35.19.68.4,1.08.64.58-.72.83-1.58,1.25-2.33.42-.76.69-1.6,1.17-2.35.17.03.29.03.39.08,1.51.76,2.97,1.59,4.33,2.6.19.14.41.28.54.47.12.18.18.43.21.66.02.15-.06.31-.11.47-.46,1.55-1.1,3.01-1.95,4.38-.06.1-.16.18-.36.4Z" fill="#fff"/>
    <path d="m635.16,45.67c.17-1.15.55-2.08.9-3.01.15-.41.51-.6.9-.74,1.01-.39,2.01-.81,3.03-1.18,5.41-1.94,10.82-3.86,16.23-5.79,1.32-.47,2.64-.96,3.96-1.44.33-.12.65-.32,1.01-.2.05.1.13.17.12.23-.14.9-.61,1.65-1.16,2.33-.21.26-.58.43-.91.56-1,.41-2.02.8-3.03,1.18-5.04,1.89-10.09,3.75-15.13,5.66-1.84.7-3.63,1.52-5.45,2.28-.11.05-.23.06-.48.12Z" fill="#fff"/>
    <path d="m312.2,45.18c-.01.13.01.29-.05.43-.17.41-.38.8-.57,1.2-.34.73-.9,1.2-1.66,1.48-2.34.85-4.68,1.73-7,2.61-4.77,1.82-9.54,3.65-14.3,5.48-.67.26-1.32.59-1.99.87-.17.07-.35.11-.65.2.23-1.15.58-2.12.97-3.08.17-.41.55-.57.93-.71,1.62-.62,3.22-1.26,4.85-1.84,5.6-2.01,11.21-4,16.81-5.99.57-.2,1.13-.43,1.69-.63.3-.11.6-.26.96,0Z" fill="#fff"/>
    <path d="m387.19,54.15c0-.24-.04-.41,0-.55.22-.73.47-1.45.7-2.18.17-.53.51-.87,1.05-1.07,1.92-.71,3.82-1.48,5.75-2.17,5.37-1.93,10.75-3.83,16.12-5.74.57-.2,1.12-.44,1.69-.63.21-.07.44-.07.62-.1.08.11.13.14.13.17-.07,1.2-.96,2.56-2.06,3-1.87.74-3.75,1.43-5.63,2.13-5.31,1.98-10.64,3.89-15.87,6.05-.81.33-1.6.7-2.49,1.08Z" fill="#fff"/>
    <path d="m97.27,57.58c.22-1.22.58-2.19.97-3.14.17-.41.54-.57.92-.71,1.46-.56,2.91-1.15,4.39-1.68,5.59-2,11.19-3.99,16.79-5.98.76-.27,1.5-.57,2.26-.84.25-.09.52-.09.89-.15-.04.3-.02.49-.09.66-.11.3-.27.58-.4.88-.38.9-1.04,1.48-1.97,1.81-2.87,1.04-5.73,2.1-8.58,3.18-4.2,1.6-8.4,3.22-12.59,4.84-.82.32-1.62.7-2.59,1.13Z" fill="#fff"/>
    <path d="m571.76,117.56c-1.82-1.37-3.65-2.59-5.6-3.54.16-1.09,1.68-4.63,2.39-5.62,1.86.49,4.8,2.18,5.85,3.37-.2.99-1.69,4.28-2.64,5.78Z" fill="#fff"/>
    <path d="m492.19,58.48c-1.81-1.38-3.66-2.58-5.7-3.59.72-1.91,1.5-3.74,2.42-5.56.82.07,1.47.48,2.13.82.71.36,1.41.76,2.09,1.18.65.39,1.3.78,1.77,1.37-.33,1.23-1.94,4.7-2.71,5.79Z" fill="#fff"/>
    <path d="m267.9,53.55c-1.64-1.01-3.13-1.92-4.7-2.89.13-.94.66-1.8,1.04-2.7.37-.87.7-1.78,1.23-2.56,1.93.51,4,1.67,4.97,2.82-.82,1.73-1.66,3.5-2.54,5.33Z" fill="#fff"/>
  </g>
  <g>
    <g>
      <path d="m701,159.56c-2.21,0-3.7-.91-4.7-2.88-.3-.59-1.07-1.09-1.72-1.12-.76-.03-1.52-.04-2.29-.04h-2.11c-.35,0-.71,0-1.06,0-3.94-.06-6.84-2.26-7.97-6.04-.05-.18-.14-.35-.23-.52v-.02s0-2.6,0-2.6c.06-.13.12-.27.17-.41,1.38-4.44,3.95-6.34,8.62-6.35h2.57c.74,0,1.48,0,2.23-.02.38-.01,1.43-.2,1.71-.89.8-2,2.31-3.03,4.74-3.23l.64-.05v-70.25l-.65-.05c-2.16-.16-3.37-.74-3.9-1.89-.95-2.03-2.44-2.29-3.63-2.29-.27,0-.55.01-.84.04-.44.03-.88.04-1.33.04-.38,0-.77,0-1.16-.02-.35,0-.7-.01-1.04-.02-1.9,0-3.54-.55-5.02-1.65-1.47-1.11-2.44-2.67-3.12-5.06v-2.67l.03-.08c.09-.19.17-.38.23-.58,1.09-3.59,3.96-5.8,7.69-5.9.87-.02,1.73-.04,2.6-.04.98,0,1.96.01,2.94.04h0c1.04,0,1.61-.39,2.02-1.29.84-1.85,2.29-2.75,4.44-2.75h94.61c2.09,0,3.59.94,4.57,2.87.29.58,1.08,1.09,1.72,1.12.73.03,1.47.04,2.21.04h2.05c.44,0,.88,0,1.33,0,3.79.08,6.71,2.29,7.81,5.91.06.2.15.39.23.57l.03.08v2.62c-.07.14-.14.29-.18.44-1.27,4.29-3.93,6.3-8.36,6.33h-2.81c-.75,0-1.5,0-2.24.02-.37.01-1.41.2-1.7.9-.86,2.1-2.45,3.12-5,3.21l-.67.02v70.34h.69c2.46.07,4.03,1.04,4.96,3.09.29.65,1.2.98,1.73,1,.79.03,1.59.03,2.38.03h2.1s.97,0,.97,0c3.04.03,5.35,1.28,6.87,3.72.39.62.65,1.33.92,2.09.12.32.23.63.35.94v2.54c-.08.1-.14.21-.19.35-1.33,4.3-4.04,6.3-8.54,6.31h-2.66c-.76-.01-1.52,0-2.28.04-.65.03-1.42.53-1.72,1.12-1,1.96-2.49,2.88-4.7,2.88-15.72,0-31.45,0-47.17,0s-31.45,0-47.17,0Zm-.95-4.01h96.28v-16.01h-96.28v16.01Zm-10.33-11.91c-.34,0-.69,0-1.03.02-2.1.1-3.76,1.79-3.77,3.85-.01,2.07,1.63,3.77,3.73,3.88.69.04,1.39.05,2.09.05.47,0,.95,0,1.42,0h.7s.99,0,.99,0c.67,0,1.21-.03,1.59-.42.43-.43.43-1.04.42-2.13v-.74c0-2.09,0-3.14-.67-3.82-.62-.62-1.6-.67-3.14-.67h-.68c-.27,0-1.37-.01-1.64-.01Zm112.42,0c-.54,0-.95.14-1.24.44-.29.29-.43.71-.43,1.25.02,1.69.02,3.07,0,4.34-.01.57.13,1,.44,1.31.31.31.75.47,1.34.47.48,0,.9,0,1.32,0h1.88c.73,0,1.45,0,2.18-.03,2.13-.08,3.76-1.73,3.79-3.82.03-2.1-1.66-3.83-3.86-3.92-.32-.01-.65-.02-.97-.02h-1.1s-.47,0-.47,0h-1.67c-.36,0-.72,0-1.09,0h-.11Zm-96.41-8.2h84.55v-70.32h-84.55v70.32Zm-5.73-74.47h96.28v-16.01h-96.28v16.01Zm-7.08-4.11c.31,0,.62,0,.93.03.08,0,.17,0,.24,0,.59,0,1.02-.16,1.33-.48.32-.33.46-.8.44-1.44-.05-1.3-.03-2.55,0-4.06,0-.62-.14-1.07-.45-1.39-.3-.3-.72-.46-1.27-.46-.51,0-.96.01-1.41.01h-1.84c-.75,0-1.51,0-2.26.03-2.12.09-3.75,1.8-3.72,3.9.03,2.05,1.69,3.73,3.79,3.83.34.02.69.02,1.04.02.28,0,1.01,0,1.1,0h.54c.26.01,1.28,0,1.54,0Zm112.81,0c.3,0,.61,0,.91,0,.38,0,.77,0,1.15-.03,1.99-.13,3.62-1.85,3.62-3.85,0-2.03-1.58-3.73-3.6-3.85-.65-.04-1.35-.06-2.22-.06-.46,0-.93,0-1.39.01h-.64s-1.06,0-1.06,0c-.67,0-1.21.03-1.6.42-.43.44-.42,1.04-.42,2.14,0,.26,0,.55,0,.88-.01,2.01-.02,3.02.65,3.69.6.6,1.54.65,2.91.65h.81c.3,0,.59,0,.89,0Z" fill="#010101"/>
      <path d="m748.58,41.66h46.89c1.85,0,3.07.77,3.94,2.49.41.81,1.43,1.47,2.32,1.51.82.03,1.63.04,2.23.04.35,0,.69,0,1.04,0,.34,0,.69,0,1.03,0,.43,0,.87,0,1.3.01,3.47.07,6.14,2.1,7.16,5.42.07.23.16.43.24.6v2.3c-.05.11-.11.25-.15.4-1.17,3.95-3.61,5.81-7.7,5.83h-.68s-1.06,0-1.06,0h-1.07c-.91,0-1.61,0-2.26.03-.62.02-1.91.32-2.32,1.34-.75,1.84-2.1,2.69-4.37,2.78l-1.35.05v71.71l1.37.03c2.19.04,3.52.87,4.33,2.66.4.88,1.5,1.38,2.34,1.41.88.03,1.76.03,2.42.03h1.04s1.03,0,1.03,0c.33,0,.66,0,.99,0,2.82.03,4.88,1.14,6.28,3.39.35.56.59,1.24.86,1.96.1.28.2.56.31.84v2.19c-.06.1-.12.22-.16.36-1.24,4.02-3.67,5.81-7.87,5.82h-.17c-.41,0-.83,0-1.24,0-.42,0-.84,0-1.26,0-.92,0-1.63.02-2.31.05-.9.05-1.89.69-2.31,1.5-.88,1.73-2.13,2.5-4.07,2.5-15.71,0-31.43,0-47.14,0s-31.47,0-47.21,0c-1.94,0-3.2-.77-4.07-2.49-.41-.8-1.43-1.47-2.31-1.5-.85-.04-1.68-.04-2.31-.04-.36,0-.72,0-1.08,0-.35,0-.71,0-1.07,0s-.68,0-1.03,0c-3.61-.05-6.27-2.07-7.31-5.54-.06-.2-.14-.37-.21-.52v-2.27c.05-.11.1-.23.14-.37,1.27-4.1,3.65-5.85,7.95-5.86h.22c.39,0,.78,0,1.17,0,.39,0,.79,0,1.18,0,.9,0,1.59,0,2.24-.03.68-.02,1.93-.33,2.34-1.33.7-1.75,1.98-2.61,4.15-2.79l1.29-.11v-71.55l-1.3-.09c-2.41-.17-3.04-.89-3.32-1.49-1.13-2.41-2.98-2.69-4.27-2.69-.27,0-.55.01-.89.04-.37.03-.78.04-1.27.04-.38,0-.76,0-1.14-.02-.35,0-.7-.01-1.05-.02-1.75,0-3.25-.5-4.6-1.51-1.32-.99-2.2-2.42-2.84-4.59v-2.42c.08-.17.17-.37.24-.6,1-3.29,3.63-5.31,7.04-5.41.82-.02,1.69-.03,2.58-.03s1.87.01,2.92.04h.11c1.21,0,2.06-.56,2.58-1.7.72-1.6,1.93-2.34,3.8-2.34h47.72m-49.28,20.01h97.68v-17.41h-97.68v17.41m104.25-13.28c-.23,0-.43,0-.62,0h-.44c-.62,0-1.47,0-2.09.62-.64.64-.63,1.43-.62,2.63,0,.25,0,.54,0,.87-.01,2.14-.02,3.31.85,4.19.79.79,1.91.86,3.4.86.25,0,.52,0,.81,0,.29,0,.59,0,.88,0,.31,0,.62,0,.93,0,.45,0,.83-.01,1.19-.03,2.39-.15,4.27-2.15,4.27-4.55,0-2.4-1.87-4.4-4.26-4.55-.66-.04-1.38-.06-2.27-.06-.47,0-.94,0-1.41.01h-.26s-.36,0-.36,0m-110.82,0h-.91s-.92,0-.92,0c-.63,0-1.45,0-2.29.04-2.5.1-4.43,2.13-4.4,4.61.03,2.42,1.99,4.4,4.45,4.52.35.02.71.02,1.06.02.08,0,.17,0,.25,0h0s1.4,0,1.4,0c.26,0,.53,0,.79,0,.25,0,.5,0,.75,0,.3,0,.59,0,.89.02.1,0,.2,0,.29,0,.78,0,1.39-.23,1.83-.69.45-.47.67-1.13.64-1.95-.05-1.28-.03-2.52,0-4.02,0-.3.02-1.21-.65-1.89-.43-.44-1.03-.66-1.77-.66h-.06s-.01,0-.01,0c-.45,0-.89.01-1.34.01m12.3,87.75h85.95v-71.72h-85.95v71.72m-5.68,20.11h97.68v-17.41h-97.68v17.41m102.9-4.12h.08c.42,0,.84-.01,1.26-.01h.92s.93,0,.93,0c.61,0,1.4,0,2.21-.04,2.51-.1,4.43-2.04,4.46-4.51.04-2.49-1.95-4.52-4.53-4.63-.33-.01-.67-.02-1-.02-.1,0-.2,0-.3,0h-1.27c-.28,0-.56,0-.85,0-.27,0-.55,0-.82,0-.35,0-.71,0-1.06-.02h-.14c-.73,0-1.32.22-1.74.65-.43.43-.64,1.02-.63,1.75.02,1.68.02,3.05,0,4.32-.01.76.2,1.37.64,1.81.44.45,1.06.68,1.84.68m-111.5,0c.48,0,.95,0,1.43-.01h.37s.33,0,.33,0c.21,0,.4,0,.57,0h.41c.62,0,1.47,0,2.09-.62.64-.64.63-1.43.62-2.63,0-.22,0-.46,0-.74,0-2.21.01-3.43-.87-4.32-.87-.88-2.21-.88-3.63-.88h-.68c-.27,0-.54,0-.81,0-.28,0-.56,0-.84,0-.36,0-.71,0-1.07.02-2.47.12-4.42,2.12-4.44,4.54-.02,2.44,1.91,4.45,4.39,4.59.63.03,1.3.05,2.13.05m57.84-111.88c-15.91,0-31.82,0-47.72,0-2.34,0-4.1,1.02-5.08,3.16-.3.66-.64.88-1.3.88-.02,0-.05,0-.07,0-.98-.02-1.97-.04-2.95-.04-.87,0-1.75.01-2.62.04-4.02.11-7.17,2.56-8.34,6.4-.07.24-.2.47-.3.71v2.92c.6,2.16,1.54,4.12,3.4,5.52,1.61,1.21,3.43,1.79,5.44,1.79.73,0,1.47.03,2.2.03.46,0,.92-.01,1.38-.05.27-.02.53-.03.78-.03,1.28,0,2.28.35,3,1.89.78,1.66,2.59,2.15,4.49,2.29v68.96c-2.47.2-4.37,1.24-5.34,3.66-.1.26-.7.44-1.08.46-.73.02-1.47.03-2.2.03-.78,0-1.57,0-2.35,0-.07,0-.15,0-.22,0-4.94,0-7.83,2.14-9.29,6.84-.05.16-.13.32-.2.47v2.92c.09.19.21.37.27.57,1.21,4.05,4.39,6.48,8.63,6.54.35,0,.7,0,1.05,0,.71,0,1.43,0,2.14,0,.75,0,1.5,0,2.25.04.4.02.95.38,1.13.74,1.12,2.2,2.86,3.26,5.32,3.26h0c15.74,0,31.47,0,47.21,0s31.43,0,47.14,0h0c2.46,0,4.2-1.06,5.32-3.26.18-.36.73-.72,1.13-.74.75-.04,1.49-.05,2.24-.05.83,0,1.67.01,2.5.01.06,0,.11,0,.17,0,4.83-.01,7.79-2.2,9.21-6.81.04-.12.14-.21.22-.31v-2.92c-.45-1.09-.76-2.28-1.38-3.27-1.7-2.72-4.26-4.01-7.46-4.05-.33,0-.67,0-1,0-.69,0-1.38,0-2.07,0-.79,0-1.58,0-2.37-.03-.39-.01-.97-.28-1.11-.59-1.07-2.38-2.94-3.43-5.58-3.49v-68.98c2.59-.09,4.58-1.12,5.62-3.65.11-.27.7-.46,1.07-.47.74-.02,1.48-.03,2.22-.03s1.42,0,2.13,0c.23,0,.46,0,.69,0,4.73-.03,7.68-2.27,9.03-6.83.05-.17.14-.32.21-.48v-2.92c-.1-.23-.22-.46-.3-.7-1.19-3.91-4.36-6.32-8.47-6.41-.44,0-.89-.01-1.33-.01-.69,0-1.38,0-2.07,0-.72,0-1.45,0-2.17-.04-.4-.02-.95-.38-1.13-.74-1.09-2.15-2.78-3.26-5.19-3.26-15.63,0-31.26,0-46.89,0h0Zm-47.88,20.01v-14.61h94.88v14.61h-94.88Zm102.85-10.48c.12,0,.25,0,.38,0,.55,0,1.1-.01,1.65-.01.73,0,1.46.01,2.18.06,1.68.11,2.95,1.52,2.95,3.15,0,1.62-1.31,3.05-2.96,3.15-.37.02-.73.03-1.1.03-.6,0-1.2-.02-1.81-.02-.29,0-.56,0-.81,0-2.86,0-2.87-.27-2.86-3.63.01-2.54-.22-2.74,1.31-2.74.29,0,.64,0,1.06,0h0Zm-110.82,0c.45,0,.91,0,1.36-.01.02,0,.03,0,.05,0,.78,0,1.03.39,1.01,1.13-.02,1.37-.04,2.74,0,4.1.03.88-.33,1.19-1.07,1.19-.06,0-.13,0-.2,0-.32-.02-.65-.03-.98-.03-.51,0-1.02.02-1.54.02,0,0,0-.01,0-.02-.55,0-1.1.01-1.65.01-.33,0-.66,0-1-.02-1.75-.08-3.1-1.46-3.12-3.14-.02-1.67,1.3-3.12,3.05-3.19.74-.03,1.48-.04,2.23-.04.61,0,1.22,0,1.83,0h0Zm13.7,84.95v-68.92h83.15v68.92h-83.15Zm-5.68,20.11v-14.61h94.88v14.61h-94.88Zm101.5-4.12c-.73,0-1.09-.27-1.08-1.06.03-1.45.02-2.91,0-4.36,0-.72.32-.98.97-.98.03,0,.06,0,.09,0,.37.01.74.02,1.11.02.56,0,1.11,0,1.67,0h0c.52.01,1.05,0,1.57,0,.31,0,.63,0,.94.02,1.83.08,3.21,1.49,3.19,3.21-.03,1.7-1.33,3.06-3.12,3.13-.72.03-1.44.03-2.16.03-.62,0-1.23,0-1.85,0-.43,0-.86,0-1.28,0-.02,0-.04,0-.06,0h0Zm-111.5,0c-.69,0-1.37-.01-2.05-.05-1.76-.09-3.08-1.5-3.07-3.18.01-1.68,1.35-3.07,3.11-3.15.33-.02.66-.02,1-.02.55,0,1.1.01,1.65.01.24,0,.47,0,.68,0,3.11,0,3.12.23,3.1,3.79,0,2.41.19,2.59-1.31,2.59-.27,0-.59,0-.98,0-.11,0-.22,0-.34,0-.59,0-1.19.01-1.78.01h0Z" fill="#a91f23"/>
    </g>
    <path d="m789.59,134.73h-83.15v-68.92h83.15v68.92Zm-41.42-43.81c-.49,0-.97,0-1.46,0-7.83,0-15.66,0-23.49,0-1.72,0-2.89,1.1-2.91,2.61-.02,1.5,1.17,2.63,2.84,2.71.26.01.53,0,.8,0,16.14,0,32.29,0,48.43,0,.49,0,.98.02,1.45-.07,1.34-.26,2.27-1.48,2.18-2.78-.09-1.33-1.12-2.35-2.51-2.46-.44-.04-.88-.02-1.33-.02-8.01,0-16.01,0-24.02,0Zm-.06,18.66c6.86,0,13.71,0,20.57,0,1.59,0,3.19.03,4.78-.03,1.46-.06,2.52-1.16,2.57-2.53.05-1.35-.96-2.54-2.38-2.74-.43-.06-.88-.04-1.32-.04-16.1,0-32.2,0-48.3,0-.65,0-1.34.03-1.96.22-1.15.36-1.85,1.53-1.74,2.68.12,1.23,1.07,2.23,2.31,2.38.48.06.97.04,1.46.04,8.01,0,16.01,0,24.02,0Zm.05-32.02c-3.8,0-7.61,0-11.41,0-4.56,0-9.11-.02-13.67.02-1.65.02-2.75,1.15-2.76,2.62,0,1.46,1.1,2.56,2.73,2.68.31.02.62.01.93.01,16.14,0,32.29,0,48.43,0,.48,0,.98,0,1.45-.09,1.3-.24,2.2-1.36,2.17-2.63-.02-1.28-.96-2.35-2.27-2.54-.52-.08-1.06-.07-1.59-.07-8.01,0-16.01,0-24.02,0Zm-5.95,45.38c6.01,0,12.02,0,18.03,0,2.51,0,3.77-.92,3.73-2.72-.04-1.74-1.27-2.61-3.72-2.61-12.06,0-24.13,0-36.19,0-.57,0-1.16,0-1.71.12-1.22.26-2.06,1.38-2.03,2.6.03,1.23.91,2.3,2.15,2.51.52.09,1.06.09,1.58.09,6.05,0,12.11,0,18.16,0Zm33.82-2.68c-.01-1.47-1.28-2.67-2.75-2.62-1.44.05-2.57,1.23-2.56,2.67.01,1.5,1.22,2.66,2.73,2.61,1.44-.04,2.59-1.23,2.58-2.66Z" fill="#fdfbe1"/>
    <path d="m700.7,60.27v-14.61h94.88v14.61h-94.88Z" fill="#fff2a1"/>
    <path d="m795.63,140.24v14.61h-94.88v-14.61h94.88Z" fill="#fff2a1"/>
    <path d="m691.39,56.16c-.88,0-1.77.04-2.64,0-1.75-.08-3.1-1.46-3.12-3.14-.02-1.67,1.3-3.12,3.05-3.19,1.8-.07,3.61,0,5.42-.04.82-.02,1.08.38,1.06,1.13-.02,1.37-.04,2.74,0,4.1.04.95-.39,1.24-1.27,1.18-.83-.05-1.67-.01-2.51-.01v-.02Z" fill="#d2a285"/>
    <path d="m804.84,56.15c-3.67.03-3.68.03-3.66-3.63.02-3.15-.35-2.7,2.75-2.73,1.28-.01,2.56-.04,3.83.05,1.68.11,2.95,1.52,2.95,3.15,0,1.62-1.31,3.05-2.96,3.15-.97.06-1.94.01-2.91.01Z" fill="#d2a285"/>
    <path d="m691.37,144.35c3.79-.02,3.8-.02,3.79,3.78-.01,2.96.29,2.56-2.63,2.59-1.28.01-2.56.03-3.84-.03-1.76-.09-3.08-1.5-3.07-3.18.01-1.68,1.35-3.07,3.11-3.15.88-.04,1.76,0,2.65,0Z" fill="#d2a285"/>
    <path d="m805.01,144.35c.84,0,1.68-.03,2.51,0,1.83.08,3.21,1.49,3.19,3.21-.03,1.7-1.33,3.06-3.12,3.13-1.76.07-3.53,0-5.29.04-.76.01-1.15-.25-1.13-1.06.03-1.45.02-2.91,0-4.36-.01-.75.35-1,1.06-.98.92.03,1.85,0,2.78,0,0,0,0,0,0,.01Z" fill="#d2a285"/>
    <g>
      <path d="m723.19,95.55c-1.29-.06-2.19-.88-2.18-2,.01-1.15.9-1.92,2.21-1.92,3.97,0,7.94-.01,11.91-.01h37.62c.24,0,.47,0,.71.02,1.03.08,1.8.83,1.87,1.81.07.95-.64,1.85-1.61,2.04-.27.05-.57.06-.85.06h-49.36c-.1,0-.2,0-.31,0Z" fill="#010101"/>
      <path d="m735.16,92.32h5.33s5.33,0,5.33,0h.88s.81,0,.81,0h4.57s3.92,0,3.92,0h16.18s.29,0,.29,0h.27c.22,0,.43,0,.64.02.69.06,1.18.52,1.23,1.16.04.61-.42,1.18-1.05,1.31-.21.04-.47.05-.71.05h-.22s-.25,0-.25,0c-11.34,0-22.68,0-34.02,0h-9.17s-5.24,0-5.24,0h-.24s-.22,0-.22,0c-.09,0-.18,0-.27,0-.76-.04-1.52-.45-1.51-1.3.01-.9.79-1.23,1.51-1.23,3.98,0,7.96-.01,11.94-.01m0-1.4c-3.98,0-7.96,0-11.94.01-1.72,0-2.89,1.1-2.91,2.61-.02,1.5,1.17,2.63,2.84,2.71.11,0,.23,0,.34,0,.15,0,.3,0,.46,0,4.81,0,9.61,0,14.42,0,11.34,0,22.68,0,34.02,0h0c.15,0,.31,0,.47,0,.33,0,.66-.01.98-.07,1.34-.26,2.27-1.48,2.18-2.78-.09-1.33-1.12-2.35-2.51-2.46-.25-.02-.51-.03-.76-.03-.19,0-.38,0-.56,0h0c-5.39,0-10.78,0-16.18,0-2.61,0-5.23,0-7.84,0h-.65c-.27,0-.54,0-.81,0-.29,0-.59,0-.88,0-3.56,0-7.11,0-10.67,0h0Z" fill="#a91f23"/>
    </g>
    <g>
      <path d="m768.74,108.89h-45.21c-.27,0-.54,0-.81-.04-.91-.11-1.6-.83-1.69-1.75-.08-.86.45-1.7,1.25-1.95.53-.17,1.16-.19,1.75-.19,10.49,0,20.99,0,31.49,0h17.4c.21,0,.43,0,.64.03,1.05.15,1.82,1.02,1.78,2.02-.04,1.04-.84,1.82-1.9,1.86-.74.03-1.48.04-2.22.04h-2.47Z" fill="#010101"/>
      <path d="m772.91,105.65c.16,0,.36,0,.53.03.7.1,1.2.66,1.18,1.3-.03.67-.53,1.16-1.23,1.19-.64.02-1.32.04-2.2.04-.41,0-.83,0-1.24,0-.42,0-.84,0-1.28,0h-9.44s-5.56,0-5.56,0h-5.56s-4.46,0-4.46,0h-4.46s-15.1,0-15.1,0h-.29s-.27,0-.27,0c-.23,0-.49,0-.73-.03-.58-.07-1.02-.53-1.08-1.13-.05-.54.27-1.06.76-1.21.45-.14,1.03-.16,1.54-.16,10.03,0,20.06,0,30.09,0h15.79s2.41,0,2.41,0h.32s.28,0,.28,0m0-1.4c-.2,0-.4,0-.6,0-6.07,0-12.14,0-18.21,0-10.03,0-20.06,0-30.1,0-.65,0-1.34.03-1.96.22-1.15.36-1.85,1.53-1.74,2.68.12,1.23,1.07,2.23,2.31,2.38.3.04.6.04.9.04.19,0,.37,0,.56,0h0c5.03,0,10.06,0,15.09,0,2.97,0,5.95,0,8.93,0,3.71,0,7.42,0,11.12,0,3.15,0,6.3,0,9.44,0h.03c.83,0,1.66,0,2.49,0,.75,0,1.5,0,2.25-.04,1.46-.06,2.52-1.16,2.57-2.53.05-1.35-.96-2.54-2.38-2.74-.24-.03-.48-.04-.73-.04h0Z" fill="#a91f23"/>
    </g>
    <g>
      <path d="m723.53,82.19c-.15,0-.29,0-.44-.01-1.25-.09-2.09-.89-2.08-1.98,0-1.12.86-1.91,2.07-1.92,2.28-.02,4.55-.03,6.83-.03h42.59c.38,0,.78.01,1.16.07.96.14,1.65.9,1.67,1.86.02.94-.65,1.75-1.6,1.93-.4.07-.83.08-1.32.08h-48.86Z" fill="#010101"/>
      <path d="m729.89,78.96h3.17s3.17,0,3.17,0h.51s4.4,0,4.4,0h3.6s3.42,0,3.42,0h4.59s4.59,0,4.59,0c4.95,0,9.89,0,14.86,0h.15s.15,0,.15,0c.38,0,.74,0,1.07.05.62.09,1.05.57,1.07,1.18.01.6-.42,1.11-1.03,1.22-.34.06-.73.07-1.2.07-10.6,0-21.2,0-31.79,0h-14.88s-1.76,0-1.76,0h-.23s-.21,0-.21,0c-.13,0-.26,0-.38-.01-.7-.05-1.44-.41-1.43-1.27,0-.75.53-1.22,1.38-1.23,2.27-.02,4.54-.03,6.81-.03m0-1.4c-2.27,0-4.55,0-6.82.03-1.65.02-2.75,1.15-2.76,2.62,0,1.46,1.1,2.56,2.73,2.68.16.01.33.02.49.02.15,0,.29,0,.44,0,5.55,0,11.09,0,16.64,0,10.6,0,21.2,0,31.79,0,.48,0,.98,0,1.45-.09,1.3-.24,2.2-1.36,2.17-2.63-.02-1.28-.96-2.35-2.27-2.54-.42-.06-.85-.07-1.27-.07-.1,0-.2,0-.29,0h-.02c-4.95,0-9.89,0-14.84,0-3.06,0-6.12,0-9.17,0-2.34,0-4.68,0-7.02,0-1.47,0-2.93,0-4.4,0-.17,0-.34,0-.51,0-2.11,0-4.23,0-6.34,0h0Z" fill="#a91f23"/>
    </g>
    <g>
      <path d="m723.92,122.24c-.51,0-.93,0-1.34-.08-.88-.15-1.54-.92-1.56-1.84-.03-.91.59-1.71,1.47-1.9.47-.1.99-.11,1.57-.11,7.11,0,14.23,0,21.34,0h14.85c2.97,0,3,1.35,3.02,1.93.01.56-.12.98-.42,1.29-.46.47-1.36.72-2.6.72h-25.29c-3.63,0-11.03,0-11.03,0Z" fill="#010101"/>
      <path d="m746.67,119.01h13.58c2.29,0,2.31.78,2.32,1.24.01.54-.16.71-.22.78-.32.32-1.08.51-2.1.51h-7.65s-5.19,0-5.19,0h-5.19s-3.82,0-3.82,0h-3.82c-3.51,0-7.02,0-10.52,0h-.07c-.46,0-.9,0-1.28-.07-.55-.1-.97-.59-.98-1.17-.02-.57.38-1.08.92-1.2.4-.09.88-.09,1.42-.09,7.54,0,15.08,0,22.62,0m0-1.4c-7.54,0-15.08,0-22.62,0-.57,0-1.16,0-1.71.12-1.22.26-2.06,1.38-2.03,2.6.03,1.23.91,2.3,2.15,2.51.52.09,1.06.09,1.58.09,3.51,0,7.02,0,10.52,0,2.55,0,5.09,0,7.64,0,3.46,0,6.92,0,10.38,0,2.55,0,5.1,0,7.65,0,2.51,0,3.77-.92,3.73-2.72-.04-1.74-1.27-2.61-3.72-2.61-4.53,0-9.05,0-13.58,0h0Z" fill="#a91f23"/>
    </g>
    <g>
      <path d="m773.36,122.22c-1.08,0-1.94-.84-1.95-1.92,0-1.06.82-1.93,1.88-1.96h0c1.12,0,2.02.88,2.03,1.93,0,1.04-.84,1.92-1.9,1.95h-.07Z" fill="#010101"/>
      <path d="m773.36,119.04c.68,0,1.26.57,1.26,1.24,0,.66-.54,1.22-1.26,1.24-.7,0-1.24-.53-1.24-1.22,0-.68.52-1.23,1.2-1.26h.04m0-1.4s-.06,0-.09,0c-1.44.05-2.57,1.23-2.56,2.67.01,1.47,1.18,2.61,2.64,2.61.03,0,.06,0,.09,0,1.44-.04,2.59-1.23,2.58-2.66-.01-1.44-1.23-2.62-2.66-2.62h0Z" fill="#a91f23"/>
    </g>
  </g>
  <text transform="translate(57.35 156.37)" font-family="AdobeArabic-BoldItalic, &apos;Adobe Arabic&apos;" font-size="44" font-style="italic" font-weight="700"><tspan x="0" y="0" fill="#fdbc69">R</tspan><tspan x="20.22" y="0" fill="#fff">equest </tspan><tspan x="110.3" y="0" fill="#fdbc69">M</tspan><tspan x="138.19" y="0" fill="#fff">anuscript / </tspan><tspan x="290.17" y="0" fill="#fdbc69">P</tspan><tspan x="309.31" y="0" fill="#fff">hotocopied </tspan><tspan x="460.6" y="0" fill="#fdbc69">D</tspan><tspan x="484.6" y="0" fill="#fff">ocument</tspan></text>
</svg>