<?xml version="1.0" encoding="UTF-8"?>
<svg id="uuid-9439ff0a-f95f-4da3-b4f3-17874818d636" data-name="Layer 1" xmlns="http://www.w3.org/2000/svg" xmlns:xlink="http://www.w3.org/1999/xlink" viewBox="0 0 1440 1415.86">
  <defs>
    <linearGradient id="uuid-594d8431-228e-49cc-b781-a85bdc8cebf5" x1="720" y1="1415.86" x2="720" y2="0" gradientUnits="userSpaceOnUse">
      <stop offset="0" stop-color="#30a4dc"/>
      <stop offset="1" stop-color="#1c719e"/>
    </linearGradient>
  </defs>
  <path d="m1440,123.8v1292.06H0V125.74l127.5-59.84.49-.23c31.89-14.73,63.82-29.41,95.72-44.19,14.63-6.79,29.2-13.7,43.72-20.72,2.98-1.44,4.68-.76,7.01,1.36,11.01,9.95,22.26,19.63,33.42,29.42,6.92,6.07,13.85,12.15,20.76,18.24,8.62,7.6,17.18,15.24,25.85,22.8,10.93,9.53,22.01,18.9,32.87,28.51,9.13,8.08,18.03,16.4,26.89,24.48,16.93-7.94,33.35-15.75,49.87-23.35,25.7-11.84,51.45-23.58,77.21-35.28,15.95-7.24,31.72-14.91,48.01-21.29,11.59-4.53,23.89-7.33,35.93-10.71,8-2.23,15.99-4.76,24.16-6.02,13.69-2.1,27.5-3.64,41.32-4.75,13.31-1.07,26.68-1.71,40.03-1.77,9.08-.04,18.2,1.06,27.27,1.96,7.64.76,15.24,1.94,22.87,2.98,9.19,1.26,18.51,2.01,27.55,4.01,9.16,2.03,18.06,5.27,27.04,8.06,23.05,7.18,44.87,17.09,66.44,27.78,20.26,10.04,41.05,19.05,61.65,28.43,15.89,7.23,31.86,14.27,47.75,21.52,4.4,2.01,8.75,4.23,12.81,6.83,2.65,1.7,3.98.85,5.97-.91,8.39-7.43,17.01-14.61,25.42-22.01,7.77-6.85,15.32-13.94,23.09-20.8,10.74-9.49,21.61-18.86,32.41-28.3,7.02-6.13,13.98-12.32,21.03-18.44,7.68-6.68,15.47-13.25,23.13-19.96,4.26-3.72,8.49-7.49,12.47-11.49,2.24-2.25,4.12-2.61,7.05-1.22,28.16,13.29,56.36,26.49,84.59,39.63,29.33,13.64,58.71,27.16,88.05,40.78,23.08,10.72,46.11,21.54,69.2,32.22,7.76,3.59,15.63,6.9,23.45,10.33Z" fill="url(#uuid-594d8431-228e-49cc-b781-a85bdc8cebf5)"/>
  <path d="m1237.15,51.1c-2.8,2.45-5.57,4.87-8.3,7.26-8.14,7.1-15.83,13.82-23.59,20.66-9.32,8.23-18.78,16.62-27.93,24.73-10.55,9.35-21.46,19.02-32.21,28.5-10.23,9.02-20.71,18.12-30.84,26.91l-5.56,4.83c-10.19,8.85-20.38,17.68-30.58,26.52-6.54,5.67-13.09,11.34-19.63,17.01-1.42,1.24-2.84,2.48-4.26,3.73-3.27,2.87-6.65,5.84-10.06,8.63-.13.07-.5.17-.84.17h-.08c-15.36-7-33.46-15.29-51.48-23.83-5.43-2.57-10.91-5.31-16.21-7.95-6.32-3.16-12.86-6.43-19.4-9.46-3.95-1.83-8.05-3.39-12.02-4.89-3.55-1.34-7.21-2.73-10.68-4.29-4.76-2.14-9.55-4.52-14.17-6.81-4.21-2.09-8.56-4.25-12.92-6.25-3.32-1.52-6.63-3.05-9.94-4.58-12.63-5.85-25.7-11.9-38.89-17.13-11.13-4.43-23.69-8.46-39.53-12.69-13.77-3.69-27.57-6.23-38.06-8.03-8.46-1.46-17.23-2.02-25.45-2.4l-5.34-.25c-15.19-.72-30.9-1.46-46.38-1.46h-1.5c-6.22.02-12.41,1.05-18.4,2.04-2.77.45-5.63.93-8.42,1.28-2.24.29-4.54.54-6.76.79-4.2.46-8.55.93-12.83,1.69-8.15,1.44-16.3,3.18-24.2,5.17-11.4,2.88-22.54,5.74-33.4,9.18-7.8,2.47-15.38,5.74-23.11,9.15-18.92,8.36-38.88,17.33-61.01,27.4-5.47,2.49-10.96,5.12-16.27,7.67-4.68,2.25-9.51,4.57-14.3,6.77-5.42,2.5-10.97,4.96-16.35,7.34-4.83,2.14-9.83,4.36-14.73,6.6-6.08,2.78-12.2,5.69-18.13,8.5-2.6,1.24-5.21,2.48-7.82,3.71-2.02.95-4.04,1.91-6.07,2.86-6.92,3.28-14.07,6.66-21.14,9.91-.03,0-.09.01-.16.01-.13,0-.23-.02-.29-.03-2.38-1.47-4.34-2.9-5.99-4.37-7.92-7.05-15.95-14.25-23.72-21.21-14.11-12.65-28.7-25.73-43.2-38.45-8.04-7.05-16.37-14.01-24.43-20.74-7.01-5.85-14.25-11.91-21.26-17.98-6.88-5.97-13.71-12.26-20.32-18.34-3.7-3.42-7.54-6.94-11.34-10.39-14.16-12.79-28.63-25.78-42.24-37.99-.02-.01-.03-.02-.05-.04l18.56-8.65,43.76-20.41c1,.84,2.02,1.67,3.03,2.51,3.28,2.7,6.67,5.49,9.92,8.33,9.57,8.36,19.27,16.91,28.64,25.18,3.79,3.33,7.57,6.67,11.36,10,5.13,4.52,10.26,9.03,15.39,13.55,11.93,10.49,24.26,21.34,36.36,32.03,5.07,4.49,10.2,9.08,15.16,13.52,5,4.47,10.17,9.1,15.28,13.62,3.84,3.39,6.57,5.23,10.02,5.23,2.74,0,5.49-1.23,8.79-2.83,9.78-4.74,19.84-9.38,29.56-13.86,3.5-1.61,7-3.22,10.49-4.84,9.5-4.41,19.17-8.86,28.52-13.17l2-.93c6.98-3.21,13.96-6.42,20.93-9.63,12.39-5.7,24.78-11.41,37.17-17.13,2.6-1.2,5.21-2.47,7.73-3.7,4.7-2.29,9.57-4.65,14.45-6.6,10.71-4.27,21.78-8.25,32.49-12.09l3.94-1.41c.91-.33,1.82-.66,2.73-.99,6.12-2.21,12.46-4.5,18.79-6.15,5.68-1.47,11.64-2.54,17.41-3.57,2.16-.39,4.31-.78,6.47-1.18l.56-.11c3.49-.66,7.11-1.35,10.64-1.76,1.24-.14,2.49-.29,3.73-.44,6.12-.72,12.43-1.47,18.62-1.77,3.07-.14,6.15-.3,9.23-.45,11.63-.59,23.65-1.21,35.43-1.21,1.95,0,3.87.02,5.72.05,14.03.26,28.08,1.53,41.76,3.8,14.49,2.4,28.65,6.42,39.37,9.66,14.88,4.5,30.76,9.54,45.99,15.85,11.24,4.65,22.43,10.07,33.25,15.3,5.94,2.88,12.08,5.85,18.18,8.67,12.96,6,26.18,12.01,38.96,17.82,6.22,2.82,12.43,5.64,18.64,8.47,3.87,1.77,7.73,3.54,11.6,5.3,13.26,6.06,26.98,12.33,40.52,18.4.72.33,1.55.49,2.48.49,1.73,0,3.44-.54,4.58-1.45,5.08-4.06,10.29-8.45,15.5-13.06,6.37-5.63,12.82-11.39,19.05-16.96,8.02-7.16,16.31-14.56,24.51-21.77,11.5-10.12,23.29-20.31,34.69-30.17l6.6-5.7c1.91-1.65,3.82-3.31,5.74-4.96,10.55-9.14,21.46-18.59,32.38-27.64.49-.41,1.86-.84,3.21-.85.67,0,1.05.11,1.18.16,6.94,2.42,13.81,5.54,19.62,8.27,11.33,5.33,22.79,10.89,33.87,16.26l7.23,3.51Z" fill="#fbb03c"/>
</svg>