<?xml version="1.0" encoding="UTF-8"?>
<svg id="uuid-e2aaf229-971b-4939-9b61-011782aece23" data-name="Layer 1" xmlns="http://www.w3.org/2000/svg" viewBox="0 0 226 100">
  <path d="m0,0h226v50c0,27.6-22.4,50-50,50H0V0h0Z" fill="#1172ba"/>
  <g>
    <path d="m84.77,59.13c0,3.83-1.34,7.11-4.03,9.84-2.69,2.73-5.94,4.1-9.76,4.1s-7.11-1.34-9.86-4.03c-2.76-2.69-4.13-5.95-4.13-9.78,0-2.76.74-5.27,2.21-7.55,1.48-2.28,3.5-4.06,6.09-5.33l3,5.47c-1.25.93-2.16,1.65-2.73,2.14s-1.1,1.2-1.59,2.14c-.49.93-.73,1.98-.73,3.14,0,2.05.77,3.85,2.3,5.4,1.54,1.55,3.34,2.32,5.41,2.32s3.89-.76,5.46-2.29c1.57-1.53,2.35-3.34,2.35-5.43v-28.81h6.02v28.68Z" fill="#fff"/>
    <path d="m90.34,50.25c0-3.07,1-5.71,2.99-7.92,2-2.21,4.83-3.32,8.51-3.32,2.31,0,4.3.4,5.99,1.19,1.69.8,2.94,1.8,3.76,3,.82,1.21,1.46,2.57,1.94,4.09.47,1.52.65,3.01.54,4.45-.11,1.44-.24,2.77-.38,3.97h3.49v6.08h-5.13c-1.57,3.6-4.1,7.36-7.59,11.28l-5.07-4.07c2.54-2.53,4.5-5.07,5.9-7.62-3.95.8-7.43.18-10.43-1.86-3-2.04-4.5-5.13-4.5-9.28Zm15.65-3.21c-.98-1.3-2.29-1.95-3.91-1.95s-2.91.51-3.87,1.54c-.96,1.03-1.44,2.36-1.44,4.02s.65,2.92,1.94,3.81,2.71,1.3,4.25,1.23,2.98-.17,4.3-.31c.18-1.21.26-2.58.24-4.1s-.53-2.94-1.51-4.24Z" fill="#fff"/>
    <path d="m151.01,61.8h-34.62v-6.08h28.4c-.52-3.69-1.82-6.57-3.9-8.65-2.07-2.07-4.33-3.11-6.77-3.11s-4.81.83-7.11,2.5l-3.66-4.85c3.3-2.51,6.93-3.76,10.89-3.75,3.95.01,7.56,1.65,10.82,4.92,3.26,3.27,5.17,7.58,5.74,12.92.14,1.51.21,3.54.21,6.1Z" fill="#fff"/>
  </g>
</svg>