<?xml version="1.0" encoding="UTF-8"?>
<svg id="uuid-04e56ac6-8e3f-4fb5-b537-e9127e73b7da" data-name="Layer 1" xmlns="http://www.w3.org/2000/svg" viewBox="0 0 1002 92">
  <g>
    <g>
      <rect x=".5" y=".5" width="1001" height="91" rx="20.5" ry="20.5" fill="#fff"/>
      <path d="m981,1c11.05,0,20,8.95,20,20v50c0,11.05-8.95,20-20,20H21c-11.05,0-20-8.95-20-20V21C1,9.95,9.95,1,21,1h960m0-1H21C9.42,0,0,9.42,0,21v50c0,11.58,9.42,21,21,21h960c11.58,0,21-9.42,21-21V21c0-11.58-9.42-21-21-21h0Z" fill="#1172ba"/>
    </g>
    <path d="m.53,1h80c11.04,0,20,8.96,20,20v50c0,11.04-8.96,20-20,20H.53V1h0Z" transform="translate(101.06 92) rotate(-180)" fill="#1172ba"/>
    <path d="m61.9,53.68c6.23-9.1,3.96-20.95-4.12-27.24-7.87-6.11-19.21-5.31-26.11,1.95-6.99,7.31-7.43,18.73-1.1,26.46,6.58,8.04,18.4,9.81,27.14,3.22,4.74,4.79,9.45,9.56,14.12,14.28,1.43-1.45,2.83-2.86,4.28-4.33-4.71-4.76-9.46-9.55-14.21-14.34Zm-16.08,2.59c-7.68.04-13.91-6.22-13.94-14.05-.04-7.7,6.17-14.02,13.82-14.05,7.68-.04,13.96,6.19,14.01,13.89.04,7.88-6.1,14.18-13.89,14.21Z" fill="#fff"/>
  </g>
  <text transform="translate(147.61 56.58) scale(1.11 1)" fill="#676767" font-family="ZahraArabic-Regular, ZahraArabic-Regular" font-size="50"><tspan x="0" y="0">Search the resources of the al-Abbas&apos;s holy shrine library</tspan></text>
</svg>