<?xml version="1.0" encoding="UTF-8"?>
<svg id="uuid-748ed0b1-a049-4f20-bfc2-6043c05672e6" data-name="Layer 1" xmlns="http://www.w3.org/2000/svg" viewBox="0 0 1002 92">
  <g>
    <g>
      <rect x=".5" y=".5" width="1001" height="91" rx="20.5" ry="20.5" fill="#fff"/>
      <path d="m981,1c11.05,0,20,8.95,20,20v50c0,11.05-8.95,20-20,20H21c-11.05,0-20-8.95-20-20V21C1,9.95,9.95,1,21,1h960m0-1H21C9.42,0,0,9.42,0,21v50c0,11.58,9.42,21,21,21h960c11.58,0,21-9.42,21-21V21c0-11.58-9.42-21-21-21h0Z" fill="#1172ba"/>
    </g>
    <path d="m.53,1h80c11.04,0,20,8.96,20,20v50c0,11.04-8.96,20-20,20H.53V1h0Z" transform="translate(101.06 92) rotate(-180)" fill="#1172ba"/>
    <path d="m61.9,53.68c6.23-9.1,3.96-20.95-4.12-27.24-7.87-6.11-19.21-5.31-26.11,1.95-6.99,7.31-7.43,18.73-1.1,26.46,6.58,8.04,18.4,9.81,27.14,3.22,4.74,4.79,9.45,9.56,14.12,14.28,1.43-1.45,2.83-2.86,4.28-4.33-4.71-4.76-9.46-9.55-14.21-14.34Zm-16.08,2.59c-7.68.04-13.91-6.22-13.94-14.05-.04-7.7,6.17-14.02,13.82-14.05,7.68-.04,13.96,6.19,14.01,13.89.04,7.88-6.1,14.18-13.89,14.21Z" fill="#fff"/>
  </g>
  <g>
    <path d="m158.82,54.23c0-3.49,1.26-6.6,3.77-9.32,2.52-2.72,5.66-4.08,9.42-4.08,1.65,0,3.25.3,4.79.91v11.69h2.93v3.15h-20.81c-.07-1.07-.11-1.86-.11-2.34Zm14.54-.81v-9.45c-3.12-.19-5.65.63-7.61,2.44-1.96,1.81-2.98,4.15-3.05,7.01h10.66Zm-8.4-17.83c.39-.35.85-.52,1.4-.52s.99.18,1.36.52c.36.35.54.77.54,1.26s-.18.9-.54,1.23c-.36.33-.81.5-1.36.5s-1.01-.17-1.4-.5c-.39-.33-.58-.74-.58-1.23s.19-.91.58-1.26Zm4.96,0c.39-.35.85-.52,1.39-.52s.99.18,1.36.52c.37.35.55.77.55,1.26s-.18.9-.55,1.23c-.37.33-.82.5-1.36.5s-1-.17-1.39-.5c-.39-.33-.58-.74-.58-1.23s.19-.91.58-1.26Z" fill="#676767"/>
    <path d="m210.23,50.35c0,1.67-.72,3.13-2.17,4.38-1.45,1.25-3.16,1.88-5.14,1.88s-3.76-.59-5.36-1.78c-1.36,1.17-3.05,1.76-5.09,1.76s-3.75-.43-5.14-1.29c-.88.86-1.85,1.29-2.91,1.29h-5.26v-3.15h5.94v-12.45h3.44v9.4c0,.93.35,1.72,1.06,2.37.71.65,1.56.98,2.56.98s1.86-.33,2.59-.98,1.09-1.44,1.09-2.37v-9.4h3.44v9.4c0,.86.38,1.64,1.14,2.32.76.68,1.63,1.03,2.61,1.03s1.85-.33,2.6-.98c.75-.65,1.13-1.44,1.13-2.37v-9.4h3.45v9.37Z" fill="#676767"/>
    <path d="m237.46,53.43v3.15h-21.7v-3.15h15.25c-.11-3.24-1.07-5.66-2.88-7.28-1.81-1.61-4.05-2.42-6.73-2.42-1.37,0-2.78.18-4.2.54v-2.97c1.66-.5,3.29-.74,4.88-.72,3.29,0,6.06,1.07,8.3,3.21,2.24,2.14,3.6,5.35,4.07,9.63h3.01Z" fill="#676767"/>
    <path d="m242.86,48.33c0-1.94.83-3.69,2.48-5.27,1.65-1.58,3.74-2.37,6.25-2.37s4.62.79,6.32,2.37c1.7,1.58,2.55,3.3,2.55,5.16s-.58,3.6-1.74,5.21h4.67v3.15h-26.42v-3.15h7.6c-1.14-1.46-1.71-3.17-1.71-5.1Zm12.24-2.93c-.99-1.04-2.15-1.56-3.47-1.56s-2.47.52-3.44,1.57-1.46,2.17-1.46,3.35.47,2.25,1.42,3.22c.94.97,2.1,1.45,3.47,1.45s2.54-.48,3.51-1.45c.97-.97,1.46-2.05,1.46-3.24s-.5-2.3-1.48-3.34Zm-7.59-9.8c.39-.35.85-.52,1.39-.52s.99.18,1.36.52c.37.35.55.77.55,1.26s-.18.9-.55,1.23c-.37.33-.82.5-1.36.5s-1-.17-1.39-.5c-.39-.33-.58-.74-.58-1.23s.19-.91.58-1.26Zm4.96,0c.39-.35.85-.52,1.39-.52s.99.18,1.36.52c.37.35.55.77.55,1.26s-.18.9-.55,1.23c-.37.33-.82.5-1.36.5s-1-.17-1.39-.5c-.39-.33-.58-.74-.58-1.23s.19-.91.58-1.26Z" fill="#676767"/>
    <path d="m268.79,51.72c0-2.17.85-4.07,2.55-5.72,1.7-1.65,3.73-2.48,6.09-2.48s4.4.79,6.13,2.36c1.73,1.57,2.59,3.44,2.59,5.6,0,.57-.14,1.22-.41,1.95h3.23v3.15h-4.97c-1.82,1.77-4.01,2.66-6.56,2.66s-4.76-.89-6.65-2.66h-8v-3.15h6.32c-.21-.63-.32-1.2-.32-1.71Zm12.3-3.6c-1.08-.97-2.33-1.45-3.77-1.45s-2.64.49-3.62,1.48c-.98.99-1.47,2.08-1.47,3.28s.48,2.28,1.44,3.24c.96.95,2.18,1.43,3.67,1.43s2.75-.47,3.79-1.4c1.04-.94,1.56-2.02,1.56-3.26s-.54-2.34-1.62-3.31Z" fill="#676767"/>
    <path d="m297.79,56.58h-9.39v-3.15h5.94v-19.04h3.45v22.19Z" fill="#676767"/>
    <path d="m306.83,56.58h-3.44v-22.14h3.44v22.14Z" fill="#676767"/>
    <path d="m320.33,54.23c0-3.49,1.26-6.6,3.77-9.32,2.52-2.72,5.66-4.08,9.42-4.08,1.65,0,3.25.3,4.79.91v11.69h2.93v3.15h-20.81c-.07-1.07-.11-1.86-.11-2.34Zm14.54-.81v-9.45c-3.12-.19-5.65.63-7.61,2.44-1.96,1.81-2.98,4.15-3.05,7.01h10.66Zm-8.4-17.83c.39-.35.85-.52,1.4-.52s.99.18,1.36.52c.36.35.54.77.54,1.26s-.18.9-.54,1.23c-.36.33-.81.5-1.36.5s-1.01-.17-1.4-.5c-.39-.33-.58-.74-.58-1.23s.19-.91.58-1.26Zm4.96,0c.39-.35.85-.52,1.39-.52s.99.18,1.36.52c.37.35.55.77.55,1.26s-.18.9-.55,1.23c-.37.33-.82.5-1.36.5s-1-.17-1.39-.5c-.39-.33-.58-.74-.58-1.23s.19-.91.58-1.26Z" fill="#676767"/>
    <path d="m354.79,53.43v3.15h-14.11v-3.15h7.11v-12.45h3.45v12.45h3.55Zm-9.08,6.17c.38-.35.85-.53,1.38-.53s.99.17,1.36.53c.37.35.56.77.56,1.26s-.19.9-.56,1.23c-.37.33-.83.5-1.36.5s-1-.17-1.38-.5c-.38-.33-.58-.75-.58-1.23s.19-.91.58-1.26Zm4.98,0c.38-.35.84-.53,1.38-.53s1,.17,1.37.53c.37.35.56.77.56,1.26s-.19.9-.56,1.23c-.37.33-.83.5-1.37.5s-1-.17-1.38-.5c-.38-.33-.57-.75-.57-1.23s.19-.91.57-1.26Z" fill="#676767"/>
    <path d="m385.28,50.35c0,1.67-.72,3.13-2.17,4.38-1.45,1.25-3.16,1.88-5.14,1.88s-3.76-.59-5.36-1.78c-1.36,1.17-3.05,1.76-5.09,1.76s-3.75-.43-5.14-1.29c-.88.86-1.85,1.29-2.91,1.29h-5.26v-3.15h5.94v-12.45h3.44v9.4c0,.93.35,1.72,1.06,2.37.71.65,1.56.98,2.56.98s1.86-.33,2.59-.98,1.09-1.44,1.09-2.37v-9.4h3.44v9.4c0,.86.38,1.64,1.14,2.32.76.68,1.63,1.03,2.61,1.03s1.85-.33,2.6-.98c.75-.65,1.13-1.44,1.13-2.37v-9.4h3.45v9.37Z" fill="#676767"/>
    <path d="m394.39,53.43h3.5v3.15h-6.94v-22.14h3.44v18.99Z" fill="#676767"/>
    <path d="m408.33,53.43h3.12v3.15h-13.67v-3.15h6.67v-12.45h3.88v12.45Zm-3.4,6.17c.43-.35.94-.53,1.55-.53s1.12.17,1.54.53c.42.35.62.77.62,1.26s-.21.9-.62,1.23c-.42.33-.93.5-1.54.5s-1.12-.17-1.55-.5c-.43-.33-.64-.75-.64-1.23s.21-.91.64-1.26Z" fill="#676767"/>
    <path d="m416.82,48.47c0-2.09.9-3.85,2.69-5.27,1.79-1.42,3.89-2.13,6.31-2.13s4.54.7,6.39,2.09l-2.01,2.53c-1.3-1.24-2.75-1.86-4.34-1.86s-2.85.47-3.77,1.42c-.92.94-1.38,2.1-1.38,3.47s.62,2.49,1.86,3.38c1.24.89,2.66,1.33,4.26,1.33h8.66v3.15h-24.66v-3.15h7.68c-1.12-1.84-1.69-3.49-1.69-4.96Z" fill="#676767"/>
    <path d="m444.25,56.58h-9.39v-3.15h5.94v-19.04h3.45v22.19Z" fill="#676767"/>
    <path d="m453.28,56.58h-3.44v-22.14h3.44v22.14Z" fill="#676767"/>
    <path d="m466.79,54.23c0-3.49,1.26-6.6,3.78-9.32,2.52-2.72,5.66-4.08,9.42-4.08,1.65,0,3.25.3,4.79.91v11.69h2.93v3.15h-20.81c-.07-1.07-.11-1.86-.11-2.34Zm14.54-.81v-9.45c-3.12-.19-5.65.63-7.61,2.44-1.96,1.81-2.98,4.15-3.05,7.01h10.66Zm-8.4-17.83c.39-.35.85-.52,1.4-.52s.99.18,1.36.52c.36.35.54.77.54,1.26s-.18.9-.54,1.23c-.36.33-.81.5-1.36.5s-1.01-.17-1.4-.5c-.39-.33-.58-.74-.58-1.23s.19-.91.58-1.26Zm4.96,0c.39-.35.85-.52,1.39-.52s.99.18,1.36.52c.37.35.55.77.55,1.26s-.18.9-.55,1.23c-.37.33-.82.5-1.36.5s-1-.17-1.39-.5c-.39-.33-.58-.74-.58-1.23s.19-.91.58-1.26Z" fill="#676767"/>
    <path d="m498.12,53.43h3.12v3.15h-13.67v-3.15h6.67v-12.45h3.88v12.45Zm-3.4,6.17c.43-.35.94-.53,1.55-.53s1.12.17,1.54.53c.42.35.62.77.62,1.26s-.21.9-.62,1.23c-.42.33-.93.5-1.54.5s-1.12-.17-1.55-.5c-.43-.33-.64-.75-.64-1.23s.21-.91.64-1.26Z" fill="#676767"/>
    <path d="m511.22,53.43h3.55v3.15h-14.11v-3.15h7.11v-12.45h3.45v12.45Zm-5.42-18.84c.38-.35.85-.52,1.38-.52s.99.18,1.36.52c.37.35.56.77.56,1.26s-.19.9-.56,1.23c-.37.33-.83.5-1.36.5s-1-.17-1.38-.5c-.38-.33-.58-.74-.58-1.23s.19-.91.58-1.26Zm4.98,0c.38-.35.84-.52,1.38-.52s1,.18,1.37.52c.37.35.56.77.56,1.26s-.19.9-.56,1.23c-.37.33-.83.5-1.37.5s-1-.17-1.38-.5c-.38-.33-.57-.74-.57-1.23s.19-.91.57-1.26Z" fill="#676767"/>
    <path d="m520.15,48.47c0-2.09.89-3.85,2.69-5.27,1.79-1.42,3.89-2.13,6.31-2.13s4.54.7,6.39,2.09l-2.01,2.53c-1.3-1.24-2.75-1.86-4.34-1.86s-2.85.47-3.77,1.42c-.92.94-1.38,2.1-1.38,3.47s.62,2.49,1.87,3.38c1.24.89,2.66,1.33,4.26,1.33h8.66v3.15h-24.66v-3.15h7.68c-1.12-1.84-1.68-3.49-1.68-4.96Z" fill="#676767"/>
    <path d="m547.57,56.58h-9.39v-3.15h5.94v-19.04h3.45v22.19Z" fill="#676767"/>
    <path d="m556.61,56.58h-3.45v-22.14h3.45v22.14Z" fill="#676767"/>
    <path d="m570.12,54.23c0-3.49,1.26-6.6,3.78-9.32,2.52-2.72,5.66-4.08,9.42-4.08,1.65,0,3.25.3,4.79.91v11.69h2.93v3.15h-20.81c-.07-1.07-.11-1.86-.11-2.34Zm14.54-.81v-9.45c-3.12-.19-5.65.63-7.61,2.44-1.96,1.81-2.98,4.15-3.05,7.01h10.66Zm-8.4-17.83c.39-.35.85-.52,1.4-.52s.99.18,1.36.52c.36.35.54.77.54,1.26s-.18.9-.54,1.23c-.36.33-.81.5-1.36.5s-1.01-.17-1.4-.5c-.39-.33-.58-.74-.58-1.23s.19-.91.58-1.26Zm4.96,0c.39-.35.85-.52,1.39-.52s.99.18,1.36.52c.37.35.55.77.55,1.26s-.18.9-.55,1.23c-.37.33-.82.5-1.36.5s-1-.17-1.39-.5c-.39-.33-.58-.74-.58-1.23s.19-.91.58-1.26Z" fill="#676767"/>
    <path d="m601.45,53.43h3.12v3.15h-13.67v-3.15h6.67v-12.45h3.88v12.45Zm-3.4,6.17c.43-.35.94-.53,1.55-.53s1.12.17,1.54.53c.42.35.62.77.62,1.26s-.21.9-.62,1.23c-.42.33-.93.5-1.54.5s-1.12-.17-1.55-.5c-.43-.33-.64-.75-.64-1.23s.21-.91.64-1.26Z" fill="#676767"/>
    <path d="m614.55,53.43h3.55v3.15h-14.11v-3.15h7.11v-12.45h3.45v12.45Zm-5.42-18.84c.38-.35.85-.52,1.38-.52s.99.18,1.36.52c.37.35.56.77.56,1.26s-.19.9-.56,1.23c-.37.33-.83.5-1.36.5s-1-.17-1.38-.5c-.38-.33-.58-.74-.58-1.23s.19-.91.58-1.26Zm4.98,0c.38-.35.84-.52,1.38-.52s1,.18,1.37.52c.37.35.56.77.56,1.26s-.19.9-.56,1.23c-.37.33-.83.5-1.37.5s-1-.17-1.38-.5c-.38-.33-.57-.74-.57-1.23s.19-.91.57-1.26Z" fill="#676767"/>
    <path d="m632.51,40.68c2.4,0,4.47.75,6.2,2.24,1.73,1.49,2.59,3.33,2.59,5.5,0,1.5-.66,3.17-1.98,5h4.75v3.15h-26.37v-3.15h14.85c1.33,0,2.47-.48,3.43-1.45.96-.97,1.44-2.06,1.44-3.28s-.48-2.34-1.42-3.34c-.95-1.01-2.11-1.51-3.49-1.51h-9.03v-3.66l7.49-9.5,2.96,1.9-6.56,8.11h5.15Z" fill="#676767"/>
    <path d="m652.04,43.18c1.72-1.6,3.75-2.4,6.09-2.4s4.37.79,6.1,2.37c1.73,1.58,2.59,3.44,2.59,5.58s-.85,3.98-2.55,5.53-3.7,2.32-6,2.32h-14.78v-3.15h7.7c-1.18-1.5-1.76-3.19-1.75-5.05,0-1.86.87-3.59,2.59-5.2Zm9.72,2.19c-1.08-.96-2.33-1.44-3.77-1.44s-2.64.48-3.62,1.45c-.98.97-1.47,2.05-1.47,3.25s.49,2.28,1.47,3.25c.98.97,2.2,1.45,3.67,1.45s2.72-.48,3.77-1.43c1.04-.95,1.56-2.04,1.56-3.26s-.54-2.31-1.62-3.27Z" fill="#676767"/>
    <path d="m687.52,49.38c0,6.1-2.32,11.27-6.97,15.5l-3.01-2.05c4.07-4.46,6.1-9.06,6.1-13.79,0-2.73-.66-5.42-1.98-8.06h4.13c1.15,2.77,1.73,5.57,1.73,8.4Z" fill="#676767"/>
    <path d="m692.97,56.58v-3.15h14.97c-.07-3.22-1.01-5.64-2.82-7.26-1.81-1.62-4.05-2.43-6.73-2.43-1.34,0-2.77.18-4.29.53v-2.96c1.66-.5,3.3-.74,4.91-.72,3.71,0,6.76,1.33,9.15,4s3.61,6.67,3.65,11.99h-18.85Z" fill="#676767"/>
    <path d="m720.72,53.43h3.5v3.15h-6.94v-22.14h3.45v18.99Z" fill="#676767"/>
    <path d="m744.51,40.49c3.9,0,7.16,1.26,9.76,3.79,2.61,2.52,3.96,5.58,4.05,9.15h3.01v3.15h-37.65v-3.15h5.89v-12.26h3.45v5.25c1.74-2.02,3.44-3.51,5.1-4.48s3.8-1.45,6.4-1.45Zm7.25,6.12c-2.03-1.98-4.45-2.97-7.27-2.97s-5.23,1-7.24,2.99c-2.02,1.99-2.9,4.26-2.64,6.8h19.83c.25-2.57-.64-4.85-2.68-6.82Z" fill="#676767"/>
    <path d="m769.31,43.18c1.72-1.6,3.75-2.4,6.09-2.4s4.37.79,6.1,2.37c1.73,1.58,2.59,3.44,2.59,5.58s-.85,3.98-2.55,5.53-3.7,2.32-6,2.32h-14.78v-3.15h7.7c-1.18-1.5-1.76-3.19-1.75-5.05,0-1.86.87-3.59,2.59-5.2Zm9.72,2.19c-1.08-.96-2.33-1.44-3.77-1.44s-2.64.48-3.62,1.45c-.98.97-1.47,2.05-1.47,3.25s.49,2.28,1.47,3.25c.98.97,2.2,1.45,3.67,1.45s2.72-.48,3.77-1.43c1.04-.95,1.56-2.04,1.56-3.26s-.54-2.31-1.62-3.27Z" fill="#676767"/>
    <path d="m802.27,45.65c-.83.92-1.25,1.96-1.25,3.13s.51,2.23,1.53,3.2c1.02.97,2.22,1.45,3.59,1.45h10.55v-6.42c0-1.6.69-3.01,2.06-4.24,1.37-1.23,2.98-1.84,4.83-1.84h5.86v12.5h3.55v3.15h-7v-12.5h-2.21c-.77,0-1.5.3-2.19.9-.68.6-1.03,1.29-1.03,2.05v9.55h-14.27c-2.49,0-4.57-.77-6.24-2.32-1.67-1.55-2.5-3.41-2.5-5.58s.71-3.98,2.14-5.43c1.43-1.45,3.29-2.25,5.59-2.42v3.15c-1.19.2-2.21.75-3.04,1.67Zm9.67,13.94c.39-.35.85-.53,1.39-.53s.99.17,1.36.53c.37.35.55.77.55,1.26s-.18.9-.55,1.23c-.37.33-.82.5-1.36.5s-1-.17-1.39-.5c-.39-.33-.58-.75-.58-1.23s.19-.91.58-1.26Zm5.07,0c.42-.35.94-.53,1.54-.53s1.11.17,1.53.53c.41.35.62.77.62,1.26s-.21.9-.62,1.23c-.41.33-.92.5-1.53.5s-1.12-.17-1.54-.5c-.42-.33-.63-.75-.63-1.23s.21-.91.63-1.26Z" fill="#676767"/>
    <path d="m837.97,48.33c0-1.94.83-3.69,2.49-5.27,1.66-1.58,3.75-2.37,6.27-2.37s4.62.78,6.31,2.34c1.69,1.56,2.54,3.42,2.54,5.6,0,1.3-.34,2.54-1.02,3.71v-.05c-1.81,2.87-4.43,4.3-7.85,4.3h-14.66v-3.15h7.65c-1.16-1.46-1.73-3.17-1.73-5.1Zm12.25-2.93c-.99-1.04-2.14-1.56-3.46-1.56s-2.47.52-3.44,1.57-1.46,2.17-1.46,3.35.47,2.25,1.42,3.22c.95.97,2.11,1.45,3.47,1.45s2.53-.48,3.5-1.45,1.45-2.05,1.45-3.24-.49-2.3-1.48-3.34Zm-4.94-9.8c.39-.35.85-.52,1.39-.52s.99.18,1.36.52c.37.35.55.77.55,1.26s-.18.9-.55,1.23c-.37.33-.82.5-1.36.5s-1-.17-1.39-.5c-.39-.33-.58-.74-.58-1.23s.19-.91.58-1.26Z" fill="#676767"/>
    <path d="m873.69,45.66c-.81.92-1.22,1.97-1.22,3.15s.49,2.25,1.48,3.2c.99.95,2.2,1.43,3.65,1.43h19.45v-12.45h3.45v12.45h2.93v3.15h-25.83c-2.48,0-4.53-.77-6.14-2.32-1.62-1.55-2.43-3.41-2.43-5.6s.71-3.94,2.14-5.26c1.43-1.32,3.29-2.05,5.59-2.2v2.8c-1.23.19-2.25.75-3.07,1.67Zm8.55-4.27c.39-.31.85-.46,1.38-.46s.99.16,1.36.47.56.69.56,1.12-.19.8-.56,1.1c-.37.3-.83.45-1.36.45s-1-.15-1.38-.45c-.38-.3-.58-.67-.58-1.11s.19-.81.58-1.12Zm2.48-3.8c.39-.35.85-.52,1.38-.52s.99.18,1.36.52c.37.35.56.77.56,1.26s-.19.9-.56,1.23c-.37.33-.82.5-1.36.5s-.99-.17-1.38-.5c-.39-.33-.58-.74-.58-1.23s.19-.91.58-1.26Zm2.48,3.8c.38-.31.84-.46,1.38-.46s1,.16,1.37.47c.37.32.56.69.56,1.12s-.18.8-.56,1.1c-.37.3-.83.45-1.37.45s-1-.15-1.38-.45c-.38-.3-.57-.67-.57-1.11s.19-.81.57-1.12Z" fill="#676767"/>
    <path d="m916.93,39.83c3.33,0,6.23,1.12,8.71,3.36,2.92,2.71,4.53,6.13,4.83,10.24h2.85v3.15h-30.38v-3.15h24.09c-.36-3.4-1.53-5.99-3.51-7.78-1.98-1.78-4.06-2.67-6.25-2.67s-4.19.55-6,1.66l-2.12-2.53c2.48-1.52,5.07-2.28,7.79-2.28Z" fill="#676767"/>
    <path d="m943.73,56.58h-10.99v-3.15h7.11v-12.45h3.88v15.6Zm-3.4,3.02c.43-.35.94-.53,1.55-.53s1.12.17,1.54.53c.42.35.62.77.62,1.26s-.21.9-.62,1.23c-.42.33-.93.5-1.54.5s-1.12-.17-1.55-.5c-.43-.33-.64-.75-.64-1.23s.21-.91.64-1.26Z" fill="#676767"/>
    <path d="m952.28,56.58h-3.45v-22.14h3.45v22.14Z" fill="#676767"/>
  </g>
</svg>