<?xml version="1.0" encoding="UTF-8"?>
<svg id="uuid-acb83c70-4ab3-45f3-9f45-1228fee14047" data-name="Layer 1" xmlns="http://www.w3.org/2000/svg" viewBox="0 0 1027.34 241.54">
  <g>
    <path d="m750.67,110.87c-.92,4.48-2.52,7.2-2.71,7.4-.36.38-.7.38-.91.02-.33-.54.84-7.06-.11-21.21-1.86-27.65-6.91-64.83-7.02-72.1,0-.64-.09-3.69-1.04-4.91-.31-.39-.11-.87-.02-1.03.31-.58,3.08-6.99,3.93-9.45.09-.19.52-.54.81.32.1.38,1.83,5.95,4.21,11.42,3.13,7.19,4.28,9.61,4.12,10.79-.22,1.63-1.19,1.49-1.58.94-.83-1.13-1.55-1.85-2.11-2.3-.78-.63-1.25-.67-1.45-.06-.42,1.3.49,7.07,1.48,15.43.98,8.26,1.6,18.22,2.71,28.62,1.41,13.23,1.83,25.71-.3,36.12Z" fill="#1172ba" fill-rule="evenodd"/>
    <path d="m133.33,31.18c0-.24-.6.78-.72,0-.61-2.63,1.16-5.78,2.16-7.81,4.39,2.85-.16,7.49.25,10.53.06.81,5.8,2.33,6.94-.31,1.57-3.69-1.15-6.38-1.68-7.92-.41-1.2.78-3.63,1.2-4.56.1-.16.21-.18.48.14,3.36,3.71,1.54,13.72,9.6,12.82.25-.08.22-.47,0-.72-1.21-1.16-1.36-2.24-2.14-3.65-2.15-3.88-2.77-3.9-.98-8.59.04-.12.16-.23.24,0,.3,1.22.78,2.29,1.37,3.26.78,1.27,1.79,2.86,2.47,4.18,2.1,4.07,1.35,10.56-3.36,10.56-3.71,0-4.49-4.92-5.28-3.36-3.18,7.08-13,5.84-10.56-4.56Z" fill="#1172ba" fill-rule="evenodd"/>
    <path d="m223.57,111.58c.64-.16,1.27-.17,1.68.24,1.58,1.63,3.79,10.01,0,11.52-1.72.68-5.04-1.14-6.58-2.84-.24-.27-.51-.18-.62-.04-3.24,6.39-28.08,15.98-28.08,15.98,0,0-2.31.19-6.92.92-4.61.72-6.8,1.27-7.72,1.4-.11-.04-.22-.35,0-.48,2.14-.79,26.75-9.4,38.23-16.68,3.07-1.87,4.02-4.81,6.16-7.62.9-1.18,2.69-2.07,3.84-2.4Z" fill="#1172ba" fill-rule="evenodd"/>
    <path d="m687.01,113.5c1.94,0,1.92,1.78,1.92,3.12,0,1.68-1.73,3.22-2.4,2.64-.45-.65-.61-.89-1.68-.72-.74.14-1.25.72-1.2,1.68.15.49.43.67.96.72,1.63.01,3.54.08,4.88-.6,1.79-.5,3.47-3.26,4-2.4.42,1.01-.89,4.17-1.44,4.68-3.29,1.57-7.12,5.54-8.58,7.89-1.14,1.83-.3,1.99.05,2.2,2.12,1.29,7.44.91,11.97-1.84,1.25-.76,2.5-1.94,3.4-3.28.08.27.56.99-3.04,5.82-1.84,2.46-5.64,3.76-9.32,4.32-4.05.61-6.24-.83-6.24-3.84,0-1.74,3.1-7.14,3.6-8.4-1.73-.39-3.84-1.22-3.84-3.84-.02-2.07,2.86-7.66,6.96-8.16Z" fill="#1172ba" fill-rule="evenodd"/>
    <path d="m562.21,105.99c-.73,4.51-2.12,7.2-2.31,7.4-.36.38-.7.38-.91.02-.33-.54-.26-2.56-.83-16.73-.63-15.65-4.04-33.51-5.35-47.66-1.08-11.65-1.96-20.81-2-24.04,0-.64-.91-7.29-1.86-8.51-.31-.39-.11-.87-.02-1.03.31-.58,3.08-6.99,3.93-9.45.09-.19.52-.54.81.32.1.38,1.91,5.95,4.29,11.42,3.13,7.19,4.39,10.14,4.23,11.31-.22,1.63-1.19,1.49-1.58.94-.83-1.13-1.55-1.85-2.11-2.3-.78-.63-1.25-.67-1.45-.06-.42,1.3.44,10.14,1.44,18.51.99,8.26,2.52,17.84,3.8,28.21,1.49,12.11,1.59,21.47-.06,31.64Z" fill="#1172ba" fill-rule="evenodd"/>
    <path d="m260.55,106.22c-.92,4.48-2.05,7.2-2.24,7.4-.36.38-.7.38-.91.02-.33-.54,1.08-4.81-.4-16.57-1.15-9.1-9.13-63.5-10.07-72.92-.06-.64-.74-3.81-1.69-5.32-.27-.42-.11-.87-.02-1.03.31-.58,2.9-6.99,3.75-9.45.09-.18.52-.54.81.32.1.38,3.06,7.6,5.44,13.07,3.13,7.19,4.28,9.61,4.12,10.79-.22,1.63-1.19,1.49-1.58.94-.83-1.13-1.55-1.85-2.11-2.3-.78-.63-1.55-.5-1.75.12-.42,1.3,1.31,6.48,2.31,14.85.98,8.26,2.72,18.22,3.83,28.62,1.41,13.23,2.65,21.07.53,31.47Z" fill="#1172ba" fill-rule="evenodd"/>
    <path d="m696.73,50.81c.64-.49,1.94-.25,2.63.83,1.2,1.48.76,2.63.27,4.32-.3.5-.67,1-1.31.74-.51.01-.79-1.94-2.62-1.23-1.34.97-1.78,2.69-2.28,4.71-.63,2.52-1.15,4.91-1.73,7.15-.47,1.81-.5,3.41-1.38,4.3-.26.26-.48.26-.66.04-.61-1.08-.88-2.74-1.57-4.83-.64-1.92-1.51-2.99-2.43-4.28-1.14-1.61-5.41,1.23-6.96-2.72-.23-1.16.45-3.25,1.19-4.36.4-.65.79-.99,1.33-1.25,1.08-.21,1.5-.07,2.06.14,2.61.97,4.3,3.72,5.63,6.52.76,1.6.79,2.04,1.59,4.49.13.41.49.3.54-.2.12-1.44.66-2.78.78-4.22.44-1.82.95-3.59,1.57-5.21.74-1.92,1.68-3.63,3.36-4.95Z" fill="#1172ba" fill-rule="evenodd"/>
    <path d="m616.11,68.48c.64-.48,1.94-.25,2.63.83,1.2,1.48.76,2.63.27,4.32-.3.5-.67,1-1.3.74-.51.01-.79-1.94-2.62-1.23-1.34.97-1.78,2.69-2.28,4.71-.63,2.52-1.15,4.91-1.73,7.15-.47,1.81-.5,3.41-1.39,4.3-.26.26-.48.26-.66.04-.61-1.08-.88-2.74-1.57-4.83-.64-1.92-1.51-2.99-2.43-4.28-1.14-1.61-5.41,1.23-6.96-2.72-.23-1.16.45-3.25,1.19-4.36.4-.65.79-.99,1.33-1.25,1.08-.21,1.5-.07,2.06.14,2.61.97,4.3,3.72,5.63,6.52.76,1.6.79,2.04,1.59,4.49.13.41.49.3.54-.2.12-1.44.66-2.78.78-4.22.44-1.82.95-3.59,1.57-5.21.74-1.92,1.68-3.63,3.36-4.95Z" fill="#1172ba" fill-rule="evenodd"/>
    <path d="m619,2.7c.64-.48,1.94-.24,2.63.83,1.2,1.48.76,2.63.27,4.32-.3.5-.67,1-1.31.74-.51.01-.79-1.94-2.62-1.23-1.34.97-1.78,2.69-2.28,4.71-.63,2.52-1.15,4.91-1.73,7.15-.47,1.81-.5,3.41-1.39,4.3-.26.26-.48.26-.66.04-.61-1.08-.88-2.74-1.57-4.83-.64-1.92-1.51-2.99-2.43-4.28-1.14-1.61-5.41,1.23-6.96-2.72-.23-1.16.45-3.25,1.19-4.36.4-.65.79-.99,1.33-1.25,1.08-.21,1.5-.07,2.06.14,2.61.97,4.3,3.72,5.63,6.52.76,1.6.79,2.04,1.59,4.49.13.41.49.3.54-.2.12-1.44.66-2.78.78-4.22.44-1.82.95-3.59,1.57-5.21.74-1.92,1.68-3.63,3.36-4.95Z" fill="#1172ba" fill-rule="evenodd"/>
    <path d="m492.94,53.26c.64-.48,1.94-.24,2.63.83,1.2,1.48.76,2.63.27,4.32-.3.5-.67,1-1.3.74-.51.01-.79-1.94-2.62-1.23-1.34.97-1.78,2.69-2.28,4.7-.63,2.52-1.15,4.91-1.73,7.15-.47,1.81-.5,3.41-1.39,4.3-.26.26-.48.26-.66.04-.61-1.08-.88-2.74-1.57-4.83-.64-1.92-1.51-2.99-2.43-4.28-1.14-1.61-5.41,1.23-6.96-2.72-.23-1.16.45-3.25,1.19-4.36.4-.65.79-.99,1.33-1.25,1.08-.21,1.5-.07,2.06.14,2.61.97,4.3,3.72,5.63,6.52.76,1.6.79,2.04,1.59,4.49.13.41.49.3.54-.2.12-1.44.66-2.78.78-4.22.44-1.82.95-3.59,1.57-5.21.74-1.92,1.68-3.63,3.36-4.95Z" fill="#1172ba" fill-rule="evenodd"/>
    <path d="m191.31,27.03c.64-.48,1.94-.24,2.63.83,1.2,1.48.77,2.63.27,4.32-.3.5-.67,1-1.31.74-.51.01-.79-1.94-2.62-1.23-1.34.97-1.78,2.69-2.28,4.71-.63,2.52-1.15,4.91-1.73,7.15-.47,1.81-.5,3.41-1.39,4.3-.26.26-.48.26-.66.04-.61-1.08-.88-2.74-1.57-4.83-.64-1.92-1.51-2.99-2.43-4.28-1.14-1.61-5.41,1.23-6.96-2.72-.23-1.16.45-3.25,1.19-4.36.4-.65.79-.99,1.33-1.25,1.08-.21,1.5-.07,2.06.14,2.61.97,4.3,3.72,5.63,6.52.76,1.6.79,2.04,1.59,4.49.13.41.49.3.54-.2.12-1.44.66-2.78.78-4.22.44-1.82.95-3.59,1.57-5.21.74-1.92,1.68-3.63,3.36-4.95Z" fill="#1172ba" fill-rule="evenodd"/>
    <path d="m123.94,45.79c.64-.49,1.94-.25,2.63.83,1.2,1.48.76,2.63.27,4.32-.3.5-.67,1-1.31.74-.51.01-.79-1.94-2.62-1.23-1.34.97-1.78,2.69-2.28,4.7-.63,2.52-1.15,4.91-1.73,7.15-.47,1.81-.5,3.41-1.38,4.3-.26.26-.48.26-.66.04-.61-1.08-.88-2.74-1.57-4.83-.64-1.92-1.51-2.99-2.43-4.28-1.14-1.61-5.41,1.23-6.96-2.72-.23-1.16.45-3.25,1.19-4.36.4-.65.79-.99,1.33-1.25,1.08-.21,1.5-.07,2.06.14,2.61.97,4.3,3.72,5.63,6.52.76,1.6.79,2.04,1.59,4.49.13.41.49.3.54-.2.12-1.44.66-2.78.78-4.22.44-1.82.95-3.59,1.57-5.21.74-1.92,1.68-3.63,3.36-4.95Z" fill="#1172ba" fill-rule="evenodd"/>
    <path d="m71.96,54.08c.64-.49,1.94-.25,2.63.83,1.2,1.48.76,2.63.27,4.32-.3.5-.67,1-1.31.74-.51.01-.79-1.94-2.62-1.23-1.34.97-1.78,2.69-2.28,4.71-.63,2.52-1.15,4.91-1.73,7.15-.47,1.81-.5,3.41-1.38,4.3-.26.26-.48.26-.66.04-.61-1.08-.88-2.74-1.57-4.83-.64-1.92-1.51-2.99-2.43-4.28-1.14-1.61-5.41,1.23-6.96-2.72-.23-1.16.45-3.25,1.19-4.36.4-.65.79-.99,1.33-1.25,1.08-.21,1.5-.07,2.06.14,2.61.97,4.3,3.72,5.63,6.52.76,1.6.79,2.04,1.59,4.49.13.41.49.3.54-.2.12-1.44.66-2.78.78-4.22.44-1.82.95-3.59,1.57-5.21.74-1.92,1.68-3.63,3.36-4.95Z" fill="#1172ba" fill-rule="evenodd"/>
    <path d="m514.33,43.34h.35c-1.93,4.41-4.89,9.31-4.51,14.05.14.75.43,1.72,2.6,1.91,1.3.05,2.12-1.58,2.6-2.95.1-.11.3-.08.35.17v.35c.15,4.8-2.03,7.16-4.16,7.28-9.61-1.2.13-18.43,2.78-20.81Z" fill="#1172ba" fill-rule="evenodd"/>
    <path d="m648.66,113.2h.36c-2.03,4.63-5.13,9.78-4.74,14.75.14.79.45,1.81,2.73,2,1.36.05,2.23-1.66,2.73-3.1.1-.12.31-.08.36.18v.36c.16,5.04-2.14,7.52-4.37,7.65-10.09-1.26.14-19.35,2.91-21.85Z" fill="#1172ba" fill-rule="evenodd"/>
    <path d="m584.64,116.47h.33c-1.83,4.17-4.62,8.8-4.26,13.28.13.71.41,1.62,2.46,1.8,1.22.04,2-1.49,2.46-2.79.09-.1.28-.08.33.16v.33c.14,4.54-1.92,6.77-3.93,6.88-9.08-1.13.13-17.42,2.62-19.67Z" fill="#1172ba" fill-rule="evenodd"/>
    <path d="m535.9,118.84h.32c-1.79,4.09-4.52,8.63-4.18,13.02.13.69.4,1.59,2.41,1.77,1.2.04,1.96-1.46,2.41-2.73.09-.1.27-.07.32.16v.32c.14,4.45-1.88,6.64-3.86,6.75-8.9-1.11.12-17.07,2.57-19.28Z" fill="#1172ba" fill-rule="evenodd"/>
    <path d="m397.97,41.74h.36c-2.03,4.63-5.13,9.78-4.74,14.75.14.79.45,1.81,2.73,2,1.36.05,2.23-1.66,2.73-3.1.1-.12.31-.08.36.18v.36c.16,5.04-2.14,7.52-4.37,7.65-10.09-1.26.14-19.35,2.91-21.85Z" fill="#1172ba" fill-rule="evenodd"/>
    <path d="m338.47,44.06c.18,0,.35,0,.53.01-3.11,6.65-7.79,13.99-7.39,21.21.18,1.14.59,2.63,3.89,3,1.97.12,3.29-2.32,4.07-4.39.16-.16.45-.11.52.28,0,.18,0,.35-.01.53.05,7.31-3.36,10.83-6.61,10.93-14.58-2.18.89-28.04,5-31.58Z" fill="#1172ba" fill-rule="evenodd"/>
    <path d="m313.14,47.85c.09,0,.19,0,.29,0-1.68,3.59-4.2,7.55-3.99,11.46.1.62.32,1.42,2.1,1.62,1.06.06,1.78-1.25,2.2-2.37.08-.09.25-.06.28.15,0,.1,0,.19,0,.29.03,3.95-1.82,5.85-3.57,5.9-7.87-1.18.48-15.14,2.7-17.05Z" fill="#1172ba" fill-rule="evenodd"/>
    <path d="m334.89,7.38c.09,0,.18,0,.27,0-1.59,3.41-3.99,7.18-3.79,10.88.09.59.3,1.35,1.99,1.54,1.01.06,1.69-1.19,2.09-2.25.08-.08.23-.06.27.14,0,.09,0,.18,0,.27.03,3.75-1.73,5.55-3.39,5.61-7.48-1.12.46-14.39,2.57-16.2Z" fill="#1172ba" fill-rule="evenodd"/>
    <path d="m152.86,116.63c.11,0,.22,0,.34,0-1.98,4.23-4.95,8.9-4.7,13.5.12.73.38,1.68,2.47,1.91,1.25.08,2.09-1.48,2.59-2.79.1-.1.29-.07.33.18,0,.11,0,.22,0,.34.03,4.65-2.14,6.89-4.2,6.95-9.27-1.39.57-17.84,3.18-20.09Z" fill="#1172ba" fill-rule="evenodd"/>
    <path d="m88.19,116.32c.11,0,.22,0,.34,0-1.98,4.23-4.95,8.9-4.7,13.5.11.73.38,1.68,2.47,1.91,1.25.08,2.09-1.48,2.59-2.79.1-.1.29-.07.33.18,0,.11,0,.22,0,.34.03,4.65-2.14,6.89-4.2,6.95-9.27-1.39.57-17.84,3.18-20.09Z" fill="#1172ba" fill-rule="evenodd"/>
    <path d="m606.41,119.87c.2-.05.62-.18.82.02,1.58,1.59,7.78,4.82,8.42,6.2-.91,4.19-2.1,6.12-4.54,8.4-.37.07-.69.15-.97-.06-2.44-1.84-6.72-3.94-8.43-5.82.21-3.93,2.84-6.34,4.7-8.74Z" fill="#1172ba" fill-rule="evenodd"/>
    <path d="m443,124.24c.2-.05.62-.18.82.02,1.58,1.58,7.78,4.82,8.42,6.2-.91,4.19-2.1,6.12-4.54,8.4-.37.07-.69.15-.97-.06-2.44-1.84-6.72-3.94-8.43-5.82.21-3.93,2.84-6.34,4.7-8.74Z" fill="#1172ba" fill-rule="evenodd"/>
    <path d="m634.52,57.33s.16-.13.33-.12c.17,0,.35.16.35.16,0,0,6.47,4.85,8.68,6.49.18.13.38.32.53.29.21-.05.53-.51.53-.51,0,0,.86-1.46,1.89-2.89,1.18-1.64,2.57-3.29,2.57-3.29,0,0,.23-.23.45-.21.23.02.47.29.47.29,0,0,2.75,1.63,5.14,3.53,2.25,1.79,4.16,3.84,4.16,3.84,0,0,.2.22.22.48.02.2-.14.41-.13.58-1.75,2.82-5.94,7.74-5.94,7.74,0,0-.25,0-.48-.07-.17-.05-.33-.16-.33-.16l-8.13-5.75s-.8-.52-.8-.52c-.29,0-.35.19-.35.19,0,0-.96,1.74-2.15,3.24-1.24,1.56-2.71,2.88-2.71,2.88,0,0-.17.1-.34.09-.18,0-.35-.13-.35-.13,0,0-1.96-1.47-3.98-3.11-2.39-1.93-4.98-3.72-4.98-3.72,0,0-.16-.2-.16-.42,0-.25.14-.52.14-.52,0,0,1.07-2.15,2.37-4.18,1.38-2.16,2.99-4.22,2.99-4.22Z" fill="#1172ba" fill-rule="evenodd"/>
    <path d="m296.12,121.96s.16-.13.33-.12c.17,0,.35.16.35.16,0,0,6.47,4.85,8.69,6.49.18.13.38.32.53.29.21-.05.53-.51.53-.51,0,0,.86-1.46,1.89-2.89,1.18-1.64,2.57-3.29,2.57-3.29,0,0,.23-.23.45-.21.23.02.47.29.47.29,0,0,2.75,1.63,5.14,3.53,2.25,1.79,4.16,3.84,4.16,3.84,0,0,.2.22.22.48.02.2-.14.41-.13.58-1.75,2.82-5.94,7.74-5.94,7.74,0,0-.25,0-.48-.07-.17-.05-.33-.16-.33-.16l-8.13-5.75s-.8-.52-.8-.52c-.28,0-.35.19-.35.19,0,0-.96,1.74-2.15,3.24-1.24,1.56-2.71,2.88-2.71,2.88,0,0-.17.1-.34.09-.17,0-.35-.13-.35-.13,0,0-1.96-1.47-3.98-3.11-2.39-1.94-4.98-3.72-4.98-3.72,0,0-.16-.2-.16-.42,0-.25.14-.52.14-.52,0,0,1.07-2.15,2.37-4.18,1.38-2.16,2.99-4.22,2.99-4.22Z" fill="#1172ba" fill-rule="evenodd"/>
    <path d="m173.84,54.96s.16-.13.33-.12c.17,0,.35.16.35.16,0,0,6.47,4.85,8.69,6.49.18.13.38.32.53.29.21-.05.53-.51.53-.51,0,0,.86-1.46,1.89-2.89,1.19-1.64,2.57-3.29,2.57-3.29,0,0,.23-.23.45-.21.23.02.47.29.47.29,0,0,2.75,1.63,5.14,3.53,2.25,1.79,4.16,3.84,4.16,3.84,0,0,.2.22.22.48.02.2-.14.41-.13.58-1.75,2.82-5.94,7.74-5.94,7.74,0,0-.25,0-.48-.07-.17-.05-.33-.16-.33-.16l-8.13-5.75s-.8-.52-.8-.52c-.28,0-.35.19-.35.19,0,0-.96,1.74-2.15,3.24-1.24,1.56-2.71,2.88-2.71,2.88,0,0-.17.1-.34.09-.18,0-.35-.13-.35-.13,0,0-1.96-1.47-3.98-3.11-2.39-1.93-4.98-3.72-4.98-3.72,0,0-.16-.2-.16-.42,0-.25.14-.52.14-.52,0,0,1.07-2.15,2.37-4.18,1.38-2.16,2.99-4.22,2.99-4.22Z" fill="#1172ba" fill-rule="evenodd"/>
    <path d="m34.87,53.83c.07.23.18.42.14.67-.22,1.43-1.61,4.7-2.99,7.12-.08.21-.21.46-.14.59.1.19.63.38.63.38,0,0,2.37,1.71,3.92,2.57,1.95,1.08,3.62,2.53,4.26,3.05.18.15.28.4.32.62.04.23-.15.53-.32.87-.22.44-.75,1.46-1.92,3.76-1.31,2.56-2.1,4.29-2.1,4.29,0,0-.16.25-.41.34-.18.07-.43-.02-.59.03-3.21-2.92-8.75-6.19-8.75-6.19,0,0-.06-.25-.06-.48,0-.18.07-.35.07-.35l3.09-6.2s.46-.82.45-.83c-.07-.27-.42-.62-.42-.62,0,0-3.03-2.4-4.69-3.35-1.73-.99-4.3-3.04-4.3-3.04,0,0-.14-.14-.17-.31-.04-.17.03-.37.03-.37,0,0,.82-1.65,1.99-3.98,1.33-2.65,2.81-4.57,2.81-4.57,0,0,.15-.2.36-.26.24-.07.54,0,.54,0l4.37,3.08s3.63,2.45,3.88,3.21Z" fill="#1172ba" fill-rule="evenodd"/>
    <path d="m279.67,56.23c.07.23.18.42.14.67-.23,1.43-1.61,4.7-2.99,7.12-.08.21-.21.46-.14.59.1.19.63.38.63.38,0,0,2.37,1.71,3.92,2.57,1.95,1.08,3.62,2.53,4.26,3.05.18.15.28.4.32.62.04.23-.15.53-.32.87-.22.44-.75,1.46-1.92,3.76-1.31,2.56-2.1,4.29-2.1,4.29,0,0-.16.25-.41.34-.18.07-.44-.03-.59.03-3.21-2.92-8.75-6.19-8.75-6.19,0,0-.06-.25-.06-.48,0-.18.07-.35.07-.35l3.09-6.2s.46-.82.45-.83c-.07-.27-.42-.62-.42-.62,0,0-3.03-2.4-4.69-3.35-1.73-.99-4.3-3.04-4.3-3.04,0,0-.14-.14-.17-.31-.04-.17.03-.37.03-.37,0,0,.82-1.65,1.99-3.98,1.33-2.65,2.81-4.57,2.81-4.57,0,0,.15-.2.36-.26.24-.07.54,0,.54,0l4.37,3.08s3.63,2.45,3.87,3.21Z" fill="#1172ba" fill-rule="evenodd"/>
    <path d="m577.89,60.76c.07.23.18.42.14.67-.23,1.43-1.61,4.7-2.99,7.12-.08.21-.21.46-.14.59.1.19.63.38.63.38,0,0,2.37,1.71,3.92,2.57,1.95,1.08,3.62,2.53,4.26,3.05.18.15.28.4.31.62.04.23-.15.53-.31.87-.22.44-.75,1.46-1.92,3.76-1.31,2.56-2.1,4.29-2.1,4.29,0,0-.16.25-.41.34-.18.07-.43-.02-.59.03-3.21-2.92-8.75-6.19-8.75-6.19,0,0-.06-.25-.06-.48,0-.18.07-.35.07-.35l3.09-6.2s.46-.82.46-.83c-.07-.27-.42-.62-.42-.62,0,0-3.03-2.4-4.69-3.35-1.73-.99-4.3-3.04-4.3-3.04,0,0-.14-.14-.17-.31-.04-.17.03-.37.03-.37,0,0,.82-1.65,1.99-3.98,1.33-2.65,2.81-4.57,2.81-4.57,0,0,.15-.2.36-.26.24-.07.54,0,.54,0l4.37,3.08s3.63,2.45,3.87,3.21Z" fill="#1172ba" fill-rule="evenodd"/>
    <path d="m426.7,118.31s.38-.08.6.33c-.07,2.93-1.21,4.08-1.21,4.08,0,0-32.16,12.59-34.37,15.17-1,.03-1-.07-1.03-.48.28-1.15.82-3.06,1.49-3.67,1.38-1.25,4.53-2.45,4.53-2.45l30-12.99Z" fill="#1172ba" fill-rule="evenodd"/>
    <path d="m106.32,6.23s.41-.05.61.4c-.28,3.12-1.56,4.07-1.56,4.07,0,0-66.24,21.08-68.79,23.67-1.07-.04-1.06-.15-1.06-.59.38-1.21,1.06-3.01,1.83-3.61,1.57-1.24,5.02-2.29,5.02-2.29L106.32,6.23Z" fill="#1172ba" fill-rule="evenodd"/>
    <path d="m203.42,7.83s.27-.06.44.23c.03,2.12-.98,4.27-.98,4.27,0,0-43.09,18.82-44.62,20.74-.72.05-.73-.02-.76-.32.17-.84.72-3.52,1.19-3.98.97-.94,3.22-1.89,3.22-1.89l41.51-19.05Z" fill="#1172ba" fill-rule="evenodd"/>
    <path d="m712.42,0s.6-.03.84.66c-.81,4.48-2.56,4.69-2.56,4.69,0,0-31.93,6.99-64.21,14.74-30.7,7.37-61.71,15.43-65.87,18.83.2-.16-.22.51-.11.73.51.96,4.63,1.86,6.51,2.04.33.03.33.23.41.25.11,1.29-.3,3.46-.99,4.32-1.69-.05-4.96-.39-7.1-2.06-1.82-1.42-.63-5.68.47-7.92,1.55-4.5,33.54-12.96,65.7-20.78C678.87,7.38,712.42,0,712.42,0Z" fill="#1172ba" fill-rule="evenodd"/>
    <path d="m702.42,20.73s.49-.02.69.55c-.68,3.72-2.12,3.89-2.12,3.89,0,0-26.5,6.76-53.29,13.19-25.48,6.12-49.9,14.85-53.35,17.67.17-.14-.19.43-.09.6.42.8,3.85,1.54,5.4,1.69.28.03.28.19.34.21.09,1.07-.25,2.87-.82,3.59-1.41-.05-4.11-.32-5.89-1.71-1.51-1.18-.52-4.72.39-6.58,2.12-5.05,26.51-12.8,53.21-19.29,27.69-6.73,55.53-13.82,55.53-13.82Z" fill="#1172ba" fill-rule="evenodd"/>
    <path d="m411.54,2.19s.59-.09.9.57c-.35,4.54-2.06,4.93-2.06,4.93,0,0-29.62,9.8-60.93,20.84-29.77,10.49-59.79,21.71-63.58,25.52.18-.18-.17.53-.04.73.6.9,4.8,1.37,6.68,1.36.33,0,.36.2.43.21.24,1.27.06,3.47-.54,4.4-1.69.12-4.97.12-7.27-1.32-1.95-1.22-1.21-5.59-.35-7.93,1.08-4.63,32.02-16.35,63.21-27.44,32.34-11.5,63.54-21.86,63.54-21.86Z" fill="#1172ba" fill-rule="evenodd"/>
    <path d="m520.32,2.99s.59-.08.89.58c-.41,4.54-2.13,4.9-2.13,4.9,0,0-9.69,3.46-41.14,14.08-29.91,10.1-43.75,15.87-47.59,19.63.19-.18-.18.53-.05.73.59.91,4.78,1.44,6.66,1.45.33,0,.35.2.43.21.23,1.28.02,3.48-.6,4.39-1.69.1-4.97.06-7.25-1.41-1.94-1.25-1.13-5.6-.24-7.93,1.62-4.14,15.92-10.88,47.25-21.55,32.49-11.07,43.76-15.07,43.76-15.07Z" fill="#1172ba" fill-rule="evenodd"/>
    <path d="m517.61,25s.59-.1.91.55c-.26,4.55-1.97,4.96-1.97,4.96,0,0-9.57,4.18-40.66,15.82-29.56,11.07-40.17,14.65-43.88,18.53.18-.19-.16.54-.02.73.62.89,4.83,1.28,6.71,1.23.33,0,.36.19.44.2.27,1.27.13,3.47-.46,4.41-1.69.15-4.97.22-7.29-1.18-1.98-1.19-1.32-5.56-.5-7.92,1.32-3.39,12.51-8.75,43.48-20.45,32.11-12.12,43.25-16.89,43.25-16.89Z" fill="#1172ba" fill-rule="evenodd"/>
    <path d="m163.09,5.39s.57-.08.86.52c-.33,4.16-1.98,4.51-1.98,4.51,0,0-28.52,8.97-58.65,19.07-28.66,9.6-57.55,19.55-61.2,23.04.18-.17-.16.49-.04.67.58.83,4.62,1.26,6.43,1.25.32,0,.34.18.42.19.23,1.16.06,3.18-.52,4.03-1.63.11-4.79.11-7-1.21-1.88-1.12-1.16-5.11-.33-7.26,1.04-4.24,30.82-14.64,60.85-24.79,31.13-10.53,61.16-20.01,61.16-20.01Z" fill="#1172ba" fill-rule="evenodd"/>
    <path d="m431.28,4.99c-.14.16-1.06,3.79-1.06,3.79,0,0-.21.49.2.87,1.43,1.33,5.36,5.74,7.93,10.35,3.07,5.51,2.23,9.2,1.24,12.47-.2.66.57.17.66-.02,1.36-2.83,2.79-8.19,1-13.88-2.01-6.39-8-12.23-9.45-13.51-.2-.18-.38-.23-.52-.07Z" fill="#1172ba" fill-rule="evenodd"/>
    <path d="m496.71,116.9c1.94,0,1.92,1.78,1.92,3.12,0,1.68-1.73,3.22-2.4,2.64-.45-.65-.6-.89-1.68-.72-.74.14-1.25.72-1.2,1.68.15.49.43.67.96.72,1.63.01,3.54.08,4.88-.6,1.78-.5,3.47-3.26,4-2.4.42,1.01-.89,4.17-1.44,4.68-3.29,1.57-7.12,5.54-8.58,7.89-1.14,1.83-.3,1.99.05,2.2,2.12,1.29,7.44.91,11.97-1.84,1.26-.76,2.5-1.94,3.4-3.28.08.27.56.99-3.04,5.82-1.84,2.46-5.64,3.77-9.32,4.32-4.05.61-6.24-.83-6.24-3.84,0-1.74,3.11-7.14,3.6-8.4-1.73-.39-3.84-1.22-3.84-3.84-.02-2.06,2.86-7.65,6.96-8.16Z" fill="#1172ba" fill-rule="evenodd"/>
    <path d="m35.87,135.6c-4.83,1.11-4.91.98-5.49.77l-.07-.07c-.75-1.06,4.41-2.58,10.35-5,6.37-2.59,12.51-6.92,18.3-11.72,3.1-2.39,8.37-5.3,11.52-5.48.79.04,1.58-.03,2.94.54,1.28.57,1.88.61,2.9.61,1.12.13,3.14-1.01,4.04-2.05.93-1.2,2.08-3.56,2.52-4.12.44-.56,1.34-1.41,1.64-1.43.3-.02.44.47.43.71-.01.24-.41,1.54-.06,3,.17.57.82,1.35,2.87,1.35h.77c.44-.68.01-.01-.49-1.73-.14-.43.24-1,.57-1.93.61-1.51.98-2.65,1.2-2.51.86.86,1.2,2.41,1.41,3.77.47,3.15-1.53,6.3-2.27,6.84-2.31,1.45-5.74-.9-6.13-1.45-.12-.17-.68-.26-.98-.05-1.69,2.19-4.48,4.32-7.28,4.32-1.87,0-3.69-1.16-4.96-1.14-2.24,0-4.62,1.05-5.23,1.26-3.28,1.65-7.18,4.76-11.7,7.88-4.55,3.14-9.72,6.29-16.82,7.61Z" fill="#1172ba"/>
    <path d="m294.76,84.01c0-.24-.6.78-.72,0-.61-2.63,1.16-5.78,2.16-7.82,4.39,2.85-.16,7.49.25,10.53.06.8,5.8,2.33,6.95-.32,1.57-3.69-1.15-6.38-1.68-7.92-.41-1.2.78-3.63,1.2-4.56.1-.16.21-.18.48.14,3.36,3.71,1.54,13.72,9.6,12.82.25-.08.22-.47,0-.72-1.21-1.16-1.36-2.24-2.14-3.65-2.15-3.88-2.77-3.9-.98-8.59.03-.12.16-.23.24,0,.3,1.22.78,2.29,1.37,3.26.78,1.27,1.79,2.86,2.47,4.18,2.1,4.07,1.35,10.56-3.36,10.56-3.71,0-4.49-4.92-5.28-3.36-3.18,7.08-13,5.84-10.56-4.56Z" fill="#1172ba" fill-rule="evenodd"/>
    <path d="m438.39,82.04c0-.24-.6.78-.72,0-.61-2.63,1.16-5.78,2.16-7.82,4.39,2.85-.16,7.49.25,10.53.06.8,5.8,2.33,6.95-.32,1.57-3.69-1.15-6.38-1.68-7.92-.41-1.2.78-3.62,1.2-4.56.1-.16.21-.18.48.14,3.36,3.71,1.54,13.72,9.6,12.82.25-.08.22-.47,0-.72-1.21-1.16-1.36-2.24-2.15-3.65-2.15-3.88-2.77-3.9-.97-8.59.04-.12.16-.23.24,0,.3,1.22.78,2.29,1.37,3.26.78,1.27,1.79,2.86,2.47,4.18,2.1,4.07,1.35,10.56-3.36,10.56-3.71,0-4.49-4.92-5.28-3.36-3.18,7.08-13,5.84-10.56-4.56Z" fill="#1172ba" fill-rule="evenodd"/>
    <path d="m18.22,68.34s.45-.91.68-1.1c.19-.15.33-.04.39.1.19.37.11,1.29.11,1.29-1.28,12.38-4.48,18.74-9.75,19.18-5.4.46-8.6-3.8-9.5-12.9-.81-11.18,1.55-23.02,6.91-36.01,1.41-3.1,2.42-4.93,2.55-5,.13-.07.19,0,.15.25-.04.23-.32,2.36-1.1,5.26-3.16,13.07-4.73,22.25-4.43,27.27.72,7.04,2.94,10.22,6.78,9.9,2.44-.21,4.82-2.86,7.2-8.23Z" fill="#1172ba"/>
    <path d="m95.01,32.3c-3.81,7.84-8.91,16.39-8.45,24.81.22,1.42.73,3.27,4.82,3.72,2.45.15,4.08-2.88,5.05-5.45.19-.2.56-.14.65.34,0,.22-.01.44-.02.65.06,9.07-4.17,13.43-8.2,13.56-16.24-2.43-2.43-28.53,4.26-37.02.55-.17.94-.31,1.89-.63Z" fill="#1172ba" fill-rule="evenodd"/>
    <path d="m690.79,27.74c-1.79,3.84-4,8.02-3.67,12.06.13.72.41,1.65,2.49,1.83,1.24.04,2.03-1.51,2.49-2.82.1-.11.28-.08.33.17v.33c.14,4.6-1.95,6.86-3.99,6.98-7.93-.99-2.1-13.39,1.28-18.27.29-.07.68-.18,1.06-.27Z" fill="#1172ba" fill-rule="evenodd"/>
    <path d="m459.46,10.54c-1.24-2.33-3.05-3.46-5.25-4.56-.33-.42.08-1.63.4-2.4h-.88c-3.67,5.3-6.8,14.51-.96,16.56,2.16.76,8.09-1.54,6.69-9.6Zm-1.89,4.32c-.61.51-2.32.89-2.96.91-1.53-.35-2.11-.73-3.04-2.35-.11-1.68.26-2.12.72-2.88.32-.27.56-.19.96-.05,1.36,1.05,3.16,2.47,4.32,3.65.27.21.27.56,0,.72Z" fill="#1172ba" fill-rule="evenodd"/>
    <path d="m296.17,15.82c-.4-.71-1.89-2.49-4.18-4.77-1.45-1.44-3.05-3.23-5.42-4.59-.35-.06-1.06-.63-1.85.41-.48.63-1.08,2.32-1.5,4.29-.1.44.95.51.43,1.4-.61,1.03-1.07,2.24-1.39,3.25-.38,1.19-.79,2.56-.09,3.42.83,1.07,2.52,1.48,4.67,1.4-.05.46-1.26,2.09-3.47,4.65-2.31,2.69-5.65,5.87-7.97,7.92-4.86,4.36-8.4,6.72-10.69,8.68-5.35,4.56-4.99,4.63-4.94,4.83.02.1.13.09.29.09.22,0,1.02-.51,2.02-1.11,6.69-4,9.74-6.22,10.29-6.8,2.55-2.03,6.33-5.46,9.77-8.95,1.74-1.79,3.57-4.2,4.74-5.99.96-1.47,1.35-2.17,1.55-2.49.37-.6,1.15-.38,1.65,0,1.7,1.31,3.54,2.26,5.14,1.55,1.73-.77,2.13-5.39.96-7.2Zm-8.4.96c-.7.19-2.82-.26-3.12-.48-.26-.21-.19-.71,0-1.2.05-.1.24-.41.49-.48,1.19-.35,2.41.83,2.64,1.44.14.28.17.71,0,.72Zm6.48,1.92c-.55.71-3.78-1.36-4.08-1.68-.28-.14-.17-1.6.48-1.68.46-.08,3.93,2.99,3.6,3.36Z" fill="#1172ba" fill-rule="evenodd"/>
    <path d="m413.17,91.18c-.58-1.65-1.53-3.93-2.36-5.15-.11-.19-.29-.32-.52-.13-1.32,3.03-5.04,10.09-1.3,12.96.33.28.15,1.02-.32,1.14-5.51,1.25-10.66-2.26-11.33-3.33-.57-3.07,1.81-6.81.86-8.13-.39-.65-.95.18-1.04.28-2,2.19-2.86,3.52-4.15,5.72-1.07,1.82-1.88,3.51-3.03,5.33-1.49,2.37-6.92,6.78-12.93,5.32-2.11-.52-4.71-2.36-4.79-3.23-.25-1.21,0-3.51.84-6.22.58-2.4-.43-1.74-.88-1.41-1.54,1.42-6.69,5.56-10.9,7.64-4.99,2.47-9.65,4.3-14.98,4.3-3.16,0-9.82-1.08-13.05-3.48-4.13-3.07-5.76-5.21-5.36-10.86.08-1.07-.33-1.4-.93-1.22-1.42.51-3.63,1.84-4.8,3.36-4.92,6.39-7.08,11.3-16.56,12-2.55.19-6.17-.69-8.4-2.19-4.16-2.79-6.51-7.16-9.36-11.25-.67-.96-2.5-2.06-3.93-2.06-7.33,0-15.47,13.06-15.99,14.06-2.22,4.26-3.34,9.23-5.45,13.5-1.04,2.1-3.58,4.62-5.48,4.62-6.25,0-9.91-6.2-10.65-12.61-.16-1.42.75-6.07,1.19-7.68.92-3.42-.14-7.01-.48-7.92-1.3-2.43-3.16-3.4-5.52-4.32-3.65-1.42-8.15-.16-12.35,1.36-.36.2-.53.2-.73-.09-3.92-11.42-11.29-56.75-11.41-57.44-.12-.69-.54-2.55-.4-3.04.18-.62.94-.79,1.74-.19.57.43,1.33,1.12,2.2,2.22.42.53,1.39.64,1.55-1,.11-1.18-1.13-3.55-4.54-10.62-2.59-5.37-5.83-12.47-5.95-12.85-.33-.85-.74-.48-.82-.29-.75,2.49-3.09,9-3.38,9.59-.08.17-.22.62.06,1.03,1.01,1.47,1.97,5.72,1.9,5.25-.07-.47.76,4.78.76,4.78,0,0,8.13,51.25,11.66,64.19.32,1.19-.15,1.83-.43,1.97-2.33,1.17-18.67,10.11-25.21,9.99-.23-.24-.19-.81.09-1.15,1.45-1.71,2.56-5.9,2.79-8.45.79-8.6-2.87-16.64-6.32-16.64-2.66,0-10.2,7.38-12.4,10.64-1.57,2.33-2.53,5.95-3.08,8.22-.7,2.89-.96,7.63.82,9.54.33.69.21,1.22-.14,1.44-2.74,1.51-8.46.78-11.04-.26-2.38-.96-5.71-4.47-7.26-6.88-2.39-3.71-3.9-12.02-4.02-13.5-.63-7.57-1.65-12.84-1.92-15.12-1.2-10.11-10.41-27.87-12.72-30-.15-.22-.25-.28-.48,0-.82,1.31-1.46,3.31-1.86,7.57-.09.93-.08,1.46.1,2.23.64,2.81,4.81,14.12,7.24,21.81,1.69,5.35,3.53,12.16,4.53,18.72.15.96-2.5,6.12-15.77,16.29-11.17,8.56-19.35,12.1-24.55,12.1s-7.36-2.5-8.33-6.17c-.81-3.05,2.17-11.36,2.16-11.35.32-.63.92-.51,1.5-.71,2.58-.88,7.02-3.18,11.75-11.22.23-.32.62-.31.84-.05.8.97,2.8,8.03,11.98,8.03,1.22,0,5.98-1.06,8.01-4.7,5.08-9.11,2.39-18.98-.94-21.98-.28-.25-.36-.26-.5-.1-1.75,2.12-3.55,9.1-3.36,9.12.15.8,1.84,2.84,2.88,3.84,0,2.23-3.14,2.88-4.96,2.88-5.05,0-8.7-3.19-8.7-5.66,0-3.62,2.24-5.6,2.51-7.72.1-.44-1.21-.77-2.25.48-4.58,5.51-9.5,17.14-21.09,17.14-2.03,0-6.37-1.51-6.91-3.99-.6-2.79,1.37-6.02.5-7.59-1.28-.82-5.52,3.83-6.32,4.8-5.92,7.12-14.64,9.41-18.34,9.41-16.56,0-15.38-15.22-22.42-15.22-2.3,0-6.02,2.39-8.02,4.37-4.25,4.2-8.04,11.04-9.6,16.7-2.84,10.32-6.82,13.67-8.74,13.67-5.62,0-8.99-6.52-10.08-11.75-1.51-7.29-.15-13.5.14-15.57.29-2.06-1.37-1.78-1.86.03-.75,2.76-2.49,8.54-.82,17.94,2.56,14.46,9.7,16.32,13.68,16.32,8.86,0,7.58-20.64,18.44-28.56,2.1-1.53,3.89-1.97,4.36-2.08.85-.25,1.81-.21,2.34.09,2,1.13,2.75,3.92,4.34,6.31,1.27,1.92,3.46,3.95,5.32,5.28,3.26,2.33,6.87,3.24,10.48,3.24,10.65,0,17.39-8.2,21.21-12.36.36-.41.92-.42.89,0,.08,5.49,4.15,9.57,9.98,9.57.53.03.61.06.64.27-.51,1.86-.91,3.55-1.44,5.28-1.28,4.19-2.09,11.57-.24,15.6,4.27,9.27,12.01,8.69,20.88,3.84,6.02-3.29,9.36-5.62,13.27-8.57,5-3.79,10.15-7.86,13.85-13.03.78-1.09,1.9-2.7,2.4-3.84.95-2.19,1.32-4.24,1.97-6.18.1-.21.6-.3.67-.06.37,8.68,4.51,17.89,10.59,20.78,1.64.78,5.13,2.32,7.65,2.02,6.36-.76,10.58-3.39,14.09-4.87,2.95-1.24,6.21,1.11,8.47.55.19-.05.77-.66.96-.72,1.66-.22,2.33-.18,3.92-.12,3.19.12,15.07-6.38,25.64-11.87.37-.19.88-.13,1.16.22.58.54,1.87,3.18,2.64,4.56,3.06,5.49,11.33,13,16.32,6.24.19-.21.59-.32.68.07.28,1.18,1.03,5.18,1.96,6.89,1.68,3.1,2.76,6.51,8.16,8.88,1.35.59,2.78.35,3.84,0,2.48-.77,4.15-2.85,6.24-6.48,2.09-3.63,3.6-12.24,9.6-17.93,1.15-1.09,4.8-4.24,7.83-4.24,2.29,0,3.46,2.55,4.65,4.41,1.86,2.92,4.3,6.1,7.2,8.16,1.63,1.16,6.85,3.87,12.96,2.19,8.12-2.23,10.13-7.27,15.36-13.71.44-.38,1.07-.35,1.44.24.75,1.48,1.44,3.07,2.16,4.32,2.02,3.51,3.48,5.66,7.68,7.68,7.94,3.81,16.48,2.48,26.16-2.64,2.21-1.17,5.67-3.83,7.18-5.15.3-.26.81-.38.74-.13-1.39,6.1,6.77,11.53,13.68,8.4,5.95-2.69,8.98-8.21,10-10.38.25-.52,1.02-.89,1.22-.37.47,1.2,1.08,1.94,1.97,2.83,1.28,1.28,5.57,4.34,10.8,3.84,7.04-.68,7.65-8.4,8.17-12.96.2-1.75.36-5.2-.25-6.96Zm-218.81,9.1c-1.61,2.19-4.84,3.42-5.35,3.62-.52.2-.6.11-.96,0-2.73-.85-5.42-2.58-6.51-4.36-.1-.37-.08-.78.03-1.11,1.28-4.09,6.9-7.99,7.68-8.45.78-.46,1.19-.53,1.75,0,.75.94,3.31,5.83,3.57,8.71.06.68.04,1.2-.21,1.59Zm46.49,6.02c-1.89,0-6.8-4.7-7.2-5.28-.12-.16-.12-.34,0-.48.88-.85,5.21-.12,6.24.48,5.39,2.55,2.46,5.28.96,5.28Z" fill="#1172ba" fill-rule="evenodd"/>
    <path d="m221.06,116.62c.6.6,1.89,1.52,2.86,1.52.2,0,.18-.2.13-.32-.16-.6-.67-1.43-1.2-1.92-.79-.84-2.25.26-1.79.72Z" fill="#1172ba" fill-rule="evenodd"/>
    <path d="m536.78,76.38c-1.37-10.36-3.63-25.64-4.62-33.89-1-8.36-1.61-11.51-1.18-12.81.2-.62.61-1.54,1.39-.9.56.45,1.84,1.27,2.67,2.4.4.54,1.36.69,1.58-.94.16-1.18-1.47-4.71-4.6-11.9-2.38-5.47-4.86-11.68-4.97-12.06-.29-.86-.72-.51-.81-.32-.85,2.46-3.14,8.87-3.45,9.45-.09.16-.29.64.02,1.03.96,1.22,1.09,4.27,1.1,4.91.06,4.46,3.5,31.33,6.41,51.41,1.79,12.32,3.43,23.48,2.95,29.09-3.58,5.19-10.36,6.65-13.67,6.65-2.15,0-6.86-1.3-10.7-4.07-.02.09-.22-.84.16-.98,1.99-.75,5.72-4.29,11.54-5.77.7-.18,1.24.12,2.21-.4.56-.32,1.96-4.97,3.18-7.52.27-.56.32-1.17-.05-1.39-9.33-4.54-17.56-6.61-22.71-6.61-15.73,0-24.41,5.08-26.72,6.16-.97,2.1-2.58,6.91-3.28,8.24-.46.56-.22,1.66.62,1.3,9.13-3.35,12.24.47,19.38,4.86.17.13.43.41-.32.73-3.41,1.48-11.29,5.73-17.87,5.73-4.78,0-8.67-1.13-11.07-3.67-2.18-2.31-2.34-4.95-1.78-7.59,1.02-1.78-.03-2.9-.72-2.64-.79.07-2.38,1.8-3.04,2.72-8.4,11.72-10.88,12.32-16.94,12.32-14.24,0-15.96-21.06-15.96-25.92.15-16.91-3.19-43.56-6.06-60.41-.13-3.67-.4-5.65-.57-6.55-.62-3.32-1.97-6.72-3.44-9.63-.09-.24-.31-.32-.48,0-1.43,2.78-3.08,7.37-3.72,8.91-.02.32-.02.63.02.92.33,2.87,2.08,4.54,2.26,6.52.63,6.77,6.84,43.02,6.84,67.44,0,3.18.93,20.01,11.28,26.88,7.33,4.86,12.35,2.25,18.05-1.26,4.87-3.01,4.67-7,7.86-9.26.27-.33.64-.35.96,0,.77,2.71.25,9.23,11.19,11.72,1.17.27,2.44.2,3.37.08,2.19-.27,8.36-1.99,13.54-4.2,5.11-2.18,9.72-5.15,11.86-6.35.58-.31,1.36-.39,2.1.08,1.29,1.65,3.93,4.05,5.21,5.35,2.35,2.38,8.4,5.12,11.2,5.12,6.73,0,12.35-4.15,13.9-5.85,2.47-2.7,4.73-5.38,5.63-8.07,1.57-4.7,2.43-12.71.26-29.04Zm-33.67,21.37c-.25.34-.68.34-.96,0-1.15-1.45-2.65-3.05-4.7-3.89-.06-.08-.41-1.46.22-1.39,6.59-.34,8.91.76,12.42,1.42.15.08.12.12.01.24-1.97,1.1-5.46,2.46-7,3.63Z" fill="#1172ba" fill-rule="evenodd"/>
    <path d="m726.72,72.7c-1.17-10.38-2.35-20.36-3.34-28.61-1-8.37-1.85-12.15-1.42-13.45.2-.62.61-1.54,1.39-.9.55.45,1.04,1.11,1.87,2.24.4.54,1.36.69,1.58-.94.16-1.18-.75-4.55-3.88-11.74-2.38-5.47-3.98-11.04-4.09-11.42-.29-.86-.72-.51-.81-.32-.85,2.46-3.62,8.87-3.93,9.45-.09.16-.29.64.02,1.03.95,1.22,1.09,4.26,1.1,4.91.06,4.46,3.02,26.45,5.37,46.13,1.48,12.36,2.95,23.8,2.47,29.41-3.59,5.19-11.08,6.85-14.39,6.85-2.15,0-6.5-1.71-9.96-4.81-.02.09-.32-.54.06-.69,1.99-.75,5.48-2.83,10.5-5.11.66-.3,1.24.12,2.21-.4.56-.32,3-5.69,4.22-8.24.27-.56.32-1.17-.05-1.39-10.53-3.82-17.56-5.97-22.71-5.97-18.77,0-22.81,3.48-25.12,4.56-1.05,1.7-3.54,7.23-4.08,8.88-.46.56-.22,1.66.62,1.3,6.57-4.71,14.15.95,20.02,4.94.17.13.43.41-.32.73-3.41,1.48-12.73,5.97-19.31,5.97-4.78,0-8.67-1.93-11.07-4.47-2.18-2.31-3.14-5.11-1.94-7.75,1.03-1.78-.03-2.9-.72-2.64-.79.07-1.91,1.62-2.4,2.64-3.6,7.56-6.91,11.24-11.04,11.24-3.28,0-7.14-2.07-8.2-5.15-.61-1.77-.24-3.9.52-6.09.62-2.67-.42-1.81-.72-1.92-1.43.69-2.93,2.18-4,3.6-4.51,5.96-7.85,10.8-16.16,10.8-14.56,0-16.24-13.12-21.84-15.12-.77-.19-1.18-.15-1.71-.08-3.86.54-6.16,2.79-8.29,5.04-7.65,8.07-7.07,10.93-10.64,19.52-2.94,7.08-5.62,8.32-7.74,8.32-5.31,0-8.02-5.23-9.86-11.64-1.73-6-.9-16.1-1.13-16.33-.17-.31-.99-.79-1.84,1.42-.16.39-2.29,7.83-.84,15.98.93,5.24,3.39,10.78,8.51,14.93,3.44,2.79,5.58,2.18,6.19,2.07,1.53-.28,5.58.14,10.84-16.18,3.09-6.94,9.87-11.33,12.05-12.24.97-.41,1.87-.49,3.15-.04,5.6,3.84,5.2,10.25,14.52,13.92,11.71,3.96,19.38-3.65,23.59-10.73.35-.57,1.05-1.01,1.05-.23.17,5.74,4.45,10.72,11.28,10.44,1.21-.05,4.71.58,11.12-11.8.27-.33.64-.35.96,0,.77,2.71,1.29,11.71,13.18,13,1.19.13,2.44.2,3.38.08,2.19-.27,7.4-2.07,12.59-4.28,5.11-2.18,10.2-4.75,12.34-5.95.58-.31.88-.39,1.62.08,1.29,1.65,3.85,4.05,5.13,5.35,2.35,2.38,6.5,4.43,10.08,4.8,4.65.48,12.27-4.24,13.82-5.93,2.47-2.7,3.77-5.3,4.67-7.99,1.57-4.7,3.39-12.63,1.54-29.04Zm-33.23,21.6c-.25.34-.68.34-.96,0-1.15-1.44-2.25-2.93-3.98-3.98-.06-.08-.41-1.46.22-1.39,6.59-.34,8.29,1.33,11.8,1.99.16.08.12.12.01.24-1.97,1.1-5.56,1.99-7.09,3.16Z" fill="#1172ba" fill-rule="evenodd"/>
    <path d="m375.33,36.26c-1.08-1.57-2.59-1.3-3.14-.92-2.61,1.9-3.28,5.88-4.04,9.57-.14,1.18-.67,2.99-.88,4.14-.06.41-.7.49-.76.15-.38-2.11-1.3-3.95-1.87-5.29-1-2.34-2.84-5.54-4.95-6.42-.45-.19-.79-.34-1.68-.2-.45.2-.78.47-1.13.99-.64.89-1.44,3.31-1.29,4.27,1,3.37,5.1,1.87,6.25,3.47.76,1.05,1.41,2.35,1.88,3.7.58,1.66,1.29,3.65,1.47,4.73-1.73.39-3.1,5.77-3.03,6.45.01.1.07.29.24.3.25.02.34-.13.4.05-.66.71-1.64,1.2-2.05,2.57-.42,1.41-1.23,4.99-.97,6.88.52,3.69,1.17,1.04,3.56,12.33.91,4.31.36,7.3-.38,12.34-.07.3.31.29.42-.07.79-2.09,2.16-5.82,1.86-11.7-.19-3.77-.92-7.25-2.02-10.12-.73-1.89-1.4-4.14-1.86-6.18-.2-.86,2.07-3.15,4.21-3.58,2.84-.57,5.72.68,6.18-.69.5-1.47,1.68-4.11.99-5.11-2.18-3.12-5.01-4.8-4.95-4.86-.08-.22-.06-.43.06-.8.86-2.56,1.84-9.27,3.68-12.07.61-.21,1.45-.16,1.86.16.61.47.68,1.35.94,1.35.51.24.83-.16,1.09-.56,1.14-2.12.83-3.63-.11-4.89Zm-7.06,22.73c.04.3-1.12.07-2.42.46-1.22.37-1.54.81-2.14.76.47-.4.18-2.06,1.82-2.55,1.15-.34,2.69,1.03,2.73,1.33Z" fill="#1172ba" fill-rule="evenodd"/>
    <path d="m236.26,14.52c-1.24-2.33-3.05-3.46-5.25-4.56-.32-.42.08-1.63.4-2.4h-.88c-3.68,5.3-6.8,14.51-.96,16.56,2.16.76,8.09-1.54,6.69-9.6Zm-1.89,4.32c-.61.51-2.32.89-2.96.91-1.53-.35-2.11-.73-3.04-2.35-.11-1.68.26-2.12.72-2.88.32-.27.56-.19.96-.05,1.36,1.05,3.16,2.47,4.32,3.65.27.21.27.56,0,.72Z" fill="#1172ba" fill-rule="evenodd"/>
    <path d="m44.28,17.22c-.24-.78-1.31-3.11-3.07-5.82-1.11-1.71-2.65-3.38-4.67-5.22-.33-.13-.9-.84-1.9,0-.61.51-1.19,1.89-2.02,3.72-.19.41.82.7.12,1.46-.82.88-1.52,1.96-2.06,2.88-.98,1.7-2.77,3.39,1.42,5.5-.7.82-4.94,5.14-9.89,8.72-2.41,1.74-5.01,3.38-7.04,4.58-5.59,3.31-5.86,3.26-5.86,3.46,0,.1.42.14.26.14,3.09-.14,5.61-2.68,6.39-2.13.9-.07,6.37-3.34,6.84-3.75,2.1-1.38,8.03-5.5,11.85-9.7.49-.51.83-.47,1.31-.06,1.83,1.56,4.97,2.73,6.14,2.34,1.56-.52,2.6-5.27,2.17-6.14Zm-8.41-.85c-.72.03-2.7-.85-2.95-1.13-.21-.26-.04-.74.25-1.17.07-.08.32-.35.58-.36,1.24-.09,2.17,1.32,2.27,1.97.08.31.02.74-.15.7Zm5.92,3.26c-.69.57-3.4-2.13-3.63-2.51-.25-.2.17-1.6.83-1.54.47.02,3.2,3.76,2.8,4.05Z" fill="#1172ba" fill-rule="evenodd"/>
    <path d="m242.76,54.07c-1.26-2.6-4.83-4.35-5.24-5.25-.63-1.04.5-1.24.5-4.91,0-5.77-1.51-5.97-2.54-5.97-1.55,0-6.78,2.82-6.64,7.86.06,2.27,2.74,4.17,5.21,6,.32.29-.12.6-.31.86-.86,1.17-2.96,3.62-5.21,5.55-3.1,2.67-6.32,5.1-6.32,5.1l.56,3.02s3.37-3.07,6.85-6.29c2.73-2.53,5.17-5.59,5.8-6.64.29-.48,3.68,2.02,5.05,4.08.62.11,2.66-3.01,2.29-3.41Zm-7.27-7.11c-.18.19-.53-.05-.53-.12s-2.62-2.07-2.73-2.28c-.13-.26-.09-.54.01-.73.33-.64.8-1.01,1.28-1.25.3-.15.48-.16.79.02.54.3.98,1.36,1.11,1.85.13.49.32,2.24.07,2.52Zm-35.3,31.64c-.49.22.12.38.63.22,4.78-1.5,16.33-8.69,16.33-8.69l-.5-2.71s-14.04,10.08-16.47,11.18Z" fill="#1172ba" fill-rule="evenodd"/>
    <path d="m586.6,20.17c-1.26-1.46-1.66-1.53-2.07-2.43-.64-1.04.5-1.24.5-4.91,0-5.77-1.52-5.97-2.54-5.97-1.55,0-6.78,2.82-6.64,7.86.06,2.27,2.74,4.17,5.21,6,.32.29-.1.61-.31.86-6.41,7.76-22.94,18.8-22.94,18.8l.18,1.62s7.4-4.05,14.13-9.26c4.49-3.47,8.66-7.69,10.3-10.43.29-.48.54.44,1.88,1.26.62.11,2.66-3.01,2.29-3.41Zm-4.1-4.28c-.18.19-.53-.05-.53-.12s-2.62-2.07-2.73-2.28c-.13-.26-.09-.54.01-.73.33-.64.8-1.01,1.28-1.25.3-.15.48-.16.79.02.54.3.98,1.36,1.11,1.85.13.49.32,2.24.07,2.52Z" fill="#1172ba" fill-rule="evenodd"/>
    <path d="m799.58,2.24c6.5,6.24,12.17,12.88,11.63,22.74-.12,2.22.56,2.55,2.64,1.71,10.12-4.06,20.23-8.15,30.38-12.13,8.42-3.3,16.88-6.48,25.34-9.67.66-.25,1.73-.46,2.12-.12.41.36.45,1.45.26,2.12-.68,2.42-2.1,4.29-3.88,6.17-1.77,1.87-2.63,4.61-3.79,7.02-.57,1.18-1.27,2.48-1.25,3.71.02,1.15.77,2.39,1.51,3.36.16.22,1.61-.5,2.44-.84.39-.16.73-.45,1.14-.71.85,2.96-.7,6.7-3.14,7.81-2.21,1.01-4.66-.8-5.04-3.59-.61-4.54.93-8.54,2.9-12.48.32-.64.43-1.4.63-2.1-.79-.03-1.69-.31-2.37-.05-6.3,2.4-12.55,4.9-18.83,7.34-5.82,2.27-11.69,4.45-17.48,6.79-3.95,1.6-7.79,3.43-11.7,5.12-2.34,1.01-4.69,2.03-7.09,2.87-2.28.8-3.72,1.89-4.28,4.56-.59,2.83-2.15,5.46-3.22,8.2-.93,2.37-1.83,4.75-2.61,7.18-.55,1.7.91,4.39,2.57,4.96,1.74.6,2.79-.09,3.41-1.78.17-.47.78-.78,1.19-1.17.27.33.7.62.8.99.63,2.41-1.77,8.34-3.89,9.73-3.34,2.2-7.31,0-8.02-3.96-1.26-7,1.99-12.8,4.45-18.83.83-2.04,1.87-4,2.81-5.99-.15-.16-.3-.33-.44-.49-.87.32-1.77.57-2.6.98-1.39.68-2.69,1.57-4.11,2.16-.85.35-1.87.31-2.81.44.06-.94.12-1.88.19-2.82.41-5.16,4.9-6.18,8.4-8.04,3.12-1.66,6.51-2.8,9.73-4.27,1.47-.67,1.72-1.85,1.37-3.49-1.31-6.07-4.44-11.2-8.87-15.25-2.97-2.72-2.82-5.13-1.43-8.17h.93Z" fill="#1172ba"/>
    <path d="m811.51,99.43c-1.12,1.49-1.92,2.6-2.75,3.67-3.74,4.77-8.31,7.77-14.7,7.48-4.37-.2-7.69-2.2-10.5-5.27-1.67-1.83-3.05-3.94-4.8-5.69-3.07-3.09-5.93-3.06-9.19-.13-4.37,3.92-6.47,9.2-8.66,14.44-1.52,3.63-2.92,7.36-4.9,10.73-2.83,4.82-8.57,5.15-12.8,1.6-4.48-3.76-5.37-8.9-5.69-14.01-.3-4.75.57-9.57.95-14.36.02-.25.26-.48.92-.67,0,1.39-.08,2.78.01,4.16.24,3.61.11,7.33.98,10.78.63,2.49,2.33,4.9,4.1,6.86,2.95,3.27,6.54,3.01,8.94-.71,2.72-4.21,5.18-8.63,7.33-13.17,2.57-5.43,5.02-10.86,9.73-14.87.59-.5,1.15-1.05,1.8-1.47,4-2.59,5.57-2.37,8.62,1.25,2.09,2.49,3.85,5.35,6.29,7.41,1.9,1.6,4.53,2.76,6.99,3.18,8.37,1.44,13.92-2.72,17.75-9.79.51-.95,1.16-1.85,1.88-2.65.3-.33,1.03-.56,1.42-.42.3.11.55.87.52,1.32-.48,6.63,4.63,10.39,11.23,8.38,5.74-1.74,9.23-6.06,12.61-10.56.74-.98,1.54-1.99,2.51-2.72,1.17-.88,2.66-.16,2.4,1.21-1.24,6.73,3.6,9.11,8.27,10.82,6.73,2.46,13.89,3,21.07,2.56,5.11-.32,10.22-.62,15.31-1.08,6.88-.63,13.75-1.35,20.61-2.13,9.56-1.1,19.13-2.19,28.67-3.48,7.37-.99,14.7-2.25,22.05-3.41,2.83-.45,5.66-.94,8.48-1.47,1.99-.38,2.21-1.02.99-2.65-4.09-5.46-9.89-7.87-16.37-8.77-10.04-1.4-19.94.59-29.88,1.62-7.11.74-14.22,1.36-21.33,2.07-7.41.74-14.8,1.9-22.23,2.17-8.57.31-17.23.9-25.68-1.6-5.24-1.55-7.37-5.07-6.2-10.41,1.27-5.8,4.7-10.24,8.78-14.26,6.43-6.32,14.09-10.95,21.8-15.45,5.22-3.05,10.69-5.61,16.71-6.69,1.6-.29,3.23-.51,4.85-.53,2.82-.03,3.98,1.1,3.65,3.84-.26,2.21-.9,4.39-1.58,6.52-.51,1.6-1.66,1.85-2.78.53-1.44-1.72-3.22-2.18-5.23-1.5-4.82,1.62-9.82,2.91-14.36,5.14-8.15,4-15.88,8.8-22.73,14.85-.81.72-1.54,1.53-2.27,2.34-2.2,2.44-2.1,3.65.8,5.18,1.69.9,3.59,1.54,5.48,1.88,9.15,1.69,18.35,1.67,27.59.72,9.09-.93,18.21-1.62,27.3-2.55,9.18-.94,18.31-2.29,27.5-3.02,7.97-.63,16.08-1,23.44,3.06,4.52,2.5,8.89,5.43,10.16,10.9.41,1.74.03,3.84-.54,5.59-.72,2.19-1.94,4.23-3.1,6.25-1.88,3.28-2.1,6.51.25,9.58,2.45,3.22,6.01,2.61,9.21,1.88,2-.46,4.09-1.67,5.52-3.15,2.29-2.38,4.02-5.29,6.09-7.9,1.27-1.6,2.74-3.05,4.1-4.59.77-.87,1.51-1.76,2.24-2.66,3-3.69,7.36-5.45,10.32-3.45,2.22,1.5,4.27,3.79,5.41,6.2,1.25,2.63,1.57,5.78,1.9,8.74.43,3.83-1.6,6.82-4.43,9.01-1.02.79-3.22.83-4.54.32-4.18-1.59-8.28-3.46-12.25-5.52-1.78-.93-2.38-.59-3.42.97-2.05,3.08-4.17,6.21-6.8,8.77-3.54,3.43-10.05,5.3-14.43,1.6-2.61-2.21-3.89-5.03-4.06-8.31-.1-2.06.19-4.16.46-6.23.21-1.63-.17-2.38-1.97-2.06-5.11.91-10.24,1.78-15.36,2.64-7.12,1.19-14.22,2.42-21.36,3.5-8.28,1.25-16.56,2.43-24.87,3.47-6.85.86-13.72,1.6-20.6,2.15-6.8.54-13.63,1.13-20.44,1.03-6.68-.1-13.45-.91-18.88-5.39-1.74-1.44-2.72-3.8-4.04-5.75-.42-.62-.89-1.77-1.27-1.74-.7.05-1.55.65-1.97,1.27-2.76,4.03-5.91,7.66-10.38,9.82-4.04,1.95-8.18,1.99-11.91-.66-1.44-1.02-2.38-2.77-3.48-4.24-.43-.57-.68-1.26-1.26-2.38Zm190.76-6.6c2.87,1.15,5.24,2.12,7.65,2.97.16.05,1.08-1.06.97-1.44-.66-2.35-5.9-3.73-8.62-1.52Z" fill="#1172ba"/>
    <path d="m934.82,32.02c-5.12,1.44-9.65,2.71-14.18,3.98-.16-.3-.32-.6-.48-.9.88-.68,1.7-1.47,2.66-2.01,4.72-2.67,9.49-5.27,14.23-7.91.68-.38,1.4-.73,1.97-1.23.46-.41,1.11-1.13,1.01-1.53-.13-.49-.96-1.09-1.51-1.11-5.04-.16-10.09-.2-15.13-.26-.15,0-.31.1-.46.08-1.26-.18-2.52-.39-3.78-.58.32-1.19.54-2.43.98-3.58,2.29-5.99,6.9-7.88,12.97-7.39,4.25.34,8.53.41,12.79.62.46.02.92.11,1.37.23,4.74,1.25,5.35,2.7,2.65,6.78-2.96,4.47-5.91,8.97-10.31,12.22-2.7,1.99-2.8,5.22-3.95,7.94-.36.85-.55,1.77-.91,2.62-1.21,2.91-.2,5.67,2.65,7.05,1.54.75,2.17-.26,2.91-1.4.44-.69,1.31-1.11,1.98-1.65.01.91.17,1.85,0,2.72-.2.97-.79,1.85-1.05,2.81-.79,2.89-2.74,4.78-5.01,4.75-1.93-.03-5.12-2.67-5.19-5-.09-3.04.31-6.13.86-9.14.34-1.87,1.36-3.62,2.05-5.43.26-.68.46-1.37.89-2.68Z" fill="#1172ba"/>
    <path d="m1025.43,3.08c1.94-.04,2.23,1.01,1.64,2.82-1.13,3.46-3.74,4.82-6.89,6.09-10.95,4.4-21.83,8.97-32.64,13.7-9.42,4.12-18.7,8.54-28.04,12.84-1.25.58-2.43,1.38-3.74,1.76-1.37.4-2-.21-1.63-1.78.77-3.29,2.44-5.61,5.69-7.07,10.15-4.56,20.1-9.58,30.31-14,10.36-4.49,20.93-8.48,31.4-12.7,1.43-.58,2.84-1.21,3.92-1.67Z" fill="#1172ba"/>
    <path d="m1004.05,49.31c.45-5.23,1.85-10.18,4.54-14.67.7-1.17,1.92-2.37,3.17-2.8,2.31-.8,5.65,3.12,4.9,5.52-.25.81-.52,1.63-.89,2.39-.7,1.46-1.77,1.59-3.03.68-2.14-1.54-3.32-1.39-4.14,1.2-.97,3.07-1.49,6.3-2.02,9.49-.49,2.9-.71,5.84-1.13,8.75-.12.83-.39,1.69-.82,2.39-.32.52-1.06,1.16-1.53,1.1-.46-.06-.94-.89-1.18-1.48-1.3-3.22-2.47-6.49-3.82-9.7-.9-2.15-2.72-3.12-4.95-3.82-2.09-.66-4.09-1.79-5.91-3.03-.6-.41-.72-1.83-.69-2.78.03-.89.61-1.74.84-2.64.95-3.8,4.11-5.15,6.87-2.41,2.76,2.74,4.81,6.18,7.15,9.33.68.92,1.28,1.9,1.91,2.85.24-.13.49-.25.73-.38Z" fill="#1172ba"/>
    <path d="m779.63,56.51c-4.45-2.53-4.57-2.44-7.25,1.91-.97,1.57-1.97,1.68-3.44.8-1.8-1.07-3.71-1.95-5.49-3.05-1.37-.84-2.21-.67-2.95.8-1.21,2.39-2.49,4.74-3.74,7.11.56.25,1.03.6,1.42,1.02.44-.13.97.06,1.64.49,1.5.95,3.03,1.88,4.53,2.82,1.34.84,2.44.82,3.28-.73.62-1.16,1.36-2.25,2.04-3.38.77-1.27,1.67-1.73,3.04-.73,1.25.91,2.63,1.64,3.92,2.5,3.33,2.19,3.37,2.22,5.4-1.27,3.36-5.77,4.24-4.51-2.4-8.28Z" fill="#1172ba"/>
    <path d="m956.64,141.2c-.82-2.27,1.04-2.75,2.39-3.33,3.34-1.43,6.79-2.62,10.12-4.07,6.88-2.99,13.68-6.16,20.57-9.12,3.3-1.42,5.02-4.23,7.01-6.9.91-1.22,2.06-2.33,3.31-3.19,1.96-1.36,3.72-.88,4.45,1.33.64,1.95,1.04,4.08.98,6.12-.1,3.39-2.48,4.87-5.46,3.03-2.88-1.79-4.23-.76-6.38,1.15-2.38,2.1-5.41,3.57-8.34,4.93-4.57,2.1-9.23,4.03-13.96,5.74-3.4,1.22-6.98,1.93-10.47,2.91-1.31.37-2.58.87-4.22,1.42Z" fill="#1172ba"/>
    <path d="m842.51,61.25c-1.02,1.72-2.01,3.46-3.06,5.16-1.63,2.63-1.86,2.65-4.5.93-1.49-.97-3.04-1.86-4.5-2.89-1.29-.91-2.16-.48-2.89.68-.74,1.18-1.48,2.37-2.16,3.58-.8,1.43-1.85,1.41-3.13.72-2.3-1.23-4.65-2.35-6.89-3.68-.42-.25-.74-1.42-.51-1.86,1.22-2.33,2.56-4.61,4.05-6.77.25-.36,1.56-.31,2.18-.02,2.03.96,3.98,2.1,5.93,3.22,1.33.75,2.23.5,3.09-.82,2.89-4.46,2.94-4.45,7.64-1.94,1.23.66,2.37,1.49,3.6,2.14.56.3,1.25.37,1.87.54-.24.34-.48.68-.71,1.02Z" fill="#1172ba"/>
    <path d="m833.38,128.24c.5-5.08,2.57-9.36,4.48-13.68.24-.53,1.01-.83,1.54-1.23.32.55.62,1.13.97,1.66.58.85,1.02,1.93,1.82,2.46,5.6,3.72,5.72,7.64,2.88,13.49-1.78,3.66-7.25,4.51-9.87,1.56-.97-1.09-1.24-2.82-1.82-4.26Zm7.74-.04c.35-.23,1.14-.74,1.93-1.26-.49-.68-.92-1.41-1.48-2.03-.62-.68-1.29-1.37-2.06-1.85-.51-.32-1.38-.58-1.84-.36-.48.24-.87,1.05-.95,1.66-.25,1.89,1.7,3.79,4.41,3.83Z" fill="#1172ba"/>
    <path d="m901.71,131.77c-.28-.87-.93-1.88-.66-2.25.95-1.33,1.98-2.92,3.37-3.56,7.01-3.22,14.14-6.19,21.24-9.21,2.2-.94,4.43-1.82,6.7-2.59.68-.23,1.53,0,2.3.03-.03.78.24,1.77-.14,2.29-.74,1.01-1.7,2.06-2.81,2.54-4.72,2.08-9.56,3.91-14.31,5.93-4.55,1.93-9.05,3.96-13.58,5.95-.49.21-.98.41-2.1.87Z" fill="#1172ba"/>
    <path d="m953.06,102.3c-.13.92-.12,1.89-.43,2.74-1.6,4.52-3.28,9.01-4.92,13.52-.8,2.21.47,5.31,2.61,6.29,1.82.84,2.66-.33,3.47-1.73.33-.58,1.09-.91,1.66-1.35.1.75.42,1.56.24,2.24-.34,1.34-.97,2.6-1.44,3.91-.93,2.63-3.3,4.58-5.2,4.25-1.84-.32-5.23-3.92-5.1-5.83.2-2.99.27-6.11,1.23-8.89,1.69-4.89,4-9.56,6.09-14.31.19-.44.65-.75.99-1.13.26.09.53.18.79.27Z" fill="#1172ba"/>
    <path d="m812.84,134.2c-1.65-1-3.09-1.91-4.56-2.76q-4.68-2.72-2.12-7.34c.41-.75.86-1.47,1.28-2.22.78-1.38,1.85-1.48,3.14-.74,2.02,1.15,4.05,2.3,6.08,3.44,1.34.75,1.67,1.67.79,3.05-1.04,1.63-1.9,3.38-2.94,5.02-.37.58-1.04.98-1.68,1.55Z" fill="#1172ba"/>
    <path d="m769.85,128.21c1.35-3.47,2.66-6.94,4.06-10.39.51-1.24,1.08-2.5,1.88-3.56.33-.44,1.33-.37,2.03-.53.13.66.52,1.41.33,1.96-.68,2.02-1.61,3.95-2.33,5.96-.51,1.42-1.07,2.89-1.15,4.37-.05.79.86,1.63,1.34,2.45.6-.41,1.2-.84,1.81-1.24.46-.3,1.03-.86,1.4-.76.4.11.82.83.89,1.33.24,1.72-2.24,6.13-3.72,6.81-2.21,1.02-5.52-1.24-5.88-4.06-.09-.69-.01-1.4-.01-2.09-.22-.08-.44-.16-.66-.24Z" fill="#1172ba"/>
    <path d="m868.22,130.09c.06-5.38,2.91-9.86,4.73-14.67.33-.86.75-1.7,1.25-2.48.2-.31.7-.43,1.06-.64.18.38.58.82.51,1.14-.19.81-.61,1.56-.9,2.35-1.22,3.33-2.45,6.66-3.62,10.01-.61,1.74,1.02,4.66,2.83,4.81.68.06,1.43-.8,2.15-1.25.57-.35,1.14-.7,1.71-1.06.01.7.15,1.43,0,2.09-.21.89-.66,1.71-.97,2.58-.85,2.37-2.78,4.01-4.47,3.76-1.78-.27-4.11-3.01-4.26-5.03-.04-.54,0-1.09,0-1.63Z" fill="#1172ba"/>
    <path d="m982.27,78.35c.46-5.46,2.98-9.77,4.99-14.25.16-.36,1.03-.59,1.53-.53.26.03.68.9.59,1.27-.34,1.32-.87,2.6-1.34,3.88-.66,1.81-1.27,3.65-2.03,5.41-.67,1.55-.22,2.74.92,3.74,1.3,1.14,1.83-.28,2.65-.85.38-.27.96-.26,1.44-.37.1.5.38,1.05.26,1.48-.39,1.33-.68,2.81-1.5,3.85-.72.93-2.22,2.02-3.15,1.84-1.33-.25-2.67-1.41-3.58-2.53-.65-.8-.6-2.17-.79-2.94Z" fill="#1172ba"/>
    <path d="m894,45.59c-.1.75-.09,1.54-.33,2.25-1.02,2.99-2.22,5.93-3.11,8.96-.26.87.06,2.13.54,2.96.79,1.37,1.93,1.78,3.07.14.27-.38.8-.58,1.26-.9.71,2.21-.9,6.06-2.7,6.83-1.9.81-4.76-1.26-5.07-3.84-.14-1.2-.13-2.55.26-3.67,1.52-4.38,3.23-8.7,4.87-13.04.41.11.82.21,1.22.32Z" fill="#1172ba"/>
    <path d="m779.39,21.01c-1.26-1.46-1.66-1.53-2.07-2.43-.64-1.04.5-1.24.5-4.91,0-5.77-1.52-5.97-2.54-5.97-1.55,0-6.78,2.82-6.64,7.86.06,2.27,2.74,4.17,5.21,6,.32.29-.1.61-.31.86-2.35,2.85-6.19,6.96-10.09,10.7-6.74,6.46-13.68,12.37-13.57,12.7.17.51.38.66.83.36,1.57-1.05,6.02-4.33,14.32-11.64,3.87-3.41,8.56-8.65,10.19-11.39.29-.48.54.44,1.88,1.26.62.11,2.66-3.01,2.29-3.41Zm-4.1-4.28c-.18.19-.53-.05-.53-.12s-2.62-2.07-2.73-2.28c-.13-.26-.09-.54.01-.73.33-.64.8-1.01,1.28-1.26.3-.15.48-.16.79.02.54.3.98,1.36,1.11,1.85.13.49.32,2.24.07,2.52Z" fill="#1172ba" fill-rule="evenodd"/>
  </g>
  <text transform="translate(80.91 206.94)" fill="#333" font-family="AdobeArabic-Bold, &apos;Adobe Arabic&apos;" font-size="60" font-weight="700"><tspan x="0" y="0">Library of Al-Abbas Holy Shrine</tspan></text>
</svg>