<?xml version="1.0" encoding="utf-8"?>
<!-- Generator: Adobe Illustrator 25.0.0, SVG Export Plug-In . SVG Version: 6.00 Build 0)  -->
<svg version="1.1" id="Layer_1" xmlns="http://www.w3.org/2000/svg" xmlns:xlink="http://www.w3.org/1999/xlink" x="0px" y="0px"
	 viewBox="0 0 1036.1 311.8" style="enable-background:new 0 0 1036.1 311.8;" xml:space="preserve">
<style type="text/css">
	.st0{fill:#0070c0;} /*2E3192*/
	.st1{fill-rule:evenodd;clip-rule:evenodd;fill:#0070c0;}
	.st2{fill:none;stroke:#0070c0;stroke-width:10;stroke-miterlimit:10;}
</style>
<g>
	<g>
		<path class="st0" d="M374.3,26.3c0.8,0.5,1,1.2,1.3,1.8c1.4,2.9,2.3,6.1,3.1,9.2c1.1,4.5,1.8,9.1,2.4,13.7
			c0.9,6.9,1.3,13.9,1.6,20.9c0.3,6.6,0.5,13.2,0.7,19.8c0.2,4.4,0.3,8.7,0.4,13.1c0.1,4.2,0.2,8.5,0.4,12.7
			c0.1,3.4,0.2,6.7,0.4,10.1c0.1,3.1,0.3,6.1,0.6,9.2c0.2,2.4,0.9,4.6,1.9,6.8c1.7,4.2,4.8,6.3,9.4,6.4c5.8,0.1,11.1-1.2,16.1-4.1
			c2.9-1.7,5.2-4.1,6.7-7.2c1.1-2.4,2.3-4.9,3.4-7.3c0.3-0.7,0.7-1.5,1.1-2.2c0.2-0.4,0.5-1,0.9-1.2c1.2-0.7,1.7-2,2.4-3.1
			c1.8-2.7,3.9-5.2,6.5-7.2c1.8-1.4,3.7-2.5,6-2.9c2.9-0.5,5.3,0.3,7.4,2.3c1.1,1.1,1.9,2.3,2.5,3.7c1.3,2.6,2.1,5.4,2.4,8.2
			c0.6,4.4,0.5,8.7-0.7,13c-0.4,1.6-1.1,3-1.7,4.5c-0.3,0.6-0.7,1.2-1.1,1.7c-0.7,1-1.7,1.5-2.9,1.4c-0.9-0.1-1.7-0.1-2.6-0.2
			c-0.5,0-1,0-1.5,0c-0.1,0.2-0.2,0.3-0.2,0.5c-1.1,4.7-2.1,9.4-1.9,14.3c0.2,4.1,1.4,7.8,4.1,11c1.6,1.8,3.5,3.2,5.8,4
			c3.5,1.4,7.1,1.7,10.9,1.4c4.3-0.3,8.3-1.7,12.2-3.4c5.3-2.3,10.2-5.4,14.9-8.6c6.3-4.4,12.1-9.5,17.5-15c1.6-1.7,3.1-3.4,4.5-5.3
			c1.6-2.2,1.3-4.4,0.3-6.8c-1.6,0.3-3.1,0.6-4.6,0.8c-3.9,0.4-7.7,0.5-11.6-0.1c-1.4-0.2-2.7-0.6-3.9-1.1c-3.6-1.5-5.5-4.3-5.6-8.2
			c-0.2-6,1.8-11.1,5.9-15.5c1-1.1,2.1-2.1,3.5-2.8c0.9-0.5,1.9-1,2.9-1.3c2.4-0.8,4.7-0.3,6.8,1c1.9,1.2,3.5,2.7,4.9,4.3
			c2.2,2.6,4.1,5.4,5.6,8.4c0.3,0.6,0.6,1.2,1,1.9c0.6-0.2,1.2-0.2,1.7-0.4c2.8-1.2,5.4-2.6,7.7-4.6c2.2-1.9,3.7-4.2,4.3-7.1
			c0.1-0.8,0.2-1.6,0.2-2.4c0-3.7,0-7.5-0.2-11.2c-0.3-6.7-0.6-13.3-1.1-20c-0.5-6.2-1.1-12.4-1.9-18.6c-0.6-5.4-1.6-10.8-2.3-16.1
			c-0.1-0.6-0.1-1.3,0-1.8c0.5-2.8,1.1-5.6,1.7-8.4c0.2-0.8,0.5-1.5,0.8-2.3c0.1-0.3,0.4-0.4,0.6-0.7c0.7,0.4,0.8,1,1,1.6
			c0.6,2.4,1.3,4.7,1.8,7.1c1.5,6.6,2.6,13.4,3.5,20.1c0.6,5,1.1,9.9,1.5,14.9c0.5,6.7,1.1,13.3,1.7,20c0.3,3.4,0.5,6.7,0.8,10.1
			c0.5,5.2,1.4,10.4,3,15.4c0.4,1.2,0.9,2.5,1.4,3.7c1,2.3,2.5,4.3,4.3,6c4.9,4.5,10.6,7.5,16.9,9.4c5.6,1.7,11.4,2.7,17.2,3.5
			c7.6,1,15.3,1.5,23,1.6c3.2,0,6.5,0.1,9.7,0.1c6.2,0,12.4-0.4,18.5-0.9c6.8-0.6,13.6-1.5,20.4-2.8c10.1-1.8,20-4.3,29.8-7.4
			c7.2-2.2,14.2-4.7,21.2-7.5c0.4-0.2,0.8-0.4,1.2-0.6c-0.2-0.3-0.3-0.5-0.5-0.7c-2.3-2.2-4.8-4.4-7.5-6.2c-1.8-1.2-3.8-2.2-6-2.5
			c-1-0.2-1.9-0.1-2.8,0.3c-1.3,0.5-2.6,1.1-4,1.7c-0.6,0.2-1.2,0.4-1.8,0.6c-0.5,0.1-1-0.4-0.9-0.9c0.2-0.7,0.4-1.3,0.6-2
			c1.1-2.5,2.2-5,3.2-7.6c0.5-1.3,1.4-2.2,2.5-2.9c2-1.2,4.2-1.9,6.5-2.5c4.9-1.3,9.8-1.9,14.8-2.1c3-0.1,6-0.1,9,0.1
			c7.9,0.6,15.5,2.5,22.7,5.9c1.5,0.7,2.9,1.7,4.4,2.6c0.4,0.2,0.7,0.5,1,0.8c0.9,0.9,1,1.5,0.5,2.7c-1.4,3-3,5.7-4.8,8.4
			c-0.5,0.7-1.1,1-1.8,1.2c-4.3,1.6-8.6,3.3-13,4.9c-0.5,0.2-1,0.4-1.7,0.7c0.3,0.3,0.4,0.6,0.7,0.8c2.3,2.2,4.8,4.2,7.6,5.7
			c5.3,2.8,10.8,3.6,16.7,2.2c4.1-1,7.9-2.7,11.6-4.6c1.2-0.6,2.4-1.3,3.7-2.1c0-0.4,0-0.8-0.1-1.1c-1.6-6.9-2.7-13.8-3.6-20.8
			c-1-7.5-1.7-15-2.2-22.6c-0.4-6.2-0.8-12.3-1.1-18.5c-0.3-6.6-0.5-13.2-0.8-19.8c-0.1-2.7-0.4-5.4-1.5-7.9
			c-0.3-0.8-0.4-1.6-0.2-2.4c0.9-3.3,2.2-6.5,3.6-9.6c0.1-0.2,0.3-0.2,0.5-0.5c0.2,0.2,0.5,0.3,0.7,0.6c0.3,0.5,0.6,1.1,0.8,1.7
			c2.8,7.3,5.5,14.6,8.3,21.9c0.6,1.5,1,3,0.6,4.7c-0.4-0.1-0.8,0-1-0.2c-1.2-0.7-2.1-1.8-3-2.8c-0.4-0.4-0.7-1-1.4-1.3
			c-0.3,0.8-0.2,1.4-0.2,2.1c0.1,2.4,0.2,4.7,0.4,7.1c0.2,4.2,0.4,8.5,0.6,12.7c0.3,6,0.6,12.1,1.1,18.1c0.5,6.2,1.1,12.3,1.8,18.5
			c0.6,5.1,1.4,10.3,2.9,15.3c0.1,0.5,0.3,1,0.5,1.4c0,0.1,0.2,0.2,0.3,0.3c1.3-0.4,2.6-0.8,3.9-1.1c2.7-0.7,5.4-1,8.2-1
			c3.3,0,6,1.4,8,4.1c1.8,2.4,2.7,5.1,3.1,7.9c0.4,2.7,0.4,5.3,0.1,8c-0.3,2.3-1.1,4.5-2.3,6.5c-2,3.2-4.9,4.5-8.6,4
			c-3.6-0.4-6.6-2.2-9.2-4.6c-2.6-2.4-4.8-5.2-6.4-8.5c-0.2-0.3-0.3-0.6-0.5-1c-0.7,0-1.2,0.5-1.7,0.7c-2.5,1.3-5,2.7-7.6,4
			c-2.8,1.4-5.7,2.4-8.8,3.2c-3.6,0.9-7.2,0.9-10.8,0.4c-6.1-0.8-11.4-3.4-16.3-7.1c-3.2-2.5-6.4-5.1-9.4-7.8
			c-0.6-0.5-1.1-1-1.7-1.5c-0.5,0.2-1,0.3-1.5,0.5c-8.2,3.4-16.5,6.6-24.8,9.5c-9.8,3.4-19.7,6.4-29.8,8.7
			c-5.9,1.3-11.7,2.4-17.7,3.2c-7.4,1-14.9,1.7-22.4,1.9c-2.6,0.1-5.1,0.2-7.7,0.2c-6.6-0.1-13.2-0.3-19.8-0.9
			c-6-0.6-12-1.4-17.9-2.7c-7.4-1.6-14.5-4.1-21.3-7.6c-6-3.1-10.3-7.8-13.2-13.8c-1.2-2.4-1.7-5.1-2.1-7.7c-0.4-2.7-0.7-5.4-1-8.2
			c0-0.2-0.1-0.5-0.2-0.9c-0.5,0.5-0.4,1-0.5,1.4c-0.5,2.6-1.4,5.1-2.5,7.5c-2,4.2-4.8,7.7-8.8,10.2c-0.9,0.6-1.9,1-2.8,1.5
			c-0.3,0.2-0.6,0.4-1,0.6c-0.2,4.1-1.3,7.9-2.7,11.6c-1.3,3.5-3.2,6.8-5.7,9.6c-6.2,7.1-13,13.5-20.4,19.2
			c-4.3,3.3-8.9,6.3-13.8,8.6c-3.3,1.6-6.7,2.8-10.3,3.5c-3.2,0.6-6.5,0.7-9.7,0c-5.7-1.1-9.8-4.4-12.8-9.3c-2-3.3-3-6.8-3.5-10.6
			c-0.6-5.6-0.1-11.1,0.9-16.6c0.4-2.1,1-4.3,1.5-6.4c0.1-0.4,0.2-0.8,0.3-1.4c-6-1.5-11.2-4.4-15.9-8c-0.7,0.2-0.7,0.8-0.9,1.2
			c-1.7,3.9-3.7,7.5-6.4,10.7c-2.2,2.6-4.6,4.9-7.5,6.7c-5.2,3.4-10.9,3.8-16.7,2.2c-2.9-0.8-5.1-2.5-6.9-4.9
			c-1.6-2.2-2.6-4.7-3.4-7.3c-0.8-2.8-1.3-5.6-1.6-8.5c-0.6-7-0.9-14-1.2-20.9c-0.2-5.8-0.4-11.6-0.6-17.4
			c-0.2-5.3-0.3-10.6-0.5-15.9c-0.3-7.5-0.6-15.1-1.1-22.6c-0.4-6.5-1.5-13-3.1-19.4c-0.6-2.2-1.1-4.5-1.8-6.7
			c-0.3-1.1-0.4-2.2-0.2-3.3c0.5-2.7,1.5-5.3,2.6-7.8C373.7,26.9,374,26.7,374.3,26.3z M726.8,119.6c-0.5-0.3-0.8-0.6-1.1-0.7
			c-1.8-0.9-3.7-1.5-5.7-1.9c-4.1-0.8-8.2-0.8-12.3-0.3c-0.2,0-0.3,0.2-0.5,0.3c1.4,1.2,2.8,2.4,4.1,3.6c1.4,1.3,2.6,2.7,3.9,4
			C716.7,124.2,724.5,120.9,726.8,119.6z M436.1,127.4c-1.6,0-3,0.2-4.3,0.9c-0.6,0.4-1.2,0.9-1.7,1.4c-0.6,0.6-0.5,1.1,0.3,1.7
			c3.5,2.5,7.4,4.1,11.4,5.4c0.7,0.2,1.5,0.5,2.1,0c0.7-0.6,0.4-1.5,0.1-2.3c-0.7-2.4-2.1-4.2-4-5.7
			C438.9,127.8,437.5,127.3,436.1,127.4z M503.3,130.4c-0.8-1.6-2.6-3.4-4.4-4.5c-2.3-1.5-4.7-1.4-7.2-0.7c-0.4,0.1-0.8,0.3-1.1,0.6
			c-0.8,0.7-1,1.5-0.7,2.5c0.2,0.7,0.6,1.4,1.4,1.7c0.7,0.3,1.5,0.6,2.3,0.8c2.1,0.5,4.3,0.5,6.5,0.2
			C501.2,131,502.3,131,503.3,130.4z M775.3,142.2c0.3,0.4,0.4,0.7,0.7,1c2.3,2.7,5.4,3.7,8.8,3.7c0.4,0,0.9-0.1,1.3-0.3
			c0.8-0.3,1.2-1,0.8-1.8c-0.3-0.5-0.7-1.1-1.1-1.4c-1.2-1-2.6-1.7-4.3-1.7c-1.6,0-3.2,0.1-4.8,0.1
			C776.2,141.9,775.8,142.1,775.3,142.2z"/>
		<path class="st0" d="M154.4,121.1c0.2-0.6,0.4-1,0.6-1.5c0.6-1.4,1.6-2.2,3-2.6c8.8-2.4,17.3-5.7,25.8-9.1c1-0.4,1.9-0.9,2.9-1.4
			c0.9-0.5,1-0.8,0.6-1.8c-0.3-0.6-0.6-1.2-1.1-1.7c-0.5-0.6-1.1-1.1-1.7-1.5c-3.1-2-6.5-3.2-10.2-3.3c-2.3,0-4.6,0-6.9,0
			c-0.9,0-1.7,0-2.6-0.1c-4.5-0.3-7.5-3-8.7-7.1c-0.9-3-0.7-5.9,0.2-8.9c1.2-4.3,3.4-8,6.4-11.3c1.6-1.7,3.5-3,5.9-3.3
			c1.4-0.2,2.9,0.1,4.3,0.4c3.1,0.8,5.7,2.6,7.9,4.8c4,3.9,6.8,8.5,8.5,13.7c2.1,6.6,2.6,13.3,1.2,20.2c-0.4,2.2-1.2,4.2-2.2,6.2
			c-1.3,2.4-3,4.2-5.4,5.5c-2.7,1.5-5.6,2.5-8.5,3.3c-0.4,0.1-0.7,0.2-1.1,0.3c-0.1,0-0.1,0.2-0.3,0.3c0.3,0.3,0.6,0.6,1,0.8
			c4,3.2,6.3,7.3,7.1,12.4c0.9,5.8-1,10.6-4.8,14.8c-0.5,0.6-1.1,1-1.7,1.5c-2.1,1.6-4.5,2.1-7.1,1.6c-1.8-0.4-3.5-1.1-5-2
			c-5.9-3.7-10.3-8.6-12.5-15.4c-0.1-0.2-0.2-0.5-0.3-0.9c-0.2,0.4-0.4,0.6-0.5,0.8c-0.7,2.1-1.5,4.1-2.6,6c-0.9,1.8-2,3.4-3.4,4.9
			c-0.5,0.5-0.8,1.1-1,1.8c-1.1,4.1-1.9,8.1-2.4,12.3c-0.4,3.5-0.3,7,1,10.3c1.4,3.5,3.4,6.7,6.5,9c2.7,2.1,5.9,2.9,9.3,2.7
			c4.3-0.2,8.4-1.4,12.3-3c4.7-1.9,9.2-4.3,13.5-6.9c7.2-4.4,13.8-9.4,20.1-15c1.4-1.3,2.8-2.7,4.1-4.1c0.8-0.8,1.1-1.8,1.1-3.1
			c-0.2-5.6-1.6-10.9-3.6-16c-0.6-1.6-1.4-3.2-2.1-4.8c-0.3-0.7-0.7-1.5-1-2.2c-0.4-1-0.5-1.9-0.2-2.9c0.8-2.6,1.5-5.3,2.3-7.9
			c0.1-0.5,0.4-0.9,0.6-1.2c0.6-0.2,0.9,0.1,1.1,0.4c0.4,0.6,0.7,1.2,1,1.8c0.4,0.8,0.8,1.7,1.2,2.5c1.2,2.3,3.2,3.4,5.7,3.8
			c3.5,0.5,6.7-0.1,9.8-1.8c1.1-0.6,2.1-1.3,3.2-2c1.4-0.9,2.2-2.3,2.6-4c0.6-2.5,0.7-4.9,0.6-7.4c-0.2-2.9-0.4-5.9-0.6-8.8
			c-0.4-4.4-0.9-8.7-1.3-13c-0.4-3.9-0.8-7.7-1.3-11.5c-0.5-4.1-0.9-8.2-1.4-12.3c-0.4-3.9-0.8-7.8-1.3-11.7
			c-0.4-4.1-0.9-8.2-1.3-12.3c-0.3-3.2-0.6-6.5-0.9-9.7c-0.3-3.5-0.7-7-1-10.4c-0.1-1.4-0.2-2.9-0.2-4.3c0-0.6,0.1-1.3,0.3-1.8
			c1.5-4,3-8.1,4.5-12.1c0.1-0.2,0.1-0.3,0.2-0.5c0.4-0.6,0.9-0.8,1.6-0.6c0.4,0.1,0.7,0.3,1,0.5c5,2.7,9.8,5.8,14.3,9.2
			c5.1,3.9,9.9,8.2,14.5,12.8c4.1,4.2,8.1,8.5,11.6,13.2c7.8,10.4,13,22,15.4,34.8c1.4,7.6,1.9,15.3,1.4,22.9
			c-0.4,7.5-1.9,14.9-4.8,21.9c-2.5,6.1-6.1,11.5-10.6,16.2c-0.6,0.6-1.1,1.2-2,1.5c0-0.4-0.2-0.7-0.1-0.9c0.3-0.8,0.6-1.5,1-2.2
			c1.2-2.2,2.5-4.3,3.8-6.5c1.6-2.9,3.3-5.9,4.8-8.9c1.9-3.9,3.1-8,3.8-12.3c0.5-3,0.5-6,0.4-9c-0.1-2.8-0.3-5.6-0.6-8.4
			c-0.8-7.5-2.7-14.6-5.9-21.4c-3.7-7.9-8.6-14.9-14.3-21.4c-5.8-6.6-12-12.9-18.9-18.4c-3.1-2.5-6.4-4.8-9.9-6.8
			c-0.8-0.5-1.7-0.9-2.5-1.2c-0.5-0.2-0.9,0.1-0.9,0.6c0,0.6-0.1,1.1,0,1.7c0.4,4.7,0.9,9.3,1.3,14c0.4,4.6,0.8,9.2,1.2,13.8
			c0.3,3,0.6,6,0.9,8.9c0.3,3.2,0.6,6.3,0.9,9.5c0.5,5.3,1,10.6,1.4,15.9c0.4,5,0.6,10,1,15c0.3,4,0.1,8-0.2,12
			c-0.5,6.3-1.7,12.4-4.5,18.1c-1.2,2.5-2.7,4.9-4.5,7.1c-2,2.3-4.4,4.1-7.4,4.9c-1.5,0.4-3,0.4-4.5,0.3c-0.5,0-1-0.1-1.6-0.1
			c-0.1,0.5-0.2,0.9-0.2,1.3c-0.2,3.3-0.3,6.6-0.5,9.9c-0.4,4.4-1.1,8.7-2.6,12.8c-1,2.9-2.5,5.6-4.6,7.9c-4.1,4.5-8.7,8.4-13.6,12
			c-4.2,3-8.5,5.8-13,8.2c-4.5,2.4-9.2,4.5-14.3,5.5c-3.6,0.8-7.3,1.1-11,0.3c-4.6-0.9-8.1-3.5-10.7-7.3c-2.6-4-4.1-8.4-4.5-13.1
			c-0.4-4.1-0.2-8.1,0.3-12.1c0.4-3.6,1.2-7.1,2.2-10.6c0.1-0.3,0.1-0.7,0.2-1.1c-0.5-0.3-0.8,0-1.1,0.2c-3.7,1.9-7.7,2.5-11.8,1.7
			c-5.9-1.2-9.6-4.8-11.1-10.6c-0.2-0.6-0.3-1.2-0.5-2c-0.4,0.6-0.7,0.9-1,1.3c-3.5,5-7.9,9-13.5,11.6c-2.9,1.3-5.9,2-9.1,2
			c-2.2,0-4.4,0-6.5-0.3c-4.4-0.4-7.9-2.5-10.8-5.8c-1-1.1-1.8-2.4-2.6-3.6c-1.4-2.3-2.8-4.6-4.1-6.9c-0.7-1.2-1.5-2.3-2.6-3.2
			c-0.8-0.6-1.6-0.9-2.6-0.9c-1.7,0-3.2,0.5-4.6,1.3c-1.7,0.9-3.2,2.2-4.6,3.6c-3.3,3.5-6.1,7.3-7.9,11.8c-1.7,4.1-3.4,8.2-5.1,12.3
			c-0.9,2.1-1.9,4.1-3,6c-1,1.9-2.4,3.6-4,5.2c-3.5,3.4-8,3.1-11.3,0.6c-2.2-1.7-3.7-3.9-5-6.3c-3.2-6.2-5.2-12.7-5.5-19.7
			c-0.3-6.6-0.1-13.1,1.4-19.6c0.4-1.5,0.8-3,1.3-4.5c0.3-0.9,0.3-0.9,1.2-1.6c0.5,0.6,0.5,1.4,0.4,2.1c-0.2,1.9-0.4,3.9-0.6,5.8
			c-0.6,4.7-0.5,9.4-0.4,14c0.1,3.6,0.6,7.2,1.5,10.7c0.6,2.3,1.5,4.5,2.9,6.5c1.5,2.1,3.4,3.4,5.9,3.9c2.5,0.5,4.7-0.2,6.6-1.8
			c2.1-1.8,3.6-4.1,4.8-6.6c2.6-5.5,5-11,7.6-16.5c2.6-5.6,6.1-10.6,10.6-14.9c1.4-1.3,2.8-2.4,4.5-3.4c1-0.6,2.1-1,3.3-1.3
			c2-0.4,3.7,0,5.3,1.2c1.2,0.9,2.1,2.1,2.9,3.4c1.3,2.1,2.6,4.1,3.8,6.2c1.1,1.8,2.4,3.4,3.8,4.9c2.3,2.3,5,3.7,8.2,4.3
			c5.7,0.9,11.3,0.5,16.8-1.6c3.2-1.3,6.1-3.1,8.4-5.7c2.2-2.4,4.4-4.8,6.6-7.2c0.6-0.6,1.3-1.2,1.9-1.8c0.3-0.2,0.9-0.1,0.9,0.3
			c0.1,0.5,0.1,1,0.1,1.5c-0.1,0.6-0.2,1.2-0.4,1.8c-0.4,1.3-0.4,2.6-0.4,3.9c0.1,3.5,1.9,6.1,5.5,6.8c7.7,1.6,14.2-0.4,19.3-6.6
			c1.7-2.1,2.9-4.5,4.1-6.9c0.5-1,1-2,1.5-3c0.2-0.4,0.4-0.8,0.7-1.1C152.2,120.9,152.7,120.8,154.4,121.1z M157.3,131.5
			c0.1,0.3,0.2,0.7,0.4,1c0.5,0.7,1.1,1.4,1.7,2c1.7,1.9,3.6,3.6,5.9,4.8c1.8,0.9,3.7,1.5,5.8,1.4c1.6-0.1,2-0.7,1.1-2.2
			c-0.9-1.5-2-2.7-3.4-3.7c-2.9-2.1-6.2-3.1-9.7-3.6C158.5,131.2,157.9,131.1,157.3,131.5z M177.4,86.5c0-0.2,0-0.3,0-0.4
			c-1.4-2.3-3.3-4.1-5.6-5.3c-2-1-4-1.2-6.2-0.8c-1,0.2-1.8,0.7-2,1.7c-0.3,1.1,0,2.1,0.9,2.9c0.5,0.4,1,0.7,1.6,0.9
			c1.1,0.3,2.3,0.5,3.5,0.6c2,0.2,4.1,0.3,6.2,0.4C176.3,86.6,176.9,86.5,177.4,86.5z"/>
		<path class="st0" d="M907.8,147.9c-0.8,2.8-1.4,5.6-1.9,8.5c-0.4,2.2-0.6,4.5-0.8,6.7c-0.3,5.3,1.5,9.8,4.8,13.8
			c3.6,4.4,8.2,6.1,13.8,5.4c4.7-0.6,9.1-2.1,13.4-4c6-2.7,11.6-6.1,17-9.8c4.9-3.4,9.5-7.1,13.9-11c1.2-1.1,2.3-2.3,3.5-3.4
			c0.5-0.5,0.9-1.1,1.3-1.6c0.3-0.5,0.4-1,0.4-1.6c-0.2-6-1.7-11.7-4-17.2c-0.7-1.7-1.5-3.3-2.3-4.9c-0.9-1.7-1.1-3.4-0.4-5.2
			c0.7-2.1,1.3-4.3,1.9-6.5c0.2-0.7,0.4-1.3,1-1.7c0.8,0.1,1,0.7,1.3,1.2c0.5,0.9,0.9,1.8,1.3,2.7c1.4,3.4,4.1,4.8,7.5,4.8
			c5.8,0.1,11.1-1.5,16-4.5c2.6-1.6,4.6-3.8,5.9-6.6c1.1-2.4,2.3-4.9,3.4-7.3c0.4-0.8,0.8-1.6,1.2-2.3c0.3-0.5,0.6-1,1-1.3
			c0.8-0.6,1.3-1.3,1.8-2.1c1.9-3,4.2-5.7,7-8c1.3-1,2.7-1.9,4.2-2.4c3.8-1.3,7.5-0.3,10,3c1.5,2,2.5,4.3,3.2,6.8
			c1.6,5.7,1.7,11.5,0.1,17.2c-0.4,1.5-1,2.9-1.7,4.4c-0.3,0.7-0.8,1.3-1.2,1.9c-0.6,0.8-1.5,1.2-2.6,1.2c-4.2,0-8.2-0.9-12-2.5
			c-3.4-1.4-6.5-3.2-9.4-5.3c-0.4-0.3-0.9-0.6-1.3-0.9c-0.7,0.3-0.7,0.9-0.9,1.4c-1.9,4.4-4.4,8.4-7.6,11.9
			c-2.3,2.5-4.9,4.8-8.1,6.3c-3.3,1.7-6.8,2.4-10.5,1.8c-0.2,0-0.4,0-0.6,0c-0.1,0-0.1,0-0.3,0.1c-0.2,1.3-0.2,2.8-0.3,4.2
			c-0.1,5.5-0.6,11-2,16.3c-0.3,1.3-0.8,2.6-1.2,3.9c-1.2,3.3-3.2,6.1-5.6,8.6c-5.4,5.7-11.7,10.3-18.2,14.6c-3.5,2.2-7,4.3-10.8,6
			c-4.1,1.9-8.3,3.5-12.8,4.1c-3,0.5-6,0.6-8.9,0c-4.7-1-8.2-3.5-10.7-7.5c-3.1-4.7-4.4-10-4.6-15.6c-0.2-6.9,0.8-13.6,2.7-20.2
			c0.2-0.5,0.3-1.1,0.4-1.5c-0.3-0.4-0.5-0.2-0.7-0.1c-8.3,3.7-16.7,7.4-25,11.1c-2,0.9-3.9,2-5.8,3c-3.6,1.9-6.8,4.4-9.7,7.2
			c-5,4.7-9.5,9.9-14.1,15c-1.7,1.9-3.5,3.8-5.5,5.3c-2.2,1.7-4.6,2.9-7.4,3.5c-3.8,0.7-7.2-0.1-10.2-2.4c-4.1-3.1-6.5-7.2-7.6-12.1
			c-0.7-3.1-0.6-6.3-0.2-9.5c0.8-6.1,2.8-11.9,5.2-17.5c1.2-2.8,2.6-5.6,3.9-8.3c0.3-0.7,0.7-1.3,1.2-1.9c0.1-0.2,0.4-0.2,0.6-0.4
			c0.4,0.6,0.2,1.2,0.1,1.7c-0.2,1-0.5,2.1-0.9,3.1c-1.2,3.5-2.4,7-3.7,10.4c-1.3,3.6-2.4,7.2-3.1,11c-0.5,2.9-0.8,5.8-0.1,8.7
			c0.4,1.6,1,3.1,2,4.4c1.4,1.8,3.2,2.9,5.5,3.1c2.8,0.3,5.5-0.2,8-1.3c2.7-1.1,5-2.8,7.2-4.7c1.2-1,2.2-2.2,3.3-3.4
			c2.4-2.8,4.8-5.6,7.1-8.5c4.7-5.8,10.5-10.3,16.9-14.1c5.5-3.2,11.3-5.7,17-8.2c5.6-2.5,11.2-4.8,16.8-7.4c3-1.3,5.8-2.9,8.7-4.4
			c1.2-0.6,2.2-1.4,3.3-2.1c1.3-0.9,1.8-2,0.6-3.7c-0.6-0.9-1.4-1.6-2.2-2.3c-2.4-1.9-4.9-3.9-7.4-5.7c-5.7-4.1-11.7-7.7-17.6-11.5
			c-4.6-3-9.2-5.9-13.4-9.2c-5-3.9-9.6-8.2-13.4-13.3c-0.6-0.8-1.3-1.3-2.2-1.7c-2.6-1.2-2.1-1.3-2.1-3.4c0-4.1,0.3-8.2,1.1-12.3
			c0.2-0.7,0.3-1.5,0.5-2.2c0.7-2.3,1.9-4.2,3.8-5.7c3.1-2.5,6.5-4.7,9.9-6.8c6.4-3.9,13.1-7.3,19.8-10.6c9-4.4,18.1-8.5,27.3-12.4
			c7.6-3.2,15.3-6.2,23.2-8.6c3.4-1,6.9-1.9,10.4-2.3c1.4-0.2,2.9-0.2,4.3,0.1c2.2,0.5,3.3,1.5,3.6,3.8c0.2,1.6,0.2,3.2-0.1,4.8
			c-0.6,3-1.9,5.8-3.4,8.5c-1.9,3.3-4.2,6.4-6.7,9.2c-2.5,2.8-5,5.6-7.4,8.5c-2.3,2.7-4.3,5.7-5.9,8.9c-0.2,0.3-0.4,0.7-0.6,1
			c-0.1,0.1-0.2,0.1-0.5,0.2c0-0.3,0-0.5,0-0.7c0.2-2.5,1.1-4.9,2.3-7.1c0.7-1.3,1.3-2.5,2-3.8c1.1-2.2,2.6-4.1,4.2-6
			c3-3.6,6-7.2,8.9-10.8c0.6-0.7,1.1-1.5,1.6-2.3c0.6-1.1,0.4-2-0.8-2.4c-1-0.4-2-0.6-3.1-0.7c-2-0.2-4,0.1-5.9,0.5
			c-4.9,1.1-9.6,2.8-14.3,4.6c-10.4,4-20.5,8.5-30.6,13.3c-9.3,4.4-18.4,8.9-27.3,14.1c-4,2.3-7.9,4.8-11.6,7.6
			c-0.6,0.4-1.3,0.8-1.6,1.6c0.2,0.7,0.8,0.8,1.3,1c3.5,1.7,7,3.3,10.5,4.9c1.1,0.5,2.1,1.1,3.1,1.7c0.5,0.3,0.9,0.7,1.3,1.1
			c0.5,0.5,0.2,1.3-0.4,1.5c-0.5,0.2-1,0.2-1.5,0.3c-0.9,0-1.9,0-2.8,0c-0.5,0-1,0-1.5,0c-0.2,0.4,0.1,0.6,0.3,0.8
			c1.4,1.3,2.8,2.7,4.3,3.9c3.2,2.6,6.6,4.7,10.1,6.8c6,3.6,12,7.3,17.9,10.9c3.6,2.2,7,4.8,10,7.9c1.4,1.5,2.7,3.1,3.8,4.8
			c2.3,3.6,3,7.5,2.5,11.7c-0.2,2-0.6,3.9-1.3,5.8c-1.3,3.7-3.5,6.6-6.7,8.8C912.2,145.4,910.1,146.5,907.8,147.9z M1012,104.6
			c0.2,0.2,0.4,0.4,0.6,0.5c3.6,2.6,7.7,4.4,12,5.6c0.4,0.1,0.7,0.2,1.1,0.2c0.6,0,1-0.3,1-0.9c0-0.7-0.1-1.5-0.3-2.2
			c-0.6-1.8-1.7-3.3-3.1-4.6c-2.8-2.6-6.2-2.4-9.2-1C1013,102.8,1012.3,103.4,1012,104.6z"/>
		<path class="st0" d="M251.4,112.8c0.5,0.3,0.5,0.6,0.4,0.9c-0.4,1.3-0.7,2.5-1.1,3.8c-0.7,1.9-1.4,3.7-2.1,5.6
			c-1.5,4-2.1,8.2-1.8,12.5c0.2,2.5,1.2,4.7,2.6,6.7c1.9,2.7,4.5,4.7,7.3,6.4c3.6,2.1,7.5,3.4,11.5,4.3c3.8,0.8,7.6,1.2,11.5,1.3
			c1.4,0,2.7,0.2,4.1,0.1c4.3-0.1,8.6-0.3,12.9-0.8c11-1.3,21.7-3.9,32.3-7.2c7.4-2.3,14.7-4.7,21.8-8c1.9-0.9,3.6-1.9,5.5-2.9
			c0.4-0.2,0.7-0.5,1.1-0.7c0.6-0.4,0.9-1.1,0.7-1.8c-0.2-0.8-0.5-1.6-0.9-2.3c-0.8-1.4-1.6-2.7-2.5-4c-1.2-1.7-2.5-3.4-3.8-5.1
			c-0.3-0.4-0.7-0.9-1-1.4c-0.8-1.1-1-2.3-0.7-3.6c0.6-3,1.6-5.9,3-8.6c0.2-0.4,0.6-0.8,0.8-1.1c0.8,0,1.3,0.5,1.7,0.9
			c1,1.1,1.9,2.3,2.8,3.5c1.5,2.4,2.8,4.9,3.9,7.5c1.5,3.4,1.9,7,1.5,10.6c-0.3,2.7-0.8,5.4-1.7,8c-1.8,4.8-4.9,8.5-9.3,11.1
			c-2.9,1.7-6,3.1-9.2,4.3c-11.3,4.3-22.9,7.9-34.7,10.5c-4.6,1-9.3,1.9-14,2.5c-4.5,0.6-9.1,1-13.6,1c-2.2,0-4.5,0-6.7-0.1
			c-5.2-0.3-10.3-1.3-15-3.6c-7.8-3.7-12.6-9.8-14.4-18.3c-0.8-3.6-0.8-7.3-0.5-11c0.5-6.5,2.4-12.6,5.6-18.3
			C249.9,114.7,250.4,113.6,251.4,112.8z"/>
		<path class="st0" d="M803.1,24.5c0.8,0.5,1,1.1,1.2,1.7c0.9,2.3,1.9,4.6,2.8,7c1.9,5,3.7,10.1,5.6,15.1c0.3,0.9,0.6,1.8,0.8,2.7
			c0.2,0.8,0.2,1.6,0.1,2.3c-0.7,0.3-1.2,0-1.5-0.3c-0.9-0.8-1.7-1.6-2.6-2.4c-0.4-0.4-0.9-0.9-1.3-1.3c-0.6,0.4-0.5,0.9-0.4,1.4
			c0.1,1.9,0.2,3.9,0.4,5.8c0.2,2.4,0.4,4.9,0.6,7.3c0.4,6,0.8,12.1,1.3,18.1c0.5,7,1,13.9,1.5,20.9c0.4,5.6,0.8,11.2,1.1,16.8
			c0.3,4.6,0.7,9.2,0.7,13.8c0,7.2-0.9,14.3-3.1,21.2c-0.7,2.2-1.6,4.3-2.5,6.5c-0.2,0.5-0.5,1.1-1.2,1.4c-0.1-0.3-0.2-0.6-0.2-0.8
			c0-1.1,0-2.1,0.1-3.2c0.8-6.2,0.8-12.5,0.5-18.7c-0.4-6.7-0.8-13.5-1.3-20.2c-0.3-4.5-0.6-9.1-0.9-13.6
			c-0.4-6.2-0.9-12.5-1.3-18.7c-0.3-4.2-0.6-8.5-0.9-12.7c-0.3-5-0.7-10-1-14.9c-0.3-4.3-0.4-8.6-0.6-12.9c-0.1-2.7-0.2-5.4-1-8
			c-0.2-0.5-0.3-1.1-0.5-1.6c-0.4-0.9-0.5-1.8-0.2-2.7c0.9-3.3,2.2-6.4,3.6-9.4C802.7,24.8,802.9,24.7,803.1,24.5z"/>
		<path class="st0" d="M957.2,72.4c0.2-1.1,0.3-1.9,0.4-2.6c0.4-1.6,0.9-3.3,1.3-4.9c0.2-0.9,0.7-1.5,1.6-1.9
			c2.8-1.4,5.7-2.9,8.5-4.4c8.5-4.4,17-8.8,25.4-13.2c8.5-4.4,17-8.8,25.4-13.2c3.2-1.7,6.4-3.3,9.6-5c0.8-0.4,1.6-1,2.5-1
			c0.4,0.5,0.3,1,0.1,1.5c-0.4,1.3-0.8,2.6-1.3,3.9c-0.3,1-1,1.6-2,2.1c-5.9,3.1-11.9,6.2-17.8,9.3c-17.1,9-34,18.2-50.8,27.6
			C959.4,71.2,958.4,71.7,957.2,72.4z"/>
		<path class="st0" d="M116.6,62.7c0.9,0.5,1.1,1.2,1.3,1.8c0.5,1.7,1,3.5,1.4,5.2c0.7,2.9,1.1,5.8,1.2,8.7c0,1.4,0.4,2.7,1.1,3.9
			c1.3,2.4,4.2,2.9,6,2.5c1.3-0.3,2-1.2,2.3-2.6c-0.6-1.2-1.3-2.5-1.9-3.7c-1.4-2.7-2.6-5.4-3.1-8.4c-0.5-2.9,0-5.6,1.8-8
			c0.2-0.2,0.4-0.4,0.7-0.7c0.5,0.5,0.6,1,0.6,1.6c0.2,2.6,1,5,2,7.4c0.7,1.6,1.2,3.2,1.9,4.7c1.6,3.6,1.4,7.3,0.1,11
			c-0.5,1.5-1.1,2.9-2,4.2c-2.1,2.9-5.5,3.4-8.3,1.1c-1.1-0.9-1.9-2-2.5-3.2c-0.3-0.7-0.6-1.4-1-2.2c-0.2,0.4-0.4,0.6-0.5,0.8
			c-0.6,1.3-1.1,2.6-1.8,3.9c-0.8,1.4-1.9,2.5-3.3,3.2c-1.5,0.9-3.2,1.1-4.9,0.8c-1.2-0.2-2.1-0.8-2.8-1.7c-1.3-1.4-2-3.1-2.4-5
			c-0.4-1.7-0.4-3.3-0.4-5c0-1.9,0-3.8,0-5.6c0-1-0.2-1.8-1.3-2.2c-1.1-0.4-1.3-1.3-1.2-2.3c0.1-1,0.4-2,0.9-2.9
			c0.7-1.3,1.7-2.4,2.9-3.4c0.1-0.1,0.3-0.2,0.5-0.3c0.9-0.5,1.6-0.3,1.9,0.7c0.2,0.8,0.4,1.7,0.4,2.6c0.1,2.2,0,4.4-0.5,6.5
			c-0.5,2.6-0.3,5.2,0.7,7.7c0.2,0.4,0.4,0.8,0.6,1.2c1.2,1.9,2.3,2.4,4.6,1.7c2.4-0.7,5-3.5,5.2-6.8c0.1-1.7-0.2-3.4-0.6-5
			c-0.4-1.8-0.8-3.7-1.2-5.5C113.9,66.9,115.1,64.8,116.6,62.7z"/>
		<path class="st0" d="M673.4,64.3c0.1-0.4,0.1-0.8,0.3-1.1c1.3-2.3,2.7-4.7,4.1-6.9c0.9-1.4,2.3-2.2,3.9-2.7
			c1.4-0.5,2.9-0.7,4.4-0.7c4.4,0,8.7-0.2,13.1,0.3c1.7,0.2,3.5,0.5,5.2,0.9c0.9,0.2,1.8,0.6,2.6,1.1c1.1,0.7,1.3,1.5,0.8,2.7
			c-0.3,0.9-0.8,1.7-1.3,2.5c-2.2,3.6-4.7,6.9-7.6,10c-0.9,1-2,1.9-3,2.8c-1.1,1-2.5,1.6-3.9,2.2c-3.9,1.5-7.8,2.6-11.8,3.7
			c-1.6,0.4-3.3,0.8-4.9,1.3c-0.2,0.1-0.5,0.1-1,0.2c0.4-0.5,0.6-0.8,0.8-0.9c1.1-0.8,2.2-1.6,3.4-2.3c3.4-1.9,6.9-3.8,10.3-5.7
			c2.2-1.2,4.3-2.4,6.5-3.7c0.5-0.3,1-0.7,1.5-1.1c0.4-0.3,0.3-0.9-0.1-1.1c-0.4-0.2-0.9-0.5-1.4-0.5c-1.7-0.3-3.3-0.6-5-0.7
			c-4.2-0.1-8.4-0.1-12.5-0.1c-1.1,0-2.1,0-3.2,0C674.2,64.5,673.8,64.4,673.4,64.3z"/>
		<path class="st0" d="M457.9,84.3c0.2-0.3,0.4-0.4,0.6-0.6c0.8-0.5,1.5-1.1,2.3-1.5C470.1,77,479,71.1,488,65.3
			c2.9-1.9,6.4-5.3,8.8-8.4c0-1.4-0.2-2.8-0.6-4.2c-1.1-4-2.6-7.8-4.4-11.5c-0.3-0.7-0.8-1.4-1.3-2.1c-0.4-0.6-1.1-0.8-1.6-0.3
			c-1.2,1-2.3,0.7-3.4,0c-1.2-0.7-2.2-1.7-3-2.8c-0.6-0.8-0.8-1.7-0.2-2.6c0.8-1.4,1.6-2.8,2.5-4.2c0.8-1.2,1.1-1.2,2.5-0.9
			c1.4,0.3,2.7,1.1,3.7,2.1c1.9,1.7,3.2,3.9,4.2,6.1c1.3,2.8,2.2,5.8,2.7,8.9c0.1,0.5,0.2,1.1,0.4,1.7c0.6-0.4,0.6-0.9,0.7-1.4
			c0.7-4.4,1.8-8.8,3-13.1c0.6-2.1,1.7-4,3.1-5.7c0.5-0.6,1.1-1.1,1.7-1.4c1.2-0.7,2.5-0.7,3.7,0.2c1.3,1,2.2,2.2,2.8,3.7
			c0.3,0.7,0.3,1.4,0.2,2.2c-0.3,1.1-0.5,2.2-1.2,3.1c-0.4,0.6-0.9,0.6-1.4,0.1c-0.3-0.3-0.6-0.6-0.9-1c-0.3-0.3-0.6-0.7-0.9-1
			c-1.2-1.1-2.7-1.3-3.8,0.4c-0.5,0.9-1,1.9-1.4,2.9c-1.1,2.9-1.7,5.9-2.3,8.9c-0.4,1.8-0.7,3.5-1.1,5.3c-0.4,1.8-1,3.6-1.9,5.3
			c-0.6,1.2-1.1,2.5-1.7,3.8c-1.5,3.4-3.9,6.3-6.7,8.7c-5.8,5-12.1,9.1-19.2,11.8c-3.5,1.3-7,2.6-10.5,3.9c-0.7,0.3-1.4,0.4-2.2,0.6
			C458.4,84.6,458.2,84.5,457.9,84.3z"/>
		<path class="st0" d="M312.2,55c-0.7-0.5-1-0.8-1.5-1c-1.2-0.6-1.8-0.5-2.8,0.5c-0.5,0.5-0.9,1-1.3,1.6c-0.2,0.2-0.4,0.5-0.7,0.4
			c-0.3-1.5-0.1-2.7,0.5-4.9c0.5-1.7,1.3-3.1,2.7-4c0.1-0.9-0.2-1.6-0.4-2.3c-0.9-3.2-2.2-6.2-3.6-9.2c-0.3-0.7-0.7-1.3-1.1-2
			c-0.2-0.3-0.6-0.6-0.8-0.8c-0.3,0-0.4,0-0.5,0.1c-1.2,1-2.4,0.8-3.6-0.2c-0.7-0.6-1.4-1.3-2-1.9c-0.6-0.7-0.7-1.5-0.2-2.3
			c0.7-1.2,1.5-2.5,2.2-3.7c0.4-0.6,0.9-0.7,1.6-0.6c1.6,0.3,2.9,1.1,4,2.3c1.3,1.3,2.2,2.9,2.9,4.5c1,2.1,1.7,4.3,2.1,6.6
			c0.2,0.7,0.3,1.4,0.6,2.5c0.3-0.6,0.5-0.9,0.5-1.3c0.5-3.5,1.5-7,2.4-10.4c0.5-1.9,1.3-3.6,2.6-5.2c0.4-0.5,0.8-0.9,1.4-1.3
			c1.2-0.8,2.3-0.7,3.4,0.2c0.9,0.8,1.6,1.7,2.1,2.8c0.3,0.8,0.3,1.6,0.1,2.4c-0.2,0.8-0.5,1.5-0.9,2.2c-0.2,0.4-0.8,0.5-1.1,0.2
			c-0.4-0.4-0.8-0.8-1.1-1.2c-1.5-1.6-2.7-1.5-3.8,0.4c-1,1.8-1.5,3.7-1.9,5.7c-0.4,1.6-0.7,3.3-1,4.9c-0.4,2.2-1,4.4-1.8,6.5
			c-0.1,0.2-0.1,0.4-0.1,0.6c0.3,0.1,0.7,0.3,1,0.4c2.5,1.1,4.6,2.7,6.4,4.7c0.2,0.3,0.5,0.6,0.7,0.9c0.6,0.9,0.7,1.8,0.3,2.8
			c-0.4,0.8-0.7,1.6-1.1,2.4c-0.3,0.7-0.9,1.2-1.7,1.3c-1.5,0.4-3,0.8-4.5,1.2c-1.5,0.4-3,0.9-4.3,1.8c-0.6,0.4-1.2,0.9-1.8,1.3
			c0.1,0.6,0.2,1.1,0.4,1.5c1.3,4.4,2.4,8.8,3,13.3c0.6,4.2,0.9,8.4,0.7,12.7c-0.1,2-0.5,4-0.8,5.9c0,0.3-0.2,0.6-0.3,1
			c-0.5-0.4-0.5-0.9-0.5-1.4c0-1.1-0.1-2.1-0.1-3.2c0-5.8-1-11.6-2.1-17.3c-0.6-3.3-1.3-6.6-1.9-9.9c-0.4-2.4-0.2-4.7,0.8-7
			c0.8-1.7,2-2.9,3.7-3.6c0.7-0.3,1.5-0.6,2.3-0.9C311.4,55.4,311.6,55.2,312.2,55z"/>
		<path class="st0" d="M961.7,194.7c1.2-0.6,2.3-1.2,3.5-1.6c9.2-3.8,18.2-7.9,27.2-12.2c4.9-2.4,9.5-5.2,13.8-8.6
			c1-0.8,2-1.7,2.9-2.6c1.1-1.1,2-2.4,2.7-3.8c1.1-2.1,2.3-4.1,3.5-6.2c0.7-1.3,0.8-1.3,2.4-1.4c0.3-0.5,0.6-1.1,0.9-1.6
			c0.7-0.9,1.3-1.9,2.1-2.6c1.9-1.8,4-1.8,6,0c1.4,1.3,2.4,2.9,2.9,4.7c0.9,3.4,0.2,6.6-1.2,9.6c0,0.1-0.1,0.1-0.1,0.2
			c-1,1.7-2,2.1-3.9,1.5c-1-0.3-2-0.8-2.9-1.3c-2-1.2-3.9-2.5-5.5-4.2c-0.1-0.1-0.3-0.2-0.5-0.4c-0.2,0.3-0.3,0.5-0.4,0.8
			c-0.3,0.8-0.6,1.6-1,2.4c-1.7,4.1-4.5,7.5-7.8,10.4c-2.9,2.6-6.2,4.9-9.6,6.9c-1.8,1.1-3.7,2.1-5.6,3c-2.5,1.2-5,2.2-7.7,2.8
			c-5,1-10,2.4-14.9,3.5c-2,0.5-4,0.8-6.1,1.1c-0.2,0-0.3,0-0.5,0C961.7,195,961.7,194.9,961.7,194.7z M1026.8,164.4
			c0.1-1.4,0.2-1.4-0.2-2.1c-0.5-1.1-1.2-2-2.2-2.7c-1.5-1.1-3.3-0.6-4.3,1.2C1021.9,162.4,1024.7,164,1026.8,164.4z"/>
		<path class="st0" d="M418.7,163.7c0.4-0.7,0.7-1.3,1.1-1.8c0.5-0.7,0.9-1.3,1.5-1.9c1.7-1.6,3.5-1.5,5.2,0.1
			c1.4,1.4,2.3,3.1,2.5,5.1c0.2,2-0.1,4-0.8,5.9c-0.1,0.3-0.2,0.6-0.4,0.9c-0.8,1.5-1.7,2-3.4,1.5c-0.8-0.3-1.6-0.6-2.4-1.1
			c-1.6-0.9-3.2-2-4.5-3.3c-0.1-0.1-0.3-0.2-0.5-0.4c-0.1,0.2-0.3,0.4-0.4,0.6c-1.8,5.5-5.5,9.6-10,13c-3.8,2.8-7.9,5.1-12.1,7
			c-1,0.5-2.1,0.7-3.2,1c-4.2,1-8.5,2-12.8,3c-1.6,0.4-3.3,0.7-5,1c-0.3,0.1-0.6,0-1.2,0c0.3-0.3,0.5-0.5,0.6-0.6
			c0.7-0.4,1.5-0.7,2.2-1c7.7-3.1,15.2-6.6,22.7-10.2c3.7-1.8,7.2-4,10.5-6.5c1.1-0.8,2.1-1.8,3.1-2.7c1-0.9,1.8-2.1,2.4-3.3
			c1-1.8,2-3.6,3-5.4C417.4,163.9,417.8,163.4,418.7,163.7z M420.9,165.5c0.9,1.1,3.5,2.8,5,3.2c0.5,0.1,0.9-0.2,0.8-0.7
			c-0.3-1.5-1.2-2.6-2.4-3.4c-0.7-0.5-1.4-0.4-2.1-0.1C421.6,164.7,421.1,165,420.9,165.5z"/>
		<path class="st0" d="M403.6,60c-0.5-0.3-0.5-0.7-0.4-1.1c0.1-0.9,0.3-1.7,0.4-2.6c0.9-6.6-1-12.4-4.9-17.7
			c-1.8-2.4-3.7-4.5-5.9-6.5c-1.6-1.5-1.7-1.6-0.5-3.6c0.5-1,1.1-1.9,1.7-2.9c0.1-0.1,0.2-0.1,0.4-0.3c0.2,0.1,0.5,0.2,0.7,0.4
			c3.4,2.6,6.3,5.7,8.3,9.5c1.4,2.6,2.3,5.4,2.8,8.3c0.4,2.3,0.5,4.7,0.5,7.1c0,2.8-0.6,5.4-1.7,8C404.6,59.1,404.4,59.8,403.6,60z"
			/>
		<path class="st0" d="M564,51c-0.1,0.8-0.3,1.6-0.5,2.4c-0.4,2-1,3.9-1.9,5.7c-0.4,0.8-1,1.6-1.6,2.3c-2,2.1-5.4,1.4-6.6-1.1
			c-0.8-1.5-1-3.2-1.1-4.9c-0.1-4.7,0.7-9.2,2.2-13.6c1.1-3.3,2.5-6.4,4.1-9.4c0.3-0.5,0.6-0.9,0.9-1.4c0.4,0.7,0,1.2-0.1,1.7
			c-0.8,2.8-1.7,5.5-2.5,8.3c-0.7,2.4-1.2,4.8-1.5,7.3c-0.2,1.6-0.1,3.1,0.2,4.7c0.2,0.7,0.4,1.3,0.7,1.9c0.9,1.5,2.8,1.6,3.9,0.6
			c0.9-0.8,1.6-1.8,2.2-2.8C562.9,52,563.2,51.3,564,51z"/>
		<path class="st0" d="M403.8,97.4c-0.2,0.6-0.3,1.3-0.5,1.9c-1.2,3.9-2.4,7.7-3.3,11.7c-0.5,2.1-0.7,4.2-0.6,6.3
			c0.1,1.2,0.3,2.4,0.8,3.4c0.5,1,1.4,1.6,2.6,1.5c0.6,0,1.1-0.3,1.5-0.6c1-0.8,1.6-1.9,2.3-2.9c0.3-0.5,0.5-1.1,1-1.5
			c0.1,0.1,0.3,0.2,0.3,0.3c-0.3,2.2-0.9,4.4-1.7,6.5c-0.5,1.2-1,2.3-1.8,3.2c-2.4,2.8-6.1,1.7-7.2-1.1c-0.6-1.5-0.8-3-0.9-4.6
			c-0.2-4.5,0.6-8.8,2-13.1c1.1-3.5,2.6-6.7,4.3-9.9c0.3-0.5,0.6-0.9,0.9-1.4C403.5,97.3,403.6,97.4,403.8,97.4z"/>
		<path class="st0" d="M225.3,161.9c0.1,0.8-0.3,1.5-0.5,2.2c-0.7,2.5-1.6,5-2.2,7.5c-0.6,2.3-1.1,4.6-1.5,6.9
			c-0.3,1.9-0.3,3.7,0.2,5.6c0.2,0.6,0.4,1.3,0.8,1.9c0.9,1.2,2.4,1.4,3.6,0.5c1-0.8,1.7-1.8,2.3-2.9c0.3-0.5,0.7-1,1-1.6
			c0,0,0.1,0,0.2,0c0,0.1,0.1,0.3,0.1,0.4c-0.4,2.2-0.9,4.4-1.8,6.5c-0.4,1.1-1,2.1-1.8,3.1c-2.1,2.5-5.9,2-7.2-1
			c-0.6-1.4-0.8-2.9-0.9-4.4c-0.2-4.7,0.6-9.2,2.1-13.6c1.1-3.3,2.5-6.5,4.2-9.6c0.2-0.4,0.5-0.9,0.8-1.3
			C225,162.1,225.2,162,225.3,161.9z"/>
	</g>
	<path class="st1" d="M582.9,97.2c0.9-0.7,2.7-0.3,3.6,1.1c1.6,2,1.1,3.6,0.4,5.9c-0.4,0.7-0.9,1.4-1.8,1c-0.7,0-1.1-2.7-3.6-1.7
		c-1.8,1.3-2.4,3.7-3.1,6.5c-0.9,3.5-1.6,6.8-2.4,9.8c-0.7,2.5-0.7,4.7-1.9,5.9c-0.4,0.4-0.7,0.4-0.9,0.1c-0.8-1.5-1.2-3.8-2.2-6.6
		c-0.9-2.6-2.1-4.1-3.3-5.9c-1.6-2.2-7.4,1.7-9.6-3.7c-0.3-1.6,0.6-4.5,1.6-6c0.5-0.9,1.1-1.4,1.8-1.7c1.5-0.3,2.1-0.1,2.8,0.2
		c3.6,1.3,5.9,5.1,7.7,9c1,2.2,1.1,2.8,2.2,6.2c0.2,0.6,0.7,0.4,0.7-0.3c0.2-2,0.9-3.8,1.1-5.8c0.6-2.5,1.3-4.9,2.2-7.2
		C579.3,101.4,580.6,99,582.9,97.2z"/>
	<path class="st0" d="M858.8,135.4c-2.3-1.4-4.2-2.6-6.3-3.8c-6.4-3.7-6.4-3.7-2.9-10.1c0.6-1,1.2-2,1.8-3c1.1-1.9,2.5-2,4.3-1
		c2.8,1.6,5.6,3.2,8.4,4.7c1.8,1,2.3,2.3,1.1,4.2c-1.4,2.2-2.6,4.6-4,6.9C860.6,134.1,859.6,134.6,858.8,135.4z"/>
	<path class="st1" d="M291.8,110.4c0,0,0.2-0.2,0.4-0.1c0.2,0,0.4,0.2,0.4,0.2s7.7,5.7,10.3,7.7c0.2,0.2,0.5,0.4,0.6,0.3
		c0.3-0.1,0.6-0.6,0.6-0.6s1-1.7,2.2-3.4c1.4-1.9,3-3.9,3-3.9s0.3-0.3,0.5-0.2c0.3,0,0.6,0.3,0.6,0.3s3.3,1.9,6.1,4.2
		c2.7,2.1,4.9,4.6,4.9,4.6s0.2,0.3,0.3,0.6c0,0.2-0.2,0.5-0.1,0.7c-2.1,3.3-7,9.2-7,9.2s-0.3,0-0.6-0.1c-0.2-0.1-0.4-0.2-0.4-0.2
		l-9.6-6.8c0,0-0.9-0.6-0.9-0.6c-0.3,0-0.4,0.2-0.4,0.2s-1.1,2.1-2.6,3.8c-1.5,1.8-3.2,3.4-3.2,3.4s-0.2,0.1-0.4,0.1
		c-0.2,0-0.4-0.2-0.4-0.2s-2.3-1.7-4.7-3.7c-2.8-2.3-5.9-4.4-5.9-4.4s-0.2-0.2-0.2-0.5c0-0.3,0.2-0.6,0.2-0.6s1.3-2.5,2.8-5
		C289.9,112.8,291.8,110.4,291.8,110.4z"/>
	<path class="st1" d="M858.7,47.2c-1.7-2-2.3-2.1-2.8-3.3c-0.9-1.4,0.7-1.7,0.7-6.8c0-7.9-2.1-8.2-3.5-8.2c-2.1,0-9.3,3.9-9.1,10.8
		c0.1,3.1,3.8,5.7,7.2,8.2c0.4,0.4-0.1,0.8-0.4,1.2c-3.2,3.9-8.5,9.6-13.9,14.7c-9.3,8.9-18.8,17-18.7,17.5c0.2,0.7,0.5,0.9,1.1,0.5
		c2.2-1.4,8.3-5.9,19.7-16c5.3-4.7,11.8-11.9,14-15.7c0.4-0.7,0.7,0.6,2.6,1.7C856.4,52,859.2,47.7,858.7,47.2z M853.1,41.3
		c-0.2,0.3-0.7-0.1-0.7-0.2s-3.6-2.8-3.8-3.1c-0.2-0.4-0.1-0.7,0-1c0.5-0.9,1.1-1.4,1.8-1.7c0.4-0.2,0.7-0.2,1.1,0
		c0.7,0.4,1.3,1.9,1.5,2.5C853.1,38.5,853.4,40.9,853.1,41.3z"/>
	<path class="st0" d="M830.9,94.8c-0.2,1.3-0.2,2.6-0.6,3.8c-2.2,6.2-4.5,12.4-6.8,18.6c-1.1,3,0.6,7.3,3.6,8.6
		c2.5,1.2,3.6-0.5,4.8-2.4c0.5-0.8,1.5-1.2,2.3-1.9c0.1,1,0.6,2.1,0.3,3.1c-0.5,1.8-1.3,3.6-2,5.4c-1.3,3.6-4.5,6.3-7.1,5.8
		c-2.5-0.4-7.2-5.4-7-8c0.3-4.1,0.4-8.4,1.7-12.2c2.3-6.7,5.5-13.1,8.4-19.7c0.3-0.6,0.9-1,1.4-1.5
		C830.2,94.5,830.6,94.7,830.9,94.8z"/>
	<path class="st1" d="M144.5,28.4c0,0,0.4-0.1,0.6,0.3c0,2.9-1.3,5.9-1.3,5.9S84.5,60.5,82.4,63.1c-1,0.1-1,0-1-0.4
		c0.2-1.2,1-4.8,1.6-5.5c1.3-1.3,4.4-2.6,4.4-2.6L144.5,28.4z"/>
	<path class="st1" d="M359.5,165.3c0,0,0.4-0.1,0.6,0.3c0,2.9-1.3,5.9-1.3,5.9s-59.2,25.9-61.3,28.5c-1,0.1-1,0-1-0.4
		c0.2-1.2,1-4.8,1.6-5.5c1.3-1.3,4.4-2.6,4.4-2.6L359.5,165.3z"/>
	<path class="st1" d="M85.8,165.3c0,0,0.4-0.1,0.6,0.3c0,2.9-1.3,5.9-1.3,5.9S25.9,197.3,23.8,200c-1,0.1-1,0-1-0.4
		c0.2-1.2,1-4.8,1.6-5.5c1.3-1.3,4.4-2.6,4.4-2.6L85.8,165.3z"/>
	<path class="st1" d="M616.2,26.3c0.9-0.7,2.7-0.3,3.6,1.1c1.6,2,1.1,3.6,0.4,5.9c-0.4,0.7-0.9,1.4-1.8,1c-0.7,0-1.1-2.7-3.6-1.7
		c-1.8,1.3-2.4,3.7-3.1,6.5c-0.9,3.5-1.6,6.8-2.4,9.8c-0.7,2.5-0.7,4.7-1.9,5.9c-0.4,0.4-0.7,0.4-0.9,0.1c-0.8-1.5-1.2-3.8-2.2-6.6
		c-0.9-2.6-2.1-4.1-3.3-5.9c-1.6-2.2-7.4,1.7-9.6-3.7c-0.3-1.6,0.6-4.5,1.6-6c0.5-0.9,1.1-1.4,1.8-1.7c1.5-0.3,2.1-0.1,2.8,0.2
		c3.6,1.3,5.9,5.1,7.7,9c1,2.2,1.1,2.8,2.2,6.2c0.2,0.6,0.7,0.4,0.7-0.3c0.2-2,0.9-3.8,1.1-5.8c0.6-2.5,1.3-4.9,2.2-7.2
		C612.6,30.5,613.9,28.1,616.2,26.3z"/>
	<path class="st1" d="M744.6,22.6c0,0,0.8,0,1.1,0.9c-1.1,6.2-3.5,6.4-3.5,6.4s-43.9,9.6-88.2,20.3c-42.2,10.1-84.8,21.2-90.5,25.9
		c0.3-0.2-0.3,0.7-0.2,1c0.7,1.3,6.4,2.6,8.9,2.8c0.5,0,0.5,0.3,0.6,0.3c0.2,1.8-0.4,4.8-1.4,5.9c-2.3-0.1-6.8-0.5-9.8-2.8
		c-2.5-1.9-0.9-7.8,0.7-10.9c2.1-6.2,46.1-17.8,90.3-28.6C698.5,32.8,744.6,22.6,744.6,22.6z"/>
	<path class="st1" d="M993.4,77.6c0.9-0.7,2.7-0.3,3.6,1.1c1.6,2,1.1,3.6,0.4,5.9c-0.4,0.7-0.9,1.4-1.8,1c-0.7,0-1.1-2.7-3.6-1.7
		c-1.8,1.3-2.4,3.7-3.1,6.5c-0.9,3.5-1.6,6.8-2.4,9.8c-0.7,2.5-0.7,4.7-1.9,5.9c-0.4,0.4-0.7,0.4-0.9,0.1c-0.8-1.5-1.2-3.8-2.2-6.6
		c-0.9-2.6-2.1-4.1-3.3-5.9c-1.6-2.2-7.4,1.7-9.6-3.7c-0.3-1.6,0.6-4.5,1.6-6c0.5-0.9,1.1-1.4,1.8-1.7c1.5-0.3,2.1-0.1,2.8,0.2
		c3.6,1.3,5.9,5.1,7.7,9c1,2.2,1.1,2.8,2.2,6.2c0.2,0.6,0.7,0.4,0.7-0.3c0.2-2,0.9-3.8,1.1-5.8c0.6-2.5,1.3-4.9,2.2-7.2
		C989.8,81.8,991.1,79.5,993.4,77.6z"/>
	<path class="st1" d="M647.2,168.4c0.2,0,0.3,0,0.5,0c-2.8,6.4-7.1,13.4-6.5,20.3c0.2,1.1,0.6,2.5,3.8,2.8c1.9,0.1,3.1-2.3,3.8-4.3
		c0.1-0.2,0.4-0.1,0.5,0.3c0,0.2,0,0.3,0,0.5c0.2,6.9-2.9,10.3-6,10.5C629.3,196.7,643.3,171.9,647.2,168.4z"/>
	<path class="st1" d="M529.8,170.7c0.2,0,0.3,0,0.5,0c-2.5,5.7-6.3,12.1-5.9,18.3c0.2,1,0.6,2.2,3.4,2.5c1.7,0.1,2.8-2.1,3.4-3.8
		c0.1-0.1,0.4-0.1,0.5,0.2c0,0.2,0,0.3,0,0.5c0.2,6.2-2.6,9.3-5.4,9.5C513.8,196.1,526.4,173.8,529.8,170.7z"/>
	<g>
		<path class="st0" d="M890.5,75.6c0.6,0.7,1.2,1.4,1.8,2.1c1.3,1.3,2.8,2.3,4.3,3.2c2.3,1.5,4.9,2.4,7.5,3.4
			c3.1,1.1,6.2,2.2,9.3,3.3c2.2,0.7,4.4,1.4,6.5,2.1c0.2,0.1,0.4,0.1,0.6,0.2c0.4,0.2,0.5,0,0.5-0.4c0-1-0.4-1.8-1.1-2.6
			c-1.2-1.5-2.8-2.5-4.4-3.4c-0.9-0.5-1.9-0.7-2.9-1.1c-1.7-0.7-3.4-1.4-5.1-2.2c-1.4-0.6-2.7-1.2-4.1-1.9c-1.4-0.7-2.6-1.6-3.7-2.7
			c-0.6-0.6-1.1-1.4-1.2-2.3c0-0.3,0.1-0.7,0.3-1c0.6-1.3,1.7-2,2.8-2.8c2.5-1.6,5.2-3,8.1-3.9c1.5-0.4,3-0.7,4.4-1
			c1.9-0.4,3.7-0.3,5.6-0.3c1.6,0.1,3.2,0.4,4.6,1.5c1,0.8,1.4,2,0.5,3.2c-0.7,1-1.7,1.7-2.7,2.4c-0.5,0.3-0.6,0.2-0.9-0.3
			c-0.3-0.6-0.7-1.1-1.1-1.7c-0.5-0.8-1.3-0.9-2.2-0.9c-1.1,0-2.1-0.1-3.2-0.1c-1.7,0.1-3.4,0.3-5,0.4c-1.8,0.2-3.6,0.6-5.3,1.2
			c-0.3,0.1-0.5,0.2-0.8,0.4c-0.6,0.4-0.7,0.9-0.1,1.4c0.9,0.9,1.9,1.6,3,2.2c2.3,1.3,4.7,2.4,7.3,3.3c1.8,0.6,3.5,1.3,5.2,2.1
			c1,0.4,1.8,1.1,2.6,1.8c0.9,0.6,1.6,1.5,2.1,2.5c0.3,0.6,0.5,1.4,0.6,2.1c0.2,1.8-0.5,3.3-1.7,4.7c-1,1.2-2.2,2.2-3.6,3
			c-0.8,0.5-1.6,0.4-2.4,0.2c-3.5-1-6.9-1.8-10.4-2.9c-2.4-0.7-4.7-1.6-7-2.5c-1.9-0.8-3.7-1.6-5.3-2.9c-1.7-1.3-3-3-3.6-5.1
			c-0.4-1.4-0.4-2.9-0.2-4.3C890.4,75.8,890.4,75.7,890.5,75.6z"/>
	</g>
	<path class="st1" d="M699.9,159.1c2.7,0,2.6,2.4,2.6,4.3c0,2.3-2.4,4.4-3.3,3.6c-0.6-0.9-0.8-1.2-2.3-1c-1,0.2-1.7,1-1.6,2.3
		c0.2,0.7,0.6,0.9,1.3,1c2.2,0,4.9,0.1,6.7-0.8c2.5-0.7,4.8-4.5,5.5-3.3c0.6,1.4-1.2,5.7-2,6.4c-4.5,2.2-9.8,7.6-11.8,10.8
		c-1.6,2.5-0.4,2.7,0.1,3c2.9,1.8,10.2,1.2,16.5-2.5c1.7-1,3.4-2.7,4.7-4.5c0.1,0.4,0.8,1.4-4.2,8c-2.5,3.4-7.8,5.2-12.8,5.9
		c-5.6,0.8-8.6-1.1-8.6-5.3c0-2.4,4.3-9.8,4.9-11.5c-2.4-0.5-5.3-1.7-5.3-5.3C690.3,167.4,694.2,159.8,699.9,159.1z"/>
	<path class="st0" d="M25,97c0,0,0.6-1.2,0.9-1.5c0.3-0.2,0.5,0,0.5,0.1c0.3,0.5,0.1,1.8,0.1,1.8c-1.8,17-6.2,25.8-13.4,26.4
		c-7.4,0.6-11.8-5.2-13.1-17.7c-1.1-15.4,2.1-31.6,9.5-49.5c1.9-4.3,3.3-6.8,3.5-6.9c0.2-0.1,0.3,0,0.2,0.3
		c-0.1,0.3-0.4,3.2-1.5,7.2c-4.3,18-6.5,30.6-6.1,37.5c1,9.7,4,14,9.3,13.6C18.5,108,21.8,104.4,25,97z"/>
	<path class="st1" d="M67.5,77.1c0.1,0.3,0.2,0.6,0.2,0.9c-0.3,2-2.2,6.5-4.1,9.8c-0.1,0.3-0.3,0.6-0.2,0.8c0.1,0.3,0.9,0.5,0.9,0.5
		s3.3,2.4,5.4,3.5c2.7,1.5,5,3.5,5.9,4.2c0.2,0.2,0.4,0.5,0.4,0.9c0.1,0.3-0.2,0.7-0.4,1.2c-0.3,0.6-1,2-2.6,5.2
		c-1.8,3.5-2.9,5.9-2.9,5.9s-0.2,0.3-0.6,0.5c-0.3,0.1-0.6,0-0.8,0c-4.4-4-12-8.5-12-8.5s-0.1-0.3-0.1-0.7c0-0.2,0.1-0.5,0.1-0.5
		l4.2-8.5c0,0,0.6-1.1,0.6-1.1c-0.1-0.4-0.6-0.9-0.6-0.9s-4.2-3.3-6.4-4.6c-2.4-1.4-5.9-4.2-5.9-4.2s-0.2-0.2-0.2-0.4
		c0-0.2,0-0.5,0-0.5s1.1-2.3,2.7-5.5c1.8-3.6,3.9-6.3,3.9-6.3s0.2-0.3,0.5-0.4c0.3-0.1,0.7,0,0.7,0l6,4.2
		C62.2,72.6,67.1,76,67.5,77.1z"/>
	<path class="st1" d="M256.3,72.7c-1.7-3.2-4.2-4.8-7.2-6.3c-0.4-0.6,0.1-2.2,0.5-3.3h-1.2c-5.1,7.3-9.3,19.9-1.3,22.8
		C250.1,86.9,258.2,83.8,256.3,72.7z M253.7,78.6c-0.8,0.7-3.2,1.2-4.1,1.3c-2.1-0.5-2.9-1-4.2-3.2c-0.1-2.3,0.4-2.9,1-4
		c0.4-0.4,0.8-0.3,1.3-0.1c1.9,1.4,4.3,3.4,5.9,5C254.1,77.9,254.1,78.4,253.7,78.6z"/>
	<path class="st1" d="M60.9,36.5c-0.3-1.1-1.8-4.3-4.2-8c-1.5-2.4-3.6-4.6-6.4-7.2c-0.5-0.2-1.2-1.2-2.6,0c-0.8,0.7-1.6,2.6-2.8,5.1
		c-0.3,0.6,1.1,1,0.2,2c-1.1,1.2-2.1,2.7-2.8,4c-1.3,2.3-3.8,4.7,2,7.6c-1,1.1-6.8,7.1-13.6,12c-3.3,2.4-6.9,4.6-9.7,6.3
		c-7.7,4.5-8.1,4.5-8.1,4.8c0,0.1,0.6,0.2,0.4,0.2c4.2-0.2,7.7-3.7,8.8-2.9c1.2-0.1,8.7-4.6,9.4-5.1c2.9-1.9,11-7.6,16.3-13.3
		c0.7-0.7,1.1-0.6,1.8-0.1c2.5,2.1,6.8,3.8,8.4,3.2C60,44.2,61.4,37.7,60.9,36.5z M49.3,35.3c-1,0-3.7-1.2-4-1.6
		c-0.3-0.4,0-1,0.3-1.6c0.1-0.1,0.4-0.5,0.8-0.5c1.7-0.1,3,1.8,3.1,2.7C49.6,34.8,49.5,35.4,49.3,35.3z M57.4,39.8
		c-0.9,0.8-4.7-2.9-5-3.5c-0.3-0.3,0.2-2.2,1.1-2.1C54.2,34.3,58,39.4,57.4,39.8z"/>
	<path class="st1" d="M160.7,29.7c0,0,0.2-0.2,0.5-0.2c0.2,0,0.5,0.2,0.5,0.2s8.9,6.7,11.9,8.9c0.2,0.2,0.5,0.4,0.7,0.4
		c0.3-0.1,0.7-0.7,0.7-0.7s1.2-2,2.6-4c1.6-2.3,3.5-4.5,3.5-4.5s0.3-0.3,0.6-0.3c0.3,0,0.6,0.4,0.6,0.4s3.8,2.2,7.1,4.9
		c3.1,2.5,5.7,5.3,5.7,5.3s0.3,0.3,0.3,0.7c0,0.3-0.2,0.6-0.2,0.8c-2.4,3.9-8.2,10.6-8.2,10.6s-0.3,0-0.7-0.1
		c-0.2-0.1-0.4-0.2-0.4-0.2L174.9,44c0,0-1.1-0.7-1.1-0.7c-0.4,0-0.5,0.3-0.5,0.3s-1.3,2.4-3,4.4c-1.7,2.1-3.7,4-3.7,4
		s-0.2,0.1-0.5,0.1c-0.2,0-0.5-0.2-0.5-0.2s-2.7-2-5.5-4.3c-3.3-2.7-6.8-5.1-6.8-5.1s-0.2-0.3-0.2-0.6c0-0.3,0.2-0.7,0.2-0.7
		s1.5-3,3.3-5.7C158.5,32.6,160.7,29.7,160.7,29.7z"/>
	<path class="st1" d="M95.7,171.7c0,0,0.2-0.2,0.5-0.2c0.2,0,0.5,0.2,0.5,0.2s8.9,6.7,11.9,8.9c0.2,0.2,0.5,0.4,0.7,0.4
		c0.3-0.1,0.7-0.7,0.7-0.7s1.2-2,2.6-4c1.6-2.3,3.5-4.5,3.5-4.5s0.3-0.3,0.6-0.3c0.3,0,0.6,0.4,0.6,0.4s3.8,2.2,7.1,4.9
		c3.1,2.5,5.7,5.3,5.7,5.3s0.3,0.3,0.3,0.7c0,0.3-0.2,0.6-0.2,0.8c-2.4,3.9-8.2,10.6-8.2,10.6s-0.3,0-0.7-0.1
		c-0.2-0.1-0.4-0.2-0.4-0.2l-11.2-7.9c0,0-1.1-0.7-1.1-0.7c-0.4,0-0.5,0.3-0.5,0.3s-1.3,2.4-3,4.4c-1.7,2.1-3.7,4-3.7,4
		s-0.2,0.1-0.5,0.1c-0.2,0-0.5-0.2-0.5-0.2s-2.7-2-5.5-4.3c-3.3-2.7-6.8-5.1-6.8-5.1s-0.2-0.3-0.2-0.6c0-0.3,0.2-0.7,0.2-0.7
		s1.5-3,3.3-5.7C93.5,174.5,95.7,171.7,95.7,171.7z"/>
	<path class="st1" d="M453.2,21.6c-1.5-2.2-3.6-1.8-4.3-1.3c-3.6,2.6-4.5,8.1-5.5,13.2c-0.2,1.6-0.9,4.1-1.2,5.7
		c-0.1,0.6-1,0.7-1,0.2c-0.5-2.9-1.8-5.4-2.6-7.3c-1.4-3.2-3.9-7.6-6.8-8.8c-0.6-0.3-1.1-0.5-2.3-0.3c-0.6,0.3-1.1,0.6-1.6,1.4
		c-0.9,1.2-2,4.5-1.8,5.9c1.4,4.6,7,2.6,8.6,4.8c1,1.4,1.9,3.2,2.6,5.1c0.8,2.3,1.8,5,2,6.5c-2.4,0.5-4.3,7.9-4.2,8.9
		c0,0.1,0.1,0.4,0.3,0.4c0.3,0,0.5-0.2,0.5,0.1c-0.9,1-2.3,1.6-2.8,3.5c-0.6,1.9-1.7,6.9-1.3,9.5c0.7,5.1,1.6,1.4,4.9,17
		c1.3,5.9,0.5,10-0.5,17c-0.1,0.4,0.4,0.4,0.6-0.1c1.1-2.9,3-8,2.6-16.1c-0.3-5.2-1.3-10-2.8-13.9c-1-2.6-1.9-5.7-2.6-8.5
		c-0.3-1.2,2.8-4.3,5.8-4.9c3.9-0.8,7.9,0.9,8.5-0.9c0.7-2,2.3-5.7,1.4-7c-3-4.3-6.9-6.6-6.8-6.7c-0.1-0.3-0.1-0.6,0.1-1.1
		c1.2-3.5,2.5-12.7,5.1-16.6c0.8-0.3,2-0.2,2.6,0.2c0.8,0.6,0.9,1.9,1.3,1.9c0.7,0.3,1.1-0.2,1.5-0.8
		C454.9,25.4,454.5,23.3,453.2,21.6z M443.5,52.8c0.1,0.4-1.5,0.1-3.3,0.6c-1.7,0.5-2.1,1.1-2.9,1c0.6-0.5,0.3-2.8,2.5-3.5
		C441.3,50.5,443.4,52.4,443.5,52.8z"/>
	<path class="st1" d="M106.5,20.7c0.9-0.7,2.7-0.3,3.6,1.1c1.6,2,1.1,3.6,0.4,5.9c-0.4,0.7-0.9,1.4-1.8,1c-0.7,0-1.1-2.7-3.6-1.7
		c-1.8,1.3-2.4,3.7-3.1,6.5c-0.9,3.5-1.6,6.8-2.4,9.8c-0.7,2.5-0.7,4.7-1.9,5.9c-0.4,0.4-0.7,0.4-0.9,0.1c-0.8-1.5-1.2-3.8-2.2-6.6
		c-0.9-2.6-2.1-4.1-3.3-5.9c-1.6-2.2-7.4,1.7-9.6-3.7c-0.3-1.6,0.6-4.5,1.6-6c0.5-0.9,1.1-1.4,1.8-1.7c1.5-0.3,2.1-0.1,2.8,0.2
		c3.6,1.3,5.9,5.1,7.7,9c1,2.2,1.1,2.8,2.2,6.2c0.2,0.6,0.7,0.4,0.7-0.3c0.2-2,0.9-3.8,1.1-5.8c0.6-2.5,1.3-4.9,2.2-7.2
		C102.9,24.8,104.2,22.5,106.5,20.7z"/>
	<path class="st1" d="M641.1,65.2c0.2,0,0.5,0,0.7,0c-4.3,9.1-10.7,19.2-10.2,29.2c0.2,1.6,0.8,3.6,5.3,4.1c2.7,0.2,4.5-3.2,5.6-6
		c0.2-0.2,0.6-0.2,0.7,0.4c0,0.2,0,0.5,0,0.7c0.1,10-4.6,14.9-9.1,15C614.2,105.6,635.4,70.1,641.1,65.2z"/>
	<path class="st1" d="M734.3,42.6c0.2,0,0.3,0,0.5,0c-2.8,6.4-7.1,13.4-6.5,20.3c0.2,1.1,0.6,2.5,3.8,2.8c1.9,0.1,3.1-2.3,3.8-4.3
		c0.1-0.2,0.4-0.1,0.5,0.3c0,0.2,0,0.3,0,0.5c0.2,6.9-2.9,10.3-6,10.5C716.5,70.9,730.5,46,734.3,42.6z"/>
	<path class="st1" d="M355,52.9c0.2,0,0.3,0,0.5,0c-2.7,6.1-6.7,12.8-6.2,19.3c0.2,1,0.6,2.4,3.6,2.6c1.8,0.1,2.9-2.2,3.6-4.1
		c0.1-0.2,0.4-0.1,0.5,0.2c0,0.2,0,0.3,0,0.5c0.2,6.6-2.8,9.8-5.7,10C338,79.8,351.4,56.1,355,52.9z"/>
</g>
<g>
	<path class="st0" d="M230.8,207.5c9.6,0,16.9,2,21.6,6.3c3.7,3.6,6.4,9,6.4,15.8c0,8.7-3.6,15.3-9.5,19.6
		c-5.8,4.2-13.5,6.1-22.8,6.1h-18.7v-2.1c6.4-0.5,7.1-0.9,7.1-7.2v-29.2c0-6.3-0.7-6.6-6.4-7.1v-2.3H230.8z M222.1,245.4
		c0,5.8,2.6,7.2,8.1,7.2c14,0,20.8-10.2,20.8-21.8c0-7.6-3-13.8-8.5-17.3c-3.5-2.3-8-3.4-13.4-3.4c-3.4,0-5.2,0.5-6,1
		c-0.7,0.5-1,1.4-1,4.3V245.4z"/>
	<path class="st0" d="M264.6,255.3v-2c4.7-0.5,5.2-0.9,5.2-6v-14.8c0-4.6-0.3-5-4.7-5.7v-1.8c4-0.7,7.8-1.5,11.2-2.8v25.1
		c0,5.1,0.5,5.5,5.3,6v2H264.6z M268.5,212.2c0-2.4,1.9-4.1,4.1-4.1s3.9,1.8,3.9,4.1c0,2.1-1.7,4-4,4
		C270.5,216.2,268.5,214.3,268.5,212.2z"/>
	<path class="st0" d="M318.4,223.9c-0.6,1.2-2.1,3.1-3.4,3.8l-4.2-0.2c1.3,1.6,2.1,3.8,2.1,6.4c0,7.8-6.8,11.7-13.4,11.7
		c-1.4,0-2.7-0.2-3.9-0.4c-1,0.7-1.9,1.8-1.9,2.8c0,1.4,1.4,2.9,4.7,2.9c2.6,0,5.2-0.2,7.7-0.2c4.5,0,10.9,1.4,10.9,8.8
		c0,7.6-9,14.8-19,14.8c-8.5,0-13-4.8-13.1-9c0-1.8,0.8-3.2,2-4.2c1.7-1.6,4.3-3.5,6-4.9c-2.8-0.8-4.6-2.4-5.6-4
		c-0.7-1.1-1-2.5-0.9-3.3c3.1-1.1,5.5-3,6.6-4.4c-3.5-1.5-6.6-5-6.6-9.9c0-8.4,7.7-12.2,13.6-12.2h0.1c2.5,0,4.9,0.7,7.2,1.9
		c3.8-0.2,7.7-0.7,10.5-1L318.4,223.9z M300.9,256.4c-3.4,0-5.1,0.5-6.4,1.5c-1.8,1.6-3.2,3.5-3.2,5.4c0,3.9,4.1,7.1,9.9,7.1
		c6.7,0,10.4-3.5,10.4-8c0-2.6-1.3-4.4-3.5-5.2C306.2,256.6,304.1,256.4,300.9,256.4L300.9,256.4z M299.6,224.7
		c-3,0-5.9,2.9-5.9,8.7c0,5.7,2.7,9.8,6.7,9.8c3.2,0,6-2.9,6-8.7C306.4,228.9,303.8,224.7,299.6,224.7L299.6,224.7z"/>
	<path class="st0" d="M320.7,255.3v-2c4.7-0.5,5.2-0.9,5.2-6v-14.8c0-4.6-0.3-5-4.7-5.7v-1.8c4-0.7,7.8-1.5,11.2-2.8v25.1
		c0,5.1,0.5,5.5,5.3,6v2H320.7z M324.7,212.2c0-2.4,1.9-4.1,4.1-4.1s3.9,1.8,3.9,4.1c0,2.1-1.7,4-4,4
		C326.6,216.2,324.7,214.3,324.7,212.2z"/>
	<path class="st0" d="M356.5,255.2c-1.4,0.8-2.5,1-3.2,1c-5,0-7.7-2.8-7.7-8.8v-21.1h-5.1l-0.4-0.9l2.1-2.2h3.4v-5.3l5.5-5.1l1,0.2
		v10.3h8.3c0.8,0.8,0.5,2.4-0.5,3.1h-7.8v18.6c0,5.9,2.6,6.9,4.4,6.9c1.8,0,3.4-0.7,4.5-1.3l0.7,2L356.5,255.2z"/>
	<path class="st0" d="M388.5,256.2c-1.4,0-3-0.7-3.8-1.5c-1-1-1.5-2-1.8-3.1c-3,1.9-6.5,4.6-8.7,4.6c-5.6,0-9.3-4.4-9.3-9.1
		c0-3.7,2-5.9,6.1-7.2c4.8-1.5,10-3.4,11.6-4.8v-1.3c0-5.3-2.4-8.1-6-8.1c-1.3,0-2.4,0.5-3.2,1.3c-1,1-1.6,2.6-2.3,5
		c-0.5,1.3-1.3,1.8-2.4,1.8c-1.5,0-3.4-1.5-3.4-3.3c0-1.1,1-2,2.4-3c2.2-1.6,7.2-4.4,11.4-5.2c2.4,0,4.5,0.6,6.2,1.9
		c2.8,2.3,3.6,5.4,3.6,9.3v13.2c0,3.3,1.3,4.4,2.7,4.4c0.9,0,1.9-0.4,2.7-0.8l0.8,2L388.5,256.2z M382.6,237.7
		c-1.5,0.8-4.5,2.2-6.1,2.9c-2.9,1.3-4.5,2.7-4.5,5.4c0,3.9,2.9,5.6,5.1,5.6c1.8,0,4.2-1.1,5.5-2.4V237.7z"/>
	<path class="st0" d="M396.5,255.3v-2c4.7-0.6,5.3-1,5.3-5.9V213c0-5-0.5-5.1-5.1-5.6v-1.8c4-0.5,8.9-1.7,11.6-2.6v44.5
		c0,5,0.7,5.4,5.5,5.9v2H396.5z"/>
	<path class="st0" d="M437.8,255.3v-2.1c6.1-0.5,6.8-0.9,6.8-7.2v-29c0-6.4-0.7-6.8-6.8-7.2v-2.2h20.5v2.2c-6.1,0.4-6.7,0.9-6.7,7.2
		v29c0,6.3,0.7,6.8,6.7,7.2v2.1H437.8z"/>
	<path class="st0" d="M485,255.3v-2c4.3-0.5,4.8-1.1,4.8-6.2v-12c0-5.1-2.1-8.2-6.6-8.2c-2.8,0-5.6,1.8-7.8,3.6v17
		c0,5,0.4,5.3,4.7,5.8v2h-16.6v-2c5-0.6,5.4-1,5.4-5.9v-14.8c0-4.8-0.5-5.1-4.4-5.8v-1.9c3.6-0.6,7.4-1.5,10.9-2.9v5.9
		c1.5-1.1,3.1-2.3,5-3.5c2.1-1.4,4-2.2,6.2-2.2c5.9,0,9.7,4.2,9.7,11.5v13.7c0,5,0.5,5.2,4.8,5.8v2H485z"/>
	<path class="st0" d="M510.2,223.3v-1.7c0-2.4,0.3-4.3,0.8-5.9c0.5-1.7,1.8-5.2,5.9-8.7c2.6-2.3,5.3-3.6,8.3-4
		c2.7,0.1,4.8,1.1,6,2.5c0.8,0.9,0.9,1.9,0.4,2.8c-0.3,0.6-0.8,1.2-1.5,1.8c-0.8,0.6-1.5,0.6-2.2-0.2c-1.5-1.5-3.7-2.9-6.1-2.9
		c-1.9,0-3,0.9-3.8,2.2c-0.9,1.3-1.6,4.7-1.5,10.9v3.1h8.9c0.5,0.7,0.1,2.6-0.8,3.1h-8v20.8c0,5.4,0.6,5.7,6.4,6.3v1.9h-18.2v-2
		c4.7-0.5,5.3-0.9,5.3-5.7v-21.3h-5.3l-0.4-0.9l2.1-2.2H510.2z"/>
	<path class="st0" d="M545.1,222.4c9.6,0,16.6,7.4,16.6,16.3c0,11.9-9.1,17.5-16.6,17.5c-10.7,0-16.9-8-16.9-16.1
		C528.1,228,537.9,222.4,545.1,222.4L545.1,222.4z M544.1,224.9c-4.3,0-8.3,4.4-8.3,12.7c0,9.3,4,16.1,10.1,16.1
		c4.3,0,8.2-2.9,8.2-13.2c0-8.8-3.5-15.5-9.8-15.5H544.1z"/>
	<path class="st0" d="M578.5,230.3c2.5-4,5.5-7.9,9-7.9c2.7,0,4.5,2,4.5,3.8c0,1.7-1,3.2-2.6,4c-0.9,0.4-1.6,0.2-2-0.2
		c-1.2-1.1-2-1.5-3.3-1.5c-1.9,0-4.2,2.2-5.8,6.1v13.1c0,4.8,0.4,5.3,6.2,5.7v2h-17.9v-2c4.5-0.5,5.2-0.9,5.2-5.7v-15.2
		c0-4.7-0.4-5-4.6-5.6v-1.7c3.7-0.6,7.2-1.5,11.1-3v8.2H578.5z"/>
	<path class="st0" d="M636.5,255.3v-2c4.2-0.5,5-0.8,5-6v-11.9c0-5.5-2.1-8.5-6.4-8.5c-2.4,0-5.1,1.4-7.9,3.7
		c0.1,0.9,0.2,1.8,0.2,3.1v14.1c0,4.6,0.7,5.1,4.8,5.5v2h-16.4v-2c4.5-0.5,5.1-0.8,5.1-5.6v-12.4c0-5.5-2.1-8.3-6.3-8.3
		c-2.8,0-5.6,1.9-7.8,3.6v17.2c0,4.7,0.7,5.2,4.1,5.6v2h-16.1v-2c4.8-0.5,5.5-0.9,5.5-5.7v-14.9c0-4.7-0.3-5.1-4.5-5.8v-1.9
		c3.2-0.5,7.4-1.5,10.9-2.9v6c1.6-1.1,3.2-2.4,5.5-3.8c2-1.2,3.8-2,6.2-2c3.6,0,6.8,2.3,8.3,6c2.2-1.6,4.3-3,6.1-4.2
		c1.6-1,3.5-1.9,5.6-1.9c5.9,0,9.8,4.1,9.8,11.5v13.9c0,4.9,0.5,5.1,4.8,5.6v2H636.5z"/>
	<path class="st0" d="M680.8,256.2c-1.4,0-3-0.7-3.8-1.5c-1-1-1.5-2-1.8-3.1c-3,1.9-6.5,4.6-8.7,4.6c-5.6,0-9.3-4.4-9.3-9.1
		c0-3.7,2-5.9,6.1-7.2c4.8-1.5,10-3.4,11.6-4.8v-1.3c0-5.3-2.4-8.1-6-8.1c-1.3,0-2.4,0.5-3.2,1.3c-1,1-1.6,2.6-2.3,5
		c-0.5,1.3-1.3,1.8-2.4,1.8c-1.5,0-3.4-1.5-3.4-3.3c0-1.1,1-2,2.4-3c2.2-1.6,7.2-4.4,11.4-5.2c2.4,0,4.5,0.6,6.2,1.9
		c2.8,2.3,3.6,5.4,3.6,9.3v13.2c0,3.3,1.3,4.4,2.7,4.4c0.9,0,1.9-0.4,2.7-0.8l0.8,2L680.8,256.2z M674.9,237.7
		c-1.5,0.8-4.5,2.2-6.1,2.9c-2.9,1.3-4.5,2.7-4.5,5.4c0,3.9,2.9,5.6,5.1,5.6c1.8,0,4.2-1.1,5.5-2.4V237.7z"/>
	<path class="st0" d="M705.3,255.2c-1.4,0.8-2.5,1-3.2,1c-5,0-7.7-2.8-7.7-8.8v-21.1h-5.1l-0.4-0.9l2.1-2.2h3.4v-5.3l5.5-5.1l1,0.2
		v10.3h8.3c0.8,0.8,0.5,2.4-0.5,3.1h-7.8v18.6c0,5.9,2.6,6.9,4.4,6.9c1.8,0,3.4-0.7,4.5-1.3l0.7,2L705.3,255.2z"/>
	<path class="st0" d="M713.4,255.3v-2c4.7-0.5,5.2-0.9,5.2-6v-14.8c0-4.6-0.3-5-4.7-5.7v-1.8c4-0.7,7.8-1.5,11.2-2.8v25.1
		c0,5.1,0.5,5.5,5.3,6v2H713.4z M717.3,212.2c0-2.4,1.9-4.1,4.1-4.1s3.9,1.8,3.9,4.1c0,2.1-1.7,4-4,4
		C719.2,216.2,717.3,214.3,717.3,212.2z"/>
	<path class="st0" d="M751.2,222.4c9.6,0,16.6,7.4,16.6,16.3c0,11.9-9.1,17.5-16.6,17.5c-10.7,0-16.9-8-16.9-16.1
		C734.2,228,744,222.4,751.2,222.4L751.2,222.4z M750.2,224.9c-4.3,0-8.3,4.4-8.3,12.7c0,9.3,4,16.1,10.1,16.1
		c4.3,0,8.2-2.9,8.2-13.2c0-8.8-3.5-15.5-9.8-15.5H750.2z"/>
	<path class="st0" d="M794.2,255.3v-2c4.3-0.5,4.8-1.1,4.8-6.2v-12c0-5.1-2.1-8.2-6.6-8.2c-2.8,0-5.6,1.8-7.8,3.6v17
		c0,5,0.4,5.3,4.7,5.8v2h-16.6v-2c5-0.6,5.4-1,5.4-5.9v-14.8c0-4.8-0.5-5.1-4.4-5.8v-1.9c3.6-0.6,7.4-1.5,10.9-2.9v5.9
		c1.5-1.1,3.1-2.3,5-3.5c2.1-1.4,4-2.2,6.2-2.2c5.9,0,9.7,4.2,9.7,11.5v13.7c0,5,0.5,5.2,4.8,5.8v2H794.2z"/>
	<path class="st0" d="M882,242.7c-1,3.5-3.1,9.3-4.4,11.7c-2.2,0.5-8.9,2.1-14.4,2.1c-19.4,0-28.1-12.8-28.1-24.4
		c0-15.5,12.5-25.7,30-25.7c6.4,0,11.9,1.8,14,2.1c0.6,4.2,1.2,7.3,1.6,11.5l-2.3,0.5c-2.1-8.1-7.1-11.4-15.3-11.4
		c-12.8,0-19.7,10.4-19.7,21.3c0,13.9,8.5,23.1,20.3,23.1c7.8,0,12.1-4.2,16-11.8L882,242.7z"/>
	<path class="st0" d="M913.5,248.8c-4.8,6.1-10.2,7.4-12.6,7.4c-9.2,0-14.6-7.4-14.6-15.6c0-4.9,1.8-9.3,4.8-12.6
		c3.2-3.5,7.3-5.6,11.3-5.6h0.1c6.4,0,11.5,5.5,11.5,11.3c0,1.4-0.4,2.1-1.8,2.4c-1.4,0.2-10.7,1-19.4,1.3
		c0.2,9.5,5.7,13.5,10.9,13.5c3.1,0,5.9-1.2,8.7-3.7L913.5,248.8z M900.6,225.2c-3.2,0-6.4,2.9-7.5,9c4,0,7.9,0,12.1-0.2
		c1.3-0.1,1.8-0.5,1.8-1.4C907,228.7,904.5,225.2,900.6,225.2L900.6,225.2z"/>
	<path class="st0" d="M939.4,255.3v-2c4.3-0.5,4.8-1.1,4.8-6.2v-12c0-5.1-2.1-8.2-6.6-8.2c-2.8,0-5.6,1.8-7.8,3.6v17
		c0,5,0.4,5.3,4.7,5.8v2h-16.6v-2c5-0.6,5.4-1,5.4-5.9v-14.8c0-4.8-0.5-5.1-4.4-5.8v-1.9c3.6-0.6,7.4-1.5,10.9-2.9v5.9
		c1.5-1.1,3.1-2.3,5-3.5c2.1-1.4,4-2.2,6.2-2.2c5.9,0,9.7,4.2,9.7,11.5v13.7c0,5,0.5,5.2,4.8,5.8v2H939.4z"/>
	<path class="st0" d="M974.7,255.2c-1.4,0.8-2.5,1-3.2,1c-5,0-7.7-2.8-7.7-8.8v-21.1h-5.1l-0.4-0.9l2.1-2.2h3.4v-5.3l5.5-5.1l1,0.2
		v10.3h8.3c0.8,0.8,0.5,2.4-0.5,3.1h-7.8v18.6c0,5.9,2.6,6.9,4.4,6.9c1.8,0,3.4-0.7,4.5-1.3l0.7,2L974.7,255.2z"/>
	<path class="st0" d="M1010.4,248.8c-4.8,6.1-10.2,7.4-12.6,7.4c-9.2,0-14.6-7.4-14.6-15.6c0-4.9,1.8-9.3,4.8-12.6
		c3.2-3.5,7.3-5.6,11.3-5.6h0c6.4,0,11.5,5.5,11.5,11.3c0,1.4-0.4,2.1-1.8,2.4c-1.4,0.2-10.7,1-19.4,1.3c0.2,9.5,5.7,13.5,10.9,13.5
		c3.1,0,5.9-1.2,8.7-3.7L1010.4,248.8z M997.4,225.2c-3.2,0-6.4,2.9-7.5,9c4,0,7.9,0,12.1-0.2c1.3-0.1,1.8-0.5,1.8-1.4
		C1003.8,228.7,1001.4,225.2,997.4,225.2L997.4,225.2z"/>
	<path class="st0" d="M1026.7,230.3c2.5-4,5.5-7.9,9-7.9c2.7,0,4.5,2,4.5,3.8c0,1.7-1,3.2-2.6,4c-0.9,0.4-1.6,0.2-2-0.2
		c-1.2-1.1-2-1.5-3.3-1.5c-1.9,0-4.2,2.2-5.8,6.1v13.1c0,4.8,0.4,5.3,6.2,5.7v2h-17.9v-2c4.5-0.5,5.2-0.9,5.2-5.7v-15.2
		c0-4.7-0.4-5-4.6-5.6v-1.7c3.7-0.6,7.2-1.5,11.1-3v8.2H1026.7z"/>
</g>
<line class="st2" x1="186.4" y1="250.5" x2="13.3" y2="250.5"/>
</svg>
