<?xml version="1.0" encoding="utf-8"?>
<!-- Generator: Adobe Illustrator 25.0.0, SVG Export Plug-In . SVG Version: 6.00 Build 0)  -->
<svg version="1.1" id="Layer_1" xmlns="http://www.w3.org/2000/svg" xmlns:xlink="http://www.w3.org/1999/xlink" x="0px" y="0px"
	 viewBox="0 0 340 44.4" style="enable-background:new 0 0 340 44.4;" xml:space="preserve">
<style type="text/css">
	.st0{fill:#686E7F;stroke:#FFFFFF;stroke-width:0.25;stroke-miterlimit:10;}
	.st1{fill-rule:evenodd;clip-rule:evenodd;fill:#686E7F;}
	.st2{fill:#686E7F;}
</style>
<g>
	<path class="st0" d="M319.7,16.1c0,0.5,0,0.9,0,1.3c0.1,4.1,0.1,8.2,0.2,12.2c0,1.6,0.5,3,1.6,4.2c0.6,0.7,1.4,1.2,2.3,1.6
		c1.6,0.9,3.4,1.1,5.2,1c3.3-0.3,5.7-2,7.5-4.7c0.8-1.3,1.2-2.7,1.6-4.2c0-0.1,0-0.2,0.1-0.3c-0.1,0.5-0.1,1-0.2,1.6
		c-0.2,1.7-0.7,3.4-1.4,5c-1.4,3.2-3.9,5-7.4,5.5c-2.8,0.4-5.5,0.1-8-1c-2.3-1-4-2.7-4.9-5.1c-0.3-0.7-0.4-1.5-0.4-2.3
		c0-3.9,0-7.8,0-11.7c0-0.2,0-0.3,0.1-0.5c0.4-0.8,1-1.6,1.7-2.1C318.3,16.3,318.9,16.1,319.7,16.1z"/>
	<path class="st0" d="M318.8,37.9c-0.1,0-0.2-0.1-0.4-0.1c-2.8,0-5.6,0-8.5,0c-0.1,0-0.2,0-0.3,0c0-0.1,0-0.2,0-0.3
		c0-2.8,0-5.6,0-8.4c0-0.3-0.1-0.4-0.3-0.6c-2-2-4-4-6-6c-0.1-0.1-0.1-0.1-0.2-0.2c0.1-0.1,0.1-0.1,0.2-0.2c2-2,4-4,6-6
		c0.2-0.2,0.2-0.3,0.2-0.6c0-2.8,0-5.6,0-8.4c0-0.1,0-0.2,0-0.3c0.1,0,0.3,0,0.4,0c2.8,0,5.6,0,8.4,0c0.3,0,0.5-0.1,0.6-0.3
		c2-2,4-4,6-6c0.1-0.1,0.1-0.2,0.2-0.2c1.9,1.9,3.7,3.7,5.5,5.5c-0.3,0.2-0.5,0.4-0.8,0.6c0,0,0,0,0,0c0.1-0.7-0.4-1.1-0.9-1.5
		c-1-0.7-2-0.7-3-0.2c-0.1,0-0.2,0.1-0.3,0.2c-0.2-0.2-0.4-0.5-0.6-0.7c-0.2-0.2-0.6-0.2-0.9,0c-0.3,0.3-0.7,0.7-1,1
		c-0.1,0.1-0.3,0.2-0.4,0.2c-1.2-0.1-2,0.5-2.6,1.5C320,6.9,320,7.2,320,7.4c0.1,0.6-0.1,1-0.6,1.4c-0.3,0.3-0.5,0.4-0.9,0.4
		c-2.2,0-4.3,0-6.5,0c-0.5,0-0.6,0.1-0.6,0.6c0,2.2,0,4.5,0,6.7c0,0.2-0.1,0.3-0.2,0.5c-1.6,1.6-3.2,3.2-4.7,4.7
		c-0.3,0.3-0.3,0.7,0,1c1.6,1.6,3.1,3.1,4.7,4.7c0.2,0.2,0.2,0.3,0.2,0.5c0,2.3,0,4.5,0,6.8c0,0.5,0.1,0.6,0.6,0.6
		c1.4,0,2.8,0,4.2,0c0.2,0,0.3,0,0.4,0.2c0.5,0.9,1.3,1.5,2,2.2C318.7,37.7,318.8,37.8,318.8,37.9L318.8,37.9z"/>
	<path class="st0" d="M312.4,10.1c1.4,0,2.8,0,4.1,0c-0.3,0.3-0.7,0.7-1,1.1c-0.1,0.2-0.2,0.4-0.2,0.6c0,1.9,0,3.8,0,5.8
		c0,0.2-0.1,0.3-0.2,0.4c-1.3,1.3-2.6,2.6-4,4c-0.2,0.2-0.2,0.3,0,0.6c1.3,1.3,2.6,2.6,3.9,3.9c0.1,0.1,0.2,0.3,0.2,0.5
		c0,1.5,0,3,0,4.5c0,1,0.2,1.9,0.6,2.7c0,0,0,0.1,0.1,0.2c-1.2,0-2.4,0-3.6,0c0-0.1,0-0.2,0-0.3c0-2.2,0-4.4,0-6.5
		c0-0.2-0.1-0.4-0.2-0.6c-1.5-1.5-3-3-4.5-4.5c-0.1-0.1-0.1-0.1-0.2-0.2c0.1-0.1,0.2-0.2,0.2-0.2c1.5-1.5,3-3,4.5-4.5
		c0.2-0.2,0.2-0.3,0.2-0.6c0-2.1,0-4.3,0-6.4C312.4,10.4,312.4,10.3,312.4,10.1z"/>
	<path class="st0" d="M329.1,15.3c-1.3,0-2.5,0-3.8,0c0-0.1,0-0.2,0-0.3c0-2.9,0-5.8,0-8.8c0-0.1,0.1-0.3,0.2-0.4c0.9-1,2-1.1,3-0.4
		c0.2,0.1,0.4,0.3,0.5,0.5c0.1,0.1,0.1,0.2,0.1,0.3C329.1,9.2,329.1,12.2,329.1,15.3C329.1,15.2,329.1,15.2,329.1,15.3z"/>
	<path class="st0" d="M325.2,16.2c1.3,0,2.5,0,3.8,0c0,3,0,6.1,0,9.1c-1.3,0-2.5,0-3.8,0C325.2,22.3,325.2,19.2,325.2,16.2z"/>
	<path class="st0" d="M339.6,16c-1.1,0.8-1.4,1.8-1.4,3c0,2,0,4,0,6c0,0.1,0,0.2,0,0.3c-1.2,0-2.5,0-3.7,0c0-0.1,0-0.2,0-0.3
		c0-1.9,0-3.9,0-5.8c0-0.7,0.3-1.3,0.7-1.8c0.9-1,2-1.4,3.3-1.5C338.8,16,339.1,16,339.6,16z"/>
	<path class="st0" d="M333.6,16.2c0,3.1,0,6.1,0,9.1c-0.8,0-1.5-0.1-2-0.6c-0.4-0.3-0.7-0.7-1-1c-0.1-0.1-0.2-0.3-0.3-0.5
		c-0.3-0.5-0.5-1-0.5-1.6c0-1.7,0-3.4,0-5c0-0.1,0-0.2,0-0.3C331.1,16.2,332.4,16.2,333.6,16.2z"/>
	<path class="st0" d="M320.6,25.3c0-3.1,0-6.1,0-9.1c1.2,0,2.5,0,3.8,0c0,0.1,0,0.2,0,0.3c0,1.9,0,3.8,0,5.7c0,0.2-0.1,0.4-0.2,0.6
		c-0.6,1-1.4,1.7-2.5,2.2C321.4,25,321,25.2,320.6,25.3z"/>
	<path class="st0" d="M318.8,37.9c0.1,0,0.2,0,0.2,0.1c1.2,0.9,2.6,1.4,4.1,1.8c2,0.5,4.1,0.6,6.1,0.4c-1.3,1.3-2.7,2.7-4.1,4.1
		c-0.6-0.6-1.2-1.3-1.9-1.9c-1.4-1.4-2.9-2.9-4.3-4.3C318.9,38,318.9,37.9,318.8,37.9L318.8,37.9z"/>
	<path class="st0" d="M330.9,30.5c-1,1-2,2-3,3c-1-1-2-2-3-3c1-1,2-2,3-3C328.8,28.4,329.9,29.4,330.9,30.5z"/>
	<path class="st0" d="M324.5,10.7c-1.3,0-2.5,0-3.8,0c0-0.3,0-0.6,0-0.9c0-0.8,0-1.5,0-2.3c0-0.1,0-0.2,0-0.3c0.5-1,1.6-1.6,2.7-1.1
		c0.5,0.2,0.8,0.6,1,1c0,0.1,0.1,0.1,0.1,0.2C324.5,8.4,324.5,9.5,324.5,10.7z"/>
	<path class="st0" d="M319.8,15.3c-1.3,0-2.5,0-3.8,0c0-0.2,0-0.3,0-0.4c0-0.9,0-1.9,0-2.8c0-0.1,0-0.2,0-0.3c0.4-0.7,1-1.2,1.8-1.2
		c0.9,0,1.5,0.5,1.9,1.2c0,0,0,0.1,0,0.1C319.8,13,319.8,14.1,319.8,15.3z"/>
	<path class="st0" d="M329.9,10.7c0-1,0-1.9,0-2.9c0-0.7,0.9-1.4,1.6-1.5c1-0.1,1.8,0.4,2.1,1.3c0,0.1,0,0.1,0,0.2
		c0,0.9,0,1.7,0,2.6c0,0.1,0,0.2,0,0.2C332.4,10.7,331.2,10.7,329.9,10.7z"/>
	<path class="st0" d="M320.6,15.3c0-1.3,0-2.5,0-3.8c1.3,0,2.5,0,3.8,0c0,1.3,0,2.5,0,3.8C323.2,15.3,321.9,15.3,320.6,15.3z"/>
	<path class="st0" d="M329.9,15.3c0-1.3,0-2.5,0-3.8c1.3,0,2.5,0,3.8,0c0,1.3,0,2.5,0,3.8C332.5,15.3,331.2,15.3,329.9,15.3z"/>
	<path class="st0" d="M320,10.8c-0.3-0.2-0.5-0.4-0.8-0.7c0.4,0,0.5-0.3,0.8-0.5C320,10,320,10.4,320,10.8z"/>
	<path class="st0" d="M324,5.6c0.2-0.2,0.3-0.3,0.5-0.5c0.1,0.1,0.2,0.3,0.3,0.3c-0.1,0.3-0.2,0.5-0.2,0.7
		C324.4,5.9,324.2,5.8,324,5.6z"/>
</g>
<g>
	<path class="st1" d="M211.1,33.9c-0.3,1.3-0.7,2-0.8,2.1c-0.1,0.1-0.2,0.1-0.3,0c-0.1-0.2,0.2-2,0-6c-0.5-7.8-1.9-18.2-2-20.3
		c0-0.2,0-1-0.3-1.4c-0.1-0.1,0-0.2,0-0.3c0.1-0.2,0.9-2,1.1-2.7c0-0.1,0.1-0.2,0.2,0.1c0,0.1,0.5,1.7,1.2,3.2c0.9,2,1.2,2.7,1.2,3
		c-0.1,0.5-0.3,0.4-0.4,0.3c-0.2-0.3-0.4-0.5-0.6-0.6c-0.2-0.2-0.4-0.2-0.4,0c-0.1,0.4,0.1,2,0.4,4.3c0.3,2.3,0.5,5.1,0.8,8
		C211.6,27.5,211.7,31,211.1,33.9z"/>
	<path class="st1" d="M37.5,11.5c0-0.1-0.2,0.2-0.2,0c-0.2-0.7,0.3-1.6,0.6-2.2c1.2,0.8,0,2.1,0.1,3c0,0.2,1.6,0.7,2-0.1
		c0.4-1-0.3-1.8-0.5-2.2c-0.1-0.3,0.2-1,0.3-1.3c0,0,0.1-0.1,0.1,0c0.9,1,0.4,3.9,2.7,3.6c0.1,0,0.1-0.1,0-0.2
		c-0.3-0.3-0.4-0.6-0.6-1c-0.6-1.1-0.8-1.1-0.3-2.4c0,0,0-0.1,0.1,0C41.9,9,42,9.3,42.2,9.6c0.2,0.4,0.5,0.8,0.7,1.2
		c0.6,1.1,0.4,3-0.9,3c-1,0-1.3-1.4-1.5-0.9C39.6,14.8,36.8,14.4,37.5,11.5z"/>
	<path class="st1" d="M62.9,34.1c0.2,0,0.4,0,0.5,0.1c0.4,0.5,1.1,2.8,0,3.2c-0.5,0.2-1.4-0.3-1.8-0.8c-0.1-0.1-0.1-0.1-0.2,0
		c-0.9,1.8-7.9,4.5-7.9,4.5s-0.6,0.1-1.9,0.3c-1.3,0.2-1.9,0.4-2.2,0.4c0,0-0.1-0.1,0-0.1c0.6-0.2,7.5-2.6,10.8-4.7
		c0.9-0.5,1.1-1.4,1.7-2.1C62,34.4,62.5,34.2,62.9,34.1z"/>
	<path class="st1" d="M193.2,34.6c0.5,0,0.5,0.5,0.5,0.9c0,0.5-0.5,0.9-0.7,0.7c-0.1-0.2-0.2-0.3-0.5-0.2c-0.2,0-0.4,0.2-0.3,0.5
		c0,0.1,0.1,0.2,0.3,0.2c0.5,0,1,0,1.4-0.2c0.5-0.1,1-0.9,1.1-0.7c0.1,0.3-0.2,1.2-0.4,1.3c-0.9,0.4-2,1.6-2.4,2.2
		c-0.3,0.5-0.1,0.6,0,0.6c0.6,0.4,2.1,0.3,3.4-0.5c0.4-0.2,0.7-0.5,1-0.9c0,0.1,0.2,0.3-0.9,1.6c-0.5,0.7-1.6,1.1-2.6,1.2
		c-1.1,0.2-1.8-0.2-1.8-1.1c0-0.5,0.9-2,1-2.4c-0.5-0.1-1.1-0.3-1.1-1.1C191.2,36.4,192,34.8,193.2,34.6z"/>
	<path class="st1" d="M158.1,32.5c-0.2,1.3-0.6,2-0.7,2.1c-0.1,0.1-0.2,0.1-0.3,0c-0.1-0.2-0.1-0.7-0.2-4.7
		c-0.2-4.4-1.1-9.4-1.5-13.4c-0.3-3.3-0.6-5.9-0.6-6.8c0-0.2-0.3-2-0.5-2.4c-0.1-0.1,0-0.2,0-0.3c0.1-0.2,0.9-2,1.1-2.7
		c0-0.1,0.1-0.2,0.2,0.1c0,0.1,0.5,1.7,1.2,3.2c0.9,2,1.2,2.9,1.2,3.2c-0.1,0.5-0.3,0.4-0.4,0.3c-0.2-0.3-0.4-0.5-0.6-0.6
		c-0.2-0.2-0.4-0.2-0.4,0c-0.1,0.4,0.1,2.9,0.4,5.2c0.3,2.3,0.7,5,1.1,7.9C158.5,27,158.6,29.7,158.1,32.5z"/>
	<path class="st1" d="M73.3,32.6c-0.3,1.3-0.6,2-0.6,2.1c-0.1,0.1-0.2,0.1-0.3,0c-0.1-0.2,0.3-1.4-0.1-4.7
		c-0.3-2.6-2.6-17.9-2.8-20.5c0-0.2-0.2-1.1-0.5-1.5c-0.1-0.1,0-0.2,0-0.3c0.1-0.2,0.8-2,1.1-2.7c0-0.1,0.1-0.2,0.2,0.1
		c0,0.1,0.9,2.1,1.5,3.7c0.9,2,1.2,2.7,1.2,3c-0.1,0.5-0.3,0.4-0.4,0.3c-0.2-0.3-0.4-0.5-0.6-0.6c-0.2-0.2-0.4-0.1-0.5,0
		c-0.1,0.4,0.4,1.8,0.6,4.2c0.3,2.3,0.8,5.1,1.1,8C73.5,27.5,73.9,29.7,73.3,32.6z"/>
	<path class="st1" d="M195.9,17c0.2-0.1,0.5-0.1,0.7,0.2c0.3,0.4,0.2,0.7,0.1,1.2c-0.1,0.1-0.2,0.3-0.4,0.2c-0.1,0-0.2-0.5-0.7-0.3
		c-0.4,0.3-0.5,0.8-0.6,1.3c-0.2,0.7-0.3,1.4-0.5,2c-0.1,0.5-0.1,1-0.4,1.2c-0.1,0.1-0.1,0.1-0.2,0c-0.2-0.3-0.2-0.8-0.4-1.4
		c-0.2-0.5-0.4-0.8-0.7-1.2c-0.3-0.5-1.5,0.3-2-0.8c-0.1-0.3,0.1-0.9,0.3-1.2c0.1-0.2,0.2-0.3,0.4-0.4c0.3-0.1,0.4,0,0.6,0
		c0.7,0.3,1.2,1,1.6,1.8c0.2,0.5,0.2,0.6,0.4,1.3c0,0.1,0.1,0.1,0.2-0.1c0-0.4,0.2-0.8,0.2-1.2c0.1-0.5,0.3-1,0.4-1.5
		C195.2,17.9,195.4,17.4,195.9,17z"/>
	<path class="st1" d="M173.2,22c0.2-0.1,0.5-0.1,0.7,0.2c0.3,0.4,0.2,0.7,0.1,1.2c-0.1,0.1-0.2,0.3-0.4,0.2c-0.1,0-0.2-0.5-0.7-0.3
		c-0.4,0.3-0.5,0.8-0.6,1.3c-0.2,0.7-0.3,1.4-0.5,2c-0.1,0.5-0.1,1-0.4,1.2c-0.1,0.1-0.1,0.1-0.2,0c-0.2-0.3-0.2-0.8-0.4-1.4
		c-0.2-0.5-0.4-0.8-0.7-1.2c-0.3-0.5-1.5,0.3-2-0.8c-0.1-0.3,0.1-0.9,0.3-1.2c0.1-0.2,0.2-0.3,0.4-0.4c0.3-0.1,0.4,0,0.6,0
		c0.7,0.3,1.2,1,1.6,1.8c0.2,0.5,0.2,0.6,0.4,1.3c0,0.1,0.1,0.1,0.2-0.1c0-0.4,0.2-0.8,0.2-1.2c0.1-0.5,0.3-1,0.4-1.5
		C172.5,22.8,172.8,22.4,173.2,22z"/>
	<path class="st1" d="M174.1,3.5c0.2-0.1,0.5-0.1,0.7,0.2c0.3,0.4,0.2,0.7,0.1,1.2c-0.1,0.1-0.2,0.3-0.4,0.2c-0.1,0-0.2-0.5-0.7-0.3
		c-0.4,0.3-0.5,0.8-0.6,1.3c-0.2,0.7-0.3,1.4-0.5,2c-0.1,0.5-0.1,1-0.4,1.2c-0.1,0.1-0.1,0.1-0.2,0c-0.2-0.3-0.2-0.8-0.4-1.4
		c-0.2-0.5-0.4-0.8-0.7-1.2c-0.3-0.5-1.5,0.3-2-0.8c-0.1-0.3,0.1-0.9,0.3-1.2c0.1-0.2,0.2-0.3,0.4-0.4c0.3-0.1,0.4,0,0.6,0
		c0.7,0.3,1.2,1,1.6,1.8c0.2,0.5,0.2,0.6,0.4,1.3c0,0.1,0.1,0.1,0.2-0.1c0-0.4,0.2-0.8,0.2-1.2c0.1-0.5,0.3-1,0.4-1.5
		C173.3,4.3,173.6,3.9,174.1,3.5z"/>
	<path class="st1" d="M138.6,17.7c0.2-0.1,0.5-0.1,0.7,0.2c0.3,0.4,0.2,0.7,0.1,1.2c-0.1,0.1-0.2,0.3-0.4,0.2
		c-0.1,0-0.2-0.5-0.7-0.3c-0.4,0.3-0.5,0.8-0.6,1.3c-0.2,0.7-0.3,1.4-0.5,2c-0.1,0.5-0.1,1-0.4,1.2c-0.1,0.1-0.1,0.1-0.2,0
		c-0.2-0.3-0.2-0.8-0.4-1.4c-0.2-0.5-0.4-0.8-0.7-1.2c-0.3-0.5-1.5,0.3-2-0.8c-0.1-0.3,0.1-0.9,0.3-1.2c0.1-0.2,0.2-0.3,0.4-0.4
		c0.3-0.1,0.4,0,0.6,0c0.7,0.3,1.2,1,1.6,1.8c0.2,0.5,0.2,0.6,0.4,1.3c0,0.1,0.1,0.1,0.2-0.1c0-0.4,0.2-0.8,0.2-1.2
		c0.1-0.5,0.3-1,0.4-1.5C137.9,18.6,138.1,18.1,138.6,17.7z"/>
	<path class="st1" d="M53.8,10.3c0.2-0.1,0.5-0.1,0.7,0.2c0.3,0.4,0.2,0.7,0.1,1.2c-0.1,0.1-0.2,0.3-0.4,0.2c-0.1,0-0.2-0.5-0.7-0.3
		c-0.4,0.3-0.5,0.8-0.6,1.3c-0.2,0.7-0.3,1.4-0.5,2c-0.1,0.5-0.1,1-0.4,1.2c-0.1,0.1-0.1,0.1-0.2,0c-0.2-0.3-0.2-0.8-0.4-1.4
		c-0.2-0.5-0.4-0.8-0.7-1.2c-0.3-0.5-1.5,0.3-2-0.8c-0.1-0.3,0.1-0.9,0.3-1.2c0.1-0.2,0.2-0.3,0.4-0.4c0.3-0.1,0.4,0,0.6,0
		c0.7,0.3,1.2,1,1.6,1.8c0.2,0.5,0.2,0.6,0.4,1.3c0,0.1,0.1,0.1,0.2-0.1c0-0.4,0.2-0.8,0.2-1.2c0.1-0.5,0.3-1,0.4-1.5
		C53.1,11.2,53.3,10.7,53.8,10.3z"/>
	<path class="st1" d="M34.9,15.6c0.2-0.1,0.5-0.1,0.7,0.2c0.3,0.4,0.2,0.7,0.1,1.2c-0.1,0.1-0.2,0.3-0.4,0.2c-0.1,0-0.2-0.5-0.7-0.3
		c-0.4,0.3-0.5,0.8-0.6,1.3c-0.2,0.7-0.3,1.4-0.5,2c-0.1,0.5-0.1,1-0.4,1.2c-0.1,0.1-0.1,0.1-0.2,0c-0.2-0.3-0.2-0.8-0.4-1.4
		c-0.2-0.5-0.4-0.8-0.7-1.2c-0.3-0.5-1.5,0.3-2-0.8c-0.1-0.3,0.1-0.9,0.3-1.2c0.1-0.2,0.2-0.3,0.4-0.4c0.3-0.1,0.4,0,0.6,0
		c0.7,0.3,1.2,1,1.6,1.8c0.2,0.5,0.2,0.6,0.4,1.3c0,0.1,0.1,0.1,0.2-0.1c0-0.4,0.2-0.8,0.2-1.2c0.1-0.5,0.3-1,0.4-1.5
		C34.1,16.5,34.4,16,34.9,15.6z"/>
	<path class="st1" d="M20.2,17.9c0.2-0.1,0.5-0.1,0.7,0.2c0.3,0.4,0.2,0.7,0.1,1.2c-0.1,0.1-0.2,0.3-0.4,0.2c-0.1,0-0.2-0.5-0.7-0.3
		c-0.4,0.3-0.5,0.8-0.6,1.3c-0.2,0.7-0.3,1.4-0.5,2c-0.1,0.5-0.1,1-0.4,1.2c-0.1,0.1-0.1,0.1-0.2,0c-0.2-0.3-0.2-0.8-0.4-1.4
		c-0.2-0.5-0.4-0.8-0.7-1.2c-0.3-0.5-1.5,0.3-2-0.8c-0.1-0.3,0.1-0.9,0.3-1.2c0.1-0.2,0.2-0.3,0.4-0.4c0.3-0.1,0.4,0,0.6,0
		c0.7,0.3,1.2,1,1.6,1.8c0.2,0.5,0.2,0.6,0.4,1.3c0,0.1,0.1,0.1,0.2-0.1c0-0.4,0.2-0.8,0.2-1.2c0.1-0.5,0.3-1,0.4-1.5
		C19.5,18.8,19.8,18.3,20.2,17.9z"/>
	<path class="st1" d="M98.9,39.8c0,0.4-0.1,0.5-0.2,0.8c-0.4,0.1-0.7,0.2-1.1,0.3c0,0,0,0,0,0.1c0,0,0,0,0,0.1
		c0.8,0.1,2.1-0.1,2.7-0.4c0-0.8,0-1.4-0.5-1.9c-0.2,0-0.2,0-0.3,0.2c-0.3,0.2-0.2,0.6-0.5,0.6c-0.1-0.1-0.1-0.2,0-0.3
		c0.1-0.4,0.3-0.9,0.7-1.2c0.2-0.2,0.4-0.2,0.6-0.1c0.9,1,0.3,2.3,0.6,2.6c0.3,0,0.5,0,0.7-0.1c0,0,0,0,0-0.1
		c-0.4-0.9,0-1.9,0.6-2.3c0.1-0.1,0.3-0.2,0.5-0.1c0.2,0.5,0.4,0.7,0.7,0.9c0.1,0,0.3,0.1,0.5-0.1c0.2-0.3,0.3-0.5,0.5-0.7
		c0.1,0,0.1,0,0.1,0.1c0,0.2,0,0.5,0.3,0.6c0-0.4,0.1-0.6,0.3-0.8c0.1,0,0.1,0,0.1,0.1c-0.1,0.3,0,0.6,0,0.9c0,0.2-0.1,0.4-0.3,0.4
		c-0.3,0-0.4,0.1-0.8-0.1c-0.5,0.4-0.9,0.3-1.4,0.2c-0.2-0.1-0.3-0.2-0.3-0.4c-0.1-0.2-0.2-0.4-0.3-0.4c-0.2,0-0.3,0.1-0.4,0.3
		c-0.1,0.1-0.1,0.3,0,0.5c0.1,0.3,0.4,0.5,0.7,0.6c0.3,0.1,0.5,0,0.8,0.3c0,0.2,0,0.3,0,0.4c-0.3,0.7-1.1-0.2-1.7,0.3c0,0,0,0,0,0.1
		c0,0,0.1,0,0.1,0.1c0.8,0.1,2.4,0.1,2.9-0.4c-0.4-0.1-0.7-0.2-1.1-0.3c0-0.4,0.1-0.4,0.3-0.7c0.2-0.1,0.3-0.3,0.6-0.2
		c0.3,0.1,0.4,0.3,1.2,0.5c0.5,0.1,1.1,0.1,1.7,0.2c0.2,0,0.4,0.1,0.6,0c0,0.1,0,0.1,0,0.2c-0.1,0.3-0.1,0.5-0.3,0.7
		c-0.9-0.2-1.4,0-2.2,0.1c-1.1,0.3-2.5,0.9-3.8,0.7c-0.5,0-0.8-0.3-1.2-0.7c-1.1,0-3.2,1-3.8-0.4c-1.5,0.1-3.3-0.1-3.9-1.2
		c-0.8-2.5,3.3-3.2,5.2-2.1c0,0,0.1,0.1,0,0.2c0,0,0,0.1-0.1,0.1c-0.2,0.1-0.5,0-0.7,0c-0.5-0.1-0.9-0.2-1.4-0.3
		c-1-0.1-2.8,0.5-2.6,1.4c0.2,0.5,1.4,0.8,2.9,0.9C97,40.1,98,39.9,98.9,39.8z"/>
	<path class="st1" d="M105.7,41.6c0.3,0.1,0.5,0.2,0.7,0.4c0,0.3-0.1,0.5-0.2,0.6c-0.1,0.1-0.2,0.1-0.3,0c-0.2-0.1-0.4-0.2-0.5-0.4
		C105.4,42.1,105.5,41.8,105.7,41.6z"/>
	<path class="st1" d="M144.6,14.9C144.7,14.9,144.7,14.9,144.6,14.9c-0.4,1.2-1.3,2.6-1.2,4c0,0.2,0.1,0.5,0.7,0.5
		c0.4,0,0.6-0.4,0.7-0.8c0,0,0.1,0,0.1,0c0,0,0,0.1,0,0.1c0,1.3-0.6,2-1.2,2C141.1,20.4,143.9,15.6,144.6,14.9z"/>
	<path class="st1" d="M182.4,34.6c0,0,0.1,0,0.1,0c-0.6,1.3-1.4,2.7-1.3,4.1c0,0.2,0.1,0.5,0.8,0.6c0.4,0,0.6-0.5,0.8-0.9
		c0,0,0.1,0,0.1,0.1c0,0,0,0.1,0,0.1c0,1.4-0.6,2.1-1.2,2.2C178.7,40.4,181.6,35.3,182.4,34.6z"/>
	<path class="st1" d="M164.4,35.5C164.4,35.5,164.5,35.5,164.4,35.5c-0.4,1.2-1.2,2.5-1.1,3.7c0,0.2,0.1,0.5,0.7,0.5
		c0.3,0,0.6-0.4,0.7-0.8c0,0,0.1,0,0.1,0c0,0,0,0.1,0,0.1c0,1.3-0.5,1.9-1.1,1.9C161.1,40.7,163.7,36.1,164.4,35.5z"/>
	<path class="st1" d="M150.7,36.2C150.7,36.2,150.8,36.2,150.7,36.2c-0.4,1.2-1.2,2.4-1.1,3.7c0,0.2,0.1,0.4,0.7,0.5
		c0.3,0,0.6-0.4,0.7-0.8c0,0,0.1,0,0.1,0c0,0,0,0.1,0,0.1c0,1.3-0.5,1.9-1.1,1.9C147.5,41.3,150,36.8,150.7,36.2z"/>
	<path class="st1" d="M111.9,14.5c0,0,0.1,0,0.1,0c-0.6,1.3-1.4,2.7-1.3,4.1c0,0.2,0.1,0.5,0.8,0.6c0.4,0,0.6-0.5,0.8-0.9
		c0,0,0.1,0,0.1,0.1c0,0,0,0.1,0,0.1c0,1.4-0.6,2.1-1.2,2.2C108.3,20.3,111.1,15.2,111.9,14.5z"/>
	<path class="st1" d="M95.2,15.1c0,0,0.1,0,0.1,0c-0.9,1.9-2.2,3.9-2.1,6c0.1,0.3,0.2,0.7,1.1,0.8c0.6,0,0.9-0.7,1.1-1.2
		c0,0,0.1,0,0.1,0.1c0,0,0,0.1,0,0.1c0,2.1-0.9,3-1.9,3.1C89.7,23.4,94,16.1,95.2,15.1z"/>
	<path class="st1" d="M88.1,16.2C88.1,16.2,88.1,16.2,88.1,16.2c-0.4,1-1.1,2.1-1,3.2c0,0.2,0.1,0.4,0.6,0.5c0.3,0,0.5-0.4,0.6-0.7
		c0,0,0.1,0,0.1,0c0,0,0,0.1,0,0.1c0,1.1-0.5,1.6-1,1.7C85.1,20.6,87.4,16.7,88.1,16.2z"/>
	<path class="st1" d="M94.2,4.8C94.2,4.8,94.2,4.8,94.2,4.8c-0.4,1-1,2-1,3.1c0,0.2,0.1,0.4,0.6,0.4c0.3,0,0.5-0.3,0.6-0.6
		c0,0,0.1,0,0.1,0c0,0,0,0.1,0,0.1c0,1.1-0.5,1.6-1,1.6C91.3,9,93.6,5.3,94.2,4.8z"/>
	<path class="st1" d="M43,35.5C43,35.5,43,35.5,43,35.5c-0.5,1.2-1.3,2.5-1.2,3.8c0,0.2,0.1,0.5,0.7,0.5c0.4,0,0.6-0.4,0.7-0.8
		c0,0,0.1,0,0.1,0c0,0,0,0.1,0,0.1c0,1.3-0.6,1.9-1.2,2C39.5,40.8,42.3,36.2,43,35.5z"/>
	<path class="st1" d="M24.8,35.4C24.8,35.4,24.9,35.4,24.8,35.4c-0.5,1.2-1.3,2.5-1.2,3.8c0,0.2,0.1,0.5,0.7,0.5
		c0.4,0,0.6-0.4,0.7-0.8c0,0,0.1,0,0.1,0c0,0,0,0.1,0,0.1c0,1.3-0.6,1.9-1.2,2C21.3,40.7,24.1,36.1,24.8,35.4z"/>
	<path class="st1" d="M170.5,36.4c0.1,0,0.2-0.1,0.2,0c0.4,0.4,2.2,1.4,2.4,1.7c-0.3,1.2-0.6,1.7-1.3,2.4c-0.1,0-0.2,0-0.3,0
		c-0.7-0.5-1.9-1.1-2.4-1.6C169.3,37.8,170,37.1,170.5,36.4z"/>
	<path class="st1" d="M124.6,37.7c0.1,0,0.2-0.1,0.2,0c0.4,0.4,2.2,1.4,2.4,1.7c-0.3,1.2-0.6,1.7-1.3,2.4c-0.1,0-0.2,0-0.3,0
		c-0.7-0.5-1.9-1.1-2.4-1.6C123.3,39,124,38.3,124.6,37.7z"/>
	<path class="st1" d="M178.4,18.9C178.4,18.9,178.5,18.8,178.4,18.9c0.1,0,0.2,0,0.2,0s1.8,1.4,2.4,1.8c0,0,0.1,0.1,0.1,0.1
		c0.1,0,0.1-0.1,0.1-0.1s0.2-0.4,0.5-0.8c0.3-0.5,0.7-0.9,0.7-0.9s0.1-0.1,0.1-0.1c0.1,0,0.1,0.1,0.1,0.1s0.8,0.5,1.4,1
		c0.6,0.5,1.2,1.1,1.2,1.1s0.1,0.1,0.1,0.1c0,0.1,0,0.1,0,0.2c-0.5,0.8-1.7,2.2-1.7,2.2s-0.1,0-0.1,0c0,0-0.1,0-0.1,0l-2.3-1.6
		c0,0-0.2-0.1-0.2-0.1c-0.1,0-0.1,0.1-0.1,0.1s-0.3,0.5-0.6,0.9c-0.3,0.4-0.8,0.8-0.8,0.8s0,0-0.1,0c0,0-0.1,0-0.1,0
		s-0.6-0.4-1.1-0.9c-0.7-0.5-1.4-1-1.4-1s0-0.1,0-0.1c0-0.1,0-0.1,0-0.1s0.3-0.6,0.7-1.2C178,19.4,178.4,18.9,178.4,18.9z"/>
	<path class="st1" d="M83.3,37C83.3,37,83.3,37,83.3,37c0.1,0,0.2,0,0.2,0s1.8,1.4,2.4,1.8c0,0,0.1,0.1,0.1,0.1
		c0.1,0,0.1-0.1,0.1-0.1s0.2-0.4,0.5-0.8c0.3-0.5,0.7-0.9,0.7-0.9s0.1-0.1,0.1-0.1c0.1,0,0.1,0.1,0.1,0.1s0.8,0.5,1.4,1
		c0.6,0.5,1.2,1.1,1.2,1.1s0.1,0.1,0.1,0.1c0,0.1,0,0.1,0,0.2c-0.5,0.8-1.7,2.2-1.7,2.2s-0.1,0-0.1,0c0,0-0.1,0-0.1,0L86.2,40
		c0,0-0.2-0.1-0.2-0.1c-0.1,0-0.1,0.1-0.1,0.1s-0.3,0.5-0.6,0.9c-0.3,0.4-0.8,0.8-0.8,0.8s0,0-0.1,0c0,0-0.1,0-0.1,0
		s-0.6-0.4-1.1-0.9c-0.7-0.5-1.4-1-1.4-1s0-0.1,0-0.1c0-0.1,0-0.1,0-0.1s0.3-0.6,0.7-1.2C82.8,37.6,83.3,37,83.3,37z"/>
	<path class="st1" d="M48.9,18.2C48.9,18.2,48.9,18.2,48.9,18.2c0.1,0,0.2,0,0.2,0s1.8,1.4,2.4,1.8c0,0,0.1,0.1,0.1,0.1
		c0.1,0,0.1-0.1,0.1-0.1s0.2-0.4,0.5-0.8c0.3-0.5,0.7-0.9,0.7-0.9s0.1-0.1,0.1-0.1c0.1,0,0.1,0.1,0.1,0.1s0.8,0.5,1.4,1
		c0.6,0.5,1.2,1.1,1.2,1.1s0.1,0.1,0.1,0.1c0,0.1,0,0.1,0,0.2c-0.5,0.8-1.7,2.2-1.7,2.2s-0.1,0-0.1,0c0,0-0.1,0-0.1,0l-2.3-1.6
		c0,0-0.2-0.1-0.2-0.1c-0.1,0-0.1,0.1-0.1,0.1s-0.3,0.5-0.6,0.9c-0.3,0.4-0.8,0.8-0.8,0.8s0,0-0.1,0c0,0-0.1,0-0.1,0
		s-0.6-0.4-1.1-0.9c-0.7-0.5-1.4-1-1.4-1s0-0.1,0-0.1c0-0.1,0-0.1,0-0.1s0.3-0.6,0.7-1.2C48.4,18.8,48.9,18.2,48.9,18.2z"/>
	<path class="st1" d="M9.8,17.9c0,0.1,0.1,0.1,0,0.2c-0.1,0.4-0.5,1.3-0.8,2c0,0.1-0.1,0.1,0,0.2c0,0.1,0.2,0.1,0.2,0.1
		s0.7,0.5,1.1,0.7c0.5,0.3,1,0.7,1.2,0.9c0.1,0,0.1,0.1,0.1,0.2c0,0.1,0,0.1-0.1,0.2c-0.1,0.1-0.2,0.4-0.5,1.1
		c-0.4,0.7-0.6,1.2-0.6,1.2s0,0.1-0.1,0.1c-0.1,0-0.1,0-0.2,0C9.1,23.9,7.6,23,7.6,23s0-0.1,0-0.1c0-0.1,0-0.1,0-0.1L8.4,21
		c0,0,0.1-0.2,0.1-0.2c0-0.1-0.1-0.2-0.1-0.2s-0.9-0.7-1.3-0.9c-0.5-0.3-1.2-0.9-1.2-0.9s0,0,0-0.1c0,0,0-0.1,0-0.1s0.2-0.5,0.6-1.1
		c0.4-0.7,0.8-1.3,0.8-1.3s0-0.1,0.1-0.1c0.1,0,0.2,0,0.2,0L8.7,17C8.7,17,9.7,17.7,9.8,17.9z"/>
	<path class="st1" d="M78.6,18.5c0,0.1,0,0.1,0,0.2c-0.1,0.4-0.5,1.3-0.8,2c0,0.1-0.1,0.1,0,0.2C77.8,21,78,21,78,21
		s0.7,0.5,1.1,0.7c0.5,0.3,1,0.7,1.2,0.9c0.1,0,0.1,0.1,0.1,0.2c0,0.1,0,0.1-0.1,0.2c-0.1,0.1-0.2,0.4-0.5,1.1
		c-0.4,0.7-0.6,1.2-0.6,1.2s0,0.1-0.1,0.1c-0.1,0-0.1,0-0.2,0c-0.9-0.8-2.5-1.7-2.5-1.7s0-0.1,0-0.1c0-0.1,0-0.1,0-0.1l0.9-1.7
		c0,0,0.1-0.2,0.1-0.2c0-0.1-0.1-0.2-0.1-0.2s-0.9-0.7-1.3-0.9c-0.5-0.3-1.2-0.9-1.2-0.9s0,0,0-0.1c0,0,0-0.1,0-0.1s0.2-0.5,0.6-1.1
		c0.4-0.7,0.8-1.3,0.8-1.3s0-0.1,0.1-0.1c0.1,0,0.2,0,0.2,0l1.2,0.9C77.6,17.6,78.6,18.3,78.6,18.5z"/>
	<path class="st1" d="M162.5,19.8c0,0.1,0,0.1,0,0.2c-0.1,0.4-0.5,1.3-0.8,2c0,0.1-0.1,0.1,0,0.2c0,0.1,0.2,0.1,0.2,0.1
		s0.7,0.5,1.1,0.7c0.5,0.3,1,0.7,1.2,0.9c0.1,0,0.1,0.1,0.1,0.2c0,0.1,0,0.1-0.1,0.2c-0.1,0.1-0.2,0.4-0.5,1.1
		c-0.4,0.7-0.6,1.2-0.6,1.2s0,0.1-0.1,0.1c-0.1,0-0.1,0-0.2,0c-0.9-0.8-2.5-1.7-2.5-1.7s0-0.1,0-0.1c0-0.1,0-0.1,0-0.1l0.9-1.7
		c0,0,0.1-0.2,0.1-0.2c0-0.1-0.1-0.2-0.1-0.2s-0.9-0.7-1.3-0.9c-0.5-0.3-1.2-0.9-1.2-0.9s0,0,0-0.1c0,0,0-0.1,0-0.1s0.2-0.5,0.6-1.1
		c0.4-0.7,0.8-1.3,0.8-1.3s0-0.1,0.1-0.1c0.1,0,0.2,0,0.2,0l1.2,0.9C161.4,18.9,162.4,19.6,162.5,19.8z"/>
	<path class="st1" d="M120,36c0,0,0.1,0,0.2,0.1c0,0.8-0.3,1.1-0.3,1.1s-9,3.5-9.7,4.3c-0.3,0-0.3,0-0.3-0.1c0.1-0.3,0.2-0.9,0.4-1
		c0.4-0.4,1.3-0.7,1.3-0.7L120,36z"/>
	<path class="st1" d="M29.9,4.5c0,0,0.1,0,0.2,0.1c-0.1,0.9-0.4,1.1-0.4,1.1S11,11.7,10.3,12.4c-0.3,0-0.3,0-0.3-0.2
		c0.1-0.3,0.3-0.8,0.5-1c0.4-0.3,1.4-0.6,1.4-0.6L29.9,4.5z"/>
	<path class="st1" d="M57.2,4.9c0,0,0.1,0,0.1,0.1c0,0.6-0.3,1.2-0.3,1.2S44.9,11.5,44.5,12c-0.2,0-0.2,0-0.2-0.1
		c0-0.2,0.2-1,0.3-1.1c0.3-0.3,0.9-0.5,0.9-0.5L57.2,4.9z"/>
	<path class="st1" d="M200.3,2.7c0,0,0.2,0,0.2,0.2c-0.2,1.3-0.7,1.3-0.7,1.3s-9,2-18.1,4.1c-8.6,2.1-17.4,4.3-18.5,5.3
		c0.1,0-0.1,0.1,0,0.2c0.1,0.3,1.3,0.5,1.8,0.6c0.1,0,0.1,0.1,0.1,0.1c0,0.4-0.1,1-0.3,1.2c-0.5,0-1.4-0.1-2-0.6
		c-0.5-0.4-0.2-1.6,0.1-2.2c0.4-1.3,9.4-3.6,18.5-5.8C190.9,4.8,200.3,2.7,200.3,2.7z"/>
	<path class="st1" d="M197.5,8.6c0,0,0.1,0,0.2,0.2c-0.2,1-0.6,1.1-0.6,1.1s-7.5,1.9-15,3.7c-7.2,1.7-14,4.2-15,5c0,0-0.1,0.1,0,0.2
		c0.1,0.2,1.1,0.4,1.5,0.5c0.1,0,0.1,0.1,0.1,0.1c0,0.3-0.1,0.8-0.2,1c-0.4,0-1.2-0.1-1.7-0.5c-0.4-0.3-0.1-1.3,0.1-1.8
		c0.6-1.4,7.5-3.6,15-5.4C189.7,10.6,197.5,8.6,197.5,8.6z"/>
	<path class="st1" d="M115.7,3.3c0,0,0.2,0,0.3,0.2c-0.1,1.3-0.6,1.4-0.6,1.4s-8.3,2.8-17.1,5.9c-8.4,3-16.8,6.1-17.9,7.2
		c0.1-0.1,0,0.2,0,0.2c0.2,0.3,1.3,0.4,1.9,0.4c0.1,0,0.1,0.1,0.1,0.1c0.1,0.4,0,1-0.2,1.2c-0.5,0-1.4,0-2-0.4
		c-0.5-0.3-0.3-1.6-0.1-2.2c0.3-1.3,9-4.6,17.8-7.7C107,6.3,115.7,3.3,115.7,3.3z"/>
	<path class="st1" d="M146.3,3.6c0,0,0.2,0,0.3,0.2C146.4,5,146,5.1,146,5.1s-2.7,1-11.6,4c-8.4,2.8-12.3,4.5-13.4,5.5
		c0.1-0.1,0,0.1,0,0.2c0.2,0.3,1.3,0.4,1.9,0.4c0.1,0,0.1,0.1,0.1,0.1c0.1,0.4,0,1-0.2,1.2c-0.5,0-1.4,0-2-0.4
		c-0.5-0.4-0.3-1.6-0.1-2.2c0.5-1.2,4.5-3.1,13.3-6.1C143.1,4.7,146.3,3.6,146.3,3.6z"/>
	<path class="st1" d="M145.6,9.8c0,0,0.2,0,0.3,0.2c-0.1,1.3-0.6,1.4-0.6,1.4s-2.7,1.2-11.4,4.4c-8.3,3.1-11.3,4.1-12.3,5.2
		c0.1-0.1,0,0.2,0,0.2c0.2,0.3,1.4,0.4,1.9,0.3c0.1,0,0.1,0.1,0.1,0.1c0.1,0.4,0,1-0.1,1.2c-0.5,0-1.4,0.1-2.1-0.3
		c-0.6-0.3-0.4-1.6-0.1-2.2c0.4-1,3.5-2.5,12.2-5.7C142.4,11.1,145.6,9.8,145.6,9.8z"/>
	<path class="st1" d="M45.9,4.2c0,0,0.2,0,0.2,0.1c-0.1,1.2-0.6,1.3-0.6,1.3s-8,2.5-16.5,5.4c-8.1,2.7-16.2,5.5-17.2,6.5
		c0,0,0,0.1,0,0.2c0.2,0.2,1.3,0.4,1.8,0.4c0.1,0,0.1,0.1,0.1,0.1c0.1,0.3,0,0.9-0.1,1.1c-0.5,0-1.3,0-2-0.3c-0.5-0.3-0.3-1.4-0.1-2
		c0.3-1.2,8.7-4.1,17.1-7C37.4,6.9,45.9,4.2,45.9,4.2z"/>
	<path class="st1" d="M121.3,4.1c0,0-0.3,1.1-0.3,1.1s-0.1,0.1,0.1,0.2c0.4,0.4,1.5,1.6,2.2,2.9c0.9,1.6,0.6,2.6,0.3,3.5
		c-0.1,0.2,0.2,0,0.2,0c0.4-0.8,0.8-2.3,0.3-3.9c-0.6-1.8-2.2-3.4-2.7-3.8C121.4,4.1,121.3,4.1,121.3,4.1z"/>
	<path class="st1" d="M139.7,35.6c0.5,0,0.5,0.5,0.5,0.9c0,0.5-0.5,0.9-0.7,0.7c-0.1-0.2-0.2-0.3-0.5-0.2c-0.2,0-0.4,0.2-0.3,0.5
		c0,0.1,0.1,0.2,0.3,0.2c0.5,0,1,0,1.4-0.2c0.5-0.1,1-0.9,1.1-0.7c0.1,0.3-0.2,1.2-0.4,1.3c-0.9,0.4-2,1.6-2.4,2.2
		c-0.3,0.5-0.1,0.6,0,0.6c0.6,0.4,2.1,0.3,3.4-0.5c0.4-0.2,0.7-0.5,1-0.9c0,0.1,0.2,0.3-0.9,1.6c-0.5,0.7-1.6,1.1-2.6,1.2
		c-1.1,0.2-1.8-0.2-1.8-1.1c0-0.5,0.9-2,1-2.4c-0.5-0.1-1.1-0.3-1.1-1.1C137.7,37.3,138.5,35.7,139.7,35.6z"/>
	<path class="st2" d="M10.1,40.9c-1.4,0.3-1.4,0.3-1.5,0.2l0,0c-0.2-0.3,1.2-0.7,2.9-1.4c1.8-0.7,3.5-1.9,5.1-3.3
		c0.9-0.7,2.4-1.5,3.2-1.5c0.2,0,0.4,0,0.8,0.2c0.4,0.2,0.5,0.2,0.8,0.2c0.3,0,0.9-0.3,1.1-0.6c0.3-0.3,0.6-1,0.7-1.2
		c0.1-0.2,0.4-0.4,0.5-0.4c0.1,0,0.1,0.1,0.1,0.2c0,0.1-0.1,0.4,0,0.8c0,0.2,0.2,0.4,0.8,0.4l0.2,0c0.1-0.2,0,0-0.1-0.5
		c0-0.1,0.1-0.3,0.2-0.5c0.2-0.4,0.3-0.7,0.3-0.7c0.2,0.2,0.3,0.7,0.4,1.1c0.1,0.9-0.4,1.8-0.6,1.9c-0.7,0.4-1.6-0.3-1.7-0.4
		c0,0-0.2-0.1-0.3,0c-0.5,0.6-1.3,1.2-2,1.2c-0.5,0-1-0.3-1.4-0.3c-0.6,0-1.3,0.3-1.5,0.4c-0.9,0.5-2,1.3-3.3,2.2
		C13.5,39.6,12.1,40.5,10.1,40.9z"/>
	<path class="st1" d="M82.9,26.4c0-0.1-0.2,0.2-0.2,0c-0.2-0.7,0.3-1.6,0.6-2.2c1.2,0.8,0,2.1,0.1,3c0,0.2,1.6,0.7,2-0.1
		c0.4-1-0.3-1.8-0.5-2.2c-0.1-0.3,0.2-1,0.3-1.3c0,0,0.1-0.1,0.1,0c0.9,1,0.4,3.9,2.7,3.6c0.1,0,0.1-0.1,0-0.2
		c-0.3-0.3-0.4-0.6-0.6-1c-0.6-1.1-0.8-1.1-0.3-2.4c0,0,0-0.1,0.1,0c0.1,0.3,0.2,0.6,0.4,0.9c0.2,0.4,0.5,0.8,0.7,1.2
		c0.6,1.1,0.4,3-0.9,3c-1,0-1.3-1.4-1.5-0.9C85,29.6,82.2,29.3,82.9,26.4z"/>
	<path class="st1" d="M123.3,25.8c0-0.1-0.2,0.2-0.2,0c-0.2-0.7,0.3-1.6,0.6-2.2c1.2,0.8,0,2.1,0.1,3c0,0.2,1.6,0.7,2-0.1
		c0.4-1-0.3-1.8-0.5-2.2c-0.1-0.3,0.2-1,0.3-1.3c0,0,0.1-0.1,0.1,0c0.9,1,0.4,3.9,2.7,3.6c0.1,0,0.1-0.1,0-0.2
		c-0.3-0.3-0.4-0.6-0.6-1c-0.6-1.1-0.8-1.1-0.3-2.4c0,0,0-0.1,0.1,0c0.1,0.3,0.2,0.6,0.4,0.9c0.2,0.4,0.5,0.8,0.7,1.2
		c0.6,1.1,0.4,3-0.9,3c-1,0-1.3-1.4-1.5-0.9C125.3,29.1,122.6,28.7,123.3,25.8z"/>
	<path class="st2" d="M5.1,21.9c0,0,0.1-0.3,0.2-0.3c0.1,0,0.1,0,0.1,0c0.1,0.1,0,0.4,0,0.4c-0.4,3.5-1.3,5.3-2.7,5.4
		c-1.5,0.1-2.4-1.1-2.7-3.6c-0.2-3.1,0.4-6.5,1.9-10.1c0.4-0.9,0.7-1.4,0.7-1.4c0,0,0.1,0,0,0.1c0,0.1-0.1,0.7-0.3,1.5
		c-0.9,3.7-1.3,6.3-1.2,7.7c0.2,2,0.8,2.9,1.9,2.8C3.8,24.2,4.5,23.5,5.1,21.9z"/>
	<path class="st1" d="M26.7,11.8c-1.1,2.2-2.5,4.6-2.4,7c0.1,0.4,0.2,0.9,1.4,1c0.7,0,1.1-0.8,1.4-1.5c0.1-0.1,0.2,0,0.2,0.1
		c0,0.1,0,0.1,0,0.2c0,2.6-1.2,3.8-2.3,3.8c-4.6-0.7-0.7-8,1.2-10.4C26.3,11.9,26.4,11.9,26.7,11.8z"/>
	<path class="st1" d="M194.3,10.5c-0.5,1.1-1.1,2.3-1,3.4c0,0.2,0.1,0.5,0.7,0.5c0.3,0,0.6-0.4,0.7-0.8c0,0,0.1,0,0.1,0
		c0,0,0,0.1,0,0.1c0,1.3-0.5,1.9-1.1,2c-2.2-0.3-0.6-3.8,0.4-5.1C194,10.6,194.1,10.6,194.3,10.5z"/>
	<path class="st1" d="M129.2,5.7c-0.3-0.7-0.9-1-1.5-1.3c-0.1-0.1,0-0.5,0.1-0.7h-0.2c-1,1.5-1.9,4.1-0.3,4.7
		C127.9,8.6,129.6,8,129.2,5.7z M128.7,6.9c-0.2,0.1-0.7,0.3-0.8,0.3c-0.4-0.1-0.6-0.2-0.9-0.7c0-0.5,0.1-0.6,0.2-0.8
		c0.1-0.1,0.2-0.1,0.3,0c0.4,0.3,0.9,0.7,1.2,1C128.7,6.8,128.7,6.9,128.7,6.9z"/>
	<path class="st1" d="M83.3,7.2c-0.1-0.2-0.5-0.7-1.2-1.3c-0.4-0.4-0.9-0.9-1.5-1.3c-0.1,0-0.3-0.2-0.5,0.1
		c-0.1,0.2-0.3,0.7-0.4,1.2c0,0.1,0.3,0.1,0.1,0.4c-0.2,0.3-0.3,0.6-0.4,0.9c-0.1,0.3-0.2,0.7,0,1c0.2,0.3,0.7,0.4,1.3,0.4
		c0,0.1-0.4,0.6-1,1.3c-0.7,0.8-1.6,1.7-2.2,2.2c-1.4,1.2-2.4,1.9-3,2.4c-1.5,1.3-1.4,1.3-1.4,1.4c0,0,0,0,0.1,0
		c0.1,0,0.3-0.1,0.6-0.3c1.9-1.1,2.7-1.8,2.9-1.9c0.7-0.6,1.8-1.5,2.7-2.5c0.5-0.5,1-1.2,1.3-1.7c0.3-0.4,0.4-0.6,0.4-0.7
		c0.1-0.2,0.3-0.1,0.5,0c0.5,0.4,1,0.6,1.4,0.4C83.5,9,83.6,7.7,83.3,7.2z M80.9,7.4c-0.2,0.1-0.8-0.1-0.9-0.1C80,7.3,80,7.1,80,7
		c0,0,0.1-0.1,0.1-0.1c0.3-0.1,0.7,0.2,0.7,0.4C81,7.3,81,7.4,80.9,7.4z M82.7,8c-0.2,0.2-1.1-0.4-1.1-0.5c-0.1,0,0-0.5,0.1-0.5
		C81.9,7,82.8,7.9,82.7,8z"/>
	<path class="st1" d="M116.2,28.4c-0.2-0.5-0.4-1.1-0.7-1.4c0-0.1-0.1-0.1-0.1,0c-0.4,0.9-1.4,2.8-0.4,3.6c0.1,0.1,0,0.3-0.1,0.3
		c-1.6,0.4-3-0.6-3.2-0.9c-0.2-0.9,0.5-1.9,0.2-2.3c-0.1-0.2-0.3,0-0.3,0.1c-0.6,0.6-0.8,1-1.2,1.6c-0.3,0.5-0.5,1-0.9,1.5
		c-0.4,0.7-1.9,1.9-3.6,1.5c-0.6-0.1-1.3-0.7-1.3-0.9c-0.1-0.3,0-1,0.2-1.7c0.2-0.7-0.1-0.5-0.2-0.4c-0.4,0.4-1.9,1.6-3.1,2.1
		c-1.4,0.7-2.7,1.2-4.2,1.2c-0.9,0-2.8-0.3-3.7-1c-1.2-0.9-1.6-1.5-1.5-3.1c0-0.3-0.1-0.4-0.3-0.3c-0.4,0.1-1,0.5-1.3,0.9
		c-1.4,1.8-2,3.2-4.7,3.4c-0.7,0.1-1.7-0.2-2.4-0.6c-1.2-0.8-1.8-2-2.6-3.2c-0.2-0.3-0.7-0.6-1.1-0.6c-2.1,0-4.3,3.7-4.5,4
		c-0.6,1.2-0.9,2.6-1.5,3.8c-0.3,0.6-1,1.3-1.5,1.3c-1.8,0-2.8-1.7-3-3.5c0-0.4,0.2-1.7,0.3-2.2c0.3-1,0-2-0.1-2.2
		c-0.4-0.7-0.9-1-1.6-1.2c-1-0.4-2.3,0-3.5,0.4c-0.1,0.1-0.1,0.1-0.2,0c-1.1-3.2-3.2-16-3.2-16.2c0-0.2-0.2-0.7-0.1-0.9
		c0-0.2,0.3-0.2,0.5-0.1c0.2,0.1,0.4,0.3,0.6,0.6c0.1,0.1,0.4,0.2,0.4-0.3c0-0.3-0.3-1-1.3-3c-0.7-1.5-1.6-3.5-1.7-3.6
		c-0.1-0.2-0.2-0.1-0.2-0.1c-0.2,0.7-0.9,2.5-1,2.7c0,0-0.1,0.2,0,0.3c0.3,0.4,0.6,1.6,0.5,1.5c0-0.1,0.2,1.3,0.2,1.3
		s2.3,14.4,3.3,18.1c0.1,0.3,0,0.5-0.1,0.6c-0.7,0.3-5.3,2.8-7.1,2.8c-0.1-0.1-0.1-0.2,0-0.3c0.4-0.5,0.7-1.7,0.8-2.4
		c0.2-2.4-0.8-4.7-1.8-4.7c-0.7,0-2.9,2.1-3.5,3c-0.4,0.7-0.7,1.7-0.9,2.3c-0.2,0.8-0.3,2.1,0.2,2.7c0.1,0.2,0.1,0.3,0,0.4
		c-0.8,0.4-2.4,0.2-3.1-0.1c-0.7-0.3-1.6-1.3-2-1.9c-0.7-1-1.1-3.4-1.1-3.8c-0.2-2.1-0.5-3.6-0.5-4.3c-0.3-2.8-2.9-7.8-3.6-8.4
		c0-0.1-0.1-0.1-0.1,0c-0.2,0.4-0.4,0.9-0.5,2.1c0,0.3,0,0.4,0,0.6c0.2,0.8,1.4,4,2,6.1c0.5,1.5,1,3.4,1.3,5.3
		c0,0.3-0.7,1.7-4.4,4.6c-3.1,2.4-5.4,3.4-6.9,3.4c-1.5,0-2.1-0.7-2.3-1.7c-0.2-0.9,0.6-3.2,0.6-3.2c0.1-0.2,0.3-0.1,0.4-0.2
		c0.7-0.2,2-0.9,3.3-3.2c0.1-0.1,0.2-0.1,0.2,0c0.2,0.3,0.8,2.3,3.4,2.3c0.3,0,1.7-0.3,2.3-1.3c1.4-2.6,0.7-5.3-0.3-6.2
		c-0.1-0.1-0.1-0.1-0.1,0c-0.5,0.6-1,2.6-0.9,2.6c0,0.2,0.5,0.8,0.8,1.1c0,0.6-0.9,0.8-1.4,0.8c-1.4,0-2.4-0.9-2.4-1.6
		c0-1,0.6-1.6,0.7-2.2c0-0.1-0.3-0.2-0.6,0.1c-1.3,1.5-2.7,4.8-5.9,4.8c-0.6,0-1.8-0.4-1.9-1.1c-0.2-0.8,0.4-1.7,0.1-2.1
		c-0.4-0.2-1.6,1.1-1.8,1.3c-1.7,2-4.1,2.6-5.2,2.6c-4.7,0-4.3-4.3-6.3-4.3c-0.6,0-1.7,0.7-2.3,1.2c-1.2,1.2-2.3,3.1-2.7,4.7
		c-0.8,2.9-1.9,3.8-2.5,3.8c-1.6,0-2.5-1.8-2.8-3.3c-0.4-2,0-3.8,0-4.4c0.1-0.6-0.4-0.5-0.5,0c-0.2,0.8-0.7,2.4-0.2,5
		c0.7,4.1,2.7,4.6,3.8,4.6c2.5,0,2.1-5.8,5.2-8c0.6-0.4,1.1-0.6,1.2-0.6c0.2-0.1,0.5-0.1,0.7,0c0.6,0.3,0.8,1.1,1.2,1.8
		c0.4,0.5,1,1.1,1.5,1.5c0.9,0.7,1.9,0.9,2.9,0.9c3,0,4.9-2.3,6-3.5c0.1-0.1,0.3-0.1,0.3,0c0,1.5,1.2,2.7,2.8,2.7
		c0.2,0,0.2,0,0.2,0.1c-0.1,0.5-0.3,1-0.4,1.5c-0.4,1.2-0.6,3.3-0.1,4.4c1.2,2.6,3.4,2.4,5.9,1.1c1.7-0.9,2.6-1.6,3.7-2.4
		c1.4-1.1,2.9-2.2,3.9-3.7c0.2-0.3,0.5-0.8,0.7-1.1c0.3-0.6,0.4-1.2,0.6-1.7c0-0.1,0.2-0.1,0.2,0c0.1,2.4,1.3,5,3,5.8
		c0.5,0.2,1.4,0.7,2.1,0.6c1.8-0.2,3-1,4-1.4c0.8-0.3,1.7,0.3,2.4,0.2c0.1,0,0.2-0.2,0.3-0.2c0.5-0.1,0.7,0,1.1,0
		c0.9,0,4.2-1.8,7.2-3.3c0.1-0.1,0.2,0,0.3,0.1c0.2,0.2,0.5,0.9,0.7,1.3c0.9,1.5,3.2,3.7,4.6,1.8c0.1-0.1,0.2-0.1,0.2,0
		c0.1,0.3,0.3,1.5,0.6,1.9c0.5,0.9,0.8,1.8,2.3,2.5c0.4,0.2,0.8,0.1,1.1,0c0.7-0.2,1.2-0.8,1.8-1.8c0.6-1,1-3.4,2.7-5
		c0.3-0.3,1.4-1.2,2.2-1.2c0.6,0,1,0.7,1.3,1.2c0.5,0.8,1.2,1.7,2,2.3c0.5,0.3,1.9,1.1,3.6,0.6c2.3-0.6,2.8-2,4.3-3.9
		c0.1-0.1,0.3-0.1,0.4,0.1c0.2,0.4,0.4,0.9,0.6,1.2c0.6,1,1,1.6,2.2,2.2c2.2,1.1,4.6,0.7,7.4-0.7c0.6-0.3,1.6-1.1,2-1.4
		c0.1-0.1,0.2-0.1,0.2,0c-0.4,1.7,1.9,3.2,3.8,2.4c1.7-0.8,2.5-2.3,2.8-2.9c0.1-0.1,0.3-0.2,0.3-0.1c0.1,0.3,0.3,0.5,0.6,0.8
		c0.4,0.4,1.6,1.2,3,1.1c2-0.2,2.2-2.4,2.3-3.6C116.3,29.8,116.4,28.9,116.2,28.4z M54.7,30.9c-0.5,0.6-1.4,1-1.5,1
		c-0.1,0.1-0.2,0-0.3,0c-0.8-0.2-1.5-0.7-1.8-1.2c0-0.1,0-0.2,0-0.3c0.4-1.2,1.9-2.2,2.2-2.4c0.2-0.1,0.3-0.1,0.5,0
		c0.2,0.3,0.9,1.6,1,2.4C54.7,30.7,54.7,30.8,54.7,30.9z M67.7,32.6c-0.5,0-1.9-1.3-2-1.5c0,0,0-0.1,0-0.1c0.2-0.2,1.5,0,1.8,0.1
		C69,31.9,68.1,32.6,67.7,32.6z"/>
	<path class="st1" d="M62.2,35.5c0.2,0.2,0.5,0.4,0.8,0.4c0.1,0,0.1-0.1,0-0.1c0-0.2-0.2-0.4-0.3-0.5C62.4,35.1,62,35.4,62.2,35.5z"
		/>
	<path class="st1" d="M150.9,24.2c-0.4-2.9-1-7.2-1.3-9.5c-0.3-2.4-0.5-3.2-0.3-3.6c0.1-0.2,0.2-0.4,0.4-0.3
		c0.2,0.1,0.5,0.4,0.8,0.7c0.1,0.2,0.4,0.2,0.4-0.3c0-0.3-0.4-1.3-1.3-3.3c-0.7-1.5-1.4-3.3-1.4-3.4c-0.1-0.2-0.2-0.1-0.2-0.1
		c-0.2,0.7-0.9,2.5-1,2.7c0,0-0.1,0.2,0,0.3c0.3,0.3,0.3,1.2,0.3,1.4c0,1.3,1,8.8,1.8,14.5c0.5,3.5,1,6.6,0.8,8.2
		c-1,1.5-2.9,1.9-3.8,1.9c-0.6,0-1.9-0.4-3-1.1c0,0-0.1-0.2,0-0.3c0.6-0.2,1.6-1.2,3.2-1.6c0.2,0,0.3,0,0.6-0.1
		c0.2-0.1,0.6-1.4,0.9-2.1c0.1-0.2,0.1-0.3,0-0.4c-2.6-1.3-4.9-1.9-6.4-1.9c-4.4,0-6.9,1.4-7.5,1.7c-0.3,0.6-0.7,1.9-0.9,2.3
		c-0.1,0.2-0.1,0.5,0.2,0.4c2.6-0.9,3.4,0.1,5.5,1.4c0,0,0.1,0.1-0.1,0.2c-1,0.4-3.2,1.6-5,1.6c-1.3,0-2.4-0.3-3.1-1
		c-0.6-0.6-0.7-1.4-0.5-2.1c0.3-0.5,0-0.8-0.2-0.7c-0.2,0-0.7,0.5-0.9,0.8c-2.4,3.3-3.1,3.5-4.8,3.5c-4,0-4.5-5.9-4.5-7.3
		c0-4.8-0.9-12.2-1.7-17c0-1-0.1-1.6-0.2-1.8c-0.2-0.9-0.6-1.9-1-2.7c0-0.1-0.1-0.1-0.1,0c-0.4,0.8-0.9,2.1-1,2.5c0,0.1,0,0.2,0,0.3
		c0.1,0.8,0.6,1.3,0.6,1.8c0.2,1.9,1.9,12.1,1.9,19c0,0.9,0.3,5.6,3.2,7.6c2.1,1.4,3.5,0.6,5.1-0.4c1.4-0.8,1.3-2,2.2-2.6
		c0.1-0.1,0.2-0.1,0.3,0c0.2,0.8,0.1,2.6,3.1,3.3c0.3,0.1,0.7,0.1,0.9,0c0.6-0.1,2.4-0.6,3.8-1.2c1.4-0.6,2.7-1.4,3.3-1.8
		c0.2-0.1,0.4-0.1,0.6,0c0.4,0.5,1.1,1.1,1.5,1.5c0.7,0.7,2.4,1.4,3.1,1.4c1.9,0,3.5-1.2,3.9-1.6c0.7-0.8,1.3-1.5,1.6-2.3
		C151.3,31.1,151.6,28.8,150.9,24.2z M141.5,30.2c-0.1,0.1-0.2,0.1-0.3,0c-0.3-0.4-0.7-0.9-1.3-1.1c0,0-0.1-0.4,0.1-0.4
		c1.9-0.1,2.5,0.2,3.5,0.4c0,0,0,0,0,0.1C142.9,29.5,141.9,29.9,141.5,30.2z"/>
	<g>
		<g>
			<path class="st1" d="M204.4,23.2c-0.3-2.9-0.7-5.7-0.9-8c-0.3-2.4-0.5-3.4-0.4-3.8c0.1-0.2,0.2-0.4,0.4-0.3
				c0.2,0.1,0.3,0.3,0.5,0.6c0.1,0.2,0.4,0.2,0.4-0.3c0-0.3-0.2-1.3-1.1-3.3c-0.7-1.5-1.1-3.1-1.1-3.2c-0.1-0.2-0.2-0.1-0.2-0.1
				c-0.2,0.7-1,2.5-1.1,2.7c0,0-0.1,0.2,0,0.3c0.3,0.3,0.3,1.2,0.3,1.4c0,1.3,0.8,7.4,1.5,13c0.4,3.5,0.8,6.7,0.7,8.3
				c-1,1.5-3.1,1.9-4,1.9c-0.6,0-1.8-0.5-2.8-1.4c0,0-0.1-0.2,0-0.2c0.6-0.2,1.5-0.8,3-1.4c0.2-0.1,0.3,0,0.6-0.1
				c0.2-0.1,0.8-1.6,1.2-2.3c0.1-0.2,0.1-0.3,0-0.4c-3-1.1-4.9-1.7-6.4-1.7c-5.3,0-6.4,1-7.1,1.3c-0.3,0.5-1,2-1.1,2.5
				c-0.1,0.2-0.1,0.5,0.2,0.4c1.8-1.3,4,0.3,5.6,1.4c0,0,0.1,0.1-0.1,0.2c-1,0.4-3.6,1.7-5.4,1.7c-1.3,0-2.4-0.5-3.1-1.3
				c-0.6-0.6-0.9-1.4-0.5-2.2c0.3-0.5,0-0.8-0.2-0.7c-0.2,0-0.5,0.5-0.7,0.7c-1,2.1-1.9,3.2-3.1,3.2c-0.9,0-2-0.6-2.3-1.4
				c-0.2-0.5-0.1-1.1,0.1-1.7c0.2-0.8-0.1-0.5-0.2-0.5c-0.4,0.2-0.8,0.6-1.1,1c-1.3,1.7-2.2,3-4.5,3c-4.1,0-4.6-3.7-6.1-4.3
				c-0.2-0.1-0.3,0-0.5,0c-1.1,0.2-1.7,0.8-2.3,1.4c-2.2,2.3-2,3.1-3,5.5c-0.8,2-1.6,2.3-2.2,2.3c-1.5,0-2.3-1.5-2.8-3.3
				c-0.5-1.7-0.3-4.5-0.3-4.6c0-0.1-0.3-0.2-0.5,0.4c0,0.1-0.6,2.2-0.2,4.5c0.3,1.5,1,3,2.4,4.2c1,0.8,1.6,0.6,1.7,0.6
				c0.4-0.1,1.6,0,3-4.6c0.9-2,2.8-3.2,3.4-3.4c0.3-0.1,0.5-0.1,0.9,0c1.6,1.1,1.5,2.9,4.1,3.9c3.3,1.1,5.4-1,6.6-3
				c0.1-0.2,0.3-0.3,0.3-0.1c0,1.6,1.3,3,3.2,2.9c0.3,0,1.3,0.2,3.1-3.3c0.1-0.1,0.2-0.1,0.3,0c0.2,0.8,0.4,3.3,3.7,3.7
				c0.3,0,0.7,0.1,0.9,0c0.6-0.1,2.1-0.6,3.5-1.2c1.4-0.6,2.9-1.3,3.5-1.7c0.2-0.1,0.2-0.1,0.5,0c0.4,0.5,1.1,1.1,1.4,1.5
				c0.7,0.7,1.8,1.2,2.8,1.3c1.3,0.1,3.5-1.2,3.9-1.7c0.7-0.8,1.1-1.5,1.3-2.2C204.4,30,204.9,27.8,204.4,23.2z M195,29.2
				c-0.1,0.1-0.2,0.1-0.3,0c-0.3-0.4-0.6-0.8-1.1-1.1c0,0-0.1-0.4,0.1-0.4c1.9-0.1,2.3,0.4,3.3,0.6c0,0,0,0,0,0.1
				C196.5,28.7,195.4,28.9,195,29.2z"/>
		</g>
	</g>
	<path class="st1" d="M105.5,12.9c-0.3-0.4-0.7-0.4-0.9-0.3c-0.7,0.5-0.9,1.7-1.1,2.7c0,0.3-0.2,0.8-0.2,1.2c0,0.1-0.2,0.1-0.2,0
		c-0.1-0.6-0.4-1.1-0.5-1.5c-0.3-0.7-0.8-1.6-1.4-1.8c-0.1-0.1-0.2-0.1-0.5-0.1c-0.1,0.1-0.2,0.1-0.3,0.3c-0.2,0.2-0.4,0.9-0.4,1.2
		c0.3,0.9,1.4,0.5,1.8,1c0.2,0.3,0.4,0.7,0.5,1c0.2,0.5,0.4,1,0.4,1.3c-0.5,0.1-0.9,1.6-0.9,1.8c0,0,0,0.1,0.1,0.1
		c0.1,0,0.1,0,0.1,0c-0.2,0.2-0.5,0.3-0.6,0.7c-0.1,0.4-0.3,1.4-0.3,1.9c0.1,1,0.3,0.3,1,3.5c0.3,1.2,0.1,2.1-0.1,3.5
		c0,0.1,0.1,0.1,0.1,0c0.2-0.6,0.6-1.6,0.5-3.3c-0.1-1.1-0.3-2-0.6-2.8c-0.2-0.5-0.4-1.2-0.5-1.7c-0.1-0.2,0.6-0.9,1.2-1
		c0.8-0.2,1.6,0.2,1.7-0.2c0.1-0.4,0.5-1.2,0.3-1.4c-0.6-0.9-1.4-1.3-1.4-1.4c0-0.1,0-0.1,0-0.2c0.2-0.7,0.5-2.6,1-3.4
		c0.2-0.1,0.4,0,0.5,0c0.2,0.1,0.2,0.4,0.3,0.4c0.1,0.1,0.2,0,0.3-0.2C105.9,13.7,105.8,13.3,105.5,12.9z M103.6,19.3
		c0,0.1-0.3,0-0.7,0.1c-0.3,0.1-0.4,0.2-0.6,0.2c0.1-0.1,0.1-0.6,0.5-0.7C103.1,18.8,103.5,19.2,103.6,19.3z"/>
	<path class="st1" d="M66.4,6.8c-0.3-0.7-0.9-1-1.5-1.3c-0.1-0.1,0-0.5,0.1-0.7h-0.2c-1,1.5-1.9,4.1-0.3,4.7
		C65.2,9.7,66.8,9.1,66.4,6.8z M65.9,8c-0.2,0.1-0.7,0.3-0.8,0.3c-0.4-0.1-0.6-0.2-0.9-0.7c0-0.5,0.1-0.6,0.2-0.8
		c0.1-0.1,0.2-0.1,0.3,0c0.4,0.3,0.9,0.7,1.2,1C66,7.9,66,8,65.9,8z"/>
	<path class="st1" d="M12.5,7.6c-0.1-0.2-0.4-0.9-0.9-1.6c-0.3-0.5-0.7-1-1.3-1.5c-0.1,0-0.3-0.2-0.5,0C9.6,4.6,9.4,5,9.2,5.5
		c-0.1,0.1,0.2,0.2,0,0.4C9,6.2,8.8,6.5,8.6,6.7C8.4,7.2,7.8,7.7,9,8.3c-0.2,0.2-1.4,1.4-2.8,2.5c-0.7,0.5-1.4,0.9-2,1.3
		c-1.6,0.9-1.6,0.9-1.6,1c0,0,0.1,0,0.1,0c0.9,0,1.6-0.8,1.8-0.6c0.3,0,1.8-0.9,1.9-1.1C7,11,8.7,9.8,9.7,8.7c0.1-0.1,0.2-0.1,0.4,0
		c0.5,0.4,1.4,0.8,1.7,0.7C12.3,9.2,12.6,7.8,12.5,7.6z M10.1,7.3C9.9,7.3,9.3,7.1,9.3,7c-0.1-0.1,0-0.2,0.1-0.3
		c0,0,0.1-0.1,0.2-0.1c0.3,0,0.6,0.4,0.6,0.6C10.2,7.2,10.1,7.3,10.1,7.3z M11.8,8.2c-0.2,0.2-1-0.6-1-0.7c-0.1-0.1,0-0.5,0.2-0.4
		C11.1,7.1,11.9,8.2,11.8,8.2z"/>
	<path class="st1" d="M68.3,17.9c-0.4-0.7-1.4-1.2-1.5-1.5c-0.2-0.3,0.1-0.3,0.1-1.4c0-1.6-0.4-1.7-0.7-1.7c-0.4,0-1.9,0.8-1.9,2.2
		c0,0.6,0.8,1.2,1.5,1.7c0.1,0.1,0,0.2-0.1,0.2c-0.2,0.3-0.8,1-1.5,1.6c-0.9,0.7-1.8,1.4-1.8,1.4l0.2,0.8c0,0,0.9-0.9,1.9-1.8
		c0.8-0.7,1.5-1.6,1.6-1.9c0.1-0.1,1,0.6,1.4,1.1C67.8,18.9,68.4,18,68.3,17.9z M66.2,15.9c0,0.1-0.1,0-0.1,0c0,0-0.7-0.6-0.8-0.6
		c0-0.1,0-0.2,0-0.2c0.1-0.2,0.2-0.3,0.4-0.4c0.1,0,0.1,0,0.2,0c0.2,0.1,0.3,0.4,0.3,0.5C66.2,15.4,66.3,15.9,66.2,15.9z M56.3,24.8
		c-0.1,0.1,0,0.1,0.2,0.1c1.3-0.4,4.6-2.4,4.6-2.4l-0.1-0.8C60.9,21.7,57,24.5,56.3,24.8z"/>
	<path class="st1" d="M165,8.4c-0.4-0.4-0.5-0.4-0.6-0.7c-0.2-0.3,0.1-0.3,0.1-1.4c0-1.6-0.4-1.7-0.7-1.7c-0.4,0-1.9,0.8-1.9,2.2
		c0,0.6,0.8,1.2,1.5,1.7c0.1,0.1,0,0.2-0.1,0.2c-1.8,2.2-6.4,5.3-6.4,5.3l0.1,0.5c0,0,2.1-1.1,4-2.6c1.3-1,2.4-2.2,2.9-2.9
		c0.1-0.1,0.2,0.1,0.5,0.4C164.5,9.4,165.1,8.5,165,8.4z M163.8,7.2c0,0.1-0.1,0-0.1,0c0,0-0.7-0.6-0.8-0.6c0-0.1,0-0.2,0-0.2
		c0.1-0.2,0.2-0.3,0.4-0.4c0.1,0,0.1,0,0.2,0c0.2,0.1,0.3,0.4,0.3,0.5C163.8,6.6,163.9,7.1,163.8,7.2z"/>
	<path class="st2" d="M224.8,3.4c1.8,1.8,3.4,3.6,3.3,6.4c0,0.6,0.2,0.7,0.7,0.5c2.8-1.1,5.7-2.3,8.5-3.4c2.4-0.9,4.7-1.8,7.1-2.7
		c0.2-0.1,0.5-0.1,0.6,0c0.1,0.1,0.1,0.4,0.1,0.6c-0.2,0.7-0.6,1.2-1.1,1.7c-0.5,0.5-0.7,1.3-1.1,2c-0.2,0.3-0.4,0.7-0.4,1
		c0,0.3,0.2,0.7,0.4,0.9c0,0.1,0.5-0.1,0.7-0.2c0.1,0,0.2-0.1,0.3-0.2c0.2,0.8-0.2,1.9-0.9,2.2c-0.6,0.3-1.3-0.2-1.4-1
		c-0.2-1.3,0.3-2.4,0.8-3.5c0.1-0.2,0.1-0.4,0.2-0.6c-0.2,0-0.5-0.1-0.7,0c-1.8,0.7-3.5,1.4-5.3,2.1c-1.6,0.6-3.3,1.3-4.9,1.9
		c-1.1,0.4-2.2,1-3.3,1.4c-0.7,0.3-1.3,0.6-2,0.8c-0.6,0.2-1,0.5-1.2,1.3c-0.2,0.8-0.6,1.5-0.9,2.3c-0.3,0.7-0.5,1.3-0.7,2
		c-0.2,0.5,0.3,1.2,0.7,1.4c0.5,0.2,0.8,0,1-0.5c0-0.1,0.2-0.2,0.3-0.3c0.1,0.1,0.2,0.2,0.2,0.3c0.2,0.7-0.5,2.3-1.1,2.7
		c-0.9,0.6-2.1,0-2.3-1.1c-0.4-2,0.6-3.6,1.3-5.3c0.2-0.6,0.5-1.1,0.8-1.7c0,0-0.1-0.1-0.1-0.1c-0.2,0.1-0.5,0.2-0.7,0.3
		c-0.4,0.2-0.8,0.4-1.2,0.6c-0.2,0.1-0.5,0.1-0.8,0.1c0-0.3,0-0.5,0.1-0.8c0.1-1.5,1.4-1.7,2.4-2.3c0.9-0.5,1.8-0.8,2.7-1.2
		c0.4-0.2,0.5-0.5,0.4-1c-0.4-1.7-1.2-3.1-2.5-4.3c-0.8-0.8-0.8-1.4-0.4-2.3C224.7,3.4,224.8,3.4,224.8,3.4z"/>
	<path class="st2" d="M228.2,30.7c-0.3,0.4-0.5,0.7-0.8,1c-1.1,1.3-2.3,2.2-4.1,2.1c-1.2-0.1-2.2-0.6-3-1.5
		c-0.5-0.5-0.9-1.1-1.3-1.6c-0.9-0.9-1.7-0.9-2.6,0c-1.2,1.1-1.8,2.6-2.4,4.1c-0.4,1-0.8,2.1-1.4,3c-0.8,1.4-2.4,1.4-3.6,0.5
		c-1.3-1.1-1.5-2.5-1.6-3.9c-0.1-1.3,0.2-2.7,0.3-4c0-0.1,0.1-0.1,0.3-0.2c0,0.4,0,0.8,0,1.2c0.1,1,0,2.1,0.3,3
		c0.2,0.7,0.7,1.4,1.2,1.9c0.8,0.9,1.8,0.8,2.5-0.2c0.8-1.2,1.5-2.4,2.1-3.7c0.7-1.5,1.4-3.1,2.7-4.2c0.2-0.1,0.3-0.3,0.5-0.4
		c1.1-0.7,1.6-0.7,2.4,0.4c0.6,0.7,1.1,1.5,1.8,2.1c0.5,0.5,1.3,0.8,2,0.9c2.4,0.4,3.9-0.8,5-2.8c0.1-0.3,0.3-0.5,0.5-0.7
		c0.1-0.1,0.3-0.2,0.4-0.1c0.1,0,0.2,0.2,0.1,0.4c-0.1,1.9,1.3,2.9,3.2,2.4c1.6-0.5,2.6-1.7,3.5-3c0.2-0.3,0.4-0.6,0.7-0.8
		c0.3-0.2,0.7,0,0.7,0.3c-0.3,1.9,1,2.6,2.3,3c1.9,0.7,3.9,0.8,5.9,0.7c1.4-0.1,2.9-0.2,4.3-0.3c1.9-0.2,3.9-0.4,5.8-0.6
		c2.7-0.3,5.4-0.6,8.1-1c2.1-0.3,4.1-0.6,6.2-1c0.8-0.1,1.6-0.3,2.4-0.4c0.6-0.1,0.6-0.3,0.3-0.7c-1.2-1.5-2.8-2.2-4.6-2.5
		c-2.8-0.4-5.6,0.2-8.4,0.5c-2,0.2-4,0.4-6,0.6c-2.1,0.2-4.2,0.5-6.2,0.6c-2.4,0.1-4.8,0.3-7.2-0.4c-1.5-0.4-2.1-1.4-1.7-2.9
		c0.4-1.6,1.3-2.9,2.5-4c1.8-1.8,4-3.1,6.1-4.3c1.5-0.9,3-1.6,4.7-1.9c0.4-0.1,0.9-0.1,1.4-0.1c0.8,0,1.1,0.3,1,1.1
		c-0.1,0.6-0.3,1.2-0.4,1.8c-0.1,0.4-0.5,0.5-0.8,0.1c-0.4-0.5-0.9-0.6-1.5-0.4c-1.4,0.5-2.8,0.8-4,1.4c-2.3,1.1-4.5,2.5-6.4,4.2
		c-0.2,0.2-0.4,0.4-0.6,0.7c-0.6,0.7-0.6,1,0.2,1.5c0.5,0.3,1,0.4,1.5,0.5c2.6,0.5,5.2,0.5,7.8,0.2c2.6-0.3,5.1-0.5,7.7-0.7
		c2.6-0.3,5.1-0.6,7.7-0.8c2.2-0.2,4.5-0.3,6.6,0.9c1.3,0.7,2.5,1.5,2.9,3.1c0.1,0.5,0,1.1-0.2,1.6c-0.2,0.6-0.5,1.2-0.9,1.8
		c-0.5,0.9-0.6,1.8,0.1,2.7c0.7,0.9,1.7,0.7,2.6,0.5c0.6-0.1,1.2-0.5,1.6-0.9c0.6-0.7,1.1-1.5,1.7-2.2c0.4-0.5,0.8-0.9,1.2-1.3
		c0.2-0.2,0.4-0.5,0.6-0.7c0.8-1,2.1-1.5,2.9-1c0.6,0.4,1.2,1.1,1.5,1.7c0.4,0.7,0.4,1.6,0.5,2.5c0.1,1.1-0.5,1.9-1.2,2.5
		c-0.3,0.2-0.9,0.2-1.3,0.1c-1.2-0.4-2.3-1-3.4-1.6c-0.5-0.3-0.7-0.2-1,0.3c-0.6,0.9-1.2,1.7-1.9,2.5c-1,1-2.8,1.5-4.1,0.5
		c-0.7-0.6-1.1-1.4-1.1-2.3c0-0.6,0.1-1.2,0.1-1.8c0.1-0.5,0-0.7-0.6-0.6c-1.4,0.3-2.9,0.5-4.3,0.7c-2,0.3-4,0.7-6,1
		c-2.3,0.4-4.7,0.7-7,1c-1.9,0.2-3.9,0.4-5.8,0.6c-1.9,0.2-3.8,0.3-5.7,0.3c-1.9,0-3.8-0.3-5.3-1.5c-0.5-0.4-0.8-1.1-1.1-1.6
		c-0.1-0.2-0.3-0.5-0.4-0.5c-0.2,0-0.4,0.2-0.6,0.4c-0.8,1.1-1.7,2.2-2.9,2.8c-1.1,0.5-2.3,0.6-3.3-0.2c-0.4-0.3-0.7-0.8-1-1.2
		C228.4,31.2,228.4,31,228.2,30.7z M281.8,28.8c0.8,0.3,1.5,0.6,2.2,0.8c0,0,0.3-0.3,0.3-0.4C284.1,28.6,282.6,28.2,281.8,28.8z"/>
	<path class="st2" d="M262.9,11.7c-1.4,0.4-2.7,0.8-4,1.1c0-0.1-0.1-0.2-0.1-0.3c0.2-0.2,0.5-0.4,0.7-0.6c1.3-0.8,2.7-1.5,4-2.2
		c0.2-0.1,0.4-0.2,0.6-0.3c0.1-0.1,0.3-0.3,0.3-0.4c0-0.1-0.3-0.3-0.4-0.3c-1.4,0-2.8-0.1-4.3-0.1c0,0-0.1,0-0.1,0
		c-0.4-0.1-0.7-0.1-1.1-0.2c0.1-0.3,0.2-0.7,0.3-1c0.6-1.7,1.9-2.2,3.6-2.1c1.2,0.1,2.4,0.1,3.6,0.2c0.1,0,0.3,0,0.4,0.1
		c1.3,0.4,1.5,0.8,0.7,1.9c-0.8,1.3-1.7,2.5-2.9,3.4c-0.8,0.6-0.8,1.5-1.1,2.2c-0.1,0.2-0.2,0.5-0.3,0.7c-0.3,0.8-0.1,1.6,0.7,2
		c0.4,0.2,0.6-0.1,0.8-0.4c0.1-0.2,0.4-0.3,0.6-0.5c0,0.3,0,0.5,0,0.8c-0.1,0.3-0.2,0.5-0.3,0.8c-0.2,0.8-0.8,1.3-1.4,1.3
		c-0.5,0-1.4-0.8-1.5-1.4c0-0.9,0.1-1.7,0.2-2.6c0.1-0.5,0.4-1,0.6-1.5C262.7,12.3,262.7,12.1,262.9,11.7z"/>
	<path class="st2" d="M288.3,3.6c0.5,0,0.6,0.3,0.5,0.8c-0.3,1-1.1,1.4-1.9,1.7c-3.1,1.2-6.1,2.5-9.2,3.9c-2.6,1.2-5.3,2.4-7.9,3.6
		c-0.4,0.2-0.7,0.4-1.1,0.5c-0.4,0.1-0.6-0.1-0.5-0.5c0.2-0.9,0.7-1.6,1.6-2c2.9-1.3,5.7-2.7,8.5-3.9c2.9-1.3,5.9-2.4,8.8-3.6
		C287.7,3.9,288,3.7,288.3,3.6z"/>
	<path class="st2" d="M282.3,16.6c0.1-1.5,0.5-2.9,1.3-4.1c0.2-0.3,0.5-0.7,0.9-0.8c0.7-0.2,1.6,0.9,1.4,1.6
		c-0.1,0.2-0.1,0.5-0.3,0.7c-0.2,0.4-0.5,0.4-0.9,0.2c-0.6-0.4-0.9-0.4-1.2,0.3c-0.3,0.9-0.4,1.8-0.6,2.7c-0.1,0.8-0.2,1.6-0.3,2.5
		c0,0.2-0.1,0.5-0.2,0.7c-0.1,0.1-0.3,0.3-0.4,0.3c-0.1,0-0.3-0.2-0.3-0.4c-0.4-0.9-0.7-1.8-1.1-2.7c-0.3-0.6-0.8-0.9-1.4-1.1
		c-0.6-0.2-1.2-0.5-1.7-0.9c-0.2-0.1-0.2-0.5-0.2-0.8c0-0.2,0.2-0.5,0.2-0.7c0.3-1.1,1.2-1.4,1.9-0.7c0.8,0.8,1.4,1.7,2,2.6
		c0.2,0.3,0.4,0.5,0.5,0.8C282.2,16.7,282.3,16.6,282.3,16.6z"/>
	<path class="st2" d="M219.2,18.6c-1.3-0.7-1.3-0.7-2,0.5c-0.3,0.4-0.6,0.5-1,0.2c-0.5-0.3-1-0.5-1.5-0.9c-0.4-0.2-0.6-0.2-0.8,0.2
		c-0.3,0.7-0.7,1.3-1.1,2c0.2,0.1,0.3,0.2,0.4,0.3c0.1,0,0.3,0,0.5,0.1c0.4,0.3,0.9,0.5,1.3,0.8c0.4,0.2,0.7,0.2,0.9-0.2
		c0.2-0.3,0.4-0.6,0.6-1c0.2-0.4,0.5-0.5,0.9-0.2c0.4,0.3,0.7,0.5,1.1,0.7c0.9,0.6,0.9,0.6,1.5-0.4
		C220.9,19.3,221.1,19.7,219.2,18.6z"/>
	<path class="st2" d="M269,42.4c-0.2-0.6,0.3-0.8,0.7-0.9c0.9-0.4,1.9-0.7,2.8-1.1c1.9-0.8,3.8-1.7,5.8-2.6c0.9-0.4,1.4-1.2,2-1.9
		c0.3-0.3,0.6-0.7,0.9-0.9c0.6-0.4,1-0.2,1.3,0.4c0.2,0.5,0.3,1.1,0.3,1.7c0,1-0.7,1.4-1.5,0.9c-0.8-0.5-1.2-0.2-1.8,0.3
		c-0.7,0.6-1.5,1-2.3,1.4c-1.3,0.6-2.6,1.1-3.9,1.6c-1,0.3-2,0.5-2.9,0.8C269.8,42.1,269.5,42.3,269,42.4z"/>
	<path class="st2" d="M236.9,20c-0.3,0.5-0.6,1-0.9,1.5c-0.5,0.7-0.5,0.7-1.3,0.3c-0.4-0.3-0.9-0.5-1.3-0.8
		c-0.4-0.3-0.6-0.1-0.8,0.2c-0.2,0.3-0.4,0.7-0.6,1c-0.2,0.4-0.5,0.4-0.9,0.2c-0.6-0.3-1.3-0.7-1.9-1c-0.1-0.1-0.2-0.4-0.1-0.5
		c0.3-0.7,0.7-1.3,1.1-1.9c0.1-0.1,0.4-0.1,0.6,0c0.6,0.3,1.1,0.6,1.7,0.9c0.4,0.2,0.6,0.1,0.9-0.2c0.8-1.3,0.8-1.3,2.1-0.5
		c0.3,0.2,0.7,0.4,1,0.6c0.2,0.1,0.4,0.1,0.5,0.2C237,19.8,237,19.9,236.9,20z"/>
	<path class="st2" d="M234.3,38.8c0.1-1.4,0.7-2.6,1.3-3.8c0.1-0.1,0.3-0.2,0.4-0.3c0.1,0.2,0.2,0.3,0.3,0.5
		c0.2,0.2,0.3,0.5,0.5,0.7c1.6,1,1.6,2.1,0.8,3.8c-0.5,1-2,1.3-2.8,0.4C234.6,39.7,234.5,39.2,234.3,38.8z M236.5,38.8
		c0.1-0.1,0.3-0.2,0.5-0.4c-0.1-0.2-0.3-0.4-0.4-0.6c-0.2-0.2-0.4-0.4-0.6-0.5c-0.1-0.1-0.4-0.2-0.5-0.1c-0.1,0.1-0.2,0.3-0.3,0.5
		C235.2,38.2,235.8,38.8,236.5,38.8z"/>
	<path class="st2" d="M253.6,39.8c-0.1-0.2-0.3-0.5-0.2-0.6c0.3-0.4,0.6-0.8,0.9-1c2-0.9,4-1.7,6-2.6c0.6-0.3,1.2-0.5,1.9-0.7
		c0.2-0.1,0.4,0,0.6,0c0,0.2,0.1,0.5,0,0.6c-0.2,0.3-0.5,0.6-0.8,0.7c-1.3,0.6-2.7,1.1-4,1.7c-1.3,0.5-2.5,1.1-3.8,1.7
		C254,39.6,253.9,39.7,253.6,39.8z"/>
	<path class="st2" d="M268,31.5c0,0.3,0,0.5-0.1,0.8c-0.4,1.3-0.9,2.5-1.4,3.8c-0.2,0.6,0.1,1.5,0.7,1.8c0.5,0.2,0.7-0.1,1-0.5
		c0.1-0.2,0.3-0.3,0.5-0.4c0,0.2,0.1,0.4,0.1,0.6c-0.1,0.4-0.3,0.7-0.4,1.1c-0.3,0.7-0.9,1.3-1.5,1.2c-0.5-0.1-1.5-1.1-1.4-1.6
		c0.1-0.8,0.1-1.7,0.3-2.5c0.5-1.4,1.1-2.7,1.7-4c0.1-0.1,0.2-0.2,0.3-0.3C267.9,31.4,267.9,31.5,268,31.5z"/>
	<path class="st2" d="M228.6,40.5c-0.5-0.3-0.9-0.5-1.3-0.8c-1.3-0.8-1.3-0.8-0.6-2.1c0.1-0.2,0.2-0.4,0.4-0.6
		c0.2-0.4,0.5-0.4,0.9-0.2c0.6,0.3,1.1,0.6,1.7,1c0.4,0.2,0.5,0.5,0.2,0.9c-0.3,0.5-0.5,1-0.8,1.4C228.9,40.2,228.8,40.3,228.6,40.5
		z"/>
	<path class="st2" d="M216.5,38.8c0.4-1,0.7-2,1.1-2.9c0.1-0.3,0.3-0.7,0.5-1c0.1-0.1,0.4-0.1,0.6-0.1c0,0.2,0.1,0.4,0.1,0.6
		c-0.2,0.6-0.5,1.1-0.7,1.7c-0.1,0.4-0.3,0.8-0.3,1.2c0,0.2,0.2,0.5,0.4,0.7c0.2-0.1,0.3-0.2,0.5-0.3c0.1-0.1,0.3-0.2,0.4-0.2
		c0.1,0,0.2,0.2,0.3,0.4c0.1,0.5-0.6,1.7-1,1.9c-0.6,0.3-1.6-0.3-1.7-1.1c0-0.2,0-0.4,0-0.6C216.6,38.8,216.5,38.8,216.5,38.8z"/>
	<path class="st2" d="M244.1,39.3c0-1.5,0.8-2.8,1.3-4.1c0.1-0.2,0.2-0.5,0.4-0.7c0.1-0.1,0.2-0.1,0.3-0.2c0.1,0.1,0.2,0.2,0.1,0.3
		c-0.1,0.2-0.2,0.4-0.3,0.7c-0.3,0.9-0.7,1.9-1,2.8c-0.2,0.5,0.3,1.3,0.8,1.4c0.2,0,0.4-0.2,0.6-0.4c0.2-0.1,0.3-0.2,0.5-0.3
		c0,0.2,0,0.4,0,0.6c-0.1,0.2-0.2,0.5-0.3,0.7c-0.2,0.7-0.8,1.1-1.3,1.1c-0.5-0.1-1.2-0.8-1.2-1.4C244.1,39.6,244.1,39.5,244.1,39.3
		z"/>
	<path class="st2" d="M276.2,24.8c0.1-1.5,0.8-2.7,1.4-4c0-0.1,0.3-0.2,0.4-0.2c0.1,0,0.2,0.3,0.2,0.4c-0.1,0.4-0.2,0.7-0.4,1.1
		c-0.2,0.5-0.4,1-0.6,1.5c-0.2,0.4-0.1,0.8,0.3,1.1c0.4,0.3,0.5-0.1,0.7-0.2c0.1-0.1,0.3-0.1,0.4-0.1c0,0.1,0.1,0.3,0.1,0.4
		c-0.1,0.4-0.2,0.8-0.4,1.1c-0.2,0.3-0.6,0.6-0.9,0.5c-0.4-0.1-0.8-0.4-1-0.7C276.3,25.4,276.3,25,276.2,24.8z"/>
	<path class="st2" d="M251.4,15.6c0,0.2,0,0.4-0.1,0.6c-0.3,0.8-0.6,1.7-0.9,2.5c-0.1,0.2,0,0.6,0.2,0.8c0.2,0.4,0.5,0.5,0.9,0
		c0.1-0.1,0.2-0.2,0.4-0.3c0.2,0.6-0.3,1.7-0.8,1.9c-0.5,0.2-1.3-0.4-1.4-1.1c0-0.3,0-0.7,0.1-1c0.4-1.2,0.9-2.4,1.4-3.7
		C251.2,15.5,251.3,15.5,251.4,15.6z"/>
	<path class="st1" d="M219.2,8.6c-0.4-0.4-0.5-0.4-0.6-0.7c-0.2-0.3,0.1-0.3,0.1-1.4c0-1.6-0.4-1.7-0.7-1.7c-0.4,0-1.9,0.8-1.9,2.2
		c0,0.6,0.8,1.2,1.5,1.7c0.1,0.1,0,0.2-0.1,0.2c-0.7,0.8-1.7,2-2.8,3c-1.9,1.8-3.8,3.5-3.8,3.6c0,0.1,0.1,0.2,0.2,0.1
		c0.4-0.3,1.7-1.2,4-3.3c1.1-1,2.4-2.4,2.9-3.2c0.1-0.1,0.2,0.1,0.5,0.4C218.7,9.6,219.3,8.8,219.2,8.6z M218,7.4c0,0.1-0.1,0-0.1,0
		c0,0-0.7-0.6-0.8-0.6c0-0.1,0-0.2,0-0.2c0.1-0.2,0.2-0.3,0.4-0.4c0.1,0,0.1,0,0.2,0c0.2,0.1,0.3,0.4,0.3,0.5
		C218,6.9,218.1,7.4,218,7.4z"/>
</g>
</svg>
